<svg xmlns="http://www.w3.org/2000/svg" xmlns:xlink="http://www.w3.org/1999/xlink" width="60" zoomAndPan="magnify" viewBox="0 0 45 48" height="64" preserveAspectRatio="xMidYMid meet" version="1.0"><defs><clipPath id="a3c8315bc8"><path d="M 27 16 L 44.539062 16 L 44.539062 19 L 27 19 Z M 27 16 " clip-rule="nonzero"/></clipPath><clipPath id="899984acdc"><path d="M 0.675781 3 L 44.539062 3 L 44.539062 42.371094 L 0.675781 42.371094 Z M 0.675781 3 " clip-rule="nonzero"/></clipPath></defs><path fill="#ff0000" d="M 19.699219 33.570312 C 19.695312 33.570312 19.6875 33.570312 19.679688 33.570312 C 19.628906 33.566406 19.585938 33.535156 19.566406 33.488281 C 19.210938 32.636719 18.503906 30.492188 19.675781 28.890625 C 19.699219 28.855469 19.742188 28.832031 19.785156 28.832031 C 19.789062 28.832031 19.789062 28.832031 19.792969 28.832031 C 19.832031 28.832031 19.871094 28.851562 19.898438 28.878906 C 20.066406 29.066406 20.261719 29.191406 20.472656 29.25 C 20.582031 29.277344 20.703125 29.296875 20.832031 29.296875 C 21.113281 29.296875 21.429688 29.222656 21.71875 29.089844 C 21.738281 29.082031 21.753906 29.078125 21.78125 29.078125 C 21.796875 29.078125 21.820312 29.082031 21.835938 29.089844 C 21.875 29.109375 21.902344 29.140625 21.910156 29.179688 C 22.027344 29.585938 22.128906 30.402344 21.480469 31.296875 C 20.824219 32.210938 20.152344 33.085938 19.8125 33.523438 C 19.785156 33.546875 19.746094 33.570312 19.699219 33.570312 Z M 19.699219 33.570312 " fill-opacity="1" fill-rule="nonzero"/><path fill="#ff0000" d="M 25.695312 30.164062 C 24.613281 30.164062 23.128906 29.957031 22.1875 28.972656 C 22.160156 28.945312 22.148438 28.910156 22.152344 28.871094 C 22.152344 28.832031 22.171875 28.796875 22.199219 28.773438 C 22.242188 28.742188 22.273438 28.703125 22.308594 28.671875 C 22.492188 28.484375 22.609375 28.277344 22.660156 28.058594 C 22.675781 27.996094 22.734375 27.953125 22.796875 27.953125 C 22.808594 27.953125 22.816406 27.953125 22.824219 27.957031 C 22.835938 27.957031 22.84375 27.960938 22.847656 27.960938 C 22.867188 27.960938 22.886719 27.957031 22.90625 27.949219 C 22.914062 27.945312 23.136719 27.828125 23.496094 27.828125 C 23.878906 27.828125 24.464844 27.957031 25.113281 28.589844 C 25.636719 29.105469 26.183594 29.527344 26.738281 29.851562 C 26.789062 29.882812 26.820312 29.945312 26.804688 30 C 26.789062 30.058594 26.742188 30.101562 26.683594 30.105469 C 26.355469 30.148438 26.023438 30.164062 25.695312 30.164062 Z M 25.695312 30.164062 " fill-opacity="1" fill-rule="nonzero"/><path fill="#ff0000" d="M 22.59375 27.089844 C 22.542969 27.089844 22.492188 27.0625 22.46875 27.015625 C 22.113281 26.320312 21.582031 26.09375 21.429688 26.042969 C 21.421875 26.035156 21.410156 26.03125 21.402344 26.027344 C 21.402344 26.027344 21.398438 26.023438 21.398438 26.023438 C 21.355469 26 21.328125 25.953125 21.328125 25.902344 C 21.328125 25.851562 21.351562 25.808594 21.398438 25.78125 C 21.609375 25.652344 21.769531 25.503906 21.882812 25.328125 C 21.90625 25.289062 21.949219 25.265625 21.992188 25.261719 C 21.996094 25.261719 22 25.261719 22 25.261719 C 22.042969 25.261719 22.082031 25.28125 22.109375 25.308594 C 22.140625 25.347656 22.195312 25.410156 22.253906 25.492188 C 22.261719 25.496094 22.261719 25.5 22.265625 25.503906 C 22.269531 25.515625 22.273438 25.523438 22.285156 25.527344 C 22.289062 25.53125 22.292969 25.539062 22.292969 25.542969 C 22.523438 25.867188 22.792969 26.386719 22.742188 26.960938 C 22.734375 27.019531 22.6875 27.070312 22.628906 27.085938 C 22.609375 27.089844 22.597656 27.089844 22.59375 27.089844 Z M 22.59375 27.089844 " fill-opacity="1" fill-rule="nonzero"/><path fill="#ff0000" d="M 19.175781 27.765625 C 19.160156 27.765625 19.140625 27.761719 19.121094 27.753906 C 17.460938 27.03125 14.664062 26.777344 12.621094 26.597656 C 11.804688 26.519531 10.878906 26.441406 10.417969 26.34375 C 10.363281 26.332031 10.3125 26.285156 10.304688 26.226562 C 10.296875 26.167969 10.328125 26.109375 10.378906 26.082031 C 10.789062 25.867188 11.148438 25.832031 11.496094 25.792969 C 11.96875 25.742188 12.414062 25.691406 12.863281 25.21875 C 13.148438 24.921875 13.519531 24.761719 13.929688 24.761719 C 14.292969 24.761719 14.570312 24.886719 14.597656 24.898438 C 14.613281 24.902344 14.628906 24.90625 14.640625 24.90625 C 16.59375 25.109375 18.652344 26.003906 19.445312 26.375 C 19.480469 26.390625 19.507812 26.421875 19.519531 26.460938 C 19.535156 26.496094 19.53125 26.535156 19.511719 26.566406 C 19.4375 26.710938 19.371094 26.875 19.320312 27.054688 C 19.28125 27.183594 19.28125 27.375 19.3125 27.597656 C 19.324219 27.648438 19.300781 27.699219 19.261719 27.734375 C 19.238281 27.757812 19.207031 27.765625 19.175781 27.765625 Z M 19.175781 27.765625 " fill-opacity="1" fill-rule="nonzero"/><path fill="#ff0000" d="M 20.835938 29.054688 C 20.726562 29.054688 20.628906 29.039062 20.539062 29.015625 C 20.199219 28.921875 19.96875 28.613281 19.832031 28.371094 C 19.554688 27.875 19.488281 27.320312 19.542969 27.121094 C 19.625 26.863281 19.722656 26.640625 19.847656 26.476562 C 19.847656 26.476562 19.847656 26.46875 19.851562 26.46875 C 19.851562 26.464844 19.855469 26.464844 19.855469 26.460938 C 19.855469 26.457031 19.859375 26.457031 19.859375 26.453125 C 19.992188 26.277344 20.144531 26.15625 20.316406 26.09375 C 20.417969 26.054688 20.519531 26.042969 20.628906 26.042969 C 20.996094 26.042969 21.304688 26.238281 21.304688 26.238281 C 21.3125 26.242188 21.320312 26.246094 21.332031 26.25 C 21.363281 26.261719 22.09375 26.480469 22.414062 27.511719 C 22.527344 27.867188 22.429688 28.214844 22.140625 28.507812 C 21.828125 28.828125 21.289062 29.054688 20.835938 29.054688 Z M 20.835938 29.054688 " fill-opacity="1" fill-rule="nonzero"/><g clip-path="url(#a3c8315bc8)"><path fill="#cccccc" d="M 28.863281 18.441406 C 28.8125 18.441406 28.761719 18.417969 28.722656 18.378906 C 28.339844 17.957031 27.828125 17.574219 27.242188 17.269531 C 27.167969 17.230469 27.125 17.144531 27.148438 17.0625 C 27.167969 16.976562 27.242188 16.921875 27.332031 16.921875 L 43.996094 16.921875 C 44.082031 16.921875 44.15625 16.976562 44.179688 17.054688 C 44.203125 17.136719 44.167969 17.222656 44.097656 17.265625 C 43.40625 17.671875 42.941406 18.175781 42.773438 18.375 C 42.734375 18.417969 42.683594 18.441406 42.625 18.441406 Z M 28.863281 18.441406 " fill-opacity="1" fill-rule="nonzero"/></g><path fill="#cccccc" d="M 28.226562 16.777344 C 28.171875 16.777344 28.113281 16.75 28.078125 16.703125 C 28.039062 16.65625 28.03125 16.59375 28.042969 16.539062 C 28.148438 16.160156 28.472656 15.183594 29.285156 14.210938 C 30.703125 12.519531 32.84375 11.660156 35.648438 11.660156 C 38.445312 11.660156 40.59375 12.527344 42.039062 14.246094 C 42.808594 15.152344 43.164062 16.066406 43.308594 16.535156 C 43.328125 16.589844 43.3125 16.652344 43.28125 16.699219 C 43.242188 16.742188 43.191406 16.773438 43.128906 16.773438 L 28.226562 16.773438 Z M 28.226562 16.777344 " fill-opacity="1" fill-rule="nonzero"/><path fill="#ffffff" d="M 14.589844 16.386719 C 14.558594 16.386719 14.523438 16.375 14.496094 16.355469 C 14.308594 16.25 14.019531 16.121094 13.714844 16.121094 C 13.628906 16.121094 13.542969 16.128906 13.46875 16.152344 C 13.453125 16.15625 13.433594 16.15625 13.421875 16.15625 C 13.386719 16.15625 13.355469 16.148438 13.328125 16.132812 C 13.285156 16.109375 13.25 16.066406 13.238281 16.019531 L 13.019531 15.214844 C 13.015625 15.191406 13.011719 15.167969 13.015625 15.144531 C 13.015625 15.144531 13.015625 15.140625 13.015625 15.140625 C 13.015625 15.125 13.011719 15.113281 13 15.097656 C 12.988281 15.078125 12.976562 15.0625 12.972656 15.039062 L 12.710938 14.0625 C 12.699219 14.03125 12.671875 14.011719 12.644531 14.011719 C 12.636719 14.011719 12.628906 14.011719 12.625 14.015625 C 12.601562 14.019531 12.585938 14.039062 12.582031 14.050781 C 12.578125 14.058594 12.566406 14.078125 12.578125 14.101562 L 12.765625 14.785156 C 12.78125 14.847656 12.765625 14.910156 12.722656 14.957031 C 12.6875 15 12.632812 15.023438 12.582031 15.023438 C 12.574219 15.023438 12.5625 15.023438 12.554688 15.023438 C 10.925781 14.800781 9.890625 14.246094 9.480469 13.371094 C 8.816406 11.984375 9.988281 10.214844 10.003906 10.199219 C 10.015625 10.179688 10.015625 10.152344 10.007812 10.128906 C 10 10.113281 9.171875 8.359375 11.050781 6.183594 C 12.316406 4.710938 14.175781 4.492188 15.171875 4.492188 C 15.707031 4.492188 16.050781 4.550781 16.054688 4.550781 C 16.054688 4.550781 16.0625 4.550781 16.066406 4.550781 C 16.089844 4.550781 16.117188 4.539062 16.128906 4.515625 C 16.15625 4.46875 16.839844 3.386719 18.800781 3.386719 C 19.183594 3.386719 19.585938 3.429688 20.011719 3.507812 C 22.089844 3.898438 22.808594 5.125 23.050781 5.824219 C 23.058594 5.839844 23.0625 5.851562 23.0625 5.867188 C 23.0625 5.875 23.066406 5.886719 23.070312 5.890625 C 23.074219 5.898438 23.082031 5.914062 23.085938 5.925781 C 23.15625 6.160156 23.175781 6.3125 23.175781 6.332031 C 23.175781 6.351562 23.183594 6.371094 23.203125 6.378906 C 23.21875 6.386719 23.230469 6.394531 23.246094 6.394531 C 23.25 6.394531 23.25 6.394531 23.253906 6.394531 C 23.277344 6.386719 23.371094 6.378906 23.515625 6.378906 C 24.199219 6.378906 25.867188 6.621094 26.59375 8.867188 C 26.964844 10.023438 26.777344 11.054688 26.023438 11.933594 C 25.667969 12.347656 25.261719 12.628906 24.988281 12.789062 C 24.960938 12.808594 24.929688 12.816406 24.890625 12.816406 C 24.863281 12.816406 24.835938 12.8125 24.808594 12.800781 C 24.753906 12.773438 24.714844 12.71875 24.707031 12.65625 C 24.601562 11.867188 24.371094 11.558594 24.363281 11.546875 C 24.347656 11.527344 24.328125 11.515625 24.304688 11.515625 C 24.296875 11.515625 24.277344 11.523438 24.265625 11.53125 C 24.246094 11.546875 24.234375 11.570312 24.234375 11.578125 C 24.234375 11.59375 24.234375 11.609375 24.25 11.628906 C 24.253906 11.632812 24.585938 12.066406 24.617188 13.292969 C 24.640625 14.175781 24.257812 14.773438 24.03125 15.046875 C 23.996094 15.089844 23.941406 15.117188 23.886719 15.117188 C 23.886719 15.117188 23.882812 15.117188 23.882812 15.117188 C 23.820312 15.117188 23.769531 15.085938 23.734375 15.039062 C 23.34375 14.484375 22.410156 13.554688 20.585938 13.554688 C 20.492188 13.554688 20.394531 13.558594 20.300781 13.5625 C 18.402344 13.660156 16.957031 14.453125 16.074219 15.101562 C 15.40625 15.597656 14.957031 16.078125 14.75 16.320312 C 14.699219 16.363281 14.648438 16.386719 14.589844 16.386719 Z M 14.589844 16.386719 " fill-opacity="1" fill-rule="nonzero"/><path fill="#ffffff" d="M 21.398438 41.589844 C 21.3125 41.589844 21.238281 41.535156 21.21875 41.457031 C 20.804688 40.011719 19.480469 39.183594 19.082031 38.964844 C 19.023438 38.933594 18.988281 38.871094 18.988281 38.800781 C 18.988281 38.765625 18.988281 38.726562 18.984375 38.695312 C 18.96875 38.445312 18.777344 38.136719 18.417969 37.808594 C 18.363281 37.757812 18.34375 37.675781 18.371094 37.605469 C 18.375 37.589844 18.375 37.578125 18.375 37.566406 C 17.589844 33.683594 16.207031 30.660156 15.800781 29.828125 C 15.777344 29.78125 15.777344 29.722656 15.796875 29.679688 C 15.816406 29.632812 15.855469 29.589844 15.902344 29.570312 L 19.347656 28.21875 C 19.371094 28.210938 19.394531 28.203125 19.417969 28.203125 C 19.488281 28.203125 19.554688 28.242188 19.585938 28.3125 C 19.605469 28.347656 19.628906 28.394531 19.652344 28.441406 C 19.695312 28.523438 19.675781 28.621094 19.605469 28.675781 C 19.597656 28.683594 19.59375 28.6875 19.585938 28.6875 C 18.898438 29.570312 18.683594 30.765625 18.957031 32.136719 C 19.164062 33.171875 19.5625 33.921875 19.582031 33.953125 C 19.59375 33.972656 19.617188 33.984375 19.640625 33.992188 C 19.644531 33.992188 19.644531 33.992188 19.648438 33.992188 C 19.671875 33.992188 19.691406 33.980469 19.703125 33.960938 C 19.703125 33.960938 19.710938 33.953125 19.71875 33.945312 C 19.960938 33.636719 20.8125 32.535156 21.636719 31.390625 C 22.039062 30.839844 22.222656 30.25 22.1875 29.644531 C 22.183594 29.570312 22.222656 29.503906 22.289062 29.472656 C 22.316406 29.457031 22.34375 29.449219 22.378906 29.449219 C 22.414062 29.449219 22.457031 29.464844 22.492188 29.488281 C 23.46875 30.203125 24.769531 30.355469 25.691406 30.355469 C 26.6875 30.355469 27.464844 30.1875 27.554688 30.167969 C 27.582031 30.164062 27.605469 30.136719 27.605469 30.101562 C 27.605469 30.070312 27.585938 30.042969 27.558594 30.03125 C 27.558594 30.03125 27.554688 30.03125 27.554688 30.03125 C 27.445312 29.996094 26.441406 29.613281 25.261719 28.457031 C 24.714844 27.921875 24.113281 27.636719 23.523438 27.636719 C 23.359375 27.636719 23.199219 27.660156 23.046875 27.699219 C 23.027344 27.707031 23.015625 27.710938 22.996094 27.710938 C 22.945312 27.710938 22.890625 27.6875 22.855469 27.648438 C 22.808594 27.597656 22.792969 27.523438 22.816406 27.457031 C 23.019531 26.933594 22.96875 26.371094 22.660156 25.785156 C 22.628906 25.722656 22.632812 25.652344 22.664062 25.597656 C 22.699219 25.542969 22.761719 25.507812 22.824219 25.507812 C 22.824219 25.507812 22.824219 25.507812 22.832031 25.507812 C 23.527344 25.519531 24.84375 25.660156 25.816406 26.4375 C 27.21875 27.566406 30.019531 28.367188 30.136719 28.398438 C 30.140625 28.398438 30.152344 28.40625 30.15625 28.40625 C 30.171875 28.40625 30.179688 28.398438 30.1875 28.394531 C 30.207031 28.386719 30.21875 28.371094 30.222656 28.355469 C 30.238281 28.300781 30.582031 27.109375 31.109375 25.996094 C 31.4375 25.304688 31.765625 24.832031 31.980469 24.558594 C 32.015625 24.515625 32.066406 24.488281 32.121094 24.488281 C 32.125 24.488281 32.125 24.488281 32.132812 24.488281 C 32.183594 24.488281 32.230469 24.507812 32.269531 24.542969 C 32.632812 24.921875 33.605469 25.832031 34.835938 26.164062 C 35.652344 26.382812 36.242188 26.429688 36.589844 26.429688 C 36.6875 26.429688 36.773438 26.421875 36.859375 26.417969 C 36.863281 26.417969 36.871094 26.417969 36.875 26.417969 C 36.921875 26.417969 36.972656 26.4375 37.007812 26.46875 C 37.042969 26.507812 37.066406 26.558594 37.0625 26.613281 C 36.992188 27.757812 36.652344 31.683594 35.109375 34.128906 C 34.058594 35.800781 33.261719 36.453125 32.261719 36.453125 C 31.582031 36.453125 30.800781 36.140625 29.925781 35.761719 C 29.898438 35.75 29.867188 35.730469 29.851562 35.703125 C 29.832031 35.675781 29.8125 35.644531 29.789062 35.621094 L 29.769531 35.59375 C 29.015625 34.5625 28.761719 34.21875 28.644531 32.804688 C 28.621094 32.558594 28.589844 32.320312 28.550781 32.097656 C 28.542969 32.066406 28.511719 32.042969 28.476562 32.042969 C 28.472656 32.042969 28.46875 32.042969 28.464844 32.042969 C 28.425781 32.050781 28.398438 32.082031 28.40625 32.125 C 28.449219 32.34375 28.476562 32.578125 28.5 32.820312 C 28.625 34.269531 28.882812 34.625 29.65625 35.679688 C 29.972656 36.109375 30.363281 36.644531 30.871094 37.425781 C 30.925781 37.507812 30.90625 37.613281 30.835938 37.675781 C 28.140625 39.847656 24.886719 41.203125 21.429688 41.59375 C 21.410156 41.589844 21.402344 41.589844 21.398438 41.589844 Z M 21.398438 41.589844 " fill-opacity="1" fill-rule="nonzero"/><path fill="#ffffff" d="M 13.035156 41.707031 C 12.042969 41.707031 11.015625 41.636719 9.988281 41.492188 C 7.339844 41.128906 5.609375 40.339844 4.699219 39.089844 C 3.96875 38.085938 3.765625 36.789062 4.085938 35.117188 C 4.734375 31.730469 8.335938 27.574219 8.746094 27.113281 C 8.753906 27.097656 8.769531 27.089844 8.78125 27.082031 C 9.339844 26.722656 9.867188 26.539062 10.070312 26.480469 C 10.089844 26.476562 10.105469 26.46875 10.125 26.46875 C 10.144531 26.46875 10.164062 26.476562 10.183594 26.480469 C 10.570312 26.601562 11.351562 26.675781 12.605469 26.785156 C 14.59375 26.964844 17.324219 27.207031 18.949219 27.882812 C 19.023438 27.910156 19.070312 27.980469 19.0625 28.054688 C 19.0625 28.128906 19.015625 28.199219 18.945312 28.226562 L 15.59375 29.546875 C 15.574219 29.558594 15.5625 29.570312 15.554688 29.589844 C 15.546875 29.609375 15.550781 29.625 15.5625 29.644531 C 15.574219 29.679688 17.207031 32.789062 18.160156 37.171875 C 18.171875 37.246094 18.144531 37.324219 18.078125 37.367188 C 18.046875 37.386719 18.011719 37.398438 17.976562 37.398438 C 17.9375 37.398438 17.898438 37.390625 17.867188 37.367188 C 17.332031 36.992188 16.621094 36.601562 15.859375 36.261719 C 14.378906 35.609375 12.792969 35.171875 11.277344 34.992188 C 11.175781 34.984375 11.105469 34.894531 11.109375 34.796875 L 11.199219 33.203125 C 11.199219 33.179688 11.191406 33.160156 11.183594 33.152344 C 11.171875 33.140625 11.160156 33.128906 11.132812 33.128906 C 11.09375 33.128906 11.0625 33.15625 11.058594 33.195312 L 10.96875 34.769531 C 10.964844 34.820312 10.941406 34.867188 10.902344 34.898438 C 10.871094 34.929688 10.824219 34.945312 10.78125 34.945312 C 10.777344 34.945312 10.773438 34.945312 10.765625 34.945312 C 10.460938 34.921875 10.160156 34.910156 9.867188 34.910156 C 9.765625 34.910156 9.664062 34.910156 9.566406 34.914062 C 9.527344 34.914062 9.492188 34.945312 9.492188 34.984375 C 9.492188 35.019531 9.527344 35.054688 9.566406 35.054688 C 9.664062 35.050781 9.765625 35.050781 9.867188 35.050781 C 11.699219 35.050781 13.863281 35.539062 15.796875 36.386719 C 17.558594 37.160156 18.8125 38.117188 18.847656 38.710938 C 18.910156 39.761719 18.140625 40.734375 17.902344 41.003906 C 17.878906 41.027344 17.851562 41.046875 17.824219 41.058594 C 17.5 41.167969 15.773438 41.707031 13.035156 41.707031 Z M 13.035156 41.707031 " fill-opacity="1" fill-rule="nonzero"/><path fill="#ffcd92" d="M 19.6875 26.21875 C 19.667969 26.21875 19.644531 26.214844 19.625 26.203125 C 19.007812 25.90625 16.839844 24.917969 14.730469 24.683594 C 14.675781 24.679688 14.628906 24.636719 14.613281 24.585938 C 14.597656 24.535156 14.613281 24.472656 14.660156 24.4375 C 15.121094 24.058594 15.332031 23.527344 15.425781 23.144531 C 15.4375 23.097656 15.472656 23.058594 15.523438 23.042969 C 15.539062 23.039062 15.550781 23.039062 15.566406 23.039062 C 15.605469 23.039062 15.636719 23.050781 15.664062 23.074219 C 15.964844 23.359375 16.324219 23.605469 16.734375 23.816406 C 17.628906 24.273438 18.773438 24.527344 19.945312 24.527344 C 20.554688 24.527344 21.148438 24.460938 21.707031 24.328125 C 21.71875 24.324219 21.730469 24.324219 21.742188 24.324219 C 21.773438 24.324219 21.808594 24.335938 21.832031 24.359375 C 21.863281 24.386719 21.882812 24.429688 21.882812 24.472656 C 21.851562 25.09375 21.648438 25.417969 21.128906 25.664062 C 21.101562 25.675781 21.078125 25.699219 21.066406 25.734375 C 21.046875 25.792969 20.992188 25.835938 20.929688 25.835938 C 20.921875 25.835938 20.910156 25.835938 20.902344 25.832031 C 20.8125 25.8125 20.722656 25.804688 20.632812 25.804688 C 20.496094 25.804688 20.371094 25.828125 20.246094 25.867188 C 20.082031 25.929688 19.929688 26.027344 19.800781 26.167969 C 19.761719 26.203125 19.722656 26.21875 19.6875 26.21875 Z M 19.6875 26.21875 " fill-opacity="1" fill-rule="nonzero"/><path fill="#ffcd92" d="M 19.929688 24.296875 C 18.796875 24.296875 17.691406 24.054688 16.828125 23.613281 C 16.28125 23.332031 15.835938 22.984375 15.492188 22.566406 C 15.484375 22.5625 15.480469 22.558594 15.480469 22.554688 C 15.476562 22.542969 15.46875 22.535156 15.457031 22.527344 C 15.453125 22.519531 15.449219 22.515625 15.445312 22.511719 C 14.800781 21.699219 14.589844 20.675781 14.808594 19.472656 C 14.816406 19.425781 14.792969 19.375 14.75 19.351562 C 14.730469 19.339844 14.710938 19.335938 14.6875 19.335938 C 14.660156 19.335938 14.636719 19.347656 14.613281 19.363281 C 14.460938 19.484375 14.292969 19.546875 14.113281 19.546875 C 13.878906 19.546875 13.671875 19.4375 13.542969 19.347656 C 12.960938 18.941406 12.550781 17.980469 12.863281 17.078125 C 13.011719 16.664062 13.226562 16.417969 13.5 16.339844 C 13.566406 16.320312 13.636719 16.308594 13.707031 16.308594 C 14.058594 16.308594 14.421875 16.523438 14.5625 16.636719 C 14.585938 16.65625 14.609375 16.664062 14.636719 16.664062 C 14.640625 16.664062 14.648438 16.664062 14.652344 16.664062 C 14.683594 16.660156 14.710938 16.640625 14.730469 16.617188 C 14.75 16.589844 16.769531 13.941406 20.285156 13.753906 C 20.375 13.75 20.46875 13.746094 20.558594 13.746094 C 22.703125 13.746094 23.542969 15.089844 23.6875 15.359375 C 23.699219 15.375 23.703125 15.386719 23.703125 15.40625 L 24.070312 17.726562 C 24.074219 17.761719 24.09375 17.789062 24.121094 17.808594 C 24.132812 17.8125 24.136719 17.816406 24.140625 17.824219 C 24.3125 17.988281 24.898438 19.070312 24.839844 19.480469 C 24.839844 19.492188 24.839844 19.496094 24.839844 19.5 L 24.84375 20.730469 C 24.84375 21.925781 24.210938 22.683594 23.941406 22.953125 C 23.246094 23.652344 22.058594 24.128906 20.679688 24.265625 C 20.441406 24.289062 20.1875 24.296875 19.929688 24.296875 Z M 19.929688 24.296875 " fill-opacity="1" fill-rule="nonzero"/><path fill="#ffcd92" d="M 19.300781 41.664062 C 18.761719 41.664062 18.207031 41.640625 17.644531 41.589844 C 17.578125 41.585938 17.523438 41.535156 17.519531 41.464844 C 17.511719 41.398438 17.550781 41.335938 17.617188 41.316406 C 17.804688 41.257812 17.917969 41.21875 17.953125 41.203125 C 17.964844 41.199219 17.980469 41.191406 17.992188 41.175781 C 18.003906 41.167969 18.765625 40.359375 18.980469 39.339844 C 18.988281 39.292969 19.023438 39.253906 19.0625 39.234375 C 19.082031 39.226562 19.101562 39.226562 19.121094 39.226562 C 19.148438 39.226562 19.171875 39.234375 19.195312 39.25 C 19.71875 39.582031 20.652344 40.304688 21.011719 41.414062 C 21.023438 41.457031 21.015625 41.496094 20.992188 41.535156 C 20.96875 41.570312 20.929688 41.589844 20.886719 41.59375 C 20.359375 41.640625 19.828125 41.664062 19.300781 41.664062 Z M 19.300781 41.664062 " fill-opacity="1" fill-rule="nonzero"/><path fill="#ffcd92" d="M 35.816406 26.179688 C 35.808594 26.179688 35.804688 26.179688 35.792969 26.179688 C 35.507812 26.140625 35.195312 26.070312 34.875 25.984375 C 33.691406 25.667969 32.734375 24.769531 32.375 24.398438 C 32.335938 24.351562 32.324219 24.289062 32.359375 24.230469 L 33.214844 22.757812 C 33.246094 22.710938 33.234375 22.648438 33.1875 22.609375 C 33.183594 22.605469 32.480469 22 32.429688 20.921875 C 32.386719 20.105469 31.839844 19.269531 31.519531 18.851562 C 31.484375 18.808594 31.480469 18.753906 31.503906 18.707031 C 31.527344 18.660156 31.574219 18.628906 31.632812 18.628906 L 33.113281 18.628906 C 33.15625 18.628906 33.191406 18.644531 33.21875 18.675781 C 33.679688 19.1875 34.050781 19.542969 34.226562 19.628906 C 34.257812 19.648438 34.296875 19.65625 34.332031 19.65625 C 34.550781 19.65625 34.832031 19.390625 35.027344 19.195312 C 35.21875 18.996094 35.382812 18.789062 35.46875 18.683594 C 35.496094 18.652344 35.535156 18.628906 35.582031 18.628906 L 39.710938 18.628906 C 39.765625 18.628906 39.816406 18.65625 39.839844 18.703125 C 39.863281 18.75 39.859375 18.804688 39.828125 18.847656 C 39.566406 19.210938 39.144531 19.863281 38.671875 20.90625 C 37.867188 22.652344 36.601562 23.347656 36.550781 23.375 C 36.515625 23.394531 36.492188 23.421875 36.488281 23.453125 L 35.964844 26.070312 C 35.945312 26.132812 35.882812 26.179688 35.816406 26.179688 Z M 35.816406 26.179688 " fill-opacity="1" fill-rule="nonzero"/><path fill="#ffb600" d="M 34.351562 19.410156 C 34.324219 19.410156 34.296875 19.402344 34.273438 19.386719 C 34.121094 19.285156 33.855469 19.015625 33.710938 18.859375 C 33.671875 18.820312 33.664062 18.761719 33.683594 18.710938 C 33.707031 18.660156 33.757812 18.628906 33.816406 18.628906 L 34.914062 18.628906 C 34.96875 18.628906 35.019531 18.660156 35.039062 18.710938 C 35.0625 18.761719 35.054688 18.820312 35.015625 18.859375 C 34.894531 18.996094 34.597656 19.316406 34.414062 19.402344 C 34.394531 19.40625 34.371094 19.410156 34.351562 19.410156 Z M 34.351562 19.410156 " fill-opacity="1" fill-rule="nonzero"/><path fill="#ffb600" d="M 36.585938 26.246094 C 36.5 26.246094 36.417969 26.242188 36.328125 26.238281 C 36.285156 26.230469 36.246094 26.214844 36.222656 26.179688 C 36.199219 26.148438 36.191406 26.105469 36.195312 26.070312 L 36.6875 23.613281 C 36.695312 23.574219 36.71875 23.542969 36.75 23.519531 C 36.851562 23.457031 37.054688 23.328125 37.296875 23.117188 C 37.328125 23.09375 37.359375 23.085938 37.394531 23.085938 C 37.410156 23.085938 37.429688 23.089844 37.449219 23.097656 C 37.5 23.121094 37.535156 23.167969 37.535156 23.226562 C 37.539062 23.375 37.539062 23.503906 37.539062 23.625 C 37.539062 24.445312 37.480469 25.277344 37.367188 26.09375 C 37.363281 26.132812 37.339844 26.171875 37.304688 26.195312 C 37.28125 26.207031 37.257812 26.214844 37.226562 26.214844 C 37.214844 26.214844 37.195312 26.207031 37.179688 26.203125 C 37.167969 26.199219 37.152344 26.195312 37.136719 26.195312 C 37.128906 26.195312 37.113281 26.195312 37.105469 26.199219 C 37.101562 26.199219 37.101562 26.199219 37.09375 26.199219 C 37.070312 26.207031 36.902344 26.246094 36.585938 26.246094 Z M 36.585938 26.246094 " fill-opacity="1" fill-rule="nonzero"/><path fill="#ffb600" d="M 4.214844 33.660156 C 4.167969 33.660156 4.125 33.636719 4.097656 33.597656 C 2.105469 30.636719 1.058594 27.191406 1.058594 23.625 C 1.058594 20.585938 1.828125 17.589844 3.28125 14.964844 C 4.734375 12.339844 6.863281 10.085938 9.441406 8.445312 C 9.464844 8.429688 9.492188 8.421875 9.519531 8.421875 C 9.542969 8.421875 9.570312 8.429688 9.59375 8.445312 C 9.640625 8.472656 9.664062 8.527344 9.660156 8.578125 C 9.554688 9.300781 9.691406 9.835938 9.78125 10.085938 C 9.796875 10.125 9.792969 10.167969 9.765625 10.203125 C 9.503906 10.636719 8.6875 12.15625 9.300781 13.449219 C 9.761719 14.417969 10.917969 15.019531 12.738281 15.234375 C 12.792969 15.238281 12.839844 15.28125 12.855469 15.335938 L 13.089844 16.195312 C 13.105469 16.246094 13.089844 16.296875 13.054688 16.332031 C 12.886719 16.488281 12.75 16.710938 12.648438 17 C 12.28125 18.042969 12.765625 19.085938 13.410156 19.535156 C 13.636719 19.695312 13.882812 19.78125 14.117188 19.78125 C 14.195312 19.78125 14.269531 19.769531 14.339844 19.757812 C 14.351562 19.75 14.363281 19.75 14.375 19.75 C 14.40625 19.75 14.4375 19.765625 14.46875 19.785156 C 14.5 19.8125 14.519531 19.859375 14.515625 19.902344 C 14.421875 20.949219 14.660156 21.859375 15.226562 22.609375 C 15.246094 22.636719 15.257812 22.671875 15.253906 22.707031 C 15.222656 23.035156 15.042969 24.121094 14.058594 24.527344 C 14.039062 24.535156 14.019531 24.535156 14 24.535156 C 14 24.535156 13.996094 24.535156 13.996094 24.535156 C 13.976562 24.535156 13.957031 24.535156 13.941406 24.535156 C 13.601562 24.535156 13.105469 24.628906 12.691406 25.0625 C 12.300781 25.472656 11.914062 25.515625 11.46875 25.566406 C 11.050781 25.613281 10.574219 25.664062 10.015625 26.027344 C 9.914062 26.097656 9.863281 26.171875 9.855469 26.25 C 9.855469 26.308594 9.820312 26.359375 9.761719 26.382812 C 9.488281 26.484375 9.074219 26.660156 8.640625 26.945312 C 8.632812 26.949219 8.621094 26.960938 8.617188 26.96875 C 8.496094 27.105469 5.578125 30.371094 4.339844 33.574219 C 4.324219 33.621094 4.277344 33.660156 4.222656 33.664062 C 4.222656 33.660156 4.21875 33.660156 4.214844 33.660156 Z M 4.214844 33.660156 " fill-opacity="1" fill-rule="nonzero"/><path fill="#ffb600" d="M 29.976562 28.152344 C 29.964844 28.152344 29.949219 28.152344 29.933594 28.148438 C 29.101562 27.886719 27.039062 27.1875 25.929688 26.292969 C 24.875 25.449219 23.480469 25.320312 22.746094 25.320312 C 22.65625 25.320312 22.570312 25.320312 22.496094 25.324219 C 22.496094 25.324219 22.492188 25.324219 22.492188 25.324219 C 22.449219 25.324219 22.40625 25.304688 22.378906 25.265625 C 22.292969 25.160156 22.222656 25.085938 22.1875 25.050781 C 22.179688 25.042969 22.164062 25.035156 22.148438 25.023438 C 22.082031 25 22.039062 24.929688 22.050781 24.863281 C 22.085938 24.707031 22.105469 24.53125 22.105469 24.320312 C 22.105469 24.261719 22.148438 24.207031 22.203125 24.191406 C 22.996094 23.941406 23.660156 23.570312 24.117188 23.109375 C 24.410156 22.816406 25.082031 22 25.082031 20.722656 L 25.078125 19.503906 C 25.078125 19.5 25.078125 19.496094 25.078125 19.484375 C 25.109375 19.253906 25 18.859375 24.773438 18.394531 C 24.65625 18.144531 24.472656 17.820312 24.328125 17.667969 C 24.3125 17.648438 24.296875 17.621094 24.296875 17.59375 L 23.957031 15.457031 C 23.949219 15.410156 23.964844 15.363281 24 15.335938 C 24.085938 15.257812 24.820312 14.535156 24.785156 13.285156 C 24.785156 13.261719 24.785156 13.242188 24.785156 13.222656 L 24.785156 13.191406 C 24.785156 13.136719 24.816406 13.089844 24.863281 13.0625 C 25.03125 12.976562 25.628906 12.648438 26.140625 12.058594 C 26.695312 11.417969 27.253906 10.335938 26.757812 8.804688 C 26.511719 8.035156 26.125 7.421875 25.617188 6.976562 C 25.566406 6.929688 25.554688 6.855469 25.589844 6.800781 C 25.617188 6.757812 25.660156 6.734375 25.710938 6.734375 C 25.730469 6.734375 25.742188 6.738281 25.761719 6.742188 C 28.488281 7.769531 30.949219 9.441406 32.890625 11.582031 C 32.921875 11.621094 32.933594 11.671875 32.917969 11.71875 C 32.90625 11.765625 32.867188 11.800781 32.820312 11.8125 C 32.359375 11.9375 31.917969 12.089844 31.515625 12.28125 C 30.574219 12.714844 29.773438 13.320312 29.136719 14.085938 C 28.214844 15.191406 27.898438 16.300781 27.828125 16.613281 C 27.8125 16.679688 27.757812 16.722656 27.691406 16.722656 L 27.039062 16.722656 C 26.894531 16.722656 26.773438 16.820312 26.738281 16.957031 C 26.707031 17.097656 26.777344 17.238281 26.910156 17.300781 C 27.402344 17.527344 28.109375 17.933594 28.65625 18.570312 C 28.679688 18.601562 28.714844 18.613281 28.746094 18.613281 L 30.960938 18.613281 C 31 18.613281 31.042969 18.632812 31.066406 18.660156 C 31.109375 18.707031 32.136719 19.84375 32.191406 20.921875 C 32.234375 21.789062 32.648438 22.367188 32.894531 22.636719 C 32.9375 22.683594 32.941406 22.75 32.914062 22.800781 L 32.160156 24.101562 C 32.140625 24.128906 32.113281 24.152344 32.078125 24.167969 C 32.0625 24.171875 32.046875 24.179688 32.03125 24.195312 C 31.976562 24.25 31.460938 24.800781 30.933594 25.910156 C 30.539062 26.742188 30.25 27.609375 30.113281 28.046875 C 30.105469 28.082031 30.078125 28.109375 30.042969 28.128906 C 30.023438 28.148438 30 28.152344 29.976562 28.152344 Z M 29.976562 28.152344 " fill-opacity="1" fill-rule="nonzero"/><path fill="#cccccc" d="M 11.222656 35.148438 C 11.222656 35.148438 11.140625 33.660156 11.378906 32.792969 C 11.621094 31.929688 12.035156 31.550781 12.035156 31.550781 C 12.035156 31.550781 11.996094 33.316406 13.433594 34.578125 C 14.867188 35.839844 16.160156 36.449219 16.160156 36.449219 C 16.160156 36.449219 12.859375 35.136719 11.222656 35.148438 Z M 11.222656 35.148438 " fill-opacity="1" fill-rule="nonzero"/><path fill="#cccccc" d="M 18.964844 28 C 18.964844 28 15.234375 28.886719 14.761719 29.625 C 14.285156 30.367188 14.957031 30.210938 15.972656 32.8125 C 16.988281 35.414062 17.210938 37.082031 17.210938 37.082031 L 18.214844 37.605469 C 18.214844 37.605469 17.785156 35.242188 17.117188 33.253906 C 16.449219 31.269531 15.664062 29.5 15.664062 29.5 C 15.664062 29.5 18.980469 28.800781 18.964844 28 Z M 18.964844 28 " fill-opacity="1" fill-rule="nonzero"/><path fill="#cccccc" d="M 30.316406 35.933594 C 30.316406 35.933594 29.578125 35.851562 28.941406 34.339844 C 28.304688 32.835938 28.859375 31.222656 28.859375 31.222656 C 28.859375 31.222656 29.019531 34.671875 31.839844 34.863281 C 34.660156 35.054688 35.675781 33.042969 35.675781 33.042969 C 35.675781 33.042969 34.449219 35.839844 33.144531 36.265625 C 31.839844 36.691406 30.316406 35.933594 30.316406 35.933594 Z M 30.316406 35.933594 " fill-opacity="1" fill-rule="nonzero"/><path fill="#cccccc" d="M 31.15625 25.832031 C 31.15625 25.832031 30.195312 27.875 30.132812 28.40625 C 30.070312 28.9375 30.652344 30.222656 30.652344 30.222656 C 30.652344 30.222656 29.425781 29.101562 28.398438 28.414062 C 27.371094 27.730469 26.730469 27.257812 26.730469 27.257812 C 26.730469 27.257812 28.886719 27.71875 29.386719 28.027344 C 29.890625 28.339844 30.183594 28.398438 30.183594 28.398438 Z M 31.15625 25.832031 " fill-opacity="1" fill-rule="nonzero"/><path fill="#cccccc" d="M 36.851562 28.605469 C 36.851562 28.605469 35.902344 28.722656 34.089844 28.027344 C 32.273438 27.328125 31.824219 26.992188 31.824219 26.992188 C 31.824219 26.992188 33.363281 27.359375 34.339844 27.234375 C 35.3125 27.109375 35.378906 26.347656 35.378906 26.347656 L 37.132812 26.445312 C 37.128906 26.441406 37.605469 28.007812 36.851562 28.605469 Z M 36.851562 28.605469 " fill-opacity="1" fill-rule="nonzero"/><path fill="#cccccc" d="M 8.390625 41.28125 C 8.390625 41.28125 11.785156 41.753906 13.863281 40.8125 C 15.941406 39.871094 17.019531 38.214844 17.019531 38.214844 C 17.019531 38.214844 17.421875 40.71875 15.585938 41.542969 C 13.746094 42.371094 9.324219 41.660156 8.390625 41.28125 Z M 8.390625 41.28125 " fill-opacity="1" fill-rule="nonzero"/><path fill="#cccccc" d="M 24.597656 40.929688 C 24.597656 40.929688 26.273438 40.480469 27.464844 38.589844 C 28.660156 36.695312 28.632812 34.429688 28.632812 34.429688 C 28.632812 34.429688 30.65625 36.863281 30.835938 37.300781 C 31.015625 37.738281 30.429688 38.117188 30.429688 38.117188 C 30.429688 38.117188 27.257812 40.078125 26.417969 40.457031 C 25.578125 40.835938 24.597656 40.929688 24.597656 40.929688 Z M 24.597656 40.929688 " fill-opacity="1" fill-rule="nonzero"/><path fill="#cccccc" d="M 20.246094 11.164062 C 20.246094 11.164062 21.132812 11.117188 22.363281 12.285156 C 23.59375 13.457031 23.210938 14.476562 23.210938 14.476562 L 23.710938 15.144531 C 23.710938 15.144531 24.503906 14.585938 24.601562 13.621094 C 24.703125 12.65625 24.238281 11.628906 24.238281 11.628906 C 24.238281 11.628906 21.144531 10.679688 20.246094 11.164062 Z M 20.246094 11.164062 " fill-opacity="1" fill-rule="nonzero"/><path fill="#cccccc" d="M 24.25 11.1875 C 24.25 11.1875 25.058594 10.617188 25.277344 9.660156 C 25.492188 8.707031 25.191406 7.769531 25.191406 7.769531 C 25.191406 7.769531 26.039062 9.269531 25.863281 10.746094 C 25.683594 12.226562 25.070312 12.738281 25.070312 12.738281 L 24.753906 12.839844 Z M 24.25 11.1875 " fill-opacity="1" fill-rule="nonzero"/><path fill="#cccccc" d="M 23.164062 6.335938 C 23.164062 6.335938 23.210938 6.914062 23.066406 7.597656 C 22.925781 8.277344 22.695312 8.765625 22.695312 8.765625 C 22.695312 8.765625 23.347656 8.277344 23.769531 7.554688 C 24.1875 6.832031 24.152344 6.402344 24.152344 6.402344 Z M 23.164062 6.335938 " fill-opacity="1" fill-rule="nonzero"/><path fill="#cccccc" d="M 12.300781 5.085938 C 12.300781 5.085938 14.035156 4.484375 15.609375 5.179688 C 17.183594 5.875 17.125 6.742188 17.125 6.742188 C 17.125 6.742188 17.277344 6.199219 16.910156 5.335938 C 16.539062 4.472656 15.367188 4.457031 15.367188 4.457031 C 15.367188 4.457031 12.644531 4.570312 12.300781 5.085938 Z M 12.300781 5.085938 " fill-opacity="1" fill-rule="nonzero"/><path fill="#cccccc" d="M 9.914062 9.890625 C 9.914062 9.890625 10.21875 10.382812 10.738281 10.804688 C 11.257812 11.222656 11.664062 11.285156 11.664062 11.285156 C 11.664062 11.285156 11.105469 11.453125 10.433594 11.261719 C 9.753906 11.070312 9.457031 11.546875 9.457031 11.546875 Z M 9.914062 9.890625 " fill-opacity="1" fill-rule="nonzero"/><path fill="#cccccc" d="M 12.898438 13.695312 C 12.898438 13.695312 12.152344 13.890625 11.308594 13.378906 C 10.464844 12.863281 10.289062 12.042969 10.289062 12.042969 C 10.289062 12.042969 10.234375 14.1875 11.535156 14.828125 C 12.832031 15.464844 12.933594 14.710938 12.933594 14.710938 Z M 12.898438 13.695312 " fill-opacity="1" fill-rule="nonzero"/><path fill="#e8894c" d="M 36.703125 23.398438 C 36.703125 23.398438 36.167969 23.398438 35.566406 23.160156 C 34.96875 22.921875 34.804688 22.664062 34.804688 22.664062 C 34.804688 22.664062 36.007812 23.058594 37.054688 22.121094 C 38.101562 21.183594 39.058594 18.824219 39.476562 18.5625 C 39.894531 18.300781 40.097656 18.5625 40.097656 18.5625 C 40.097656 18.5625 38.792969 21.28125 38.207031 21.957031 C 37.625 22.628906 36.703125 23.398438 36.703125 23.398438 Z M 36.703125 23.398438 " fill-opacity="1" fill-rule="nonzero"/><path fill="#e8894c" d="M 32.75 24.898438 C 32.75 24.898438 33.21875 25.300781 34.421875 24.761719 C 35.625 24.226562 36.082031 23.179688 36.082031 23.179688 L 36.589844 23.28125 L 35.976562 26.386719 C 35.976562 26.386719 34.503906 26.0625 33.992188 25.882812 C 33.484375 25.699219 32.75 24.898438 32.75 24.898438 Z M 32.75 24.898438 " fill-opacity="1" fill-rule="nonzero"/><path fill="#e8894c" d="M 14.746094 21.339844 C 14.746094 21.339844 15.742188 22.601562 17.117188 23.039062 C 18.492188 23.480469 19.214844 23.355469 19.214844 23.355469 C 19.214844 23.355469 19.925781 23.691406 20.621094 23.878906 C 21.3125 24.0625 21.609375 24.054688 21.609375 24.054688 C 21.609375 24.054688 19.503906 24.941406 17.257812 24.054688 C 15.019531 23.171875 14.746094 21.339844 14.746094 21.339844 Z M 14.746094 21.339844 " fill-opacity="1" fill-rule="nonzero"/><path fill="#e8894c" d="M 14.769531 17.871094 C 14.769531 17.871094 14.457031 17.191406 13.84375 17.328125 C 13.234375 17.460938 13.351562 18.195312 13.351562 18.195312 C 13.351562 18.195312 13.375 17.734375 14.109375 17.90625 C 14.84375 18.078125 15.117188 18.746094 15.117188 18.746094 Z M 14.769531 17.871094 " fill-opacity="1" fill-rule="nonzero"/><path fill="#e8894c" d="M 15.527344 16.574219 L 16.050781 17.824219 C 16.050781 17.824219 16.410156 16.246094 18.128906 15.015625 C 19.851562 13.785156 21.359375 13.949219 21.359375 13.949219 C 21.359375 13.949219 20.675781 13.378906 18.363281 14.128906 C 16.042969 14.882812 15.667969 16.003906 15.527344 16.574219 Z M 15.527344 16.574219 " fill-opacity="1" fill-rule="nonzero"/><path fill="#e8894c" d="M 17.25 23.90625 C 17.25 23.90625 17.65625 24.742188 18.625 25.261719 C 19.597656 25.785156 20.429688 25.867188 20.429688 25.867188 L 19.875 26.21875 C 19.875 26.21875 18.722656 25.753906 17.097656 25.351562 C 15.472656 24.949219 14.375 24.632812 14.375 24.632812 C 14.375 24.632812 14.886719 24.289062 15.058594 23.769531 C 15.222656 23.25 15.40625 22.730469 15.40625 22.730469 C 15.40625 22.730469 16.53125 23.914062 17.25 23.90625 Z M 17.25 23.90625 " fill-opacity="1" fill-rule="nonzero"/><path fill="#e8894c" d="M 19.117188 39.082031 C 19.117188 39.082031 19.34375 39.789062 19.058594 40.5 C 18.78125 41.207031 19.847656 41.707031 19.847656 41.707031 C 19.847656 41.707031 17.839844 41.6875 17.558594 41.589844 C 17.28125 41.492188 17.257812 41.351562 17.257812 41.351562 C 17.257812 41.351562 18.226562 41.089844 18.515625 40.351562 C 18.8125 39.613281 19.117188 39.082031 19.117188 39.082031 Z M 19.117188 39.082031 " fill-opacity="1" fill-rule="nonzero"/><path fill="#ffffff" d="M 32.125 12.277344 C 32.125 12.277344 34.390625 11.695312 37.691406 12.8125 C 40.988281 13.933594 41.59375 16.753906 41.59375 16.753906 L 43.285156 16.707031 C 43.285156 16.707031 42.996094 13.894531 40.253906 12.6875 C 37.511719 11.480469 35.617188 11.660156 34.644531 11.695312 C 33.671875 11.722656 32.125 12.277344 32.125 12.277344 Z M 32.125 12.277344 " fill-opacity="1" fill-rule="nonzero"/><path fill="#000000" d="M 19.652344 28.441406 C 19.652344 28.441406 20.144531 28.78125 20.8125 28.382812 C 21.480469 27.980469 20.992188 26.863281 20.992188 26.863281 C 20.992188 26.863281 21.699219 27.503906 21.808594 28.210938 C 21.921875 28.910156 21.042969 29.214844 21.042969 29.214844 C 21.042969 29.214844 19.648438 29.253906 19.652344 28.441406 Z M 19.652344 28.441406 " fill-opacity="0.2" fill-rule="nonzero"/><path fill="#000000" d="M 11.234375 25.714844 C 11.234375 25.714844 12.214844 25.550781 14.292969 25.714844 C 16.371094 25.878906 17.78125 26.53125 17.78125 26.53125 C 17.78125 26.53125 14.367188 26.105469 12.75 26.265625 C 11.132812 26.421875 10.707031 26.566406 10.707031 26.566406 L 10.144531 26.398438 C 10.148438 26.398438 10.4375 25.78125 11.234375 25.714844 Z M 11.234375 25.714844 " fill-opacity="0.2" fill-rule="nonzero"/><path fill="#000000" d="M 22.460938 28.273438 C 22.460938 28.273438 23.007812 28.804688 23.953125 29.136719 C 24.898438 29.46875 25.566406 29.496094 25.566406 29.496094 C 25.566406 29.496094 24.550781 29.167969 23.957031 28.695312 C 23.367188 28.214844 23.753906 27.746094 23.753906 27.746094 C 23.753906 27.746094 22.792969 27.589844 22.460938 28.273438 " fill-opacity="0.2" fill-rule="nonzero"/><path fill="#000000" d="M 19.125 29.496094 C 19.125 29.496094 19.6875 29.40625 19.945312 29.933594 C 20.203125 30.460938 19.871094 31.367188 19.871094 31.367188 C 19.871094 31.367188 20.347656 30.503906 20.464844 29.925781 C 20.582031 29.351562 20.613281 29.167969 20.613281 29.167969 L 19.871094 28.703125 Z M 19.125 29.496094 " fill-opacity="0.2" fill-rule="nonzero"/><g clip-path="url(#899984acdc)"><path fill="#4e1d0f" d="M 44.699219 16.929688 C 44.75 17.136719 44.65625 17.335938 44.46875 17.433594 C 43.53125 17.917969 42.964844 18.65625 42.960938 18.664062 C 42.914062 18.730469 42.832031 18.765625 42.753906 18.765625 L 40.367188 18.765625 C 40.1875 18.972656 39.65625 19.648438 39.003906 21.0625 C 38.675781 21.785156 38.269531 22.335938 37.890625 22.746094 C 37.890625 22.75 37.890625 22.753906 37.890625 22.757812 C 37.90625 23.046875 37.910156 23.335938 37.910156 23.625 C 37.910156 25.351562 37.671875 27.054688 37.195312 28.695312 C 37.183594 28.722656 37.171875 28.75 37.15625 28.773438 C 36.90625 30.460938 36.402344 32.675781 35.375 34.308594 C 34.425781 35.8125 33.648438 36.535156 32.773438 36.730469 C 32.621094 36.765625 32.472656 36.785156 32.316406 36.785156 C 32.316406 36.785156 32.316406 36.789062 32.3125 36.789062 C 28.8125 40.171875 24.1875 42.039062 19.289062 42.039062 C 18.296875 42.039062 17.300781 41.957031 16.328125 41.804688 C 16.300781 41.800781 16.269531 41.792969 16.246094 41.777344 C 15.4375 41.917969 14.367188 42.039062 13.0625 42.039062 C 12.132812 42.039062 11.085938 41.976562 9.933594 41.820312 C 7.1875 41.441406 5.386719 40.613281 4.421875 39.28125 C 3.632812 38.199219 3.417969 36.820312 3.753906 35.058594 C 3.8125 34.746094 3.894531 34.429688 3.996094 34.113281 C 3.984375 34.097656 3.96875 34.082031 3.960938 34.066406 C 1.816406 30.988281 0.683594 27.378906 0.683594 23.625 C 0.683594 20.398438 1.542969 17.222656 3.160156 14.445312 C 4.726562 11.75 6.980469 9.46875 9.671875 7.863281 C 9.679688 7.863281 9.683594 7.855469 9.6875 7.855469 C 9.875 7.289062 10.210938 6.648438 10.789062 5.976562 C 11.617188 5.023438 12.792969 4.417969 14.203125 4.230469 C 14.996094 4.128906 15.644531 4.179688 15.9375 4.210938 C 16.273438 3.796875 17.429688 2.695312 20.066406 3.195312 C 21.707031 3.503906 22.558594 4.328125 22.972656 4.960938 C 23.132812 5.203125 23.246094 5.441406 23.320312 5.640625 C 25.257812 6.066406 27.105469 6.789062 28.816406 7.796875 C 30.523438 8.804688 32.050781 10.066406 33.355469 11.554688 C 34.070312 11.410156 34.835938 11.335938 35.648438 11.335938 C 37.242188 11.335938 38.65625 11.621094 39.859375 12.179688 C 40.824219 12.632812 41.648438 13.261719 42.3125 14.054688 C 43.199219 15.109375 43.554688 16.152344 43.671875 16.589844 L 44.261719 16.589844 C 44.472656 16.589844 44.648438 16.726562 44.699219 16.929688 Z M 44.003906 17.101562 L 27.332031 17.101562 C 27.804688 17.34375 28.382812 17.71875 28.863281 18.25 L 42.628906 18.25 C 42.8125 18.035156 43.289062 17.523438 44.003906 17.101562 Z M 28.226562 16.589844 L 43.132812 16.589844 C 42.992188 16.136719 42.648438 15.246094 41.902344 14.363281 C 40.488281 12.691406 38.386719 11.847656 35.652344 11.847656 C 32.910156 11.847656 30.816406 12.683594 29.429688 14.332031 C 28.652344 15.265625 28.335938 16.195312 28.226562 16.589844 Z M 39.710938 18.765625 L 35.582031 18.765625 C 35.53125 18.835938 35.34375 19.066406 35.128906 19.289062 C 34.878906 19.546875 34.597656 19.796875 34.332031 19.796875 C 34.273438 19.796875 34.214844 19.785156 34.160156 19.757812 C 33.886719 19.621094 33.339844 19.023438 33.113281 18.765625 L 31.632812 18.765625 C 31.980469 19.222656 32.527344 20.070312 32.570312 20.917969 C 32.621094 21.933594 33.277344 22.503906 33.28125 22.507812 C 33.375 22.585938 33.398438 22.722656 33.339844 22.828125 L 32.480469 24.300781 C 32.84375 24.679688 33.773438 25.542969 34.914062 25.851562 C 35.257812 25.941406 35.554688 26.003906 35.8125 26.042969 L 36.335938 23.425781 C 36.351562 23.351562 36.402344 23.285156 36.46875 23.25 C 36.484375 23.242188 37.742188 22.5625 38.527344 20.847656 C 39.015625 19.8125 39.433594 19.148438 39.710938 18.765625 Z M 37.398438 23.625 C 37.398438 23.496094 37.398438 23.359375 37.394531 23.230469 C 37.148438 23.433594 36.945312 23.570312 36.828125 23.644531 L 36.335938 26.101562 C 36.828125 26.128906 37.0625 26.070312 37.066406 26.070312 C 37.125 26.050781 37.179688 26.054688 37.230469 26.074219 C 37.339844 25.261719 37.398438 24.445312 37.398438 23.625 Z M 36.863281 26.609375 C 36.488281 26.636719 35.804688 26.625 34.78125 26.34375 C 33.523438 26.003906 32.535156 25.097656 32.121094 24.675781 C 31.929688 24.921875 31.605469 25.382812 31.273438 26.078125 C 30.746094 27.191406 30.402344 28.394531 30.402344 28.40625 C 30.382812 28.46875 30.339844 28.527344 30.277344 28.558594 C 30.21875 28.589844 30.148438 28.601562 30.082031 28.582031 C 29.964844 28.550781 27.121094 27.734375 25.691406 26.582031 C 24.757812 25.832031 23.480469 25.707031 22.820312 25.695312 C 23.070312 26.171875 23.257812 26.824219 22.984375 27.523438 C 23.417969 27.402344 24.351562 27.320312 25.386719 28.324219 C 26.585938 29.5 27.605469 29.855469 27.617188 29.859375 C 27.722656 29.898438 27.800781 30 27.789062 30.117188 C 27.785156 30.234375 27.699219 30.324219 27.585938 30.355469 C 27.441406 30.386719 24.316406 31.070312 22.375 29.640625 C 22.402344 30.140625 22.292969 30.800781 21.789062 31.5 C 20.832031 32.828125 19.859375 34.066406 19.851562 34.078125 C 19.804688 34.140625 19.722656 34.175781 19.644531 34.175781 C 19.640625 34.175781 19.628906 34.175781 19.621094 34.175781 C 19.535156 34.167969 19.457031 34.117188 19.414062 34.042969 C 19.394531 34.007812 18.980469 33.230469 18.765625 32.171875 C 18.480469 30.75 18.714844 29.503906 19.4375 28.578125 C 19.449219 28.558594 19.464844 28.542969 19.484375 28.53125 C 19.460938 28.484375 19.4375 28.4375 19.414062 28.390625 L 15.964844 29.742188 C 16.390625 30.613281 17.765625 33.632812 18.554688 37.523438 C 18.5625 37.578125 18.558594 37.628906 18.539062 37.667969 C 18.910156 38.011719 19.144531 38.355469 19.164062 38.679688 C 19.164062 38.71875 19.167969 38.761719 19.167969 38.796875 C 19.621094 39.042969 20.960938 39.898438 21.394531 41.398438 C 24.808594 41.011719 28.027344 39.675781 30.699219 37.519531 C 30.195312 36.746094 29.804688 36.210938 29.488281 35.78125 C 28.714844 34.726562 28.421875 34.332031 28.292969 32.824219 C 28.277344 32.59375 28.242188 32.363281 28.203125 32.148438 C 28.179688 32.007812 28.269531 31.878906 28.414062 31.851562 C 28.554688 31.828125 28.691406 31.914062 28.714844 32.054688 C 28.757812 32.289062 28.789062 32.53125 28.8125 32.78125 C 28.925781 34.144531 29.152344 34.453125 29.90625 35.476562 C 29.929688 35.515625 29.957031 35.546875 29.988281 35.585938 C 32.304688 36.585938 33.210938 36.773438 34.9375 34.027344 C 36.460938 31.621094 36.796875 27.722656 36.863281 26.609375 Z M 34.914062 18.765625 L 33.816406 18.765625 C 34.035156 18.996094 34.242188 19.195312 34.355469 19.277344 C 34.464844 19.222656 34.683594 19.019531 34.914062 18.765625 Z M 32.039062 24.039062 L 32.792969 22.738281 C 32.546875 22.46875 32.097656 21.859375 32.054688 20.941406 C 32.003906 19.925781 31.019531 18.824219 30.96875 18.765625 L 28.75 18.765625 C 28.675781 18.765625 28.605469 18.734375 28.554688 18.679688 C 28.027344 18.0625 27.335938 17.667969 26.855469 17.445312 C 26.664062 17.355469 26.5625 17.148438 26.605469 16.945312 C 26.652344 16.738281 26.832031 16.59375 27.046875 16.59375 L 27.695312 16.59375 C 27.78125 16.242188 28.097656 15.128906 29.035156 14.011719 C 29.683594 13.234375 30.503906 12.613281 31.460938 12.171875 C 31.878906 11.980469 32.320312 11.820312 32.792969 11.695312 C 30.855469 9.558594 28.414062 7.902344 25.71875 6.890625 C 26.175781 7.289062 26.613281 7.886719 26.898438 8.78125 C 27.414062 10.375 26.832031 11.503906 26.253906 12.171875 C 25.726562 12.78125 25.113281 13.113281 24.929688 13.207031 C 24.929688 13.238281 24.933594 13.265625 24.933594 13.296875 C 24.964844 14.605469 24.191406 15.367188 24.097656 15.457031 L 24.4375 17.59375 C 24.625 17.796875 24.835938 18.210938 24.90625 18.351562 C 25.074219 18.703125 25.261719 19.1875 25.226562 19.523438 L 25.230469 20.734375 C 25.230469 22.0625 24.523438 22.917969 24.222656 23.21875 C 23.726562 23.71875 23.039062 24.09375 22.246094 24.339844 C 22.246094 24.542969 22.226562 24.734375 22.1875 24.90625 C 22.226562 24.921875 22.261719 24.941406 22.289062 24.96875 C 22.300781 24.984375 22.382812 25.0625 22.488281 25.195312 C 23.007812 25.175781 24.753906 25.179688 26.015625 26.195312 C 27.128906 27.089844 29.257812 27.800781 29.976562 28.023438 C 30.109375 27.601562 30.402344 26.71875 30.808594 25.867188 C 31.363281 24.699219 31.910156 24.140625 31.933594 24.117188 C 31.960938 24.074219 32 24.054688 32.039062 24.039062 Z M 31.105469 37.195312 C 31.289062 37.039062 31.46875 36.875 31.640625 36.714844 C 31.296875 36.644531 30.9375 36.527344 30.558594 36.382812 C 30.722656 36.621094 30.90625 36.890625 31.105469 37.195312 Z M 25.871094 11.816406 C 26.578125 10.996094 26.757812 10.019531 26.402344 8.929688 C 25.558594 6.308594 23.363281 6.570312 23.269531 6.585938 C 23.199219 6.59375 23.128906 6.574219 23.070312 6.53125 C 23.015625 6.492188 22.980469 6.425781 22.972656 6.355469 C 22.972656 6.335938 22.953125 6.199219 22.890625 5.988281 C 22.878906 5.960938 22.863281 5.925781 22.863281 5.894531 C 22.632812 5.238281 21.953125 4.074219 19.964844 3.699219 C 17.191406 3.175781 16.3125 4.554688 16.273438 4.617188 C 16.214844 4.707031 16.109375 4.757812 16.003906 4.738281 C 15.976562 4.734375 12.96875 4.226562 11.175781 6.304688 C 9.394531 8.375 10.152344 10.03125 10.164062 10.046875 C 10.203125 10.132812 10.195312 10.226562 10.144531 10.300781 C 10.136719 10.320312 9.019531 11.992188 9.636719 13.292969 C 10.023438 14.105469 11.007812 14.621094 12.566406 14.835938 L 12.378906 14.152344 C 12.339844 14.015625 12.421875 13.871094 12.5625 13.839844 C 12.699219 13.800781 12.839844 13.882812 12.878906 14.019531 L 13.144531 14.996094 C 13.175781 15.039062 13.195312 15.089844 13.195312 15.144531 C 13.195312 15.152344 13.195312 15.164062 13.195312 15.167969 L 13.410156 15.976562 C 13.867188 15.851562 14.328125 16.050781 14.585938 16.203125 C 14.808594 15.941406 15.265625 15.457031 15.941406 14.957031 C 16.84375 14.296875 18.324219 13.484375 20.265625 13.382812 C 22.414062 13.269531 23.476562 14.386719 23.867188 14.941406 C 24.070312 14.691406 24.433594 14.132812 24.410156 13.308594 C 24.382812 12.175781 24.085938 11.753906 24.085938 11.75 C 23.996094 11.636719 24.019531 11.480469 24.132812 11.390625 C 24.246094 11.304688 24.410156 11.324219 24.496094 11.4375 C 24.527344 11.480469 24.773438 11.816406 24.875 12.636719 C 25.125 12.492188 25.527344 12.222656 25.871094 11.816406 Z M 26.675781 29.972656 C 26.238281 29.714844 25.660156 29.308594 25.023438 28.6875 C 23.90625 27.597656 22.992188 28.066406 22.980469 28.070312 C 22.925781 28.101562 22.863281 28.105469 22.800781 28.09375 C 22.742188 28.335938 22.613281 28.5625 22.410156 28.769531 C 22.375 28.804688 22.335938 28.84375 22.292969 28.875 C 23.460938 30.105469 25.542969 30.09375 26.675781 29.972656 Z M 24.710938 19.457031 C 24.761719 19.117188 24.222656 18.082031 24.054688 17.921875 C 23.996094 17.882812 23.953125 17.820312 23.941406 17.75 L 23.574219 15.429688 C 23.449219 15.195312 22.582031 13.777344 20.304688 13.894531 C 16.84375 14.078125 14.878906 16.675781 14.859375 16.699219 C 14.816406 16.753906 14.753906 16.789062 14.683594 16.800781 C 14.613281 16.808594 14.542969 16.789062 14.488281 16.742188 C 14.34375 16.632812 13.902344 16.371094 13.546875 16.46875 C 13.316406 16.535156 13.132812 16.757812 13.007812 17.125 C 12.710938 17.964844 13.089844 18.855469 13.632812 19.234375 C 13.816406 19.363281 14.183594 19.535156 14.539062 19.253906 C 14.585938 19.214844 14.640625 19.195312 14.703125 19.195312 C 14.75 19.195312 14.792969 19.210938 14.835938 19.234375 C 14.929688 19.289062 14.976562 19.390625 14.957031 19.5 C 14.722656 20.820312 15.042969 21.761719 15.570312 22.433594 C 15.589844 22.449219 15.605469 22.46875 15.613281 22.488281 C 15.984375 22.945312 16.457031 23.265625 16.90625 23.496094 C 17.945312 24.027344 19.328125 24.261719 20.691406 24.128906 C 22.035156 24 23.195312 23.539062 23.867188 22.859375 C 24.128906 22.601562 24.726562 21.878906 24.726562 20.734375 L 24.722656 19.503906 C 24.707031 19.484375 24.707031 19.472656 24.710938 19.457031 Z M 22.59375 26.949219 C 22.640625 26.410156 22.382812 25.917969 22.175781 25.621094 C 22.160156 25.609375 22.152344 25.589844 22.140625 25.574219 C 22.089844 25.503906 22.042969 25.445312 22.003906 25.402344 C 21.886719 25.59375 21.714844 25.757812 21.472656 25.902344 C 21.476562 25.902344 21.476562 25.90625 21.480469 25.90625 C 21.632812 25.960938 22.214844 26.203125 22.59375 26.949219 Z M 22.039062 28.414062 C 22.292969 28.152344 22.375 27.863281 22.277344 27.554688 C 21.980469 26.601562 21.320312 26.394531 21.292969 26.390625 C 21.269531 26.386719 21.246094 26.371094 21.222656 26.359375 C 21.21875 26.359375 20.945312 26.1875 20.625 26.1875 C 20.539062 26.1875 20.449219 26.199219 20.359375 26.230469 C 20.214844 26.289062 20.082031 26.390625 19.96875 26.542969 C 19.964844 26.550781 19.960938 26.558594 19.953125 26.5625 C 19.839844 26.71875 19.753906 26.921875 19.671875 27.167969 C 19.628906 27.3125 19.679688 27.835938 19.945312 28.3125 C 20.066406 28.53125 20.277344 28.804688 20.566406 28.890625 C 21 29 21.671875 28.789062 22.039062 28.414062 Z M 21.371094 31.203125 C 21.980469 30.355469 21.886719 29.585938 21.78125 29.207031 C 21.472656 29.347656 21.144531 29.425781 20.832031 29.425781 C 20.691406 29.425781 20.558594 29.40625 20.4375 29.375 C 20.199219 29.308594 19.984375 29.167969 19.792969 28.964844 C 18.667969 30.507812 19.347656 32.585938 19.699219 33.425781 C 20.054688 32.972656 20.714844 32.105469 21.371094 31.203125 Z M 21.054688 25.542969 C 21.515625 25.320312 21.695312 25.050781 21.726562 24.472656 C 21.15625 24.605469 20.542969 24.675781 19.929688 24.675781 C 18.78125 24.675781 17.617188 24.441406 16.660156 23.953125 C 16.234375 23.734375 15.867188 23.476562 15.554688 23.1875 C 15.457031 23.597656 15.234375 24.152344 14.75 24.554688 C 16.871094 24.785156 19.046875 25.773438 19.691406 26.085938 C 19.835938 25.933594 20.007812 25.820312 20.195312 25.753906 C 20.453125 25.660156 20.710938 25.664062 20.925781 25.707031 C 20.941406 25.628906 20.988281 25.574219 21.054688 25.542969 Z M 20.871094 41.460938 C 20.519531 40.382812 19.601562 39.679688 19.109375 39.371094 C 18.894531 40.414062 18.128906 41.234375 18.09375 41.273438 C 18.066406 41.300781 18.03125 41.324219 18 41.339844 C 17.976562 41.347656 17.863281 41.390625 17.65625 41.449219 C 18.203125 41.496094 18.75 41.523438 19.296875 41.523438 C 19.828125 41.523438 20.351562 41.503906 20.871094 41.460938 Z M 19.183594 27.015625 C 19.238281 26.824219 19.308594 26.65625 19.382812 26.503906 C 18.675781 26.171875 16.589844 25.25 14.625 25.046875 C 14.59375 25.042969 14.566406 25.039062 14.539062 25.023438 C 14.5 25.011719 13.625 24.625 12.964844 25.3125 C 12.476562 25.828125 11.984375 25.878906 11.507812 25.933594 C 11.171875 25.972656 10.828125 26.007812 10.441406 26.207031 C 10.894531 26.300781 11.804688 26.386719 12.628906 26.457031 C 14.71875 26.640625 17.492188 26.890625 19.171875 27.621094 C 19.132812 27.386719 19.132812 27.167969 19.183594 27.015625 Z M 15.519531 29.371094 L 18.871094 28.050781 C 17.273438 27.382812 14.597656 27.144531 12.582031 26.96875 C 11.257812 26.851562 10.515625 26.777344 10.121094 26.652344 C 9.9375 26.707031 9.421875 26.886719 8.882812 27.234375 C 8.5625 27.597656 4.90625 31.789062 4.265625 35.15625 C 3.960938 36.773438 4.148438 38.023438 4.847656 38.988281 C 5.726562 40.195312 7.414062 40.960938 10.007812 41.316406 C 14.457031 41.925781 17.320312 41.03125 17.75 40.882812 C 17.933594 40.671875 18.707031 39.722656 18.644531 38.71875 C 18.621094 38.285156 17.578125 37.386719 15.703125 36.554688 C 13.671875 35.660156 11.433594 35.179688 9.554688 35.234375 C 9.414062 35.242188 9.292969 35.128906 9.285156 34.988281 C 9.28125 34.847656 9.394531 34.726562 9.535156 34.722656 C 9.929688 34.707031 10.339844 34.722656 10.757812 34.753906 L 10.847656 33.179688 C 10.855469 33.039062 10.980469 32.925781 11.121094 32.9375 C 11.261719 32.945312 11.375 33.066406 11.367188 33.207031 L 11.277344 34.800781 C 12.789062 34.980469 14.40625 35.421875 15.910156 36.085938 C 16.621094 36.398438 17.355469 36.789062 17.953125 37.203125 C 17.011719 32.875 15.390625 29.757812 15.371094 29.722656 C 15.339844 29.660156 15.335938 29.585938 15.359375 29.515625 C 15.394531 29.453125 15.453125 29.398438 15.519531 29.371094 Z M 14 24.394531 C 14.914062 24.015625 15.082031 22.996094 15.109375 22.6875 C 14.527344 21.917969 14.269531 20.96875 14.367188 19.886719 C 14.027344 19.964844 13.667969 19.886719 13.320312 19.648438 C 12.632812 19.167969 12.113281 18.0625 12.507812 16.953125 C 12.613281 16.640625 12.765625 16.398438 12.949219 16.230469 L 12.714844 15.375 C 10.84375 15.152344 9.648438 14.523438 9.167969 13.507812 C 8.523438 12.152344 9.375 10.570312 9.640625 10.132812 C 9.550781 9.886719 9.40625 9.320312 9.511719 8.5625 C 4.300781 11.871094 1.203125 17.464844 1.203125 23.625 C 1.203125 27.167969 2.242188 30.585938 4.214844 33.519531 C 5.457031 30.292969 8.375 27.03125 8.519531 26.871094 C 8.53125 26.851562 8.550781 26.839844 8.570312 26.828125 C 9.011719 26.539062 9.4375 26.351562 9.71875 26.25 C 9.71875 26.15625 9.765625 26.03125 9.941406 25.914062 C 10.527344 25.53125 11.015625 25.476562 11.457031 25.429688 C 11.890625 25.382812 12.234375 25.347656 12.589844 24.96875 C 13.023438 24.507812 13.554688 24.382812 14 24.394531 Z M 14 24.394531 " fill-opacity="1" fill-rule="nonzero"/></g><path fill="#4e1d0f" d="M 34.625 11.523438 C 34.625 11.523438 34.25 10.277344 35.59375 10.277344 C 36.933594 10.277344 36.417969 11.617188 36.417969 11.617188 C 36.417969 11.617188 35.457031 11.371094 34.625 11.523438 Z M 34.625 11.523438 " fill-opacity="1" fill-rule="nonzero"/><path fill="#4e1d0f" d="M 24.597656 12.476562 C 24.597656 12.476562 23.828125 11.484375 21.566406 11.324219 C 19.304688 11.167969 18.554688 11.515625 18.554688 11.515625 C 18.554688 11.515625 19.558594 10.886719 21.441406 10.839844 C 23.320312 10.792969 24.453125 11.363281 24.453125 11.363281 C 24.453125 11.363281 24.109375 12.085938 24.597656 12.476562 Z M 24.597656 12.476562 " fill-opacity="1" fill-rule="nonzero"/><path fill="#4e1d0f" d="M 20.703125 15.042969 L 20.8125 14.511719 C 20.8125 14.511719 20.328125 14.421875 19.835938 14.539062 C 19.347656 14.65625 19.121094 15.074219 19.121094 15.074219 C 19.121094 15.074219 20.101562 14.824219 20.703125 15.042969 Z M 20.703125 15.042969 " fill-opacity="1" fill-rule="nonzero"/><path fill="#4e1d0f" d="M 22.363281 15.066406 L 22.402344 14.523438 C 22.402344 14.523438 22.890625 14.5625 23.335938 14.804688 C 23.777344 15.046875 23.886719 15.507812 23.886719 15.507812 C 23.886719 15.507812 23.003906 15.007812 22.363281 15.066406 Z M 22.363281 15.066406 " fill-opacity="1" fill-rule="nonzero"/><path fill="#4e1d0f" d="M 20.8125 15.960938 C 20.8125 15.960938 20.796875 16.128906 20.261719 16.292969 C 19.71875 16.453125 19.21875 16.253906 19.21875 16.253906 C 19.21875 16.253906 19.632812 16.675781 20.285156 16.546875 C 20.933594 16.417969 20.8125 15.960938 20.8125 15.960938 Z M 20.8125 15.960938 " fill-opacity="1" fill-rule="nonzero"/><path fill="#4e1d0f" d="M 22.445312 15.960938 C 22.445312 15.960938 22.457031 16.128906 22.996094 16.292969 C 23.539062 16.453125 24.039062 16.253906 24.039062 16.253906 C 24.039062 16.253906 23.621094 16.675781 22.972656 16.546875 C 22.316406 16.417969 22.445312 15.960938 22.445312 15.960938 Z M 22.445312 15.960938 " fill-opacity="1" fill-rule="nonzero"/><path fill="#4e1d0f" d="M 22.636719 16.660156 C 22.636719 16.757812 22.652344 16.855469 22.664062 16.949219 C 22.683594 17.046875 22.707031 17.140625 22.742188 17.234375 C 22.773438 17.328125 22.816406 17.421875 22.871094 17.507812 C 22.929688 17.597656 23.003906 17.679688 23.097656 17.75 L 23.175781 17.796875 C 23.183594 17.800781 23.183594 17.800781 23.1875 17.808594 L 23.199219 17.8125 C 23.203125 17.816406 23.210938 17.820312 23.21875 17.824219 C 23.242188 17.84375 23.265625 17.867188 23.277344 17.894531 C 23.3125 17.953125 23.335938 18.023438 23.335938 18.089844 C 23.34375 18.234375 23.28125 18.378906 23.179688 18.484375 C 23.074219 18.585938 22.925781 18.644531 22.761719 18.667969 C 22.675781 18.683594 22.589844 18.683594 22.5 18.679688 L 22.363281 18.667969 C 22.320312 18.664062 22.273438 18.65625 22.230469 18.652344 C 22.058594 18.617188 21.886719 18.5625 21.75 18.457031 C 21.613281 18.347656 21.511719 18.1875 21.476562 18 C 21.441406 18.1875 21.5 18.402344 21.636719 18.566406 C 21.652344 18.589844 21.675781 18.605469 21.691406 18.628906 C 21.707031 18.644531 21.726562 18.664062 21.746094 18.683594 L 21.8125 18.730469 L 21.84375 18.753906 L 21.878906 18.773438 C 21.925781 18.800781 21.972656 18.828125 22.019531 18.84375 C 22.066406 18.859375 22.117188 18.882812 22.164062 18.898438 C 22.21875 18.910156 22.265625 18.925781 22.316406 18.941406 L 22.46875 18.964844 C 22.570312 18.976562 22.679688 18.980469 22.789062 18.972656 C 22.898438 18.964844 23.003906 18.941406 23.113281 18.898438 C 23.222656 18.855469 23.320312 18.789062 23.40625 18.707031 C 23.492188 18.621094 23.554688 18.519531 23.597656 18.410156 C 23.636719 18.296875 23.65625 18.175781 23.640625 18.058594 C 23.628906 17.941406 23.589844 17.820312 23.507812 17.722656 C 23.472656 17.671875 23.425781 17.628906 23.367188 17.59375 C 23.355469 17.582031 23.339844 17.574219 23.324219 17.570312 L 23.28125 17.550781 L 23.230469 17.527344 C 23.164062 17.488281 23.097656 17.4375 23.042969 17.375 C 22.984375 17.308594 22.929688 17.238281 22.882812 17.160156 C 22.789062 17.015625 22.707031 16.84375 22.636719 16.660156 Z M 22.636719 16.660156 " fill-opacity="1" fill-rule="nonzero"/><path fill="#4e1d0f" d="M 22.175781 18.761719 C 22.175781 18.761719 21.058594 18.042969 19.816406 19.019531 C 18.574219 19.992188 16.726562 19.253906 16.726562 19.253906 C 16.726562 19.253906 17.664062 21.226562 19.96875 21.269531 C 22.273438 21.316406 22.9375 20.296875 22.796875 18.988281 Z M 22.175781 18.761719 " fill-opacity="1" fill-rule="nonzero"/><path fill="#4e1d0f" d="M 23.0625 18.761719 C 23.0625 18.761719 23.894531 18.042969 24.820312 19.019531 C 25.75 19.992188 27.125 19.253906 27.125 19.253906 C 27.125 19.253906 26.425781 21.226562 24.707031 21.269531 C 22.984375 21.316406 22.492188 20.296875 22.59375 18.988281 Z M 23.0625 18.761719 " fill-opacity="1" fill-rule="nonzero"/><path fill="#4e1d0f" d="M 36.164062 18.765625 L 35.617188 19.671875 L 36.601562 18.84375 L 37.144531 18.765625 L 36.378906 19.925781 L 37.480469 18.765625 L 37.820312 18.84375 L 37.019531 20.105469 L 38.207031 18.765625 Z M 36.164062 18.765625 " fill-opacity="1" fill-rule="nonzero"/><path fill="#4e1d0f" d="M 34.914062 19.8125 C 34.914062 19.8125 35.550781 19.75 36.355469 19.992188 C 37.160156 20.234375 37.523438 20.613281 37.523438 20.613281 C 37.523438 20.613281 37.339844 19.933594 36.355469 19.710938 C 35.371094 19.480469 34.914062 19.8125 34.914062 19.8125 Z M 34.914062 19.8125 " fill-opacity="1" fill-rule="nonzero"/><path fill="#4e1d0f" d="M 36.46875 24.949219 C 36.46875 24.949219 37.335938 25.539062 37.394531 26.332031 C 37.394531 26.332031 36.164062 26.40625 36.121094 26.238281 C 36.078125 26.0625 36.46875 24.949219 36.46875 24.949219 Z M 36.46875 24.949219 " fill-opacity="1" fill-rule="nonzero"/><path fill="#4e1d0f" d="M 17.300781 14.425781 C 17.300781 14.425781 16.503906 15.1875 16.214844 16.660156 C 15.929688 18.132812 16.0625 18.90625 16.0625 18.90625 L 15.4375 19.601562 C 15.4375 19.601562 14.5625 18.417969 14.664062 16.78125 L 15.183594 15.820312 Z M 17.300781 14.425781 " fill-opacity="1" fill-rule="nonzero"/><path fill="#4e1d0f" d="M 16.996094 11.980469 C 16.996094 11.980469 15.976562 12.324219 14.523438 13.441406 C 13.070312 14.5625 12.71875 15.269531 12.71875 15.269531 L 12.308594 13.761719 C 12.308594 13.761719 13.738281 12.320312 16.996094 11.980469 Z M 16.996094 11.980469 " fill-opacity="1" fill-rule="nonzero"/><path fill="#4e1d0f" d="M 25.25 8.078125 C 25.25 8.078125 25.441406 8.722656 25.074219 9.699219 C 24.707031 10.671875 23.5625 11.273438 23.5625 11.273438 L 24.429688 11.847656 C 24.429688 11.847656 26.007812 11.007812 25.25 8.078125 Z M 25.25 8.078125 " fill-opacity="1" fill-rule="nonzero"/><path fill="#4e1d0f" d="M 22.75 5.09375 L 22.316406 4.890625 C 22.316406 4.890625 23.035156 6.023438 22.972656 7.164062 C 22.910156 8.300781 22.71875 8.679688 22.71875 8.679688 C 22.71875 8.679688 24.15625 6.308594 22.75 5.09375 Z M 22.75 5.09375 " fill-opacity="1" fill-rule="nonzero"/><path fill="#4e1d0f" d="M 10.144531 7.621094 C 10.144531 7.621094 9.777344 9.195312 10.257812 10.03125 C 10.738281 10.863281 11.34375 11.164062 11.34375 11.164062 C 11.34375 11.164062 9.878906 10.804688 9.59375 9.71875 C 9.304688 8.632812 10.144531 7.621094 10.144531 7.621094 Z M 10.144531 7.621094 " fill-opacity="1" fill-rule="nonzero"/><path fill="#4e1d0f" d="M 14.003906 13.214844 L 13.839844 12.792969 C 13.839844 12.792969 13.289062 13.214844 12.167969 13.28125 C 11.046875 13.34375 10.503906 12.570312 10.503906 12.570312 C 10.503906 12.570312 10.71875 13.292969 11.335938 13.667969 C 11.953125 14.039062 12.789062 13.996094 12.789062 13.996094 Z M 14.003906 13.214844 " fill-opacity="1" fill-rule="nonzero"/><path fill="#4e1d0f" d="M 14.761719 4.429688 C 14.761719 4.429688 16.175781 4.472656 16.710938 5.25 C 17.25 6.03125 17.132812 6.738281 17.132812 6.738281 C 17.132812 6.738281 17.582031 6.074219 17.296875 5.167969 C 17.007812 4.257812 15.691406 4.1875 15.691406 4.1875 Z M 14.761719 4.429688 " fill-opacity="1" fill-rule="nonzero"/><path fill="#4e1d0f" d="M 18.398438 30.65625 C 18.398438 30.792969 18.351562 30.90625 18.253906 31.003906 C 18.15625 31.097656 18.039062 31.148438 17.902344 31.148438 C 17.765625 31.148438 17.652344 31.097656 17.554688 31.003906 C 17.457031 30.90625 17.410156 30.792969 17.410156 30.65625 C 17.410156 30.523438 17.457031 30.40625 17.554688 30.3125 C 17.652344 30.214844 17.765625 30.167969 17.902344 30.167969 C 18.039062 30.167969 18.15625 30.214844 18.253906 30.3125 C 18.351562 30.40625 18.398438 30.523438 18.398438 30.65625 Z M 18.398438 30.65625 " fill-opacity="1" fill-rule="nonzero"/><path fill="#4e1d0f" d="M 19.792969 34.171875 C 19.792969 34.308594 19.746094 34.421875 19.648438 34.519531 C 19.554688 34.613281 19.4375 34.664062 19.300781 34.664062 C 19.164062 34.664062 19.046875 34.613281 18.949219 34.519531 C 18.851562 34.421875 18.804688 34.308594 18.804688 34.171875 C 18.804688 34.039062 18.851562 33.921875 18.949219 33.828125 C 19.046875 33.730469 19.164062 33.683594 19.300781 33.683594 C 19.4375 33.683594 19.554688 33.730469 19.648438 33.828125 C 19.746094 33.921875 19.792969 34.039062 19.792969 34.171875 Z M 19.792969 34.171875 " fill-opacity="1" fill-rule="nonzero"/><path fill="#4e1d0f" d="M 20.289062 38.214844 C 20.289062 38.351562 20.242188 38.464844 20.144531 38.5625 C 20.046875 38.65625 19.929688 38.703125 19.792969 38.703125 C 19.65625 38.703125 19.542969 38.65625 19.445312 38.5625 C 19.347656 38.464844 19.300781 38.351562 19.300781 38.214844 C 19.300781 38.078125 19.347656 37.964844 19.445312 37.867188 C 19.542969 37.773438 19.65625 37.726562 19.792969 37.726562 C 19.929688 37.726562 20.046875 37.773438 20.144531 37.867188 C 20.242188 37.964844 20.289062 38.078125 20.289062 38.214844 Z M 20.289062 38.214844 " fill-opacity="1" fill-rule="nonzero"/><path fill="#4e1d0f" d="M 13.328125 18.003906 C 13.328125 18.003906 13.199219 17.28125 13.679688 17.121094 C 14.164062 16.964844 14.65625 17.3125 14.925781 17.917969 C 15.195312 18.523438 14.898438 18.511719 14.898438 18.511719 C 14.898438 18.511719 14.570312 17.578125 14.058594 17.496094 C 13.542969 17.410156 13.328125 18.003906 13.328125 18.003906 Z M 13.328125 18.003906 " fill-opacity="1" fill-rule="nonzero"/><path fill="#4e1d0f" d="M 30.742188 26.992188 C 30.742188 26.992188 30.425781 28 30.398438 28.734375 C 30.367188 29.472656 30.65625 30.222656 30.65625 30.222656 C 30.65625 30.222656 29.867188 29.285156 29.898438 28.339844 Z M 30.742188 26.992188 " fill-opacity="1" fill-rule="nonzero"/><path fill="#4e1d0f" d="M 20.441406 29.167969 C 20.441406 29.167969 20.511719 29.609375 20.269531 30.273438 C 20.03125 30.941406 19.871094 31.367188 19.871094 31.367188 C 19.871094 31.367188 20.21875 30.988281 20.453125 30.40625 C 20.691406 29.824219 20.761719 29.3125 20.761719 29.3125 Z M 20.441406 29.167969 " fill-opacity="1" fill-rule="nonzero"/><path fill="#4e1d0f" d="M 21.167969 29.136719 C 21.167969 29.136719 21.613281 28.871094 21.578125 28.175781 C 21.542969 27.480469 20.992188 26.855469 20.992188 26.855469 C 20.992188 26.855469 21.808594 27.332031 21.992188 28.117188 C 22.175781 28.902344 21.167969 29.136719 21.167969 29.136719 Z M 21.167969 29.136719 " fill-opacity="1" fill-rule="nonzero"/><path fill="#4e1d0f" d="M 22.480469 28.121094 C 22.480469 28.121094 22.949219 28.605469 23.820312 28.960938 C 24.691406 29.3125 25.210938 29.496094 25.210938 29.496094 C 25.210938 29.496094 24.28125 29.457031 23.539062 29.136719 C 22.792969 28.816406 22.367188 28.542969 22.367188 28.542969 Z M 22.480469 28.121094 " fill-opacity="1" fill-rule="nonzero"/><path fill="#4e1d0f" d="M 11.953125 25.613281 C 11.953125 25.613281 13.136719 25.359375 14.542969 25.546875 C 15.949219 25.730469 17.511719 26.398438 17.511719 26.398438 C 17.511719 26.398438 15.484375 25.875 14.0625 25.859375 C 12.636719 25.84375 11.691406 25.929688 11.691406 25.929688 Z M 11.953125 25.613281 " fill-opacity="1" fill-rule="nonzero"/><path fill="#4e1d0f" d="M 23.652344 23.167969 C 23.652344 23.167969 22.792969 23.699219 21.355469 23.71875 C 19.917969 23.738281 19.214844 23.359375 19.214844 23.359375 C 19.214844 23.359375 20.214844 24.226562 21.582031 24.199219 C 22.945312 24.167969 23.652344 23.167969 23.652344 23.167969 Z M 23.652344 23.167969 " fill-opacity="1" fill-rule="nonzero"/></svg>