<svg xmlns="http://www.w3.org/2000/svg" xmlns:xlink="http://www.w3.org/1999/xlink" width="60" zoomAndPan="magnify" viewBox="0 0 45 48" height="64" preserveAspectRatio="xMidYMid meet" version="1.0"><defs><clipPath id="adcd81553a"><path d="M 16 20 L 42 20 L 42 45.6875 L 16 45.6875 Z M 16 20 " clip-rule="nonzero"/></clipPath><clipPath id="28303ee61a"><path d="M 0.460938 26 L 14 26 L 14 32 L 0.460938 32 Z M 0.460938 26 " clip-rule="nonzero"/></clipPath><clipPath id="417ee673a7"><path d="M 28 7 L 44.539062 7 L 44.539062 37 L 28 37 Z M 28 7 " clip-rule="nonzero"/></clipPath><clipPath id="b49ca1ce9e"><path d="M 23 1.605469 L 28 1.605469 L 28 6 L 23 6 Z M 23 1.605469 " clip-rule="nonzero"/></clipPath><clipPath id="58fd08794c"><path d="M 0.460938 1.605469 L 44.539062 1.605469 L 44.539062 45.6875 L 0.460938 45.6875 Z M 0.460938 1.605469 " clip-rule="nonzero"/></clipPath></defs><path fill="#ff0000" d="M 19.324219 24.882812 C 18.109375 24.140625 16.71875 23.761719 15.761719 23.578125 L 15.28125 23.484375 L 15.71875 23.261719 C 16.144531 23.046875 16.8125 22.753906 17.59375 22.570312 C 18.105469 22.449219 18.609375 22.386719 19.089844 22.386719 C 20.253906 22.386719 21.3125 22.742188 22.242188 23.445312 L 22.550781 23.683594 L 22.167969 23.746094 C 21.792969 23.808594 21.414062 23.898438 21.035156 24.003906 C 20.519531 24.148438 20.015625 24.4375 19.527344 24.863281 L 19.433594 24.941406 Z M 19.324219 24.882812 " fill-opacity="1" fill-rule="nonzero"/><path fill="#ff0000" d="M 18.09375 27.136719 C 18.390625 26.605469 18.882812 25.84375 19.527344 25.234375 L 19.535156 25.230469 L 19.539062 25.226562 C 20.039062 24.753906 20.566406 24.433594 21.097656 24.28125 C 21.964844 24.035156 22.808594 23.902344 23.613281 23.902344 C 24.191406 23.902344 24.554688 23.972656 24.617188 23.988281 L 24.625 23.988281 L 24.636719 23.992188 C 25.203125 24.1875 25.820312 24.285156 26.457031 24.285156 C 27.15625 24.285156 27.90625 24.171875 28.691406 23.9375 C 29.269531 23.769531 29.789062 23.535156 30.25 23.234375 L 30.46875 23.484375 C 30.183594 23.839844 29.785156 24.128906 29.300781 24.34375 L 29.296875 24.347656 L 29.289062 24.347656 C 29.101562 24.410156 28.894531 24.492188 28.664062 24.570312 L 28.652344 24.570312 C 28.648438 24.570312 28.644531 24.574219 28.632812 24.574219 L 28.621094 24.574219 C 27.125 25.105469 24.890625 25.929688 22.726562 26.832031 L 22.679688 26.851562 L 22.628906 26.84375 C 22.261719 26.769531 21.875 26.730469 21.46875 26.730469 C 20.226562 26.730469 19.050781 27.078125 18.28125 27.371094 L 17.847656 27.535156 Z M 18.09375 27.136719 " fill-opacity="1" fill-rule="nonzero"/><path fill="#ffffff" d="M 15.941406 17.125 C 15.808594 17.125 15.671875 17.113281 15.542969 17.09375 C 14.761719 16.960938 14.527344 16.132812 14.464844 15.785156 C 14.25 14.617188 14.722656 12.910156 16.039062 12.058594 L 16.050781 12.046875 L 16.066406 12.042969 C 16.273438 11.953125 16.492188 11.890625 16.71875 11.855469 C 16.742188 11.847656 16.769531 11.84375 16.789062 11.84375 C 16.726562 11.839844 16.664062 11.839844 16.601562 11.839844 C 16.507812 11.839844 16.425781 11.84375 16.339844 11.847656 L 16.199219 11.859375 L 16.164062 11.722656 C 16.074219 11.402344 15.882812 10.546875 15.960938 9.445312 C 16.089844 7.632812 16.867188 6.070312 18.277344 4.792969 C 20.023438 3.207031 21.507812 2.761719 22.445312 2.664062 C 22.523438 2.652344 22.597656 2.648438 22.675781 2.648438 L 22.695312 2.648438 L 22.714844 2.652344 C 23.425781 2.789062 23.90625 3.03125 24.136719 3.382812 C 24.253906 3.566406 24.34375 3.75 24.402344 3.921875 C 24.394531 3.65625 24.339844 3.359375 24.171875 3.078125 L 24.082031 2.925781 L 24.238281 2.839844 C 24.246094 2.839844 24.253906 2.835938 24.261719 2.832031 L 24.269531 2.824219 C 24.324219 2.78125 24.851562 2.398438 25.601562 2.238281 C 25.832031 2.191406 26.058594 2.164062 26.28125 2.164062 C 27.082031 2.164062 27.828125 2.488281 28.511719 3.125 C 29.148438 3.722656 29.472656 4.464844 29.484375 5.335938 C 29.492188 6.457031 28.945312 7.539062 28.652344 7.953125 L 28.613281 8.011719 L 28.542969 8.023438 C 28.519531 8.027344 28.496094 8.03125 28.480469 8.046875 C 28.417969 8.097656 28.40625 8.183594 28.453125 8.242188 C 29.066406 9.046875 29.425781 9.953125 29.539062 10.9375 L 29.554688 11.074219 L 29.425781 11.113281 C 25.132812 12.449219 20.378906 15.8125 19.472656 16.472656 L 19.425781 16.511719 L 19.367188 16.511719 C 19.351562 16.511719 19.332031 16.511719 19.316406 16.511719 C 19.210938 16.511719 19.105469 16.527344 19.003906 16.554688 L 18.855469 16.589844 L 18.804688 16.449219 C 18.742188 16.285156 18.652344 16.101562 18.542969 15.898438 L 18.511719 15.839844 L 18.527344 15.777344 C 18.632812 15.320312 18.84375 14.882812 19.082031 14.511719 C 18.804688 14.789062 18.53125 15.125 18.351562 15.496094 C 18.324219 15.554688 18.292969 15.609375 18.265625 15.660156 L 18.257812 15.679688 L 18.203125 15.734375 C 18.183594 15.75 18.167969 15.761719 18.164062 15.78125 C 18.109375 15.828125 17.347656 17.125 15.941406 17.125 Z M 15.941406 17.125 " fill-opacity="1" fill-rule="nonzero"/><path fill="#ffffff" d="M 15.839844 42.757812 C 15.292969 42.445312 14.75 42.097656 14.234375 41.730469 L 14.148438 41.667969 L 14.167969 41.5625 C 14.167969 41.550781 14.167969 41.546875 14.167969 41.542969 C 14.109375 38.703125 14.402344 36.480469 15.007812 35.117188 C 15.011719 35.105469 15.015625 35.089844 15.015625 35.078125 L 15.039062 34.933594 L 15.183594 34.933594 C 15.808594 34.933594 16.351562 34.957031 16.800781 35 L 17.003906 35.019531 L 16.945312 35.214844 C 16.660156 36.179688 15.742188 39.558594 16.089844 42.585938 L 16.128906 42.917969 Z M 15.839844 42.757812 " fill-opacity="1" fill-rule="nonzero"/><path fill="#ffffff" d="M 15.195312 30.546875 C 15.070312 30.539062 14.8125 30.515625 14.480469 30.515625 L 14.296875 30.515625 L 14.277344 30.375 C 14.222656 30.019531 14.066406 29.398438 13.648438 28.476562 C 13.425781 27.988281 13.117188 27.566406 12.867188 27.230469 L 12.863281 27.21875 C 12.628906 26.898438 12.460938 26.664062 12.429688 26.515625 L 12.40625 26.40625 L 12.5 26.34375 C 12.597656 26.28125 12.761719 26.234375 13.003906 26.207031 C 14.515625 26.007812 17.339844 24.605469 17.652344 24.449219 L 17.71875 24.417969 L 17.785156 24.441406 C 18.246094 24.621094 18.671875 24.820312 19.050781 25.042969 L 19.230469 25.148438 L 19.085938 25.300781 C 18.058594 26.394531 17.496094 27.730469 17.46875 27.78125 C 17.449219 27.835938 17.457031 27.898438 17.5 27.941406 C 17.527344 27.964844 17.558594 27.976562 17.59375 27.976562 C 17.613281 27.976562 17.636719 27.972656 17.65625 27.960938 C 17.671875 27.949219 19.535156 27.019531 21.507812 27.019531 L 21.574219 27.339844 C 20.285156 27.902344 19.226562 28.417969 18.421875 28.867188 C 18.375 28.894531 18.351562 28.949219 18.355469 29 C 18.355469 29.011719 18.355469 29.015625 18.359375 29.027344 L 18.40625 29.171875 L 15.234375 30.546875 Z M 15.195312 30.546875 " fill-opacity="1" fill-rule="nonzero"/><g clip-path="url(#adcd81553a)"><path fill="#ffffff" d="M 25.179688 45.242188 C 22.179688 45.242188 19.183594 44.511719 16.519531 43.125 L 16.445312 43.089844 L 16.429688 43.007812 C 15.933594 39.917969 16.929688 36.253906 17.25 35.207031 L 17.289062 35.074219 L 17.425781 35.089844 C 17.671875 35.117188 17.910156 35.125 18.148438 35.125 C 18.449219 35.125 18.742188 35.105469 19.011719 35.0625 L 19.144531 35.042969 L 19.195312 35.164062 C 19.363281 35.550781 19.523438 35.851562 19.652344 35.996094 L 19.679688 36.03125 L 19.691406 36.070312 C 19.695312 36.085938 19.699219 36.101562 19.707031 36.113281 C 19.734375 36.15625 19.773438 36.175781 19.820312 36.175781 C 19.914062 36.175781 22.101562 36.171875 24.917969 35.78125 C 27.246094 35.460938 30.582031 34.789062 33.265625 33.398438 L 33.269531 33.394531 L 33.277344 33.394531 C 34.351562 32.9375 35.042969 32.15625 35.449219 31.546875 C 35.167969 31.78125 34.824219 32.050781 34.429688 32.316406 C 33.777344 32.757812 33.164062 33.109375 32.773438 33.332031 L 32.765625 33.335938 C 28.265625 35.503906 22.070312 35.835938 20.273438 35.882812 L 20.035156 35.886719 L 20.113281 35.660156 C 20.347656 34.957031 20.703125 33.53125 20.429688 31.824219 C 20.191406 30.308594 19.523438 29.523438 19.007812 29.132812 L 18.796875 28.972656 L 19.035156 28.847656 C 19.976562 28.347656 21.207031 27.78125 22.679688 27.164062 L 22.714844 27.148438 L 22.757812 27.152344 C 22.761719 27.152344 22.761719 27.152344 22.769531 27.152344 C 22.808594 27.152344 22.847656 27.136719 22.871094 27.105469 L 22.898438 27.074219 L 22.9375 27.058594 C 25.070312 26.171875 27.277344 25.355469 28.757812 24.832031 L 28.769531 24.832031 C 28.996094 24.769531 29.222656 24.691406 29.429688 24.601562 L 29.441406 24.601562 C 29.671875 24.523438 30.015625 24.402344 30.359375 24.285156 L 30.378906 24.28125 C 30.417969 24.269531 30.449219 24.242188 30.464844 24.210938 C 30.480469 24.179688 30.484375 24.144531 30.472656 24.105469 C 30.472656 24.101562 30.46875 24.097656 30.46875 24.089844 L 30.417969 23.988281 L 30.5 23.902344 C 31.089844 23.316406 31.230469 22.679688 31.261719 22.433594 L 31.265625 22.386719 L 31.296875 22.347656 C 31.640625 21.945312 31.917969 21.476562 32.113281 20.960938 L 32.136719 20.890625 L 32.210938 20.863281 C 32.484375 20.769531 32.875 20.664062 33.15625 20.664062 C 33.265625 20.664062 33.355469 20.679688 33.421875 20.710938 L 33.425781 20.714844 C 33.527344 20.753906 35.773438 21.667969 37.554688 27.886719 C 38.628906 31.65625 39.394531 32.582031 39.902344 33.195312 C 40.246094 33.609375 40.433594 33.835938 40.511719 34.769531 C 40.554688 35.242188 40.710938 35.773438 40.976562 36.34375 C 40.980469 36.359375 40.992188 36.371094 41.007812 36.386719 L 41.105469 36.480469 L 41.027344 36.597656 C 37.511719 42.003906 31.585938 45.242188 25.179688 45.242188 Z M 25.179688 45.242188 " fill-opacity="1" fill-rule="nonzero"/></g><path fill="#ffcd92" d="M 26.472656 24.003906 C 25.519531 24.003906 24.640625 23.777344 23.871094 23.332031 C 21.683594 22.070312 21.003906 19.417969 20.996094 19.394531 C 20.984375 19.339844 20.941406 19.296875 20.902344 19.289062 C 20.890625 19.28125 20.875 19.28125 20.863281 19.28125 C 20.828125 19.28125 20.796875 19.296875 20.769531 19.324219 L 20.765625 19.332031 L 20.761719 19.335938 C 20.707031 19.378906 20.519531 19.519531 20.191406 19.519531 C 19.820312 19.519531 19.402344 19.339844 18.964844 18.988281 C 18.292969 18.453125 18.242188 17.808594 18.417969 17.386719 C 18.574219 17.007812 18.914062 16.777344 19.304688 16.777344 C 19.347656 16.777344 19.394531 16.785156 19.433594 16.789062 C 19.441406 16.789062 19.445312 16.789062 19.457031 16.789062 C 19.488281 16.789062 19.511719 16.777344 19.539062 16.761719 C 19.585938 16.726562 24.507812 13.105469 28.960938 11.554688 L 29.101562 11.507812 L 29.164062 11.644531 C 29.390625 12.121094 30.191406 13.78125 31.183594 15.046875 C 31.824219 15.867188 32.632812 18.421875 31.941406 20.59375 C 31.929688 20.636719 31.914062 20.679688 31.898438 20.722656 L 31.898438 20.726562 L 31.894531 20.738281 C 31.382812 22.195312 30.285156 23.183594 28.632812 23.667969 C 27.871094 23.890625 27.144531 24.003906 26.472656 24.003906 Z M 26.472656 24.003906 " fill-opacity="1" fill-rule="nonzero"/><path fill="#ffcd92" d="M 6.789062 35.410156 C 6.445312 35.410156 6.230469 35.355469 6.109375 35.242188 C 6.027344 35.164062 5.996094 35.054688 6.011719 34.894531 C 6.03125 34.652344 6.335938 34.132812 8.121094 33.320312 C 8.714844 33.046875 9.3125 32.820312 9.710938 32.679688 L 10.019531 32.570312 L 9.929688 32.886719 C 9.832031 33.238281 9.871094 33.5625 10.050781 33.84375 C 10.238281 34.140625 10.445312 34.285156 10.6875 34.285156 C 10.960938 34.285156 11.265625 34.101562 11.535156 33.945312 C 11.9375 33.703125 12.433594 33.40625 13.105469 33.324219 C 13.183594 33.316406 13.238281 33.246094 13.226562 33.167969 C 13.214844 33.101562 13.160156 33.046875 13.085938 33.046875 C 13.082031 33.046875 13.074219 33.046875 13.070312 33.046875 C 12.34375 33.136719 11.796875 33.46875 11.394531 33.703125 C 11.046875 33.914062 10.863281 34.011719 10.703125 34.011719 C 10.484375 34.011719 10.367188 33.835938 10.285156 33.699219 C 10.128906 33.453125 10.113281 33.167969 10.234375 32.851562 C 10.515625 32.125 11.515625 31.332031 12.511719 31.050781 C 13.238281 30.847656 13.976562 30.804688 14.472656 30.804688 C 14.9375 30.804688 15.242188 30.84375 15.242188 30.84375 C 15.246094 30.84375 15.25 30.84375 15.257812 30.84375 C 15.277344 30.84375 15.292969 30.835938 15.3125 30.832031 L 18.789062 29.324219 L 18.867188 29.382812 C 19.332031 29.738281 19.9375 30.464844 20.160156 31.875 C 20.285156 32.660156 20.285156 33.472656 20.15625 34.292969 L 20.144531 34.363281 L 20.085938 34.40625 C 19.773438 34.621094 19.101562 34.847656 18.148438 34.847656 C 17.847656 34.847656 17.542969 34.828125 17.222656 34.785156 L 17.195312 34.785156 L 17.1875 34.78125 C 16.660156 34.707031 15.972656 34.667969 15.148438 34.667969 C 13.695312 34.667969 11.839844 34.785156 10.167969 34.984375 C 9.652344 35.046875 9.167969 35.121094 8.695312 35.195312 L 8.679688 35.195312 C 7.996094 35.300781 7.285156 35.410156 6.789062 35.410156 Z M 6.789062 35.410156 " fill-opacity="1" fill-rule="nonzero"/><g clip-path="url(#28303ee61a)"><path fill="#ffcd92" d="M 11.484375 31.042969 C 11.457031 31.015625 11.425781 31 11.390625 31 C 11.269531 30.996094 8.472656 30.816406 6.675781 30.429688 L 6.664062 30.429688 C 6.652344 30.421875 6.644531 30.421875 6.632812 30.421875 L 6.613281 30.421875 C 6.117188 30.3125 5.757812 30.203125 5.511719 30.078125 C 4.714844 29.671875 3.503906 29.621094 2.53125 29.570312 C 1.796875 29.535156 1.300781 29.507812 1.070312 29.398438 L 0.976562 29.355469 L 0.972656 29.253906 C 0.972656 29.199219 0.984375 29.003906 1.21875 28.738281 C 1.78125 28.085938 2.886719 27.714844 4.242188 27.714844 C 4.746094 27.714844 5.28125 27.765625 5.839844 27.859375 C 5.851562 27.859375 5.855469 27.859375 5.867188 27.859375 C 5.933594 27.859375 5.992188 27.8125 6 27.746094 C 6.007812 27.707031 6 27.671875 5.980469 27.640625 C 5.960938 27.609375 5.929688 27.585938 5.890625 27.582031 C 5.324219 27.484375 4.777344 27.429688 4.257812 27.429688 C 3.84375 27.429688 3.441406 27.46875 3.070312 27.53125 L 2.949219 27.21875 C 3.132812 27.105469 3.335938 27.003906 3.542969 26.914062 C 4.085938 26.699219 4.707031 26.589844 5.390625 26.589844 C 6.285156 26.589844 7.273438 26.773438 8.339844 27.132812 C 8.347656 27.136719 8.359375 27.136719 8.375 27.136719 C 8.464844 27.140625 8.953125 27.179688 9.585938 27.179688 C 10.34375 27.179688 11.394531 27.125 12.132812 26.890625 L 12.25 26.847656 L 12.320312 26.957031 C 12.40625 27.09375 12.523438 27.25 12.621094 27.386719 C 12.878906 27.734375 13.164062 28.125 13.375 28.585938 C 13.753906 29.421875 13.90625 29.996094 13.96875 30.332031 L 14 30.515625 L 13.816406 30.53125 C 13.316406 30.570312 12.847656 30.648438 12.421875 30.765625 C 12.183594 30.832031 11.921875 30.9375 11.667969 31.070312 L 11.558594 31.125 Z M 11.484375 31.042969 " fill-opacity="1" fill-rule="nonzero"/></g><path fill="#ffcd92" d="M 5.828125 34.414062 C 5.511719 34.386719 5.066406 34.140625 4.90625 33.789062 C 4.761719 33.476562 4.871094 33.164062 5.234375 32.859375 C 6.074219 32.164062 8.984375 31.925781 10.203125 31.851562 L 10.570312 31.828125 L 10.34375 32.125 L 10.316406 32.15625 L 10.265625 32.21875 L 10.1875 32.21875 C 10.167969 32.21875 10.152344 32.21875 10.144531 32.222656 L 10.132812 32.230469 C 9.871094 32.3125 8.953125 32.628906 8.011719 33.058594 C 6.992188 33.523438 6.304688 33.960938 5.976562 34.355469 L 5.917969 34.421875 Z M 5.828125 34.414062 " fill-opacity="1" fill-rule="nonzero"/><g clip-path="url(#417ee673a7)"><path fill="#ffb600" d="M 41.109375 35.949219 C 40.929688 35.507812 40.820312 35.101562 40.789062 34.734375 C 40.699219 33.714844 40.464844 33.429688 40.113281 33.003906 C 39.621094 32.40625 38.878906 31.507812 37.820312 27.796875 C 36.019531 21.5 33.628906 20.484375 33.53125 20.441406 C 33.425781 20.394531 33.296875 20.375 33.140625 20.375 C 32.960938 20.375 32.75 20.40625 32.519531 20.464844 L 32.253906 20.53125 L 32.316406 20.265625 C 32.8125 18.136719 32.097656 15.769531 31.398438 14.878906 C 30.457031 13.6875 29.664062 12.070312 29.445312 11.601562 L 29.363281 11.425781 L 29.550781 11.367188 C 29.613281 11.34375 29.675781 11.328125 29.734375 11.308594 C 29.734375 11.308594 29.75 11.304688 29.75 11.304688 C 29.75 11.304688 29.765625 11.296875 29.765625 11.296875 C 29.769531 11.292969 29.773438 11.292969 29.773438 11.292969 C 29.773438 11.292969 29.78125 11.289062 29.78125 11.289062 L 29.789062 11.277344 L 29.796875 11.273438 L 29.800781 11.265625 L 29.804688 11.261719 L 29.8125 11.257812 L 29.816406 11.25 L 29.820312 11.246094 L 29.828125 11.242188 L 29.835938 11.21875 L 29.84375 11.203125 C 29.84375 11.199219 29.84375 11.1875 29.84375 11.1875 L 29.84375 11.171875 C 29.84375 11.171875 29.84375 11.152344 29.84375 11.152344 C 29.769531 10.128906 29.441406 9.175781 28.863281 8.320312 L 28.792969 8.222656 L 28.867188 8.128906 C 28.949219 8.011719 29.042969 7.863281 29.128906 7.703125 L 29.183594 7.589844 L 29.3125 7.617188 C 37.882812 9.535156 44.105469 17.351562 44.105469 26.195312 C 44.105469 29.640625 43.175781 33.015625 41.417969 35.960938 L 41.246094 36.246094 Z M 41.109375 35.949219 " fill-opacity="1" fill-rule="nonzero"/></g><path fill="#ffb600" d="M 9.601562 26.898438 C 9.03125 26.898438 8.566406 26.875 8.441406 26.863281 L 8.421875 26.863281 L 8.402344 26.859375 C 7.707031 26.628906 7.035156 26.464844 6.410156 26.378906 L 6.261719 26.359375 L 6.261719 26.207031 C 6.261719 22.941406 7.113281 19.707031 8.71875 16.847656 C 10.328125 13.992188 12.636719 11.585938 15.414062 9.902344 L 15.664062 9.75 L 15.667969 10.042969 C 15.671875 10.808594 15.800781 11.410156 15.871094 11.695312 L 15.898438 11.8125 L 15.804688 11.878906 C 14.4375 12.820312 13.957031 14.585938 14.1875 15.839844 C 14.34375 16.699219 14.824219 17.261719 15.496094 17.371094 C 15.648438 17.398438 15.804688 17.410156 15.949219 17.410156 C 17.054688 17.410156 17.796875 16.691406 18.140625 16.265625 L 18.308594 16.058594 L 18.421875 16.300781 C 18.480469 16.417969 18.523438 16.527344 18.558594 16.625 L 18.59375 16.738281 L 18.507812 16.808594 C 18.355469 16.941406 18.234375 17.105469 18.15625 17.292969 C 17.949219 17.785156 17.988281 18.589844 18.789062 19.226562 C 19.285156 19.617188 19.753906 19.816406 20.1875 19.816406 C 20.34375 19.816406 20.488281 19.792969 20.625 19.738281 L 20.785156 19.683594 L 20.84375 19.84375 C 21.078125 20.53125 21.789062 22.25 23.34375 23.335938 L 23.75 23.617188 L 23.253906 23.640625 C 23.175781 23.644531 23.09375 23.652344 22.984375 23.65625 L 22.910156 23.660156 L 22.855469 23.613281 C 21.777344 22.621094 20.503906 22.121094 19.070312 22.121094 C 18.570312 22.121094 18.042969 22.1875 17.511719 22.3125 C 15.964844 22.679688 14.855469 23.445312 14.808594 23.476562 C 14.761719 23.507812 14.738281 23.570312 14.753906 23.628906 C 14.769531 23.6875 14.816406 23.730469 14.875 23.734375 C 14.878906 23.734375 15.785156 23.824219 16.9375 24.164062 L 17.359375 24.292969 L 16.960938 24.480469 C 15.941406 24.964844 14.0625 25.796875 12.960938 25.945312 C 12.652344 25.988281 12.28125 26.066406 12.171875 26.324219 C 12.152344 26.375 12.140625 26.425781 12.140625 26.492188 L 12.148438 26.617188 L 12.027344 26.652344 C 11.324219 26.859375 10.320312 26.898438 9.601562 26.898438 Z M 9.601562 26.898438 " fill-opacity="1" fill-rule="nonzero"/><path fill="#ffb600" d="M 13.617188 41.269531 C 11.644531 39.734375 10.019531 37.863281 8.777344 35.6875 L 8.65625 35.476562 L 8.898438 35.441406 C 9.328125 35.375 9.753906 35.308594 10.203125 35.257812 C 11.621094 35.089844 13.195312 34.972656 14.527344 34.949219 L 14.78125 34.941406 L 14.683594 35.179688 C 14.128906 36.535156 13.863281 38.535156 13.882812 41.132812 L 13.890625 41.480469 Z M 13.617188 41.269531 " fill-opacity="1" fill-rule="nonzero"/><path fill="#ffb600" d="M 7.085938 31.773438 C 7.007812 31.515625 6.933594 31.253906 6.867188 30.988281 L 6.800781 30.730469 L 7.054688 30.78125 C 8.296875 31.011719 9.800781 31.148438 10.582031 31.214844 L 10.578125 31.550781 C 9.871094 31.582031 8.503906 31.667969 7.269531 31.886719 L 7.125 31.914062 Z M 7.085938 31.773438 " fill-opacity="1" fill-rule="nonzero"/><path fill="#cccccc" d="M 28.664062 7.597656 C 28.664062 7.597656 28.261719 8.191406 27.6875 8.671875 C 27.113281 9.15625 26.421875 9.292969 26.421875 9.292969 C 26.421875 9.292969 27.433594 9.246094 28.058594 9.960938 C 28.679688 10.671875 28.210938 11.65625 28.210938 11.65625 L 29.710938 11.121094 L 28.664062 7.597656 " fill-opacity="1" fill-rule="nonzero"/><path fill="#cccccc" d="M 18.304688 16.054688 C 18.304688 16.054688 18.554688 15.234375 19.007812 14.648438 C 19.460938 14.058594 20.125 13.460938 20.125 13.460938 C 20.125 13.460938 20.53125 14.117188 21.746094 14.042969 C 22.96875 13.96875 24.621094 13.34375 24.621094 13.34375 L 19.050781 16.695312 Z M 18.304688 16.054688 " fill-opacity="1" fill-rule="nonzero"/><path fill="#cccccc" d="M 14.070312 15.417969 C 14.070312 15.417969 13.820312 13.519531 15.152344 12.601562 C 16.488281 11.675781 17.164062 11.800781 17.164062 11.800781 L 18.5625 11.980469 C 18.5625 11.980469 16.441406 12.617188 16.019531 14.4375 C 15.59375 16.257812 16.984375 16.785156 16.984375 16.785156 C 16.984375 16.785156 14.34375 18.410156 14.070312 15.417969 Z M 14.070312 15.417969 " fill-opacity="1" fill-rule="nonzero"/><g clip-path="url(#b49ca1ce9e)"><path fill="#cccccc" d="M 23.625 2.664062 C 23.625 2.664062 24.089844 2.839844 24.375 3.527344 C 24.664062 4.214844 24.316406 5.019531 24.316406 5.019531 C 24.316406 5.019531 25.285156 4.703125 25.636719 3.757812 C 25.992188 2.816406 26.78125 2.242188 27.464844 2.445312 C 28.148438 2.652344 26.828125 1.824219 25.488281 2.027344 C 24.144531 2.230469 24.386719 3.035156 23.625 2.664062 Z M 23.625 2.664062 " fill-opacity="1" fill-rule="nonzero"/></g><path fill="#cccccc" d="M 32.226562 20.769531 C 32.226562 20.769531 32.660156 22.035156 31.757812 23.027344 C 30.855469 24.023438 30.402344 23.976562 30.402344 23.976562 L 31.011719 22.5625 Z M 32.226562 20.769531 " fill-opacity="1" fill-rule="nonzero"/><path fill="#cccccc" d="M 14.015625 25.761719 C 14.015625 25.761719 14.378906 25.65625 15.007812 26.738281 C 15.632812 27.8125 15.558594 28.679688 15.558594 28.679688 C 15.558594 28.679688 16.054688 27.980469 16.066406 26.761719 C 16.074219 25.546875 17.871094 24.453125 17.871094 24.453125 L 14.015625 25.761719 " fill-opacity="1" fill-rule="nonzero"/><path fill="#cccccc" d="M 20.175781 34.941406 C 20.175781 34.941406 21.476562 34.769531 22.425781 33.714844 C 23.375 32.660156 23.253906 31.285156 23.253906 31.285156 C 23.253906 31.285156 23.675781 33.078125 23.59375 34.445312 C 23.507812 35.808594 22.695312 35.886719 22.695312 35.886719 C 22.695312 35.886719 19.753906 36.09375 19.722656 35.871094 C 19.683594 35.652344 20.175781 34.941406 20.175781 34.941406 Z M 20.175781 34.941406 " fill-opacity="1" fill-rule="nonzero"/><path fill="#cccccc" d="M 14.148438 40.300781 C 14.148438 40.300781 15.15625 39.742188 15.578125 38.3125 C 16.003906 36.886719 17.007812 35.027344 17.007812 35.027344 C 17.007812 35.027344 16.070312 38.40625 16.050781 40.117188 C 16.027344 41.832031 16.292969 43.132812 16.292969 43.132812 L 14.015625 41.625 Z M 14.148438 40.300781 " fill-opacity="1" fill-rule="nonzero"/><path fill="#cccccc" d="M 34.054688 42.949219 C 34.054688 42.949219 36.113281 42 37.46875 38.253906 C 38.828125 34.511719 38.367188 30.859375 38.367188 30.859375 C 38.367188 30.859375 39.070312 31.925781 39.984375 33.121094 C 40.902344 34.316406 40.558594 34.585938 40.695312 35.261719 C 40.828125 35.941406 40.996094 36.375 40.996094 36.375 C 40.996094 36.375 40.667969 37.171875 39.660156 38.6875 C 38.652344 40.191406 35.738281 42.277344 35.738281 42.277344 Z M 34.054688 42.949219 " fill-opacity="1" fill-rule="nonzero"/><path fill="#e8894c" d="M 29.503906 23.132812 L 28.675781 22.980469 L 27.695312 22.609375 C 27.695312 22.609375 26.863281 23.179688 25.902344 23.320312 C 24.945312 23.460938 23.957031 23.1875 23.957031 23.1875 C 23.957031 23.1875 24.902344 24.203125 26.488281 24.175781 C 28.070312 24.148438 29.058594 23.753906 29.503906 23.132812 Z M 29.503906 23.132812 " fill-opacity="1" fill-rule="nonzero"/><path fill="#e8894c" d="M 31.804688 20.578125 L 31.675781 20.253906 L 31.542969 20.066406 C 31.542969 20.066406 31.652344 19.984375 31.832031 19.625 C 32.007812 19.257812 32.007812 18.851562 32.007812 18.851562 C 32.007812 18.851562 32.320312 19.058594 32.191406 19.78125 C 32.058594 20.507812 31.804688 20.578125 31.804688 20.578125 Z M 31.804688 20.578125 " fill-opacity="1" fill-rule="nonzero"/><path fill="#e8894c" d="M 28.726562 18.652344 C 28.726562 18.652344 30.402344 18.21875 30.464844 17.640625 C 30.527344 17.0625 30.144531 16.679688 30.144531 16.679688 L 29.328125 16.191406 C 29.328125 16.191406 29.816406 16.558594 29.597656 17.425781 C 29.382812 18.285156 28.1875 18.433594 27.679688 18.253906 C 27.171875 18.074219 27.808594 18.574219 28.1875 18.617188 C 28.574219 18.65625 28.726562 18.652344 28.726562 18.652344 Z M 28.726562 18.652344 " fill-opacity="1" fill-rule="nonzero"/><path fill="#e8894c" d="M 23.980469 13.96875 C 23.980469 13.96875 25.851562 13.125 27.5 12.738281 C 29.148438 12.347656 29.773438 12.546875 29.773438 12.546875 L 29.238281 11.355469 C 29.238281 11.355469 24.808594 12.824219 23.980469 13.96875 Z M 23.980469 13.96875 " fill-opacity="1" fill-rule="nonzero"/><path fill="#e8894c" d="M 19.335938 18.542969 C 19.335938 18.542969 18.71875 17.96875 19.304688 17.714844 C 19.890625 17.457031 20.207031 17.859375 20.207031 17.859375 L 20.566406 18.238281 C 20.566406 18.238281 20.039062 17.917969 19.605469 18.023438 C 19.175781 18.128906 19.335938 18.542969 19.335938 18.542969 Z M 19.335938 18.542969 " fill-opacity="1" fill-rule="nonzero"/><path fill="#e8894c" d="M 15.152344 30.730469 C 15.152344 30.730469 16.417969 30.039062 18.125 31.277344 C 19.832031 32.515625 20.078125 34.398438 20.078125 34.398438 C 20.078125 34.398438 20.316406 33.214844 20.242188 31.582031 C 20.171875 29.949219 18.667969 29.234375 18.667969 29.234375 Z M 15.152344 30.730469 " fill-opacity="1" fill-rule="nonzero"/><path fill="#e8894c" d="M 8.203125 30.738281 C 8.203125 30.738281 10.484375 30.617188 11.214844 29.507812 C 11.9375 28.402344 11.417969 26.898438 11.417969 26.898438 L 12.511719 26.730469 C 12.511719 26.730469 14.199219 28.695312 14.101562 29.609375 C 14.007812 30.523438 14.109375 30.738281 14.109375 30.738281 L 10.859375 31.277344 Z M 8.203125 30.738281 " fill-opacity="1" fill-rule="nonzero"/><g clip-path="url(#58fd08794c)"><path fill="#4e1d0f" d="M 43.386719 19.5625 C 44.152344 21.6875 44.539062 23.921875 44.539062 26.203125 C 44.539062 28.832031 44.027344 31.382812 43.015625 33.789062 C 42.039062 36.109375 40.648438 38.191406 38.867188 39.980469 C 37.089844 41.773438 35.019531 43.175781 32.710938 44.15625 C 30.324219 45.167969 27.792969 45.6875 25.171875 45.6875 C 22 45.6875 18.941406 44.90625 16.214844 43.480469 C 16.183594 43.46875 16.152344 43.453125 16.128906 43.429688 C 12.878906 41.703125 10.128906 39.046875 8.265625 35.710938 C 7.703125 35.792969 7.21875 35.855469 6.816406 35.855469 C 6.367188 35.855469 6.027344 35.777344 5.804688 35.566406 C 5.679688 35.445312 5.53125 35.226562 5.5625 34.851562 C 5.5625 34.84375 5.5625 34.832031 5.570312 34.816406 C 5.152344 34.707031 4.703125 34.40625 4.5 33.976562 C 4.390625 33.742188 4.207031 33.125 4.949219 32.511719 C 5.296875 32.222656 5.921875 32.003906 6.636719 31.839844 C 6.535156 31.5 6.445312 31.152344 6.363281 30.804688 C 5.933594 30.707031 5.570312 30.589844 5.3125 30.464844 C 4.597656 30.109375 3.441406 30.050781 2.511719 30.007812 C 1.761719 29.972656 1.171875 29.945312 0.847656 29.777344 C 0.566406 29.628906 0.460938 29.304688 0.585938 28.941406 C 0.71875 28.554688 1.113281 28.101562 1.792969 27.765625 C 1.796875 27.730469 1.8125 27.6875 1.832031 27.652344 C 1.847656 27.625 2.28125 26.957031 3.335938 26.523438 C 4.0625 26.222656 4.890625 26.097656 5.820312 26.148438 C 5.828125 22.683594 6.753906 19.289062 8.496094 16.316406 C 10.191406 13.417969 12.621094 11 15.511719 9.320312 C 15.515625 9.3125 15.523438 9.3125 15.527344 9.308594 C 15.640625 7.980469 16.167969 6.101562 17.980469 4.457031 C 21.089844 1.632812 23.476562 2.148438 24.125 2.363281 C 24.355469 2.210938 24.851562 1.925781 25.496094 1.785156 C 26.328125 1.605469 27.578125 1.628906 28.804688 2.78125 C 29.757812 3.675781 30.109375 4.882812 29.8125 6.273438 C 29.742188 6.589844 29.640625 6.910156 29.523438 7.207031 C 33.691406 8.167969 37.46875 10.535156 40.1875 13.890625 C 41.570312 15.601562 42.644531 17.507812 43.386719 19.5625 Z M 41.261719 35.886719 C 42.953125 33.058594 43.921875 29.746094 43.921875 26.207031 C 43.921875 17.425781 37.761719 9.691406 29.257812 7.792969 C 29.164062 7.964844 29.070312 8.117188 28.980469 8.238281 C 29.578125 9.113281 29.914062 10.097656 29.988281 11.152344 C 29.988281 11.152344 29.988281 11.15625 29.988281 11.15625 C 29.988281 11.15625 29.988281 11.160156 29.988281 11.160156 C 29.988281 11.171875 29.988281 11.175781 29.988281 11.1875 C 29.988281 11.191406 29.988281 11.191406 29.988281 11.191406 C 29.988281 11.199219 29.988281 11.207031 29.988281 11.214844 C 29.988281 11.21875 29.988281 11.21875 29.988281 11.222656 C 29.988281 11.230469 29.988281 11.234375 29.984375 11.242188 C 29.984375 11.246094 29.984375 11.25 29.976562 11.257812 C 29.976562 11.261719 29.976562 11.265625 29.972656 11.273438 C 29.972656 11.277344 29.96875 11.28125 29.96875 11.289062 C 29.96875 11.292969 29.960938 11.296875 29.960938 11.296875 C 29.960938 11.304688 29.957031 11.308594 29.957031 11.3125 C 29.957031 11.320312 29.953125 11.324219 29.953125 11.324219 C 29.953125 11.328125 29.945312 11.335938 29.945312 11.335938 C 29.945312 11.339844 29.941406 11.34375 29.941406 11.34375 C 29.941406 11.34375 29.9375 11.351562 29.929688 11.355469 C 29.925781 11.359375 29.925781 11.367188 29.921875 11.367188 C 29.921875 11.371094 29.914062 11.371094 29.914062 11.375 C 29.910156 11.382812 29.90625 11.386719 29.90625 11.386719 C 29.898438 11.390625 29.898438 11.390625 29.894531 11.390625 C 29.890625 11.398438 29.882812 11.398438 29.878906 11.402344 C 29.875 11.410156 29.875 11.410156 29.867188 11.410156 C 29.863281 11.414062 29.859375 11.414062 29.851562 11.417969 C 29.847656 11.425781 29.84375 11.425781 29.835938 11.425781 C 29.832031 11.425781 29.832031 11.429688 29.828125 11.429688 C 29.820312 11.433594 29.816406 11.433594 29.804688 11.441406 C 29.800781 11.441406 29.800781 11.445312 29.796875 11.445312 C 29.789062 11.449219 29.78125 11.449219 29.773438 11.449219 C 29.773438 11.449219 29.769531 11.449219 29.769531 11.449219 C 29.707031 11.464844 29.648438 11.488281 29.585938 11.503906 C 29.816406 11.984375 30.597656 13.578125 31.515625 14.746094 C 32.261719 15.691406 32.96875 18.121094 32.46875 20.273438 C 32.820312 20.1875 33.265625 20.128906 33.578125 20.257812 C 33.785156 20.34375 36.160156 21.414062 37.964844 27.722656 C 39.015625 31.398438 39.746094 32.285156 40.230469 32.867188 C 40.589844 33.304688 40.851562 33.621094 40.945312 34.691406 C 40.980469 35.070312 41.089844 35.460938 41.261719 35.886719 Z M 40.886719 36.492188 C 40.859375 36.464844 40.835938 36.433594 40.820312 36.402344 C 40.542969 35.8125 40.378906 35.261719 40.339844 34.769531 C 40.261719 33.894531 40.097656 33.6875 39.765625 33.289062 C 39.25 32.664062 38.464844 31.71875 37.382812 27.917969 C 35.617188 21.75 33.386719 20.867188 33.359375 20.859375 C 33.355469 20.859375 33.347656 20.851562 33.339844 20.851562 C 33.132812 20.761719 32.613281 20.882812 32.246094 21.011719 C 32.042969 21.546875 31.761719 22.027344 31.402344 22.449219 C 31.367188 22.710938 31.21875 23.394531 30.59375 24.019531 C 30.597656 24.027344 30.605469 24.039062 30.605469 24.050781 C 30.65625 24.210938 30.574219 24.386719 30.410156 24.4375 C 30.394531 24.441406 30.046875 24.558594 29.476562 24.761719 C 29.273438 24.851562 29.042969 24.9375 28.792969 25.003906 C 27.34375 25.519531 25.125 26.339844 22.984375 27.226562 C 22.921875 27.300781 22.824219 27.335938 22.726562 27.332031 C 21.40625 27.882812 20.128906 28.460938 19.097656 29.003906 C 19.601562 29.386719 20.332031 30.203125 20.582031 31.804688 C 20.859375 33.550781 20.492188 35.015625 20.253906 35.71875 C 21.960938 35.671875 28.1875 35.355469 32.675781 33.1875 C 33.019531 32.996094 33.640625 32.636719 34.320312 32.179688 C 35.347656 31.492188 36.054688 30.753906 36.054688 30.753906 C 36.054688 30.753906 35.335938 32.691406 33.324219 33.550781 C 30.644531 34.9375 27.332031 35.621094 24.921875 35.949219 C 22.089844 36.339844 19.863281 36.34375 19.804688 36.34375 C 19.699219 36.34375 19.601562 36.292969 19.550781 36.203125 C 19.527344 36.171875 19.519531 36.140625 19.507812 36.109375 C 19.320312 35.894531 19.136719 35.5 19.019531 35.226562 C 18.554688 35.300781 18 35.316406 17.390625 35.253906 C 17.097656 36.214844 16.082031 39.898438 16.578125 42.980469 C 19.191406 44.335938 22.121094 45.074219 25.164062 45.074219 C 31.746094 45.074219 37.539062 41.652344 40.886719 36.492188 Z M 31.773438 20.546875 C 32.445312 18.433594 31.667969 15.949219 31.042969 15.15625 C 30.019531 13.859375 29.191406 12.121094 29.003906 11.722656 C 24.589844 13.257812 19.679688 16.867188 19.628906 16.90625 C 19.566406 16.953125 19.488281 16.972656 19.410156 16.960938 C 19.042969 16.914062 18.714844 17.109375 18.570312 17.460938 C 18.417969 17.828125 18.464844 18.390625 19.070312 18.867188 C 20.085938 19.675781 20.609375 19.257812 20.65625 19.214844 C 20.714844 19.152344 20.792969 19.121094 20.871094 19.121094 C 20.894531 19.121094 20.921875 19.125 20.949219 19.128906 C 21.058594 19.15625 21.136719 19.25 21.167969 19.363281 C 21.171875 19.386719 21.839844 21.964844 23.957031 23.1875 C 25.234375 23.921875 26.789062 24.035156 28.582031 23.507812 C 30.175781 23.042969 31.234375 22.089844 31.730469 20.683594 C 31.730469 20.679688 31.738281 20.675781 31.738281 20.667969 C 31.746094 20.625 31.757812 20.585938 31.773438 20.546875 Z M 29.246094 24.191406 C 29.769531 23.960938 30.121094 23.667969 30.355469 23.378906 C 29.882812 23.683594 29.347656 23.921875 28.753906 24.101562 C 27.949219 24.339844 27.191406 24.453125 26.472656 24.453125 C 25.808594 24.453125 25.183594 24.355469 24.59375 24.15625 C 24.457031 24.128906 23.140625 23.875 21.15625 24.441406 C 20.59375 24.605469 20.09375 24.941406 19.664062 25.347656 C 19.660156 25.351562 19.652344 25.355469 19.652344 25.355469 C 19.027344 25.949219 18.546875 26.683594 18.246094 27.21875 C 19.238281 26.847656 21 26.339844 22.679688 26.683594 C 24.851562 25.78125 27.109375 24.953125 28.585938 24.421875 C 28.597656 24.417969 28.613281 24.410156 28.621094 24.40625 C 28.851562 24.328125 29.058594 24.253906 29.246094 24.191406 Z M 28.507812 7.855469 C 28.757812 7.496094 29.3125 6.449219 29.304688 5.335938 C 29.300781 4.511719 28.992188 3.8125 28.390625 3.246094 C 27.5625 2.46875 26.632812 2.183594 25.632812 2.398438 C 24.875 2.5625 24.371094 2.957031 24.363281 2.960938 C 24.347656 2.972656 24.332031 2.984375 24.316406 2.988281 C 24.875 3.933594 24.34375 4.972656 24.324219 5.019531 C 24.332031 4.984375 24.511719 4.253906 24 3.472656 C 23.761719 3.101562 23.210938 2.914062 22.691406 2.816406 C 22.617188 2.820312 22.542969 2.824219 22.472656 2.832031 C 21.558594 2.925781 20.109375 3.367188 18.398438 4.917969 C 17.023438 6.164062 16.261719 7.691406 16.136719 9.460938 C 16.058594 10.550781 16.257812 11.410156 16.335938 11.679688 C 17.207031 11.601562 18.476562 11.949219 18.570312 11.976562 C 18.5 11.960938 17.863281 11.832031 16.75 12.015625 C 16.519531 12.054688 16.316406 12.117188 16.132812 12.195312 C 14.921875 12.976562 14.417969 14.601562 14.628906 15.75 C 14.6875 16.066406 14.894531 16.808594 15.574219 16.921875 C 17.125 17.175781 17.96875 15.746094 18 15.679688 C 18.027344 15.640625 18.058594 15.609375 18.09375 15.582031 C 18.097656 15.578125 18.105469 15.570312 18.109375 15.566406 C 18.136719 15.519531 18.164062 15.464844 18.1875 15.414062 C 18.746094 14.273438 20.082031 13.480469 20.125 13.457031 C 20.085938 13.488281 18.960938 14.570312 18.671875 15.808594 C 18.789062 16.023438 18.875 16.210938 18.941406 16.378906 C 19.070312 16.34375 19.210938 16.328125 19.355469 16.332031 C 20.113281 15.78125 25 12.300781 29.363281 10.945312 C 29.253906 9.996094 28.902344 9.121094 28.3125 8.335938 C 28.210938 8.199219 28.234375 8.007812 28.371094 7.90625 C 28.414062 7.878906 28.460938 7.863281 28.507812 7.855469 Z M 22.96875 23.476562 C 23.0625 23.472656 23.15625 23.460938 23.242188 23.460938 C 21.667969 22.359375 20.941406 20.648438 20.683594 19.890625 C 20.285156 20.039062 19.601562 20.082031 18.683594 19.351562 C 17.8125 18.65625 17.769531 17.769531 18 17.226562 C 18.089844 17.003906 18.230469 16.820312 18.398438 16.679688 C 18.371094 16.601562 18.328125 16.5 18.265625 16.371094 C 17.890625 16.835938 17.113281 17.578125 15.945312 17.578125 C 15.792969 17.578125 15.632812 17.566406 15.464844 17.535156 C 14.71875 17.410156 14.191406 16.800781 14.019531 15.867188 C 13.78125 14.554688 14.292969 12.710938 15.703125 11.738281 C 15.625 11.425781 15.5 10.820312 15.496094 10.042969 C 9.894531 13.449219 6.425781 19.609375 6.425781 26.203125 C 6.425781 26.203125 6.425781 26.207031 6.425781 26.207031 C 7.054688 26.292969 7.734375 26.453125 8.441406 26.691406 C 8.742188 26.710938 10.800781 26.832031 11.960938 26.46875 C 11.960938 26.390625 11.96875 26.3125 12.007812 26.234375 C 12.148438 25.898438 12.574219 25.796875 12.925781 25.75 C 14.015625 25.609375 15.929688 24.753906 16.878906 24.300781 C 15.761719 23.972656 14.863281 23.875 14.847656 23.875 C 14.71875 23.867188 14.613281 23.769531 14.582031 23.644531 C 14.550781 23.519531 14.597656 23.386719 14.703125 23.316406 C 14.75 23.28125 15.878906 22.496094 17.464844 22.121094 C 19.570312 21.640625 21.46875 22.101562 22.96875 23.476562 Z M 21.5 27.1875 C 19.570312 27.1875 17.75 28.101562 17.722656 28.113281 C 17.683594 28.132812 17.636719 28.144531 17.589844 28.144531 C 17.511719 28.144531 17.4375 28.117188 17.378906 28.058594 C 17.285156 27.972656 17.253906 27.835938 17.304688 27.714844 C 17.34375 27.628906 17.917969 26.285156 18.957031 25.179688 C 18.554688 24.945312 18.132812 24.753906 17.714844 24.589844 C 17.484375 24.707031 14.566406 26.164062 13.007812 26.371094 C 12.722656 26.40625 12.613281 26.460938 12.582031 26.480469 C 12.601562 26.601562 12.824219 26.898438 12.988281 27.125 C 13.242188 27.472656 13.554688 27.898438 13.785156 28.402344 C 14.21875 29.355469 14.375 29.992188 14.425781 30.34375 C 14.792969 30.34375 15.070312 30.363281 15.199219 30.375 L 18.1875 29.078125 C 18.183594 29.058594 18.179688 29.035156 18.171875 29.011719 C 18.164062 28.890625 18.226562 28.773438 18.328125 28.714844 C 19.210938 28.226562 20.316406 27.703125 21.5 27.1875 Z M 20.984375 23.84375 C 21.398438 23.722656 21.777344 23.640625 22.132812 23.582031 C 20.859375 22.617188 19.347656 22.328125 17.625 22.730469 C 16.882812 22.90625 16.246094 23.179688 15.789062 23.410156 C 16.695312 23.582031 18.148438 23.960938 19.410156 24.738281 C 19.867188 24.34375 20.394531 24.019531 20.984375 23.84375 Z M 19.988281 34.261719 C 20.09375 33.597656 20.132812 32.785156 19.992188 31.898438 C 19.773438 30.5 19.164062 29.820312 18.761719 29.507812 L 15.375 30.980469 C 15.328125 31 15.273438 31.011719 15.21875 31 C 15.203125 31 13.847656 30.84375 12.558594 31.203125 C 11.621094 31.46875 10.648438 32.230469 10.390625 32.90625 C 10.285156 33.171875 10.300781 33.398438 10.425781 33.597656 C 10.628906 33.917969 10.695312 33.917969 11.308594 33.550781 C 11.71875 33.304688 12.28125 32.964844 13.042969 32.867188 C 13.210938 32.847656 13.363281 32.96875 13.382812 33.136719 C 13.40625 33.304688 13.285156 33.457031 13.117188 33.476562 C 12.480469 33.558594 12 33.84375 11.613281 34.078125 C 11.328125 34.25 11.003906 34.445312 10.679688 34.445312 C 10.414062 34.445312 10.148438 34.3125 9.902344 33.925781 C 9.695312 33.597656 9.648438 33.222656 9.761719 32.828125 C 9.359375 32.972656 8.773438 33.195312 8.183594 33.460938 C 6.316406 34.3125 6.179688 34.8125 6.171875 34.902344 C 6.15625 35.054688 6.207031 35.09375 6.222656 35.109375 C 6.480469 35.355469 7.582031 35.183594 8.648438 35.015625 C 9.125 34.941406 9.621094 34.863281 10.144531 34.800781 C 12.4375 34.527344 15.515625 34.359375 17.222656 34.597656 C 17.222656 34.597656 17.226562 34.597656 17.226562 34.597656 C 18.632812 34.800781 19.601562 34.523438 19.988281 34.261719 Z M 16.785156 35.171875 C 16.320312 35.125 15.773438 35.109375 15.183594 35.105469 C 15.179688 35.132812 15.171875 35.164062 15.164062 35.1875 C 14.566406 36.535156 14.28125 38.726562 14.339844 41.542969 C 14.339844 41.558594 14.339844 41.578125 14.332031 41.59375 C 14.84375 41.960938 15.375 42.300781 15.925781 42.613281 C 15.574219 39.589844 16.460938 36.265625 16.785156 35.171875 Z M 13.71875 41.136719 C 13.695312 38.511719 13.96875 36.492188 14.53125 35.117188 C 13.117188 35.148438 11.542969 35.269531 10.222656 35.425781 C 9.773438 35.476562 9.339844 35.546875 8.921875 35.609375 C 10.164062 37.78125 11.804688 39.652344 13.71875 41.136719 Z M 13.816406 30.371094 C 13.757812 30.058594 13.617188 29.492188 13.238281 28.660156 C 13.035156 28.210938 12.753906 27.828125 12.5 27.492188 C 12.386719 27.335938 12.277344 27.1875 12.1875 27.050781 C 10.828125 27.492188 8.472656 27.316406 8.371094 27.308594 C 8.34375 27.308594 8.316406 27.304688 8.296875 27.292969 C 6.441406 26.667969 4.824219 26.589844 3.617188 27.074219 C 3.398438 27.164062 3.207031 27.261719 3.050781 27.363281 C 3.820312 27.21875 4.78125 27.210938 5.929688 27.414062 C 6.09375 27.445312 6.207031 27.605469 6.179688 27.773438 C 6.148438 27.941406 5.992188 28.050781 5.824219 28.023438 C 3.425781 27.597656 1.941406 28.164062 1.359375 28.84375 C 1.179688 29.046875 1.148438 29.195312 1.15625 29.242188 C 1.375 29.339844 1.96875 29.371094 2.554688 29.398438 C 3.539062 29.445312 4.769531 29.503906 5.601562 29.925781 C 5.84375 30.050781 6.222656 30.160156 6.664062 30.253906 C 6.683594 30.253906 6.707031 30.261719 6.726562 30.269531 C 8.527344 30.660156 11.378906 30.835938 11.417969 30.835938 C 11.496094 30.84375 11.566406 30.878906 11.621094 30.933594 C 11.886719 30.796875 12.15625 30.683594 12.40625 30.617188 C 12.882812 30.46875 13.378906 30.402344 13.816406 30.371094 Z M 10.1875 32.054688 C 10.195312 32.042969 10.203125 32.035156 10.210938 32.023438 C 8.636719 32.117188 6.074219 32.386719 5.34375 32.988281 C 4.894531 33.363281 5.015625 33.628906 5.058594 33.714844 C 5.199219 34.011719 5.601562 34.222656 5.84375 34.246094 C 6.136719 33.894531 6.730469 33.453125 7.941406 32.90625 C 9.011719 32.417969 10.050781 32.082031 10.089844 32.066406 C 10.121094 32.054688 10.152344 32.054688 10.1875 32.054688 Z M 7.242188 31.722656 C 8.496094 31.503906 9.871094 31.421875 10.570312 31.386719 C 9.691406 31.316406 8.238281 31.179688 7.03125 30.953125 C 7.097656 31.210938 7.164062 31.46875 7.242188 31.722656 Z M 7.242188 31.722656 " fill-opacity="1" fill-rule="nonzero"/></g><path fill="#4e1d0f" d="M 19.582031 17.480469 C 20.113281 17.429688 20.5625 18.234375 20.5625 18.234375 C 20.5625 18.234375 19.691406 17.347656 19.050781 17.96875 C 19.050781 17.96875 19.050781 17.535156 19.582031 17.480469 Z M 19.582031 17.480469 " fill-opacity="1" fill-rule="nonzero"/><path fill="#4e1d0f" d="M 29.484375 18.527344 C 29.484375 18.527344 28.261719 18.1875 27.417969 19.445312 C 26.570312 20.707031 24.679688 20.554688 24.679688 20.554688 C 24.679688 20.554688 26.101562 22.101562 28.210938 21.476562 C 30.316406 20.851562 30.625 19.714844 30.113281 18.546875 Z M 29.484375 18.527344 " fill-opacity="1" fill-rule="nonzero"/><path fill="#4e1d0f" d="M 29.957031 18.207031 C 29.957031 18.207031 30.136719 17.367188 31.167969 17.476562 C 32.199219 17.585938 32.707031 16.457031 32.707031 16.457031 C 32.707031 16.457031 33.195312 17.96875 32.152344 18.863281 C 31.109375 19.75 30.316406 19.398438 29.769531 18.574219 Z M 29.957031 18.207031 " fill-opacity="1" fill-rule="nonzero"/><path fill="#4e1d0f" d="M 28.167969 13.578125 L 27.855469 13.09375 C 27.855469 13.09375 28.289062 12.816406 28.804688 12.742188 C 29.320312 12.667969 29.707031 12.988281 29.707031 12.988281 C 29.707031 12.988281 28.664062 13.128906 28.167969 13.578125 Z M 28.167969 13.578125 " fill-opacity="1" fill-rule="nonzero"/><path fill="#4e1d0f" d="M 25.824219 14.738281 L 25.574219 14.222656 C 25.574219 14.222656 25.121094 14.457031 24.789062 14.867188 C 24.457031 15.277344 24.539062 15.777344 24.539062 15.777344 C 24.539062 15.777344 25.183594 14.9375 25.824219 14.738281 Z M 25.824219 14.738281 " fill-opacity="1" fill-rule="nonzero"/><path fill="#4e1d0f" d="M 20.964844 15.78125 L 19.242188 16.96875 C 19.242188 16.96875 19.789062 16.824219 20.5 17.324219 C 21.214844 17.824219 21.65625 18.726562 21.65625 18.726562 L 22.191406 18.3125 C 22.191406 18.3125 22.242188 17.546875 21.9375 16.59375 C 21.640625 15.644531 22.191406 14.992188 22.191406 14.992188 Z M 20.964844 15.78125 " fill-opacity="1" fill-rule="nonzero"/><path fill="#4e1d0f" d="M 29.296875 16.164062 C 29.421875 16.183594 29.539062 16.226562 29.65625 16.273438 C 29.769531 16.320312 29.882812 16.386719 29.992188 16.453125 C 30.105469 16.527344 30.207031 16.609375 30.296875 16.710938 C 30.390625 16.808594 30.46875 16.925781 30.527344 17.058594 C 30.582031 17.1875 30.621094 17.335938 30.621094 17.480469 C 30.625 17.519531 30.621094 17.554688 30.621094 17.59375 L 30.621094 17.617188 L 30.613281 17.648438 L 30.605469 17.714844 C 30.582031 17.796875 30.558594 17.871094 30.519531 17.9375 C 30.449219 18.074219 30.347656 18.1875 30.246094 18.28125 C 30.140625 18.375 30.023438 18.449219 29.910156 18.515625 C 29.789062 18.578125 29.671875 18.636719 29.550781 18.683594 C 29.425781 18.730469 29.300781 18.769531 29.167969 18.792969 C 28.914062 18.851562 28.644531 18.875 28.375 18.835938 C 28.34375 18.832031 28.308594 18.824219 28.277344 18.820312 C 28.246094 18.816406 28.210938 18.808594 28.179688 18.800781 C 28.148438 18.789062 28.109375 18.785156 28.078125 18.769531 L 27.984375 18.730469 C 27.859375 18.675781 27.742188 18.59375 27.644531 18.488281 C 27.550781 18.386719 27.488281 18.257812 27.457031 18.128906 C 27.453125 18.097656 27.441406 18.066406 27.4375 18.035156 L 27.433594 17.933594 C 27.433594 17.917969 27.433594 17.902344 27.433594 17.886719 L 27.4375 17.839844 C 27.441406 17.808594 27.441406 17.777344 27.449219 17.746094 C 27.457031 17.777344 27.464844 17.808594 27.472656 17.832031 L 27.484375 17.875 C 27.488281 17.890625 27.496094 17.902344 27.5 17.917969 L 27.53125 18 L 27.574219 18.082031 C 27.628906 18.179688 27.703125 18.265625 27.792969 18.328125 C 27.882812 18.386719 27.980469 18.425781 28.085938 18.453125 C 28.1875 18.480469 28.296875 18.484375 28.40625 18.488281 C 28.464844 18.488281 28.519531 18.488281 28.574219 18.484375 C 28.632812 18.484375 28.683594 18.472656 28.742188 18.464844 C 28.851562 18.441406 28.964844 18.421875 29.070312 18.390625 C 29.121094 18.375 29.179688 18.359375 29.230469 18.339844 C 29.285156 18.316406 29.335938 18.300781 29.390625 18.273438 C 29.492188 18.234375 29.59375 18.179688 29.691406 18.128906 C 29.882812 18.019531 30.0625 17.882812 30.160156 17.722656 C 30.1875 17.6875 30.203125 17.644531 30.21875 17.609375 L 30.222656 17.582031 L 30.230469 17.566406 L 30.230469 17.546875 C 30.234375 17.519531 30.238281 17.496094 30.238281 17.472656 C 30.246094 17.371094 30.234375 17.273438 30.207031 17.171875 C 30.152344 16.972656 30.023438 16.785156 29.863281 16.609375 C 29.691406 16.453125 29.503906 16.300781 29.296875 16.164062 Z M 29.296875 16.164062 " fill-opacity="1" fill-rule="nonzero"/><path fill="#4e1d0f" d="M 27.695312 22.609375 C 27.695312 22.609375 29.300781 23.367188 30.800781 22.328125 L 30.285156 23.066406 C 30.28125 23.066406 29.027344 23.871094 27.695312 22.609375 Z M 27.695312 22.609375 " fill-opacity="1" fill-rule="nonzero"/><path fill="#4e1d0f" d="M 31.546875 20.058594 C 31.546875 20.058594 31.769531 20.617188 31.554688 21.140625 C 31.339844 21.667969 31.824219 20.832031 31.824219 20.832031 C 31.824219 20.832031 31.988281 20.304688 31.546875 20.058594 Z M 31.546875 20.058594 " fill-opacity="1" fill-rule="nonzero"/><path fill="#4e1d0f" d="M 27.34375 16.296875 C 27.265625 16.34375 27.160156 16.316406 27.113281 16.238281 C 26.863281 15.824219 26.40625 15.640625 26.085938 15.828125 C 25.773438 16.023438 25.722656 16.515625 25.972656 16.929688 C 26.019531 17.007812 25.992188 17.113281 25.914062 17.160156 C 25.835938 17.210938 25.730469 17.183594 25.683594 17.105469 C 25.339844 16.527344 25.441406 15.828125 25.910156 15.539062 C 26.378906 15.25 27.046875 15.488281 27.394531 16.058594 C 27.441406 16.144531 27.421875 16.25 27.34375 16.296875 Z M 27.34375 16.296875 " fill-opacity="1" fill-rule="nonzero"/><path fill="#4e1d0f" d="M 30.035156 14.671875 C 29.972656 14.710938 29.890625 14.6875 29.851562 14.625 C 29.648438 14.289062 29.285156 14.144531 29.027344 14.300781 C 28.773438 14.457031 28.738281 14.851562 28.933594 15.1875 C 28.972656 15.25 28.949219 15.335938 28.886719 15.371094 C 28.824219 15.410156 28.742188 15.386719 28.707031 15.324219 C 28.429688 14.863281 28.507812 14.300781 28.886719 14.070312 C 29.269531 13.839844 29.800781 14.027344 30.078125 14.488281 C 30.121094 14.554688 30.097656 14.632812 30.035156 14.671875 Z M 30.035156 14.671875 " fill-opacity="1" fill-rule="nonzero"/><path fill="#4e1d0f" d="M 29.320312 5.382812 C 29.320312 5.382812 29.019531 6.65625 28.203125 7.742188 C 27.390625 8.832031 26.566406 9.292969 26.566406 9.292969 C 26.566406 9.292969 28.304688 9.0625 29.023438 7.574219 C 29.742188 6.09375 29.320312 5.382812 29.320312 5.382812 Z M 29.320312 5.382812 " fill-opacity="1" fill-rule="nonzero"/><path fill="#4e1d0f" d="M 28.289062 24.859375 C 28.289062 24.859375 30.238281 24.210938 31.121094 23.457031 C 32.003906 22.707031 32.230469 22.207031 32.230469 22.207031 C 32.230469 22.207031 31.691406 23.980469 30.261719 24.515625 C 28.832031 25.050781 28.289062 24.859375 28.289062 24.859375 Z M 28.289062 24.859375 " fill-opacity="1" fill-rule="nonzero"/><path fill="#4e1d0f" d="M 27.695312 24.890625 C 27.695312 24.890625 26.703125 25.386719 24.402344 25.125 C 22.101562 24.863281 20.644531 25.898438 20.644531 25.898438 C 20.644531 25.898438 22.238281 25.417969 23.941406 25.539062 C 25.648438 25.660156 25.882812 25.746094 25.882812 25.746094 Z M 27.695312 24.890625 " fill-opacity="1" fill-rule="nonzero"/><path fill="#4e1d0f" d="M 21.695312 23.886719 C 21.695312 23.886719 20.90625 23.316406 19.785156 23.121094 C 18.664062 22.925781 17.75 23.121094 17.75 23.121094 C 17.75 23.121094 18.429688 22.738281 19.863281 22.90625 C 21.296875 23.074219 21.917969 23.753906 21.917969 23.753906 Z M 21.695312 23.886719 " fill-opacity="1" fill-rule="nonzero"/><path fill="#4e1d0f" d="M 12.972656 26.066406 C 12.972656 26.066406 13.53125 25.683594 14.339844 26.347656 C 15.152344 27.015625 15.453125 27.933594 15.453125 27.933594 C 15.453125 27.933594 15.398438 27.082031 15.007812 26.449219 C 14.613281 25.8125 14.339844 25.660156 14.339844 25.660156 Z M 12.972656 26.066406 " fill-opacity="1" fill-rule="nonzero"/><path fill="#4e1d0f" d="M 22.90625 35.871094 C 22.90625 35.871094 23.40625 34.964844 23.40625 33.5625 C 23.40625 32.160156 23.15625 30.527344 23.15625 30.527344 C 23.15625 30.527344 23.660156 31.1875 23.839844 33.308594 C 24.015625 35.425781 23.746094 35.792969 23.746094 35.792969 Z M 22.90625 35.871094 " fill-opacity="1" fill-rule="nonzero"/><path fill="#4e1d0f" d="M 18.523438 36.800781 C 18.523438 36.910156 18.484375 37.003906 18.40625 37.078125 C 18.332031 37.15625 18.238281 37.195312 18.132812 37.195312 C 18.023438 37.195312 17.929688 37.15625 17.855469 37.078125 C 17.777344 37.003906 17.738281 36.910156 17.738281 36.800781 C 17.738281 36.691406 17.777344 36.597656 17.855469 36.523438 C 17.929688 36.445312 18.023438 36.40625 18.132812 36.40625 C 18.238281 36.40625 18.332031 36.445312 18.40625 36.523438 C 18.484375 36.597656 18.523438 36.691406 18.523438 36.800781 Z M 18.523438 36.800781 " fill-opacity="1" fill-rule="nonzero"/><path fill="#4e1d0f" d="M 18.210938 39.726562 C 18.210938 39.832031 18.171875 39.925781 18.09375 40.003906 C 18.019531 40.082031 17.925781 40.117188 17.816406 40.117188 C 17.710938 40.117188 17.617188 40.082031 17.542969 40.003906 C 17.464844 39.925781 17.425781 39.832031 17.425781 39.726562 C 17.425781 39.617188 17.464844 39.523438 17.542969 39.445312 C 17.617188 39.371094 17.710938 39.332031 17.816406 39.332031 C 17.925781 39.332031 18.019531 39.371094 18.09375 39.445312 C 18.171875 39.523438 18.210938 39.617188 18.210938 39.726562 Z M 18.210938 39.726562 " fill-opacity="1" fill-rule="nonzero"/><path fill="#4e1d0f" d="M 17.972656 42.421875 C 17.972656 42.53125 17.9375 42.625 17.859375 42.703125 C 17.785156 42.777344 17.691406 42.816406 17.582031 42.816406 C 17.476562 42.816406 17.382812 42.777344 17.304688 42.703125 C 17.230469 42.625 17.191406 42.53125 17.191406 42.421875 C 17.191406 42.316406 17.230469 42.222656 17.304688 42.144531 C 17.382812 42.066406 17.476562 42.03125 17.582031 42.03125 C 17.691406 42.03125 17.785156 42.066406 17.859375 42.144531 C 17.9375 42.222656 17.972656 42.316406 17.972656 42.421875 Z M 17.972656 42.421875 " fill-opacity="1" fill-rule="nonzero"/></svg>