<svg xmlns="http://www.w3.org/2000/svg" xmlns:xlink="http://www.w3.org/1999/xlink" width="540" zoomAndPan="magnify" viewBox="0 0 404.88 179.999997" height="240" preserveAspectRatio="xMidYMid meet" version="1.0"><defs><g/><clipPath id="6009440a64"><path d="M 0 1 L 177.699219 1 L 177.699219 161 L 0 161 Z M 0 1 " clip-rule="nonzero"/></clipPath></defs><path fill="#ff0000" d="M 76.6875 126.0625 C 76.667969 126.0625 76.628906 126.0625 76.609375 126.0625 C 76.402344 126.042969 76.230469 125.910156 76.152344 125.722656 C 74.710938 122.257812 71.859375 113.5 76.589844 106.953125 C 76.6875 106.820312 76.855469 106.726562 77.027344 106.726562 C 77.046875 106.726562 77.046875 106.726562 77.066406 106.726562 C 77.21875 106.726562 77.371094 106.800781 77.484375 106.917969 C 78.167969 107.675781 78.949219 108.191406 79.800781 108.417969 C 80.238281 108.535156 80.734375 108.609375 81.246094 108.609375 C 82.386719 108.609375 83.660156 108.304688 84.820312 107.773438 C 84.894531 107.734375 84.972656 107.714844 85.066406 107.714844 C 85.144531 107.714844 85.238281 107.734375 85.292969 107.773438 C 85.445312 107.847656 85.5625 107.980469 85.597656 108.132812 C 86.074219 109.789062 86.472656 113.121094 83.871094 116.773438 C 81.207031 120.503906 78.511719 124.082031 77.140625 125.871094 C 77.027344 125.96875 76.875 126.0625 76.6875 126.0625 Z M 76.6875 126.0625 " fill-opacity="1" fill-rule="nonzero"/><path fill="#ff0000" d="M 100.859375 112.148438 C 96.488281 112.148438 90.503906 111.3125 86.71875 107.296875 C 86.605469 107.183594 86.550781 107.03125 86.566406 106.878906 C 86.566406 106.726562 86.644531 106.574219 86.757812 106.476562 C 86.929688 106.34375 87.0625 106.191406 87.195312 106.058594 C 87.9375 105.296875 88.410156 104.460938 88.621094 103.566406 C 88.675781 103.300781 88.925781 103.128906 89.171875 103.128906 C 89.210938 103.128906 89.246094 103.128906 89.285156 103.148438 C 89.324219 103.148438 89.363281 103.167969 89.378906 103.167969 C 89.457031 103.167969 89.53125 103.148438 89.609375 103.109375 C 89.648438 103.089844 90.539062 102.613281 91.984375 102.613281 C 93.523438 102.613281 95.898438 103.148438 98.503906 105.734375 C 100.613281 107.828125 102.816406 109.5625 105.058594 110.875 C 105.269531 111.007812 105.382812 111.253906 105.324219 111.484375 C 105.269531 111.730469 105.078125 111.902344 104.832031 111.921875 C 103.519531 112.09375 102.171875 112.148438 100.859375 112.148438 Z M 100.859375 112.148438 " fill-opacity="1" fill-rule="nonzero"/><path fill="#ff0000" d="M 88.355469 99.609375 C 88.144531 99.609375 87.9375 99.492188 87.839844 99.304688 C 86.417969 96.46875 84.269531 95.535156 83.660156 95.324219 C 83.621094 95.304688 83.585938 95.285156 83.546875 95.269531 C 83.546875 95.269531 83.527344 95.25 83.527344 95.25 C 83.355469 95.152344 83.242188 94.964844 83.242188 94.753906 C 83.242188 94.542969 83.335938 94.375 83.527344 94.257812 C 84.382812 93.746094 85.027344 93.136719 85.484375 92.414062 C 85.578125 92.261719 85.75 92.164062 85.921875 92.148438 C 85.941406 92.148438 85.960938 92.148438 85.960938 92.148438 C 86.132812 92.148438 86.28125 92.222656 86.398438 92.335938 C 86.53125 92.488281 86.738281 92.753906 86.984375 93.078125 C 87.003906 93.097656 87.003906 93.117188 87.023438 93.136719 C 87.042969 93.175781 87.0625 93.210938 87.101562 93.230469 C 87.121094 93.25 87.136719 93.269531 87.136719 93.289062 C 88.070312 94.621094 89.152344 96.734375 88.945312 99.074219 C 88.925781 99.320312 88.734375 99.53125 88.488281 99.589844 C 88.410156 99.609375 88.375 99.609375 88.355469 99.609375 Z M 88.355469 99.609375 " fill-opacity="1" fill-rule="nonzero"/><path fill="#ff0000" d="M 74.578125 102.367188 C 74.5 102.367188 74.425781 102.347656 74.347656 102.308594 C 67.660156 99.359375 56.390625 98.332031 48.140625 97.589844 C 44.855469 97.285156 41.128906 96.960938 39.265625 96.5625 C 39.039062 96.503906 38.847656 96.316406 38.8125 96.085938 C 38.773438 95.839844 38.90625 95.609375 39.113281 95.496094 C 40.769531 94.621094 42.210938 94.46875 43.617188 94.316406 C 45.519531 94.105469 47.304688 93.898438 49.128906 91.976562 C 50.269531 90.757812 51.769531 90.109375 53.425781 90.109375 C 54.886719 90.109375 56.007812 90.605469 56.125 90.660156 C 56.179688 90.679688 56.238281 90.699219 56.292969 90.699219 C 64.164062 91.519531 72.46875 95.171875 75.660156 96.695312 C 75.792969 96.753906 75.90625 96.886719 75.964844 97.039062 C 76.019531 97.191406 76 97.34375 75.925781 97.476562 C 75.621094 98.066406 75.355469 98.730469 75.148438 99.457031 C 74.996094 99.988281 74.996094 100.769531 75.128906 101.683594 C 75.164062 101.890625 75.070312 102.101562 74.917969 102.234375 C 74.824219 102.328125 74.691406 102.367188 74.578125 102.367188 Z M 74.578125 102.367188 " fill-opacity="1" fill-rule="nonzero"/><path fill="#ff0000" d="M 81.265625 107.621094 C 80.828125 107.621094 80.429688 107.5625 80.070312 107.46875 C 78.699219 107.085938 77.769531 105.832031 77.21875 104.839844 C 76.097656 102.804688 75.832031 100.539062 76.058594 99.742188 C 76.382812 98.675781 76.78125 97.78125 77.273438 97.09375 C 77.273438 97.09375 77.273438 97.074219 77.292969 97.074219 C 77.292969 97.058594 77.3125 97.058594 77.3125 97.039062 C 77.3125 97.019531 77.332031 97.019531 77.332031 97 C 77.863281 96.296875 78.472656 95.800781 79.175781 95.535156 C 79.574219 95.382812 79.992188 95.324219 80.429688 95.324219 C 81.914062 95.324219 83.148438 96.125 83.148438 96.125 C 83.183594 96.144531 83.222656 96.164062 83.261719 96.179688 C 83.394531 96.21875 86.339844 97.113281 87.632812 101.320312 C 88.089844 102.785156 87.6875 104.195312 86.53125 105.394531 C 85.257812 106.707031 83.089844 107.621094 81.265625 107.621094 Z M 81.265625 107.621094 " fill-opacity="1" fill-rule="nonzero"/><path fill="#cccccc" d="M 113.628906 64.300781 C 113.421875 64.300781 113.210938 64.207031 113.058594 64.054688 C 111.519531 62.320312 109.449219 60.761719 107.09375 59.523438 C 106.789062 59.351562 106.617188 59.011719 106.710938 58.667969 C 106.789062 58.324219 107.09375 58.097656 107.453125 58.097656 L 174.632812 58.097656 C 174.976562 58.097656 175.28125 58.324219 175.375 58.648438 C 175.46875 58.972656 175.316406 59.332031 175.03125 59.503906 C 172.257812 61.160156 170.375 63.214844 169.691406 64.035156 C 169.539062 64.207031 169.332031 64.300781 169.101562 64.300781 Z M 113.628906 64.300781 " fill-opacity="1" fill-rule="nonzero"/><path fill="#cccccc" d="M 111.066406 57.507812 C 110.835938 57.507812 110.609375 57.390625 110.457031 57.203125 C 110.304688 57.011719 110.265625 56.765625 110.324219 56.535156 C 110.742188 54.992188 112.054688 50.996094 115.320312 47.039062 C 121.042969 40.128906 129.667969 36.628906 140.976562 36.628906 C 152.246094 36.628906 160.914062 40.167969 166.746094 47.171875 C 169.84375 50.882812 171.269531 54.613281 171.859375 56.515625 C 171.933594 56.746094 171.878906 56.992188 171.746094 57.183594 C 171.59375 57.375 171.382812 57.488281 171.136719 57.488281 L 111.066406 57.488281 Z M 111.066406 57.507812 " fill-opacity="1" fill-rule="nonzero"/><path fill="#ffffff" d="M 56.085938 55.90625 C 55.953125 55.90625 55.820312 55.871094 55.707031 55.792969 C 54.945312 55.355469 53.785156 54.824219 52.550781 54.824219 C 52.207031 54.824219 51.867188 54.859375 51.5625 54.957031 C 51.503906 54.976562 51.429688 54.976562 51.371094 54.976562 C 51.238281 54.976562 51.105469 54.9375 50.992188 54.878906 C 50.820312 54.785156 50.6875 54.613281 50.632812 54.421875 L 49.757812 51.128906 C 49.738281 51.035156 49.71875 50.941406 49.738281 50.84375 C 49.738281 50.84375 49.738281 50.824219 49.738281 50.824219 C 49.738281 50.769531 49.71875 50.710938 49.679688 50.65625 C 49.625 50.578125 49.585938 50.503906 49.566406 50.40625 L 48.503906 46.429688 C 48.464844 46.296875 48.351562 46.21875 48.238281 46.21875 C 48.21875 46.21875 48.179688 46.21875 48.160156 46.238281 C 48.066406 46.257812 48.007812 46.335938 47.988281 46.371094 C 47.96875 46.410156 47.933594 46.484375 47.96875 46.582031 L 48.730469 49.378906 C 48.789062 49.625 48.730469 49.894531 48.558594 50.082031 C 48.40625 50.253906 48.199219 50.351562 47.988281 50.351562 C 47.953125 50.351562 47.914062 50.351562 47.875 50.351562 C 41.320312 49.4375 37.136719 47.171875 35.484375 43.613281 C 32.804688 37.941406 37.539062 30.726562 37.59375 30.652344 C 37.652344 30.574219 37.652344 30.460938 37.613281 30.367188 C 37.574219 30.308594 34.25 23.152344 41.8125 14.261719 C 46.925781 8.25 54.414062 7.355469 58.421875 7.355469 C 60.589844 7.355469 61.976562 7.601562 61.996094 7.601562 C 61.996094 7.601562 62.015625 7.601562 62.035156 7.601562 C 62.128906 7.601562 62.242188 7.542969 62.28125 7.449219 C 62.394531 7.257812 65.152344 2.84375 73.054688 2.84375 C 74.59375 2.84375 76.230469 3.015625 77.941406 3.339844 C 86.320312 4.9375 89.210938 9.941406 90.199219 12.796875 C 90.21875 12.855469 90.234375 12.910156 90.234375 12.96875 C 90.234375 13.007812 90.253906 13.046875 90.273438 13.0625 C 90.292969 13.101562 90.3125 13.160156 90.332031 13.214844 C 90.617188 14.167969 90.691406 14.796875 90.691406 14.871094 C 90.691406 14.949219 90.730469 15.023438 90.804688 15.0625 C 90.863281 15.101562 90.921875 15.121094 90.976562 15.121094 C 90.996094 15.121094 90.996094 15.121094 91.015625 15.121094 C 91.109375 15.101562 91.492188 15.0625 92.058594 15.0625 C 94.816406 15.0625 101.542969 16.050781 104.46875 25.226562 C 105.972656 29.945312 105.210938 34.152344 102.171875 37.730469 C 100.746094 39.425781 99.109375 40.566406 98.007812 41.234375 C 97.894531 41.308594 97.761719 41.347656 97.609375 41.347656 C 97.496094 41.347656 97.382812 41.328125 97.285156 41.269531 C 97.058594 41.15625 96.90625 40.949219 96.867188 40.679688 C 96.449219 37.464844 95.519531 36.207031 95.480469 36.152344 C 95.425781 36.074219 95.347656 36.039062 95.253906 36.039062 C 95.214844 36.039062 95.140625 36.054688 95.082031 36.09375 C 95.007812 36.152344 94.96875 36.246094 94.96875 36.285156 C 94.96875 36.339844 94.96875 36.417969 95.023438 36.492188 C 95.042969 36.511719 96.375 38.28125 96.507812 43.289062 C 96.601562 46.886719 95.0625 49.320312 94.152344 50.445312 C 94 50.617188 93.789062 50.730469 93.5625 50.730469 C 93.5625 50.730469 93.542969 50.730469 93.542969 50.730469 C 93.296875 50.730469 93.085938 50.597656 92.953125 50.40625 C 91.375 48.140625 87.613281 44.355469 80.257812 44.355469 C 79.878906 44.355469 79.480469 44.375 79.097656 44.394531 C 71.460938 44.792969 65.625 48.027344 62.070312 50.671875 C 59.375 52.691406 57.566406 54.652344 56.730469 55.640625 C 56.523438 55.8125 56.3125 55.90625 56.085938 55.90625 Z M 56.085938 55.90625 " fill-opacity="1" fill-rule="nonzero"/><path fill="#ffffff" d="M 83.527344 158.800781 C 83.183594 158.800781 82.882812 158.570312 82.804688 158.25 C 81.132812 152.347656 75.792969 148.980469 74.195312 148.085938 C 73.949219 147.953125 73.816406 147.703125 73.816406 147.417969 C 73.816406 147.265625 73.816406 147.113281 73.796875 146.980469 C 73.742188 145.953125 72.960938 144.695312 71.515625 143.363281 C 71.289062 143.15625 71.210938 142.8125 71.328125 142.527344 C 71.347656 142.46875 71.347656 142.414062 71.347656 142.375 C 68.171875 126.519531 62.605469 114.1875 60.96875 110.78125 C 60.875 110.589844 60.875 110.359375 60.949219 110.171875 C 61.027344 109.980469 61.179688 109.808594 61.367188 109.734375 L 75.261719 104.214844 C 75.355469 104.175781 75.449219 104.15625 75.546875 104.15625 C 75.832031 104.15625 76.097656 104.308594 76.230469 104.59375 C 76.304688 104.746094 76.402344 104.9375 76.496094 105.128906 C 76.667969 105.449219 76.589844 105.851562 76.304688 106.078125 C 76.269531 106.117188 76.25 106.136719 76.230469 106.136719 C 73.457031 109.734375 72.582031 114.605469 73.683594 120.199219 C 74.519531 124.425781 76.136719 127.492188 76.210938 127.625 C 76.25 127.699219 76.34375 127.757812 76.4375 127.777344 C 76.457031 127.777344 76.457031 127.777344 76.476562 127.777344 C 76.570312 127.777344 76.648438 127.738281 76.703125 127.660156 C 76.703125 127.660156 76.722656 127.625 76.761719 127.585938 C 77.730469 126.328125 81.171875 121.839844 84.496094 117.15625 C 86.113281 114.910156 86.851562 112.511719 86.71875 110.039062 C 86.703125 109.734375 86.851562 109.464844 87.121094 109.332031 C 87.234375 109.277344 87.347656 109.238281 87.480469 109.238281 C 87.632812 109.238281 87.804688 109.296875 87.9375 109.390625 C 91.871094 112.320312 97.117188 112.929688 100.839844 112.929688 C 104.851562 112.929688 107.984375 112.246094 108.347656 112.167969 C 108.460938 112.148438 108.554688 112.035156 108.554688 111.902344 C 108.554688 111.769531 108.480469 111.65625 108.367188 111.617188 C 108.367188 111.617188 108.347656 111.617188 108.347656 111.617188 C 107.910156 111.464844 103.863281 109.902344 99.109375 105.183594 C 96.90625 102.996094 94.472656 101.835938 92.097656 101.835938 C 91.433594 101.835938 90.789062 101.929688 90.179688 102.101562 C 90.101562 102.121094 90.046875 102.140625 89.96875 102.140625 C 89.761719 102.140625 89.550781 102.042969 89.398438 101.890625 C 89.210938 101.683594 89.152344 101.378906 89.246094 101.109375 C 90.066406 98.960938 89.855469 96.675781 88.621094 94.277344 C 88.488281 94.03125 88.507812 93.746094 88.640625 93.515625 C 88.773438 93.289062 89.019531 93.15625 89.285156 93.15625 C 89.285156 93.15625 89.285156 93.15625 89.304688 93.15625 C 92.117188 93.191406 97.417969 93.765625 101.335938 96.941406 C 106.996094 101.546875 118.285156 104.824219 118.761719 104.957031 C 118.78125 104.957031 118.816406 104.976562 118.835938 104.976562 C 118.894531 104.976562 118.933594 104.957031 118.96875 104.9375 C 119.046875 104.898438 119.085938 104.839844 119.101562 104.765625 C 119.160156 104.554688 120.546875 99.683594 122.675781 95.132812 C 124.007812 92.316406 125.316406 90.394531 126.191406 89.273438 C 126.324219 89.101562 126.535156 88.988281 126.761719 88.988281 C 126.78125 88.988281 126.78125 88.988281 126.800781 88.988281 C 127.007812 88.988281 127.199219 89.0625 127.351562 89.214844 C 128.816406 90.757812 132.75 94.46875 137.707031 95.820312 C 140.996094 96.714844 143.371094 96.90625 144.777344 96.90625 C 145.15625 96.90625 145.519531 96.886719 145.863281 96.867188 C 145.878906 96.867188 145.898438 96.867188 145.917969 96.867188 C 146.109375 96.867188 146.316406 96.941406 146.449219 97.074219 C 146.601562 97.226562 146.699219 97.4375 146.679688 97.667969 C 146.394531 102.328125 145.023438 118.355469 138.8125 128.347656 C 134.574219 135.160156 131.359375 137.824219 127.332031 137.824219 C 124.578125 137.824219 121.441406 136.550781 117.90625 135.007812 C 117.792969 134.953125 117.679688 134.875 117.601562 134.761719 C 117.527344 134.648438 117.449219 134.53125 117.355469 134.4375 L 117.277344 134.324219 C 114.238281 130.117188 113.210938 128.707031 112.738281 122.941406 C 112.640625 121.933594 112.527344 120.960938 112.355469 120.050781 C 112.339844 119.914062 112.203125 119.820312 112.070312 119.820312 C 112.054688 119.820312 112.035156 119.820312 112.015625 119.820312 C 111.863281 119.859375 111.75 119.992188 111.785156 120.164062 C 111.957031 121.058594 112.070312 122.007812 112.167969 123 C 112.660156 128.917969 113.707031 130.363281 116.824219 134.667969 C 118.097656 136.417969 119.671875 138.605469 121.726562 141.804688 C 121.933594 142.128906 121.859375 142.566406 121.574219 142.8125 C 110.703125 151.683594 97.589844 157.21875 83.660156 158.820312 C 83.585938 158.800781 83.546875 158.800781 83.527344 158.800781 Z M 83.527344 158.800781 " fill-opacity="1" fill-rule="nonzero"/><path fill="#ffffff" d="M 49.8125 159.277344 C 45.824219 159.277344 41.679688 158.992188 37.539062 158.402344 C 26.855469 156.914062 19.882812 153.699219 16.214844 148.597656 C 13.269531 144.488281 12.453125 139.195312 13.742188 132.382812 C 16.347656 118.546875 30.867188 101.585938 32.519531 99.703125 C 32.558594 99.644531 32.613281 99.609375 32.671875 99.570312 C 34.914062 98.105469 37.042969 97.363281 37.859375 97.113281 C 37.9375 97.09375 38.011719 97.074219 38.089844 97.074219 C 38.164062 97.074219 38.242188 97.09375 38.316406 97.113281 C 39.875 97.609375 43.03125 97.914062 48.085938 98.371094 C 56.105469 99.09375 67.109375 100.082031 73.664062 102.84375 C 73.949219 102.957031 74.140625 103.242188 74.121094 103.546875 C 74.121094 103.851562 73.929688 104.136719 73.644531 104.25 L 60.132812 109.636719 C 60.058594 109.675781 60 109.734375 59.980469 109.808594 C 59.941406 109.886719 59.960938 109.960938 60 110.039062 C 60.058594 110.171875 66.632812 122.867188 70.472656 140.757812 C 70.527344 141.0625 70.414062 141.386719 70.148438 141.554688 C 70.015625 141.632812 69.882812 141.6875 69.730469 141.6875 C 69.578125 141.6875 69.425781 141.652344 69.292969 141.554688 C 67.144531 140.035156 64.277344 138.433594 61.199219 137.046875 C 55.230469 134.378906 48.84375 132.589844 42.726562 131.867188 C 42.328125 131.832031 42.042969 131.46875 42.058594 131.070312 L 42.421875 124.558594 C 42.421875 124.464844 42.382812 124.386719 42.34375 124.351562 C 42.308594 124.3125 42.25 124.253906 42.15625 124.253906 C 41.984375 124.253906 41.871094 124.371094 41.851562 124.523438 L 41.488281 130.953125 C 41.472656 131.164062 41.375 131.355469 41.222656 131.488281 C 41.089844 131.601562 40.902344 131.679688 40.730469 131.679688 C 40.710938 131.679688 40.691406 131.679688 40.671875 131.679688 C 39.4375 131.582031 38.222656 131.527344 37.042969 131.527344 C 36.644531 131.527344 36.226562 131.527344 35.828125 131.542969 C 35.675781 131.542969 35.542969 131.679688 35.542969 131.832031 C 35.542969 131.984375 35.675781 132.117188 35.828125 132.117188 C 36.226562 132.097656 36.644531 132.097656 37.042969 132.097656 C 44.4375 132.097656 53.160156 134.09375 60.949219 137.558594 C 68.058594 140.71875 73.113281 144.621094 73.246094 147.039062 C 73.492188 151.339844 70.394531 155.296875 69.445312 156.402344 C 69.351562 156.496094 69.238281 156.574219 69.121094 156.628906 C 67.8125 157.066406 60.855469 159.277344 49.8125 159.277344 Z M 49.8125 159.277344 " fill-opacity="1" fill-rule="nonzero"/><path fill="#ffcd92" d="M 76.628906 96.046875 C 76.554688 96.046875 76.457031 96.027344 76.382812 95.992188 C 73.890625 94.773438 65.152344 90.738281 56.65625 89.785156 C 56.425781 89.765625 56.238281 89.597656 56.179688 89.386719 C 56.125 89.175781 56.179688 88.929688 56.371094 88.777344 C 58.234375 87.234375 59.070312 85.066406 59.449219 83.503906 C 59.507812 83.316406 59.640625 83.144531 59.847656 83.085938 C 59.90625 83.066406 59.960938 83.066406 60.019531 83.066406 C 60.171875 83.066406 60.304688 83.125 60.417969 83.21875 C 61.632812 84.382812 63.078125 85.390625 64.730469 86.246094 C 68.34375 88.113281 72.941406 89.140625 77.675781 89.140625 C 80.125 89.140625 82.519531 88.871094 84.78125 88.339844 C 84.820312 88.320312 84.875 88.320312 84.914062 88.320312 C 85.046875 88.320312 85.179688 88.359375 85.277344 88.453125 C 85.410156 88.566406 85.484375 88.738281 85.484375 88.929688 C 85.351562 91.460938 84.535156 92.773438 82.445312 93.785156 C 82.332031 93.839844 82.234375 93.9375 82.195312 94.070312 C 82.121094 94.316406 81.894531 94.488281 81.644531 94.488281 C 81.609375 94.488281 81.570312 94.488281 81.53125 94.46875 C 81.171875 94.390625 80.808594 94.355469 80.449219 94.355469 C 79.898438 94.355469 79.382812 94.449219 78.890625 94.621094 C 78.226562 94.867188 77.617188 95.269531 77.085938 95.839844 C 76.933594 95.992188 76.78125 96.046875 76.628906 96.046875 Z M 76.628906 96.046875 " fill-opacity="1" fill-rule="nonzero"/><path fill="#ffcd92" d="M 77.617188 88.207031 C 73.039062 88.207031 68.589844 87.21875 65.113281 85.410156 C 62.90625 84.265625 61.101562 82.839844 59.714844 81.144531 C 59.695312 81.125 59.675781 81.105469 59.675781 81.089844 C 59.660156 81.050781 59.621094 81.011719 59.582031 80.972656 C 59.5625 80.953125 59.542969 80.9375 59.523438 80.917969 C 56.941406 77.605469 56.085938 73.417969 56.960938 68.507812 C 56.996094 68.316406 56.902344 68.109375 56.730469 68.011719 C 56.65625 67.972656 56.578125 67.957031 56.484375 67.957031 C 56.371094 67.957031 56.277344 67.992188 56.179688 68.070312 C 55.574219 68.566406 54.886719 68.8125 54.164062 68.8125 C 53.214844 68.8125 52.378906 68.375 51.867188 67.992188 C 49.511719 66.335938 47.855469 62.417969 49.128906 58.742188 C 49.71875 57.050781 50.59375 56.039062 51.695312 55.71875 C 51.960938 55.640625 52.246094 55.601562 52.53125 55.601562 C 53.9375 55.601562 55.402344 56.480469 55.972656 56.933594 C 56.066406 57.011719 56.160156 57.050781 56.277344 57.050781 C 56.292969 57.050781 56.3125 57.050781 56.332031 57.050781 C 56.464844 57.03125 56.578125 56.953125 56.65625 56.859375 C 56.730469 56.746094 64.867188 45.933594 79.042969 45.171875 C 79.402344 45.152344 79.785156 45.136719 80.144531 45.136719 C 88.792969 45.136719 92.175781 50.617188 92.761719 51.71875 C 92.800781 51.777344 92.820312 51.835938 92.820312 51.910156 L 94.304688 61.390625 C 94.320312 61.523438 94.398438 61.636719 94.511719 61.710938 C 94.550781 61.730469 94.570312 61.75 94.589844 61.789062 C 95.273438 62.453125 97.648438 66.871094 97.402344 68.546875 C 97.402344 68.582031 97.402344 68.601562 97.402344 68.621094 L 97.417969 73.644531 C 97.417969 78.519531 94.871094 81.621094 93.789062 82.726562 C 90.976562 85.582031 86.1875 87.519531 80.640625 88.074219 C 79.667969 88.167969 78.644531 88.207031 77.617188 88.207031 Z M 77.617188 88.207031 " fill-opacity="1" fill-rule="nonzero"/><path fill="#ffcd92" d="M 75.070312 159.105469 C 72.902344 159.105469 70.660156 159.007812 68.398438 158.800781 C 68.132812 158.78125 67.90625 158.570312 67.886719 158.285156 C 67.867188 158.019531 68.019531 157.753906 68.285156 157.675781 C 69.046875 157.449219 69.503906 157.277344 69.636719 157.21875 C 69.691406 157.203125 69.75 157.164062 69.804688 157.105469 C 69.84375 157.066406 72.921875 153.777344 73.777344 149.605469 C 73.816406 149.417969 73.949219 149.265625 74.121094 149.1875 C 74.195312 149.148438 74.273438 149.148438 74.347656 149.148438 C 74.460938 149.148438 74.558594 149.1875 74.652344 149.246094 C 76.761719 150.597656 80.523438 153.546875 81.96875 158.078125 C 82.027344 158.25 81.988281 158.417969 81.894531 158.570312 C 81.796875 158.722656 81.644531 158.800781 81.476562 158.820312 C 79.347656 159.007812 77.199219 159.105469 75.070312 159.105469 Z M 75.070312 159.105469 " fill-opacity="1" fill-rule="nonzero"/><path fill="#ffcd92" d="M 141.660156 95.894531 C 141.625 95.894531 141.605469 95.894531 141.566406 95.894531 C 140.40625 95.726562 139.152344 95.4375 137.859375 95.097656 C 133.089844 93.800781 129.234375 90.128906 127.789062 88.625 C 127.617188 88.433594 127.578125 88.167969 127.710938 87.941406 L 131.171875 81.925781 C 131.285156 81.734375 131.246094 81.46875 131.058594 81.316406 C 131.039062 81.296875 128.207031 78.824219 127.996094 74.425781 C 127.828125 71.097656 125.621094 67.6875 124.328125 65.976562 C 124.195312 65.804688 124.175781 65.578125 124.273438 65.386719 C 124.367188 65.195312 124.558594 65.0625 124.785156 65.0625 L 130.753906 65.0625 C 130.925781 65.0625 131.074219 65.136719 131.191406 65.253906 C 133.035156 67.347656 134.535156 68.792969 135.238281 69.15625 C 135.371094 69.230469 135.523438 69.269531 135.675781 69.269531 C 136.550781 69.269531 137.691406 68.183594 138.46875 67.382812 C 139.246094 66.566406 139.914062 65.730469 140.253906 65.289062 C 140.367188 65.15625 140.519531 65.0625 140.710938 65.0625 L 157.359375 65.0625 C 157.566406 65.0625 157.777344 65.175781 157.871094 65.367188 C 157.96875 65.558594 157.949219 65.785156 157.832031 65.957031 C 156.769531 67.441406 155.078125 70.105469 153.160156 74.371094 C 149.929688 81.488281 144.816406 84.324219 144.605469 84.4375 C 144.472656 84.515625 144.378906 84.628906 144.359375 84.761719 L 142.25 95.4375 C 142.175781 95.707031 141.925781 95.894531 141.660156 95.894531 Z M 141.660156 95.894531 " fill-opacity="1" fill-rule="nonzero"/><path fill="#ffb600" d="M 135.75 68.261719 C 135.636719 68.261719 135.523438 68.222656 135.429688 68.164062 C 134.820312 67.746094 133.753906 66.640625 133.167969 66.015625 C 133.015625 65.84375 132.976562 65.613281 133.050781 65.40625 C 133.148438 65.195312 133.355469 65.0625 133.585938 65.0625 L 138.011719 65.0625 C 138.242188 65.0625 138.449219 65.195312 138.527344 65.40625 C 138.621094 65.613281 138.582031 65.84375 138.429688 66.015625 C 137.9375 66.566406 136.738281 67.878906 136 68.222656 C 135.921875 68.242188 135.828125 68.261719 135.75 68.261719 Z M 135.75 68.261719 " fill-opacity="1" fill-rule="nonzero"/><path fill="#ffb600" d="M 144.757812 96.164062 C 144.417969 96.164062 144.074219 96.144531 143.714844 96.125 C 143.542969 96.105469 143.390625 96.027344 143.296875 95.894531 C 143.199219 95.761719 143.164062 95.589844 143.183594 95.4375 L 145.15625 85.410156 C 145.195312 85.257812 145.292969 85.125 145.425781 85.027344 C 145.824219 84.78125 146.640625 84.246094 147.628906 83.390625 C 147.742188 83.296875 147.875 83.257812 148.007812 83.257812 C 148.085938 83.257812 148.160156 83.277344 148.238281 83.316406 C 148.445312 83.410156 148.578125 83.601562 148.578125 83.828125 C 148.597656 84.4375 148.597656 84.972656 148.597656 85.464844 C 148.597656 88.816406 148.371094 92.203125 147.914062 95.535156 C 147.894531 95.707031 147.800781 95.859375 147.648438 95.953125 C 147.550781 96.011719 147.457031 96.027344 147.34375 96.027344 C 147.285156 96.027344 147.210938 96.011719 147.152344 95.992188 C 147.097656 95.972656 147.039062 95.953125 146.984375 95.953125 C 146.945312 95.953125 146.886719 95.953125 146.847656 95.972656 C 146.832031 95.972656 146.832031 95.972656 146.8125 95.972656 C 146.714844 96.011719 146.03125 96.164062 144.757812 96.164062 Z M 144.757812 96.164062 " fill-opacity="1" fill-rule="nonzero"/><path fill="#ffb600" d="M 14.257812 126.425781 C 14.066406 126.425781 13.894531 126.328125 13.78125 126.175781 C 5.761719 114.089844 1.542969 100.027344 1.542969 85.464844 C 1.542969 73.054688 4.640625 60.816406 10.496094 50.101562 C 16.347656 39.386719 24.9375 30.195312 35.332031 23.496094 C 35.429688 23.4375 35.542969 23.398438 35.636719 23.398438 C 35.730469 23.398438 35.847656 23.4375 35.941406 23.496094 C 36.132812 23.609375 36.226562 23.835938 36.207031 24.046875 C 35.789062 26.996094 36.339844 29.167969 36.699219 30.195312 C 36.757812 30.347656 36.738281 30.535156 36.644531 30.667969 C 35.578125 32.441406 32.292969 38.644531 34.761719 43.917969 C 36.625 47.875 41.28125 50.332031 48.617188 51.207031 C 48.84375 51.226562 49.035156 51.398438 49.09375 51.625 L 50.042969 55.128906 C 50.097656 55.335938 50.042969 55.546875 49.890625 55.699219 C 49.226562 56.328125 48.671875 57.238281 48.253906 58.421875 C 46.773438 62.683594 48.730469 66.929688 51.335938 68.773438 C 52.246094 69.421875 53.234375 69.761719 54.183594 69.761719 C 54.488281 69.761719 54.792969 69.726562 55.078125 69.667969 C 55.117188 69.648438 55.171875 69.648438 55.210938 69.648438 C 55.34375 69.648438 55.476562 69.707031 55.589844 69.78125 C 55.722656 69.898438 55.800781 70.085938 55.78125 70.257812 C 55.402344 74.539062 56.371094 78.253906 58.652344 81.316406 C 58.726562 81.429688 58.785156 81.5625 58.765625 81.714844 C 58.632812 83.046875 57.910156 87.484375 53.9375 89.140625 C 53.863281 89.175781 53.785156 89.175781 53.710938 89.175781 C 53.710938 89.175781 53.691406 89.175781 53.691406 89.175781 C 53.613281 89.175781 53.539062 89.175781 53.460938 89.175781 C 52.09375 89.175781 50.097656 89.558594 48.425781 91.328125 C 46.847656 93.003906 45.292969 93.175781 43.503906 93.382812 C 41.8125 93.574219 39.894531 93.785156 37.652344 95.269531 C 37.234375 95.554688 37.023438 95.859375 37.003906 96.179688 C 37.003906 96.410156 36.851562 96.621094 36.625 96.714844 C 35.523438 97.132812 33.851562 97.855469 32.101562 99.015625 C 32.0625 99.035156 32.027344 99.074219 32.007812 99.113281 C 31.511719 99.664062 19.75 113.007812 14.769531 126.082031 C 14.695312 126.273438 14.503906 126.425781 14.296875 126.445312 C 14.296875 126.425781 14.277344 126.425781 14.257812 126.425781 Z M 14.257812 126.425781 " fill-opacity="1" fill-rule="nonzero"/><path fill="#ffb600" d="M 118.113281 103.945312 C 118.058594 103.945312 118 103.945312 117.945312 103.929688 C 114.582031 102.863281 106.277344 100.007812 101.789062 96.351562 C 97.550781 92.90625 91.925781 92.375 88.960938 92.375 C 88.601562 92.375 88.257812 92.375 87.957031 92.394531 C 87.957031 92.394531 87.9375 92.394531 87.9375 92.394531 C 87.765625 92.394531 87.59375 92.316406 87.480469 92.164062 C 87.136719 91.726562 86.851562 91.421875 86.71875 91.289062 C 86.683594 91.25 86.625 91.214844 86.550781 91.175781 C 86.28125 91.082031 86.113281 90.796875 86.167969 90.507812 C 86.300781 89.882812 86.378906 89.160156 86.378906 88.300781 C 86.378906 88.054688 86.550781 87.84375 86.777344 87.769531 C 89.96875 86.761719 92.648438 85.238281 94.492188 83.351562 C 95.671875 82.152344 98.390625 78.824219 98.390625 73.609375 L 98.371094 68.640625 C 98.371094 68.621094 98.371094 68.601562 98.371094 68.566406 C 98.484375 67.613281 98.046875 66.015625 97.132812 64.109375 C 96.660156 63.082031 95.917969 61.769531 95.347656 61.140625 C 95.273438 61.066406 95.214844 60.953125 95.214844 60.835938 L 93.847656 52.121094 C 93.808594 51.929688 93.882812 51.738281 94.019531 51.625 C 94.359375 51.300781 97.324219 48.351562 97.191406 43.25 C 97.191406 43.15625 97.191406 43.078125 97.191406 43.003906 L 97.191406 42.871094 C 97.191406 42.640625 97.304688 42.453125 97.496094 42.335938 C 98.179688 41.996094 100.59375 40.664062 102.644531 38.246094 C 104.886719 35.636719 107.128906 31.222656 105.136719 24.960938 C 104.148438 21.820312 102.589844 19.324219 100.535156 17.5 C 100.328125 17.308594 100.289062 17.003906 100.421875 16.777344 C 100.535156 16.605469 100.707031 16.507812 100.917969 16.507812 C 100.992188 16.507812 101.050781 16.527344 101.125 16.546875 C 112.109375 20.734375 122.03125 27.566406 129.859375 36.304688 C 129.992188 36.457031 130.03125 36.664062 129.972656 36.855469 C 129.917969 37.046875 129.765625 37.199219 129.574219 37.234375 C 127.710938 37.75 125.945312 38.378906 124.308594 39.160156 C 120.527344 40.929688 117.296875 43.402344 114.730469 46.523438 C 111.007812 51.035156 109.734375 55.566406 109.449219 56.839844 C 109.390625 57.105469 109.164062 57.277344 108.898438 57.277344 L 106.277344 57.277344 C 105.6875 57.277344 105.191406 57.675781 105.058594 58.25 C 104.925781 58.820312 105.210938 59.390625 105.742188 59.636719 C 107.738281 60.570312 110.589844 62.226562 112.792969 64.835938 C 112.890625 64.949219 113.023438 65.003906 113.15625 65.003906 L 122.085938 65.003906 C 122.238281 65.003906 122.410156 65.082031 122.503906 65.195312 C 122.675781 65.386719 126.820312 70.03125 127.046875 74.425781 C 127.21875 77.96875 128.890625 80.328125 129.878906 81.429688 C 130.050781 81.621094 130.070312 81.886719 129.953125 82.097656 L 126.914062 87.40625 C 126.839844 87.519531 126.722656 87.617188 126.589844 87.671875 C 126.515625 87.691406 126.457031 87.730469 126.402344 87.789062 C 126.171875 88.015625 124.101562 90.261719 121.972656 94.792969 C 120.375 98.179688 119.21875 101.71875 118.667969 103.507812 C 118.628906 103.660156 118.515625 103.777344 118.382812 103.851562 C 118.304688 103.929688 118.210938 103.945312 118.113281 103.945312 Z M 118.113281 103.945312 " fill-opacity="1" fill-rule="nonzero"/><path fill="#cccccc" d="M 42.515625 132.496094 C 42.515625 132.496094 42.175781 126.425781 43.144531 122.886719 C 44.113281 119.363281 45.785156 117.820312 45.785156 117.820312 C 45.785156 117.820312 45.632812 125.015625 51.429688 130.175781 C 57.207031 135.332031 62.414062 137.808594 62.414062 137.808594 C 62.414062 137.808594 49.109375 132.457031 42.515625 132.496094 Z M 42.515625 132.496094 " fill-opacity="1" fill-rule="nonzero"/><path fill="#cccccc" d="M 73.722656 103.320312 C 73.722656 103.320312 58.6875 106.933594 56.769531 109.960938 C 54.851562 112.988281 57.566406 112.339844 61.652344 122.960938 C 65.757812 133.582031 66.652344 140.394531 66.652344 140.394531 L 70.699219 142.527344 C 70.699219 142.527344 68.96875 132.878906 66.273438 124.769531 C 63.574219 116.660156 60.417969 109.449219 60.417969 109.449219 C 60.417969 109.449219 73.777344 106.59375 73.722656 103.320312 Z M 73.722656 103.320312 " fill-opacity="1" fill-rule="nonzero"/><path fill="#cccccc" d="M 119.484375 135.714844 C 119.484375 135.714844 116.5 135.371094 113.933594 129.203125 C 111.367188 123.054688 113.609375 116.46875 113.609375 116.46875 C 113.609375 116.46875 114.257812 130.554688 125.621094 131.335938 C 136.984375 132.117188 141.089844 123.914062 141.089844 123.914062 C 141.089844 123.914062 136.148438 135.332031 130.886719 137.0625 C 125.621094 138.796875 119.484375 135.714844 119.484375 135.714844 Z M 119.484375 135.714844 " fill-opacity="1" fill-rule="nonzero"/><path fill="#cccccc" d="M 122.867188 94.46875 C 122.867188 94.46875 118.988281 102.804688 118.742188 104.976562 C 118.496094 107.144531 120.832031 112.398438 120.832031 112.398438 C 120.832031 112.398438 115.890625 107.8125 111.75 105.011719 C 107.605469 102.214844 105.019531 100.292969 105.019531 100.292969 C 105.019531 100.292969 113.726562 102.175781 115.738281 103.433594 C 117.773438 104.707031 118.953125 104.957031 118.953125 104.957031 Z M 122.867188 94.46875 " fill-opacity="1" fill-rule="nonzero"/><path fill="#cccccc" d="M 145.824219 105.792969 C 145.824219 105.792969 142.003906 106.269531 134.6875 103.433594 C 127.371094 100.578125 125.566406 99.207031 125.566406 99.207031 C 125.566406 99.207031 131.761719 100.710938 135.695312 100.199219 C 139.628906 99.683594 139.894531 96.582031 139.894531 96.582031 L 146.964844 96.980469 C 146.945312 96.960938 148.863281 103.355469 145.824219 105.792969 Z M 145.824219 105.792969 " fill-opacity="1" fill-rule="nonzero"/><path fill="#cccccc" d="M 31.09375 157.542969 C 31.09375 157.542969 44.777344 159.464844 53.160156 155.621094 C 61.539062 151.777344 65.871094 145.019531 65.871094 145.019531 C 65.871094 145.019531 67.507812 155.242188 60.09375 158.609375 C 52.683594 161.980469 34.859375 159.085938 31.09375 157.542969 Z M 31.09375 157.542969 " fill-opacity="1" fill-rule="nonzero"/><path fill="#cccccc" d="M 96.429688 156.097656 C 96.429688 156.097656 103.179688 154.269531 107.984375 146.542969 C 112.8125 138.816406 112.699219 129.566406 112.699219 129.566406 C 112.699219 129.566406 120.851562 139.5 121.574219 141.289062 C 122.296875 143.078125 119.941406 144.621094 119.941406 144.621094 C 119.941406 144.621094 107.148438 152.632812 103.765625 154.175781 C 100.382812 155.714844 96.429688 156.097656 96.429688 156.097656 Z M 96.429688 156.097656 " fill-opacity="1" fill-rule="nonzero"/><path fill="#cccccc" d="M 78.890625 34.589844 C 78.890625 34.589844 82.464844 34.398438 87.421875 39.175781 C 92.382812 43.953125 90.84375 48.125 90.84375 48.125 L 92.859375 50.84375 C 92.859375 50.84375 96.050781 48.5625 96.449219 44.621094 C 96.847656 40.679688 94.988281 36.492188 94.988281 36.492188 C 94.988281 36.492188 82.5 32.609375 78.890625 34.589844 Z M 78.890625 34.589844 " fill-opacity="1" fill-rule="nonzero"/><path fill="#cccccc" d="M 95.023438 34.6875 C 95.023438 34.6875 98.292969 32.363281 99.167969 28.460938 C 100.042969 24.558594 98.824219 20.734375 98.824219 20.734375 C 98.824219 20.734375 102.246094 26.863281 101.523438 32.898438 C 100.800781 38.929688 98.332031 41.023438 98.332031 41.023438 L 97.058594 41.441406 Z M 95.023438 34.6875 " fill-opacity="1" fill-rule="nonzero"/><path fill="#cccccc" d="M 90.652344 14.890625 C 90.652344 14.890625 90.84375 17.25 90.253906 20.03125 C 89.683594 22.808594 88.753906 24.808594 88.753906 24.808594 C 88.753906 24.808594 91.394531 22.808594 93.085938 19.859375 C 94.777344 16.910156 94.625 15.15625 94.625 15.15625 Z M 90.652344 14.890625 " fill-opacity="1" fill-rule="nonzero"/><path fill="#cccccc" d="M 46.847656 9.789062 C 46.847656 9.789062 53.84375 7.335938 60.191406 10.171875 C 66.539062 13.007812 66.308594 16.546875 66.308594 16.546875 C 66.308594 16.546875 66.917969 14.320312 65.433594 10.800781 C 63.933594 7.277344 59.222656 7.222656 59.222656 7.222656 C 59.222656 7.222656 48.238281 7.679688 46.847656 9.789062 Z M 46.847656 9.789062 " fill-opacity="1" fill-rule="nonzero"/><path fill="#cccccc" d="M 37.234375 29.394531 C 37.234375 29.394531 38.46875 31.414062 40.558594 33.125 C 42.648438 34.839844 44.285156 35.085938 44.285156 35.085938 C 44.285156 35.085938 42.042969 35.769531 39.324219 34.992188 C 36.585938 34.210938 35.390625 36.152344 35.390625 36.152344 Z M 37.234375 29.394531 " fill-opacity="1" fill-rule="nonzero"/><path fill="#cccccc" d="M 49.261719 44.925781 C 49.261719 44.925781 46.261719 45.726562 42.859375 43.632812 C 39.457031 41.539062 38.753906 38.1875 38.753906 38.1875 C 38.753906 38.1875 38.527344 46.941406 43.769531 49.550781 C 48.996094 52.15625 49.414062 49.074219 49.414062 49.074219 Z M 49.261719 44.925781 " fill-opacity="1" fill-rule="nonzero"/><path fill="#e8894c" d="M 145.234375 84.535156 C 145.234375 84.535156 143.066406 84.535156 140.652344 83.5625 C 138.242188 82.59375 137.574219 81.546875 137.574219 81.546875 C 137.574219 81.546875 142.421875 83.144531 146.640625 79.316406 C 150.859375 75.492188 154.71875 65.863281 156.410156 64.796875 C 158.101562 63.730469 158.917969 64.796875 158.917969 64.796875 C 158.917969 64.796875 153.652344 75.890625 151.296875 78.652344 C 148.941406 81.394531 145.234375 84.535156 145.234375 84.535156 Z M 145.234375 84.535156 " fill-opacity="1" fill-rule="nonzero"/><path fill="#e8894c" d="M 129.289062 90.660156 C 129.289062 90.660156 131.191406 92.296875 136.035156 90.109375 C 140.882812 87.921875 142.726562 83.640625 142.726562 83.640625 L 144.777344 84.058594 L 142.308594 96.734375 C 142.308594 96.734375 136.359375 95.421875 134.308594 94.679688 C 132.253906 93.9375 129.289062 90.660156 129.289062 90.660156 Z M 129.289062 90.660156 " fill-opacity="1" fill-rule="nonzero"/><path fill="#e8894c" d="M 56.710938 76.140625 C 56.710938 76.140625 60.722656 81.277344 66.273438 83.066406 C 71.820312 84.875 74.730469 84.363281 74.730469 84.363281 C 74.730469 84.363281 77.597656 85.730469 80.390625 86.492188 C 83.183594 87.253906 84.382812 87.21875 84.382812 87.21875 C 84.382812 87.21875 75.886719 90.832031 66.839844 87.21875 C 57.816406 83.621094 56.710938 76.140625 56.710938 76.140625 Z M 56.710938 76.140625 " fill-opacity="1" fill-rule="nonzero"/><path fill="#e8894c" d="M 56.808594 61.980469 C 56.808594 61.980469 55.554688 59.199219 53.082031 59.753906 C 50.613281 60.304688 51.085938 63.292969 51.085938 63.292969 C 51.085938 63.292969 51.183594 61.40625 54.148438 62.113281 C 57.113281 62.816406 58.214844 65.539062 58.214844 65.539062 Z M 56.808594 61.980469 " fill-opacity="1" fill-rule="nonzero"/><path fill="#e8894c" d="M 59.867188 56.6875 L 61.976562 61.789062 C 61.976562 61.789062 63.421875 55.335938 70.359375 50.3125 C 77.292969 45.289062 83.375 45.972656 83.375 45.972656 C 83.375 45.972656 80.621094 43.632812 71.289062 46.695312 C 61.9375 49.777344 60.4375 54.347656 59.867188 56.6875 Z M 59.867188 56.6875 " fill-opacity="1" fill-rule="nonzero"/><path fill="#e8894c" d="M 66.804688 86.609375 C 66.804688 86.609375 68.4375 90.015625 72.351562 92.148438 C 76.269531 94.277344 79.632812 94.621094 79.632812 94.621094 L 77.390625 96.046875 C 77.390625 96.046875 72.753906 94.144531 66.195312 92.507812 C 59.640625 90.871094 55.210938 89.578125 55.210938 89.578125 C 55.210938 89.578125 57.28125 88.167969 57.96875 86.054688 C 58.632812 83.925781 59.375 81.8125 59.375 81.8125 C 59.375 81.8125 63.914062 86.644531 66.804688 86.609375 Z M 66.804688 86.609375 " fill-opacity="1" fill-rule="nonzero"/><path fill="#e8894c" d="M 74.328125 148.558594 C 74.328125 148.558594 75.242188 151.453125 74.101562 154.347656 C 72.980469 157.238281 77.273438 159.277344 77.273438 159.277344 C 77.273438 159.277344 69.179688 159.199219 68.058594 158.800781 C 66.9375 158.402344 66.84375 157.828125 66.84375 157.828125 C 66.84375 157.828125 70.738281 156.761719 71.914062 153.738281 C 73.113281 150.730469 74.328125 148.558594 74.328125 148.558594 Z M 74.328125 148.558594 " fill-opacity="1" fill-rule="nonzero"/><path fill="#ffffff" d="M 126.78125 39.140625 C 126.78125 39.140625 135.902344 36.761719 149.207031 41.328125 C 162.507812 45.894531 164.941406 57.410156 164.941406 57.410156 L 171.765625 57.222656 C 171.765625 57.222656 170.605469 45.742188 159.542969 40.8125 C 148.484375 35.886719 140.84375 36.628906 136.929688 36.761719 C 133.015625 36.875 126.78125 39.140625 126.78125 39.140625 Z M 126.78125 39.140625 " fill-opacity="1" fill-rule="nonzero"/><path fill="#000000" d="M 76.496094 105.128906 C 76.496094 105.128906 78.472656 106.515625 81.171875 104.878906 C 83.871094 103.242188 81.894531 98.675781 81.894531 98.675781 C 81.894531 98.675781 84.742188 101.300781 85.179688 104.175781 C 85.636719 107.03125 82.101562 108.285156 82.101562 108.285156 C 82.101562 108.285156 76.476562 108.4375 76.496094 105.128906 Z M 76.496094 105.128906 " fill-opacity="0.2" fill-rule="nonzero"/><path fill="#000000" d="M 42.554688 93.992188 C 42.554688 93.992188 46.507812 93.328125 54.886719 93.992188 C 63.269531 94.660156 68.953125 97.324219 68.953125 97.324219 C 68.953125 97.324219 55.191406 95.589844 48.671875 96.238281 C 42.15625 96.886719 40.425781 97.476562 40.425781 97.476562 L 38.164062 96.789062 C 38.183594 96.789062 39.34375 94.257812 42.554688 93.992188 Z M 42.554688 93.992188 " fill-opacity="0.2" fill-rule="nonzero"/><path fill="#000000" d="M 87.824219 104.441406 C 87.824219 104.441406 90.027344 106.613281 93.828125 107.964844 C 97.648438 109.3125 100.328125 109.429688 100.328125 109.429688 C 100.328125 109.429688 96.242188 108.097656 93.847656 106.15625 C 91.472656 104.195312 93.03125 102.292969 93.03125 102.292969 C 93.03125 102.292969 89.152344 101.644531 87.824219 104.441406 " fill-opacity="0.2" fill-rule="nonzero"/><path fill="#000000" d="M 74.367188 109.429688 C 74.367188 109.429688 76.628906 109.066406 77.675781 111.21875 C 78.71875 113.367188 77.371094 117.0625 77.371094 117.0625 C 77.371094 117.0625 79.289062 113.539062 79.765625 111.179688 C 80.238281 108.839844 80.371094 108.097656 80.371094 108.097656 L 77.371094 106.191406 Z M 74.367188 109.429688 " fill-opacity="0.2" fill-rule="nonzero"/><g clip-path="url(#6009440a64)"><path fill="#4e1d0f" d="M 177.464844 58.132812 C 177.675781 58.972656 177.292969 59.789062 176.535156 60.191406 C 172.753906 62.167969 170.472656 65.175781 170.453125 65.214844 C 170.261719 65.480469 169.941406 65.632812 169.617188 65.632812 L 160 65.632812 C 159.277344 66.472656 157.128906 69.230469 154.507812 74.996094 C 153.179688 77.949219 151.542969 80.195312 150.023438 81.867188 C 150.023438 81.886719 150.023438 81.90625 150.023438 81.925781 C 150.082031 83.105469 150.097656 84.285156 150.097656 85.464844 C 150.097656 92.507812 149.128906 99.457031 147.210938 106.15625 C 147.171875 106.269531 147.117188 106.382812 147.058594 106.476562 C 146.050781 113.367188 144.019531 122.410156 139.875 129.070312 C 136.054688 135.21875 132.917969 138.167969 129.382812 138.96875 C 128.777344 139.101562 128.167969 139.175781 127.542969 139.175781 C 127.542969 139.175781 127.542969 139.195312 127.523438 139.195312 C 113.421875 153.015625 94.777344 160.628906 75.03125 160.628906 C 71.023438 160.628906 67.011719 160.304688 63.097656 159.675781 C 62.984375 159.65625 62.851562 159.617188 62.757812 159.5625 C 59.507812 160.132812 55.191406 160.628906 49.929688 160.628906 C 46.183594 160.628906 41.964844 160.378906 37.308594 159.734375 C 26.25 158.191406 18.988281 154.804688 15.09375 149.378906 C 11.917969 144.964844 11.046875 139.328125 12.394531 132.136719 C 12.640625 130.859375 12.964844 129.566406 13.382812 128.269531 C 13.324219 128.214844 13.269531 128.15625 13.230469 128.082031 C 4.585938 115.519531 0.0234375 100.789062 0.0234375 85.464844 C 0.0234375 72.296875 3.480469 59.332031 10 47.988281 C 16.328125 36.988281 25.414062 27.683594 36.265625 21.117188 C 36.28125 21.117188 36.300781 21.097656 36.320312 21.097656 C 37.082031 18.773438 38.429688 16.167969 40.769531 13.425781 C 44.09375 9.523438 48.84375 7.050781 54.527344 6.289062 C 57.71875 5.871094 60.34375 6.078125 61.519531 6.210938 C 62.871094 4.519531 67.527344 0.0273438 78.167969 2.0625 C 84.78125 3.320312 88.203125 6.6875 89.875 9.277344 C 90.519531 10.265625 90.976562 11.238281 91.28125 12.054688 C 99.09375 13.789062 106.542969 16.738281 113.441406 20.847656 C 120.320312 24.960938 126.476562 30.117188 131.742188 36.1875 C 134.609375 35.597656 137.707031 35.292969 140.976562 35.292969 C 147.402344 35.292969 153.101562 36.457031 157.949219 38.738281 C 161.84375 40.585938 165.167969 43.15625 167.847656 46.390625 C 171.421875 50.691406 172.847656 54.957031 173.324219 56.746094 L 175.699219 56.746094 C 176.554688 56.746094 177.257812 57.296875 177.464844 58.132812 Z M 174.652344 58.839844 L 107.453125 58.839844 C 109.355469 59.828125 111.691406 61.351562 113.628906 63.519531 L 169.121094 63.519531 C 169.863281 62.644531 171.78125 60.550781 174.652344 58.839844 Z M 111.066406 56.746094 L 171.15625 56.746094 C 170.585938 54.898438 169.199219 51.261719 166.195312 47.648438 C 160.496094 40.832031 152.019531 37.386719 140.996094 37.386719 C 129.9375 37.386719 121.496094 40.796875 115.910156 47.53125 C 112.773438 51.339844 111.5 55.128906 111.066406 56.746094 Z M 157.359375 65.632812 L 140.710938 65.632812 C 140.503906 65.917969 139.742188 66.851562 138.886719 67.765625 C 137.878906 68.8125 136.738281 69.839844 135.675781 69.839844 C 135.429688 69.839844 135.199219 69.78125 134.972656 69.667969 C 133.871094 69.117188 131.664062 66.679688 130.753906 65.632812 L 124.785156 65.632812 C 126.191406 67.5 128.394531 70.945312 128.566406 74.40625 C 128.777344 78.558594 131.417969 80.878906 131.4375 80.898438 C 131.816406 81.222656 131.914062 81.773438 131.664062 82.210938 L 128.207031 88.226562 C 129.667969 89.765625 133.414062 93.289062 138.011719 94.542969 C 139.398438 94.925781 140.597656 95.171875 141.640625 95.324219 L 143.75 84.648438 C 143.808594 84.34375 144.019531 84.078125 144.285156 83.925781 C 144.339844 83.90625 149.414062 81.125 152.589844 74.121094 C 154.546875 69.898438 156.238281 67.195312 157.359375 65.632812 Z M 148.027344 85.464844 C 148.027344 84.933594 148.027344 84.382812 148.007812 83.847656 C 147.019531 84.6875 146.203125 85.238281 145.726562 85.542969 L 143.75 95.574219 C 145.726562 95.6875 146.679688 95.4375 146.699219 95.4375 C 146.925781 95.363281 147.152344 95.382812 147.363281 95.457031 C 147.800781 92.148438 148.027344 88.816406 148.027344 85.464844 Z M 145.878906 97.648438 C 144.359375 97.761719 141.605469 97.703125 137.480469 96.5625 C 132.40625 95.171875 128.433594 91.480469 126.761719 89.75 C 125.984375 90.757812 124.671875 92.640625 123.339844 95.476562 C 121.210938 100.027344 119.824219 104.9375 119.824219 104.976562 C 119.75 105.242188 119.578125 105.46875 119.332031 105.601562 C 119.085938 105.734375 118.800781 105.773438 118.535156 105.699219 C 118.058594 105.566406 106.597656 102.234375 100.839844 97.53125 C 97.078125 94.46875 91.925781 93.953125 89.265625 93.917969 C 90.273438 95.859375 91.035156 98.523438 89.933594 101.378906 C 91.679688 100.882812 95.441406 100.539062 99.605469 104.652344 C 104.449219 109.449219 108.554688 110.894531 108.59375 110.914062 C 109.03125 111.066406 109.335938 111.484375 109.296875 111.960938 C 109.277344 112.4375 108.9375 112.816406 108.480469 112.929688 C 107.890625 113.0625 95.292969 115.863281 87.460938 110.019531 C 87.574219 112.054688 87.136719 114.757812 85.105469 117.613281 C 81.246094 123.035156 77.332031 128.082031 77.292969 128.136719 C 77.105469 128.386719 76.78125 128.539062 76.457031 128.539062 C 76.4375 128.539062 76.402344 128.539062 76.363281 128.539062 C 76.019531 128.5 75.699219 128.289062 75.527344 127.984375 C 75.449219 127.851562 73.777344 124.675781 72.921875 120.351562 C 71.765625 114.546875 72.714844 109.464844 75.621094 105.679688 C 75.679688 105.601562 75.734375 105.546875 75.8125 105.488281 C 75.714844 105.296875 75.621094 105.109375 75.527344 104.917969 L 61.632812 110.4375 C 63.34375 113.996094 68.894531 126.3125 72.066406 142.203125 C 72.105469 142.414062 72.085938 142.621094 72.011719 142.792969 C 73.492188 144.183594 74.445312 145.589844 74.519531 146.921875 C 74.519531 147.074219 74.539062 147.246094 74.539062 147.398438 C 76.363281 148.40625 81.761719 151.890625 83.507812 158.019531 C 97.285156 156.441406 110.246094 150.976562 121.023438 142.183594 C 118.988281 139.023438 117.410156 136.835938 116.140625 135.085938 C 113.023438 130.785156 111.84375 129.164062 111.332031 123.019531 C 111.253906 122.066406 111.121094 121.132812 110.96875 120.257812 C 110.875 119.6875 111.234375 119.15625 111.804688 119.039062 C 112.375 118.945312 112.925781 119.304688 113.023438 119.878906 C 113.191406 120.828125 113.324219 121.820312 113.421875 122.847656 C 113.878906 128.40625 114.789062 129.660156 117.832031 133.847656 C 117.925781 134 118.039062 134.132812 118.152344 134.285156 C 127.503906 138.378906 131.152344 139.140625 138.109375 127.929688 C 144.246094 118.109375 145.613281 102.195312 145.878906 97.648438 Z M 138.011719 65.632812 L 133.585938 65.632812 C 134.476562 66.566406 135.3125 67.382812 135.769531 67.707031 C 136.207031 67.5 137.082031 66.660156 138.011719 65.632812 Z M 126.421875 87.160156 L 129.460938 81.851562 C 128.472656 80.746094 126.667969 78.253906 126.496094 74.503906 C 126.285156 70.355469 122.316406 65.863281 122.105469 65.632812 L 113.175781 65.632812 C 112.871094 65.632812 112.585938 65.5 112.375 65.273438 C 110.246094 62.757812 107.472656 61.140625 105.535156 60.226562 C 104.753906 59.867188 104.355469 59.027344 104.527344 58.191406 C 104.71875 57.355469 105.4375 56.765625 106.292969 56.765625 L 108.917969 56.765625 C 109.257812 55.316406 110.53125 50.789062 114.3125 46.21875 C 116.9375 43.042969 120.242188 40.511719 124.101562 38.703125 C 125.773438 37.921875 127.558594 37.273438 129.460938 36.761719 C 121.648438 28.042969 111.804688 21.285156 100.953125 17.15625 C 102.796875 18.773438 104.546875 21.210938 105.707031 24.863281 C 107.777344 31.375 105.4375 35.980469 103.101562 38.703125 C 100.972656 41.195312 98.503906 42.546875 97.761719 42.925781 C 97.761719 43.058594 97.78125 43.175781 97.78125 43.308594 C 97.914062 48.636719 94.796875 51.757812 94.417969 52.121094 L 95.785156 60.835938 C 96.546875 61.675781 97.382812 63.367188 97.667969 63.941406 C 98.351562 65.367188 99.109375 67.347656 98.957031 68.71875 L 98.976562 73.664062 C 98.976562 79.089844 96.128906 82.574219 94.910156 83.808594 C 92.914062 85.847656 90.140625 87.371094 86.949219 88.378906 C 86.949219 89.214844 86.871094 89.996094 86.71875 90.699219 C 86.871094 90.757812 87.003906 90.832031 87.121094 90.949219 C 87.175781 91.003906 87.5 91.328125 87.917969 91.878906 C 90.027344 91.785156 97.058594 91.804688 102.152344 95.953125 C 106.636719 99.609375 115.207031 102.5 118.113281 103.414062 C 118.648438 101.699219 119.824219 98.085938 121.460938 94.621094 C 123.703125 89.84375 125.90625 87.558594 126 87.464844 C 126.117188 87.292969 126.269531 87.21875 126.421875 87.160156 Z M 122.65625 140.851562 C 123.398438 140.222656 124.121094 139.558594 124.824219 138.890625 C 123.4375 138.605469 121.992188 138.128906 120.453125 137.539062 C 121.117188 138.511719 121.859375 139.613281 122.65625 140.851562 Z M 101.5625 37.253906 C 104.414062 33.90625 105.136719 29.925781 103.710938 25.472656 C 100.308594 14.777344 91.453125 15.84375 91.070312 15.898438 C 90.785156 15.9375 90.503906 15.863281 90.273438 15.691406 C 90.046875 15.519531 89.914062 15.253906 89.875 14.96875 C 89.875 14.890625 89.800781 14.320312 89.550781 13.464844 C 89.496094 13.351562 89.4375 13.214844 89.4375 13.082031 C 88.507812 10.398438 85.769531 5.660156 77.75 4.117188 C 66.574219 1.988281 63.023438 7.621094 62.871094 7.867188 C 62.640625 8.230469 62.203125 8.4375 61.785156 8.363281 C 61.671875 8.34375 49.546875 6.269531 42.328125 14.757812 C 35.144531 23.207031 38.203125 29.964844 38.242188 30.042969 C 38.390625 30.382812 38.375 30.765625 38.164062 31.070312 C 38.125 31.144531 33.621094 37.976562 36.113281 43.289062 C 37.671875 46.601562 41.640625 48.714844 47.933594 49.589844 L 47.171875 46.789062 C 47.019531 46.238281 47.34375 45.648438 47.914062 45.515625 C 48.464844 45.363281 49.035156 45.6875 49.1875 46.257812 L 50.25 50.234375 C 50.382812 50.40625 50.460938 50.617188 50.460938 50.84375 C 50.460938 50.882812 50.460938 50.921875 50.460938 50.941406 L 51.335938 54.234375 C 53.179688 53.738281 55.019531 54.539062 56.066406 55.164062 C 56.960938 54.097656 58.804688 52.121094 61.539062 50.082031 C 65.167969 47.378906 71.136719 44.070312 78.964844 43.648438 C 87.632812 43.195312 91.910156 47.742188 93.484375 50.007812 C 94.304688 49 95.765625 46.714844 95.671875 43.347656 C 95.558594 38.722656 94.359375 37.007812 94.359375 36.988281 C 94 36.53125 94.09375 35.886719 94.550781 35.523438 C 95.007812 35.160156 95.671875 35.257812 96.011719 35.714844 C 96.144531 35.886719 97.132812 37.253906 97.550781 40.605469 C 98.558594 40.015625 100.175781 38.910156 101.5625 37.253906 Z M 104.8125 111.371094 C 103.042969 110.324219 100.707031 108.667969 98.140625 106.136719 C 93.636719 101.683594 89.949219 103.585938 89.914062 103.605469 C 89.683594 103.738281 89.4375 103.757812 89.191406 103.699219 C 88.945312 104.6875 88.429688 105.621094 87.613281 106.460938 C 87.460938 106.613281 87.308594 106.765625 87.136719 106.898438 C 91.851562 111.921875 100.230469 111.863281 104.8125 111.371094 Z M 96.886719 68.449219 C 97.097656 67.0625 94.910156 62.835938 94.246094 62.1875 C 94 62.015625 93.828125 61.769531 93.789062 61.484375 L 92.308594 52.003906 C 91.792969 51.054688 88.296875 45.269531 79.117188 45.742188 C 65.167969 46.484375 57.246094 57.085938 57.167969 57.183594 C 56.996094 57.410156 56.75 57.5625 56.464844 57.601562 C 56.179688 57.640625 55.894531 57.5625 55.667969 57.375 C 55.097656 56.917969 53.3125 55.851562 51.886719 56.25 C 50.953125 56.515625 50.214844 57.429688 49.699219 58.933594 C 48.503906 62.359375 50.042969 65.996094 52.226562 67.535156 C 52.96875 68.070312 54.449219 68.773438 55.875 67.613281 C 56.066406 67.460938 56.292969 67.382812 56.542969 67.382812 C 56.730469 67.382812 56.902344 67.441406 57.074219 67.535156 C 57.453125 67.765625 57.644531 68.183594 57.566406 68.621094 C 56.617188 74.007812 57.910156 77.851562 60.039062 80.59375 C 60.113281 80.667969 60.171875 80.746094 60.210938 80.820312 C 61.710938 82.6875 63.609375 84 65.417969 84.933594 C 69.617188 87.101562 75.183594 88.054688 80.675781 87.519531 C 86.09375 86.988281 90.769531 85.105469 93.484375 82.34375 C 94.53125 81.277344 96.945312 78.328125 96.945312 73.664062 L 96.925781 68.640625 C 96.867188 68.566406 96.867188 68.507812 96.886719 68.449219 Z M 88.355469 99.035156 C 88.542969 96.828125 87.5 94.832031 86.664062 93.613281 C 86.605469 93.554688 86.566406 93.480469 86.53125 93.421875 C 86.320312 93.136719 86.132812 92.890625 85.980469 92.71875 C 85.503906 93.496094 84.800781 94.164062 83.832031 94.753906 C 83.851562 94.753906 83.851562 94.773438 83.871094 94.773438 C 84.476562 95 86.816406 95.992188 88.355469 99.035156 Z M 86.113281 105.011719 C 87.136719 103.945312 87.460938 102.765625 87.082031 101.511719 C 85.882812 97.609375 83.222656 96.773438 83.109375 96.753906 C 83.015625 96.734375 82.917969 96.675781 82.824219 96.621094 C 82.804688 96.621094 81.703125 95.914062 80.410156 95.914062 C 80.070312 95.914062 79.707031 95.972656 79.347656 96.105469 C 78.757812 96.332031 78.226562 96.753906 77.769531 97.378906 C 77.75 97.398438 77.730469 97.4375 77.710938 97.457031 C 77.257812 98.085938 76.894531 98.921875 76.570312 99.929688 C 76.402344 100.519531 76.609375 102.652344 77.675781 104.59375 C 78.167969 105.488281 79.003906 106.613281 80.183594 106.953125 C 81.929688 107.410156 84.628906 106.535156 86.113281 105.011719 Z M 83.414062 116.394531 C 85.882812 112.929688 85.503906 109.789062 85.066406 108.25 C 83.832031 108.820312 82.5 109.144531 81.246094 109.144531 C 80.675781 109.144531 80.144531 109.066406 79.652344 108.933594 C 78.699219 108.667969 77.828125 108.097656 77.066406 107.257812 C 72.523438 113.558594 75.261719 122.046875 76.6875 125.472656 C 78.109375 123.628906 80.773438 120.085938 83.414062 116.394531 Z M 82.140625 93.289062 C 84.003906 92.375 84.726562 91.289062 84.859375 88.929688 C 82.558594 89.460938 80.085938 89.75 77.617188 89.75 C 72.980469 89.75 68.285156 88.796875 64.429688 86.796875 C 62.71875 85.902344 61.234375 84.855469 59.980469 83.675781 C 59.582031 85.351562 58.6875 87.617188 56.730469 89.253906 C 65.285156 90.207031 74.042969 94.238281 76.648438 95.515625 C 77.238281 94.886719 77.921875 94.429688 78.679688 94.144531 C 79.726562 93.765625 80.753906 93.785156 81.628906 93.953125 C 81.683594 93.648438 81.875 93.421875 82.140625 93.289062 Z M 81.398438 158.265625 C 79.992188 153.871094 76.285156 150.996094 74.308594 149.742188 C 73.4375 154.003906 70.359375 157.355469 70.207031 157.507812 C 70.089844 157.621094 69.957031 157.714844 69.824219 157.773438 C 69.730469 157.808594 69.273438 157.980469 68.4375 158.230469 C 70.644531 158.417969 72.847656 158.535156 75.050781 158.535156 C 77.199219 158.535156 79.308594 158.4375 81.398438 158.265625 Z M 74.59375 99.304688 C 74.824219 98.523438 75.109375 97.835938 75.414062 97.210938 C 72.5625 95.859375 64.144531 92.089844 56.21875 91.269531 C 56.105469 91.25 55.992188 91.234375 55.875 91.175781 C 55.722656 91.117188 52.191406 89.539062 49.527344 92.355469 C 47.570312 94.449219 45.574219 94.660156 43.65625 94.886719 C 42.308594 95.039062 40.921875 95.191406 39.363281 96.011719 C 41.1875 96.390625 44.855469 96.734375 48.179688 97.019531 C 56.597656 97.78125 67.792969 98.789062 74.558594 101.777344 C 74.40625 100.824219 74.40625 99.929688 74.59375 99.304688 Z M 59.828125 108.914062 L 73.339844 103.527344 C 66.898438 100.804688 56.125 99.835938 47.988281 99.113281 C 42.648438 98.636719 39.664062 98.332031 38.070312 97.816406 C 37.328125 98.046875 35.257812 98.769531 33.070312 100.199219 C 31.777344 101.683594 17.050781 118.792969 14.464844 132.535156 C 13.230469 139.140625 13.992188 144.238281 16.804688 148.179688 C 20.359375 153.109375 27.160156 156.230469 37.613281 157.675781 C 55.554688 160.171875 67.089844 156.515625 68.816406 155.90625 C 69.558594 155.050781 72.675781 151.167969 72.429688 147.074219 C 72.335938 145.304688 68.132812 141.632812 60.570312 138.246094 C 52.378906 134.589844 43.351562 132.628906 35.789062 132.859375 C 35.21875 132.878906 34.726562 132.421875 34.707031 131.847656 C 34.6875 131.277344 35.144531 130.785156 35.714844 130.765625 C 37.289062 130.707031 38.945312 130.765625 40.636719 130.898438 L 40.996094 124.464844 C 41.035156 123.894531 41.527344 123.4375 42.097656 123.476562 C 42.667969 123.511719 43.125 124.007812 43.085938 124.578125 L 42.726562 131.089844 C 48.824219 131.8125 55.34375 133.621094 61.40625 136.320312 C 64.277344 137.597656 67.242188 139.195312 69.636719 140.890625 C 65.855469 123.226562 59.316406 110.496094 59.238281 110.359375 C 59.105469 110.09375 59.089844 109.789062 59.183594 109.503906 C 59.335938 109.257812 59.5625 109.027344 59.828125 108.914062 Z M 53.710938 88.605469 C 57.398438 87.066406 58.0625 82.894531 58.175781 81.640625 C 55.839844 78.5 54.792969 74.617188 55.191406 70.203125 C 53.824219 70.523438 52.359375 70.203125 50.972656 69.230469 C 48.199219 67.269531 46.109375 62.757812 47.6875 58.230469 C 48.121094 56.953125 48.730469 55.964844 49.472656 55.28125 L 48.523438 51.777344 C 40.976562 50.882812 36.167969 48.3125 34.230469 44.164062 C 31.628906 38.625 35.066406 32.171875 36.132812 30.382812 C 35.769531 29.375 35.179688 27.074219 35.617188 23.96875 C 14.597656 37.484375 2.113281 60.324219 2.113281 85.464844 C 2.113281 99.929688 6.3125 113.882812 14.257812 125.855469 C 19.273438 112.683594 31.039062 99.359375 31.609375 98.714844 C 31.664062 98.636719 31.742188 98.578125 31.816406 98.542969 C 33.601562 97.363281 35.3125 96.601562 36.453125 96.179688 C 36.453125 95.800781 36.644531 95.285156 37.347656 94.8125 C 39.703125 93.25 41.679688 93.023438 43.449219 92.832031 C 45.195312 92.640625 46.582031 92.488281 48.027344 90.949219 C 49.777344 89.0625 51.90625 88.550781 53.710938 88.605469 Z M 53.710938 88.605469 " fill-opacity="1" fill-rule="nonzero"/></g><path fill="#4e1d0f" d="M 136.851562 36.054688 C 136.851562 36.054688 135.332031 30.972656 140.75 30.972656 C 146.164062 30.972656 144.074219 36.4375 144.074219 36.4375 C 144.074219 36.4375 140.199219 35.445312 136.851562 36.054688 Z M 136.851562 36.054688 " fill-opacity="1" fill-rule="nonzero"/><path fill="#4e1d0f" d="M 96.429688 39.957031 C 96.429688 39.957031 93.332031 35.902344 84.210938 35.257812 C 75.089844 34.609375 72.066406 36.039062 72.066406 36.039062 C 72.066406 36.039062 76.117188 33.46875 83.699219 33.277344 C 91.28125 33.085938 95.84375 35.410156 95.84375 35.410156 C 95.84375 35.410156 94.453125 38.359375 96.429688 39.957031 Z M 96.429688 39.957031 " fill-opacity="1" fill-rule="nonzero"/><path fill="#4e1d0f" d="M 80.734375 50.425781 L 81.171875 48.257812 C 81.171875 48.257812 79.214844 47.894531 77.238281 48.371094 C 75.261719 48.847656 74.347656 50.558594 74.347656 50.558594 C 74.347656 50.558594 78.300781 49.53125 80.734375 50.425781 Z M 80.734375 50.425781 " fill-opacity="1" fill-rule="nonzero"/><path fill="#4e1d0f" d="M 87.421875 50.519531 L 87.574219 48.3125 C 87.574219 48.3125 89.550781 48.464844 91.339844 49.457031 C 93.125 50.445312 93.5625 52.328125 93.5625 52.328125 C 93.5625 52.328125 90.007812 50.292969 87.421875 50.519531 Z M 87.421875 50.519531 " fill-opacity="1" fill-rule="nonzero"/><path fill="#4e1d0f" d="M 81.171875 54.175781 C 81.171875 54.175781 81.113281 54.859375 78.949219 55.527344 C 76.761719 56.191406 74.746094 55.375 74.746094 55.375 C 74.746094 55.375 76.417969 57.085938 79.042969 56.574219 C 81.664062 56.039062 81.171875 54.175781 81.171875 54.175781 Z M 81.171875 54.175781 " fill-opacity="1" fill-rule="nonzero"/><path fill="#4e1d0f" d="M 87.746094 54.175781 C 87.746094 54.175781 87.804688 54.859375 89.96875 55.527344 C 92.15625 56.191406 94.167969 55.375 94.167969 55.375 C 94.167969 55.375 92.496094 57.085938 89.875 56.574219 C 87.234375 56.039062 87.746094 54.175781 87.746094 54.175781 Z M 87.746094 54.175781 " fill-opacity="1" fill-rule="nonzero"/><path fill="#4e1d0f" d="M 88.527344 57.03125 C 88.527344 57.429688 88.582031 57.828125 88.640625 58.210938 C 88.714844 58.609375 88.8125 58.992188 88.945312 59.371094 C 89.078125 59.753906 89.246094 60.132812 89.476562 60.496094 C 89.703125 60.855469 90.007812 61.199219 90.386719 61.484375 L 90.691406 61.675781 C 90.730469 61.695312 90.730469 61.695312 90.75 61.710938 L 90.785156 61.730469 C 90.804688 61.75 90.84375 61.769531 90.863281 61.789062 C 90.957031 61.863281 91.054688 61.960938 91.109375 62.074219 C 91.242188 62.300781 91.339844 62.589844 91.339844 62.875 C 91.375 63.464844 91.128906 64.054688 90.710938 64.472656 C 90.292969 64.890625 89.683594 65.136719 89.019531 65.234375 C 88.675781 65.289062 88.335938 65.289062 87.972656 65.273438 L 87.421875 65.234375 C 87.253906 65.214844 87.0625 65.175781 86.890625 65.15625 C 86.1875 65.023438 85.503906 64.796875 84.953125 64.359375 C 84.402344 63.921875 83.984375 63.273438 83.851562 62.492188 C 83.699219 63.273438 83.945312 64.148438 84.496094 64.816406 C 84.554688 64.910156 84.648438 64.96875 84.707031 65.0625 C 84.78125 65.136719 84.859375 65.214844 84.933594 65.289062 L 85.199219 65.480469 L 85.332031 65.578125 L 85.464844 65.652344 C 85.65625 65.765625 85.847656 65.882812 86.035156 65.9375 C 86.226562 66.015625 86.433594 66.109375 86.625 66.167969 C 86.835938 66.222656 87.023438 66.28125 87.234375 66.335938 L 87.839844 66.433594 C 88.257812 66.488281 88.695312 66.507812 89.132812 66.472656 C 89.570312 66.433594 90.007812 66.335938 90.445312 66.167969 C 90.882812 65.996094 91.28125 65.730469 91.625 65.386719 C 91.964844 65.042969 92.230469 64.625 92.402344 64.167969 C 92.554688 63.710938 92.628906 63.214844 92.574219 62.742188 C 92.515625 62.265625 92.363281 61.769531 92.042969 61.371094 C 91.890625 61.160156 91.699219 60.988281 91.472656 60.835938 C 91.414062 60.800781 91.355469 60.761719 91.300781 60.742188 L 91.128906 60.664062 L 90.921875 60.570312 C 90.652344 60.417969 90.386719 60.210938 90.160156 59.941406 C 89.933594 59.675781 89.703125 59.390625 89.515625 59.066406 C 89.132812 58.476562 88.8125 57.773438 88.527344 57.03125 Z M 88.527344 57.03125 " fill-opacity="1" fill-rule="nonzero"/><path fill="#4e1d0f" d="M 86.664062 65.613281 C 86.664062 65.613281 82.160156 62.683594 77.160156 66.660156 C 72.144531 70.640625 64.695312 67.613281 64.695312 67.613281 C 64.695312 67.613281 68.476562 75.664062 77.769531 75.855469 C 87.0625 76.042969 89.742188 71.875 89.171875 66.527344 Z M 86.664062 65.613281 " fill-opacity="1" fill-rule="nonzero"/><path fill="#4e1d0f" d="M 90.234375 65.613281 C 90.234375 65.613281 93.601562 62.683594 97.324219 66.660156 C 101.070312 70.640625 106.617188 67.613281 106.617188 67.613281 C 106.617188 67.613281 103.804688 75.664062 96.867188 75.855469 C 89.933594 76.042969 87.9375 71.875 88.355469 66.527344 Z M 90.234375 65.613281 " fill-opacity="1" fill-rule="nonzero"/><path fill="#4e1d0f" d="M 143.046875 65.632812 L 140.84375 69.324219 L 144.816406 65.9375 L 147 65.632812 L 143.921875 70.355469 L 148.371094 65.632812 L 149.738281 65.9375 L 146.507812 71.097656 L 151.296875 65.632812 Z M 143.046875 65.632812 " fill-opacity="1" fill-rule="nonzero"/><path fill="#4e1d0f" d="M 138.011719 69.898438 C 138.011719 69.898438 140.578125 69.648438 143.828125 70.640625 C 147.078125 71.628906 148.539062 73.171875 148.539062 73.171875 C 148.539062 73.171875 147.800781 70.390625 143.828125 69.476562 C 139.855469 68.546875 138.011719 69.898438 138.011719 69.898438 Z M 138.011719 69.898438 " fill-opacity="1" fill-rule="nonzero"/><path fill="#4e1d0f" d="M 144.285156 90.871094 C 144.285156 90.871094 147.78125 93.269531 148.007812 96.503906 C 148.007812 96.503906 143.046875 96.808594 142.878906 96.125 C 142.707031 95.421875 144.285156 90.871094 144.285156 90.871094 Z M 144.285156 90.871094 " fill-opacity="1" fill-rule="nonzero"/><path fill="#4e1d0f" d="M 67.011719 47.914062 C 67.011719 47.914062 63.800781 51.015625 62.640625 57.03125 C 61.484375 63.046875 62.015625 66.203125 62.015625 66.203125 L 59.507812 69.039062 C 59.507812 69.039062 55.972656 64.207031 56.390625 57.527344 L 58.480469 53.605469 Z M 67.011719 47.914062 " fill-opacity="1" fill-rule="nonzero"/><path fill="#4e1d0f" d="M 65.777344 37.921875 C 65.777344 37.921875 61.671875 39.328125 55.820312 43.898438 C 49.964844 48.464844 48.539062 51.359375 48.539062 51.359375 L 46.886719 45.191406 C 46.886719 45.191406 52.644531 39.3125 65.777344 37.921875 Z M 65.777344 37.921875 " fill-opacity="1" fill-rule="nonzero"/><path fill="#4e1d0f" d="M 99.054688 21.992188 C 99.054688 21.992188 99.832031 24.636719 98.351562 28.613281 C 96.867188 32.59375 92.25 35.046875 92.25 35.046875 L 95.746094 37.386719 C 95.746094 37.386719 102.113281 33.960938 99.054688 21.992188 Z M 99.054688 21.992188 " fill-opacity="1" fill-rule="nonzero"/><path fill="#4e1d0f" d="M 88.980469 9.808594 L 87.234375 8.992188 C 87.234375 8.992188 90.121094 13.617188 89.875 18.261719 C 89.628906 22.90625 88.847656 24.445312 88.847656 24.445312 C 88.847656 24.445312 94.644531 14.777344 88.980469 9.808594 Z M 88.980469 9.808594 " fill-opacity="1" fill-rule="nonzero"/><path fill="#4e1d0f" d="M 38.164062 20.125 C 38.164062 20.125 36.683594 26.558594 38.621094 29.964844 C 40.558594 33.371094 42.992188 34.589844 42.992188 34.589844 C 42.992188 34.589844 37.101562 33.125 35.941406 28.691406 C 34.78125 24.253906 38.164062 20.125 38.164062 20.125 Z M 38.164062 20.125 " fill-opacity="1" fill-rule="nonzero"/><path fill="#4e1d0f" d="M 53.730469 42.964844 L 53.0625 41.253906 C 53.0625 41.253906 50.839844 42.964844 46.316406 43.230469 C 41.792969 43.5 39.609375 40.339844 39.609375 40.339844 C 39.609375 40.339844 40.484375 43.289062 42.972656 44.8125 C 45.460938 46.335938 48.824219 46.164062 48.824219 46.164062 Z M 53.730469 42.964844 " fill-opacity="1" fill-rule="nonzero"/><path fill="#4e1d0f" d="M 56.769531 7.105469 C 56.769531 7.105469 62.472656 7.277344 64.636719 10.457031 C 66.804688 13.636719 66.328125 16.527344 66.328125 16.527344 C 66.328125 16.527344 68.152344 13.824219 66.992188 10.113281 C 65.835938 6.402344 60.53125 6.117188 60.53125 6.117188 Z M 56.769531 7.105469 " fill-opacity="1" fill-rule="nonzero"/><path fill="#4e1d0f" d="M 71.441406 114.167969 C 71.441406 114.433594 71.390625 114.6875 71.289062 114.933594 C 71.1875 115.175781 71.042969 115.394531 70.855469 115.582031 C 70.667969 115.769531 70.453125 115.914062 70.210938 116.015625 C 69.964844 116.117188 69.710938 116.167969 69.445312 116.167969 C 69.179688 116.167969 68.925781 116.117188 68.683594 116.015625 C 68.4375 115.914062 68.222656 115.769531 68.035156 115.582031 C 67.847656 115.394531 67.703125 115.175781 67.601562 114.933594 C 67.5 114.6875 67.449219 114.433594 67.449219 114.167969 C 67.449219 113.902344 67.5 113.648438 67.601562 113.402344 C 67.703125 113.15625 67.847656 112.941406 68.035156 112.753906 C 68.222656 112.566406 68.4375 112.421875 68.683594 112.320312 C 68.925781 112.21875 69.179688 112.167969 69.445312 112.167969 C 69.710938 112.167969 69.964844 112.21875 70.210938 112.320312 C 70.453125 112.421875 70.667969 112.566406 70.855469 112.753906 C 71.042969 112.941406 71.1875 113.15625 71.289062 113.402344 C 71.390625 113.648438 71.441406 113.902344 71.441406 114.167969 Z M 71.441406 114.167969 " fill-opacity="1" fill-rule="nonzero"/><path fill="#4e1d0f" d="M 77.066406 128.519531 C 77.066406 128.785156 77.015625 129.039062 76.914062 129.285156 C 76.8125 129.527344 76.667969 129.746094 76.480469 129.933594 C 76.292969 130.117188 76.078125 130.261719 75.835938 130.363281 C 75.589844 130.464844 75.335938 130.515625 75.070312 130.515625 C 74.804688 130.515625 74.550781 130.464844 74.308594 130.363281 C 74.0625 130.261719 73.847656 130.117188 73.660156 129.933594 C 73.472656 129.746094 73.328125 129.527344 73.226562 129.285156 C 73.125 129.039062 73.074219 128.785156 73.074219 128.519531 C 73.074219 128.253906 73.125 128 73.226562 127.753906 C 73.328125 127.507812 73.472656 127.292969 73.660156 127.105469 C 73.847656 126.917969 74.0625 126.773438 74.308594 126.671875 C 74.550781 126.570312 74.804688 126.519531 75.070312 126.519531 C 75.335938 126.519531 75.589844 126.570312 75.835938 126.671875 C 76.078125 126.773438 76.292969 126.917969 76.480469 127.105469 C 76.667969 127.292969 76.8125 127.507812 76.914062 127.753906 C 77.015625 128 77.066406 128.253906 77.066406 128.519531 Z M 77.066406 128.519531 " fill-opacity="1" fill-rule="nonzero"/><path fill="#4e1d0f" d="M 79.0625 145.019531 C 79.0625 145.285156 79.011719 145.539062 78.910156 145.785156 C 78.808594 146.03125 78.664062 146.246094 78.476562 146.433594 C 78.289062 146.621094 78.074219 146.765625 77.828125 146.867188 C 77.585938 146.96875 77.332031 147.019531 77.066406 147.019531 C 76.800781 147.019531 76.546875 146.96875 76.300781 146.867188 C 76.058594 146.765625 75.84375 146.621094 75.65625 146.433594 C 75.46875 146.246094 75.324219 146.03125 75.222656 145.785156 C 75.121094 145.539062 75.070312 145.285156 75.070312 145.019531 C 75.070312 144.753906 75.121094 144.5 75.222656 144.253906 C 75.324219 144.011719 75.46875 143.792969 75.65625 143.605469 C 75.84375 143.417969 76.058594 143.273438 76.300781 143.175781 C 76.546875 143.074219 76.800781 143.023438 77.066406 143.023438 C 77.332031 143.023438 77.585938 143.074219 77.828125 143.175781 C 78.074219 143.273438 78.289062 143.417969 78.476562 143.605469 C 78.664062 143.792969 78.808594 144.011719 78.910156 144.253906 C 79.011719 144.5 79.0625 144.753906 79.0625 145.019531 Z M 79.0625 145.019531 " fill-opacity="1" fill-rule="nonzero"/><path fill="#4e1d0f" d="M 50.992188 62.511719 C 50.992188 62.511719 50.480469 59.5625 52.417969 58.914062 C 54.375 58.269531 56.351562 59.695312 57.433594 62.167969 C 58.519531 64.644531 57.320312 64.585938 57.320312 64.585938 C 57.320312 64.585938 56.007812 60.78125 53.9375 60.4375 C 51.867188 60.09375 50.992188 62.511719 50.992188 62.511719 Z M 50.992188 62.511719 " fill-opacity="1" fill-rule="nonzero"/><path fill="#4e1d0f" d="M 121.195312 99.207031 C 121.195312 99.207031 119.921875 103.320312 119.804688 106.324219 C 119.691406 109.332031 120.851562 112.398438 120.851562 112.398438 C 120.851562 112.398438 117.679688 108.570312 117.792969 104.707031 Z M 121.195312 99.207031 " fill-opacity="1" fill-rule="nonzero"/><path fill="#4e1d0f" d="M 79.667969 108.097656 C 79.667969 108.097656 79.953125 109.886719 78.984375 112.605469 C 78.015625 115.328125 77.371094 117.0625 77.371094 117.0625 C 77.371094 117.0625 78.777344 115.519531 79.726562 113.140625 C 80.675781 110.761719 80.960938 108.6875 80.960938 108.6875 Z M 79.667969 108.097656 " fill-opacity="1" fill-rule="nonzero"/><path fill="#4e1d0f" d="M 82.597656 107.964844 C 82.597656 107.964844 84.402344 106.878906 84.25 104.042969 C 84.117188 101.207031 81.894531 98.65625 81.894531 98.65625 C 81.894531 98.65625 85.179688 100.597656 85.921875 103.792969 C 86.664062 107.011719 82.597656 107.964844 82.597656 107.964844 Z M 82.597656 107.964844 " fill-opacity="1" fill-rule="nonzero"/><path fill="#4e1d0f" d="M 87.898438 103.8125 C 87.898438 103.8125 89.78125 105.792969 93.296875 107.238281 C 96.8125 108.6875 98.902344 109.429688 98.902344 109.429688 C 98.902344 109.429688 95.15625 109.277344 92.15625 107.964844 C 89.152344 106.648438 87.441406 105.546875 87.441406 105.546875 Z M 87.898438 103.8125 " fill-opacity="1" fill-rule="nonzero"/><path fill="#4e1d0f" d="M 45.460938 93.574219 C 45.460938 93.574219 50.230469 92.546875 55.894531 93.308594 C 61.558594 94.050781 67.867188 96.789062 67.867188 96.789062 C 67.867188 96.789062 59.695312 94.640625 53.957031 94.582031 C 48.21875 94.527344 44.398438 94.867188 44.398438 94.867188 Z M 45.460938 93.574219 " fill-opacity="1" fill-rule="nonzero"/><path fill="#4e1d0f" d="M 92.613281 83.601562 C 92.613281 83.601562 89.152344 85.769531 83.355469 85.847656 C 77.558594 85.921875 74.730469 84.382812 74.730469 84.382812 C 74.730469 84.382812 78.757812 87.921875 84.269531 87.808594 C 89.761719 87.671875 92.613281 83.601562 92.613281 83.601562 Z M 92.613281 83.601562 " fill-opacity="1" fill-rule="nonzero"/><g fill="#a24916" fill-opacity="1"><g transform="translate(177.988416, 130.80951)"><g><path d="M 15.921875 0.0625 C 14.484375 0.320312 13.671875 0.453125 13.484375 0.453125 C 9.554688 0.453125 6.570312 -0.664062 4.53125 -2.90625 C 2.488281 -5.15625 1.46875 -8.453125 1.46875 -12.796875 L 1.46875 -36.3125 C 1.46875 -40.507812 2.5 -43.691406 4.5625 -45.859375 C 6.625 -48.035156 9.597656 -49.125 13.484375 -49.125 C 17.367188 -49.125 20.34375 -48.035156 22.40625 -45.859375 C 24.46875 -43.691406 25.5 -40.507812 25.5 -36.3125 L 25.5 -12.796875 C 25.5 -8.796875 24.59375 -5.625 22.78125 -3.28125 L 26.96875 -0.625 L 23.6875 5.15625 Z M 13.484375 -8.5 C 14.429688 -8.5 15.035156 -8.953125 15.296875 -9.859375 C 15.554688 -10.765625 15.6875 -11.9375 15.6875 -13.375 L 15.6875 -36.140625 C 15.6875 -37.390625 15.523438 -38.375 15.203125 -39.09375 C 14.890625 -39.8125 14.296875 -40.171875 13.421875 -40.171875 C 11.878906 -40.171875 11.109375 -38.847656 11.109375 -36.203125 L 11.109375 -13.203125 C 11.109375 -11.835938 11.257812 -10.710938 11.5625 -9.828125 C 11.863281 -8.941406 12.503906 -8.5 13.484375 -8.5 Z M 13.484375 -8.5 "/></g></g></g><g fill="#a24916" fill-opacity="1"><g transform="translate(205.967477, 130.80951)"><g><path d="M 9.96875 0.453125 C 6.875 0.453125 4.75 -0.46875 3.59375 -2.3125 C 2.445312 -4.164062 1.875 -6.925781 1.875 -10.59375 L 1.875 -41.46875 L 11.84375 -41.46875 L 11.84375 -12.578125 C 11.84375 -12.316406 11.84375 -11.609375 11.84375 -10.453125 C 11.84375 -9.296875 12.019531 -8.484375 12.375 -8.015625 C 12.738281 -7.546875 13.296875 -7.3125 14.046875 -7.3125 C 15.066406 -7.3125 15.707031 -7.734375 15.96875 -8.578125 C 16.238281 -9.429688 16.375 -10.648438 16.375 -12.234375 L 16.375 -12.578125 L 16.4375 -41.46875 L 26.28125 -41.46875 L 26.28125 0 L 16.375 0 L 16.375 -4.421875 C 15.695312 -2.679688 14.90625 -1.429688 14 -0.671875 C 13.09375 0.078125 11.75 0.453125 9.96875 0.453125 Z M 9.96875 0.453125 "/></g></g></g><g fill="#a24916" fill-opacity="1"><g transform="translate(234.229725, 130.80951)"><g><path d="M 1.921875 -44.25 L 1.921875 -51.15625 L 11.84375 -51.15625 L 11.84375 -44.25 Z M 1.921875 0 L 1.921875 -41.46875 L 11.84375 -41.46875 L 11.84375 0 Z M 1.921875 0 "/></g></g></g><g fill="#a24916" fill-opacity="1"><g transform="translate(247.992701, 130.80951)"><g><path d="M 14.453125 0.453125 C 9.921875 0.453125 6.648438 -0.695312 4.640625 -3 C 2.640625 -5.300781 1.640625 -8.832031 1.640625 -13.59375 L 1.640625 -26.40625 C 1.640625 -29.988281 2.023438 -32.90625 2.796875 -35.15625 C 3.578125 -37.40625 4.882812 -39.09375 6.71875 -40.21875 C 8.550781 -41.351562 11.085938 -41.921875 14.328125 -41.921875 C 17.878906 -41.921875 20.769531 -40.992188 23 -39.140625 C 25.226562 -37.296875 26.34375 -34.710938 26.34375 -31.390625 L 26.34375 -25.046875 L 16.265625 -25.046875 L 16.265625 -30.875 C 16.265625 -31.96875 16.113281 -32.804688 15.8125 -33.390625 C 15.507812 -33.984375 14.921875 -34.28125 14.046875 -34.28125 C 12.421875 -34.28125 11.609375 -33.128906 11.609375 -30.828125 L 11.609375 -10.703125 C 11.609375 -9.765625 11.804688 -8.960938 12.203125 -8.296875 C 12.597656 -7.640625 13.195312 -7.3125 14 -7.3125 C 14.789062 -7.3125 15.382812 -7.628906 15.78125 -8.265625 C 16.175781 -8.910156 16.351562 -9.742188 16.3125 -10.765625 L 16.265625 -17.734375 L 26.34375 -17.734375 L 26.34375 -10.484375 C 26.34375 -7.078125 25.238281 -4.398438 23.03125 -2.453125 C 20.820312 -0.515625 17.960938 0.453125 14.453125 0.453125 Z M 14.453125 0.453125 "/></g></g></g><g fill="#a24916" fill-opacity="1"><g transform="translate(275.801858, 130.80951)"><g><path d="M 1.984375 0 L 1.984375 -48.953125 L 11.78125 -48.953125 L 11.78125 -27.1875 L 16.546875 -41.46875 L 26.796875 -41.46875 L 20.5625 -23.453125 L 28.5 0 L 17.953125 0 L 11.78125 -19.546875 L 11.78125 0 Z M 1.984375 0 "/></g></g></g><g fill="#a24916" fill-opacity="1"><g transform="translate(303.611015, 130.80951)"><g><path d="M 13.484375 0.453125 C 9.929688 0.453125 7.085938 -0.660156 4.953125 -2.890625 C 2.816406 -5.117188 1.75 -8.175781 1.75 -12.0625 L 1.75 -34.5 C 1.75 -39.332031 2.710938 -42.976562 4.640625 -45.4375 C 6.566406 -47.894531 9.585938 -49.125 13.703125 -49.125 C 17.296875 -49.125 20.1875 -48.140625 22.375 -46.171875 C 24.570312 -44.210938 25.671875 -41.378906 25.671875 -37.671875 L 25.671875 -29.296875 L 15.984375 -29.296875 L 15.984375 -36.484375 C 15.984375 -37.878906 15.8125 -38.84375 15.46875 -39.375 C 15.125 -39.90625 14.535156 -40.171875 13.703125 -40.171875 C 12.835938 -40.171875 12.242188 -39.867188 11.921875 -39.265625 C 11.597656 -38.660156 11.4375 -37.769531 11.4375 -36.59375 L 11.4375 -12.1875 C 11.4375 -10.894531 11.625 -9.957031 12 -9.375 C 12.382812 -8.789062 12.953125 -8.5 13.703125 -8.5 C 15.222656 -8.5 15.984375 -9.726562 15.984375 -12.1875 L 15.984375 -20.96875 L 25.78125 -20.96875 L 25.78125 -11.78125 C 25.78125 -3.625 21.679688 0.453125 13.484375 0.453125 Z M 13.484375 0.453125 "/></g></g></g><g fill="#a24916" fill-opacity="1"><g transform="translate(330.457332, 130.80951)"><g><path d="M 1.984375 -48.953125 L 12.1875 -48.953125 L 12.1875 -37.390625 C 13.238281 -40.410156 15.257812 -41.921875 18.25 -41.921875 C 21.039062 -41.921875 23.148438 -41.03125 24.578125 -39.25 C 26.015625 -37.476562 26.734375 -35.046875 26.734375 -31.953125 L 26.734375 0 L 16.828125 0 L 16.828125 -31.328125 C 16.828125 -32.234375 16.617188 -32.96875 16.203125 -33.53125 C 15.785156 -34.101562 15.179688 -34.390625 14.390625 -34.390625 C 13.710938 -34.390625 13.175781 -34.097656 12.78125 -33.515625 C 12.382812 -32.929688 12.1875 -32.222656 12.1875 -31.390625 L 12.1875 0 L 1.984375 0 Z M 1.984375 -48.953125 "/></g></g></g><g fill="#a24916" fill-opacity="1"><g transform="translate(359.059407, 130.80951)"><g><path d="M 13.59375 0.453125 C 9.332031 0.453125 6.273438 -0.71875 4.421875 -3.0625 C 2.566406 -5.40625 1.640625 -8.898438 1.640625 -13.546875 L 1.640625 -30.203125 C 1.640625 -34.015625 2.734375 -36.921875 4.921875 -38.921875 C 7.117188 -40.921875 10.179688 -41.921875 14.109375 -41.921875 C 22.078125 -41.921875 26.0625 -38.015625 26.0625 -30.203125 L 26.0625 -27.1875 C 26.0625 -24.164062 26.023438 -21.710938 25.953125 -19.828125 L 11.5625 -19.828125 L 11.5625 -11.78125 C 11.5625 -10.34375 11.710938 -9.21875 12.015625 -8.40625 C 12.316406 -7.601562 12.957031 -7.203125 13.9375 -7.203125 C 14.695312 -7.203125 15.234375 -7.425781 15.546875 -7.875 C 15.867188 -8.332031 16.054688 -8.851562 16.109375 -9.4375 C 16.171875 -10.019531 16.203125 -10.878906 16.203125 -12.015625 L 16.203125 -16.03125 L 26.0625 -16.03125 L 26.0625 -13.65625 C 26.0625 -8.820312 25.125 -5.257812 23.25 -2.96875 C 21.382812 -0.6875 18.164062 0.453125 13.59375 0.453125 Z M 16.203125 -24.765625 L 16.203125 -30.078125 C 16.203125 -33.066406 15.46875 -34.5625 14 -34.5625 C 12.332031 -34.5625 11.5 -33.066406 11.5 -30.078125 L 11.5 -24.765625 Z M 16.203125 -24.765625 "/></g></g></g><g fill="#a24916" fill-opacity="1"><g transform="translate(386.698641, 130.80951)"><g><path d="M 2.890625 -32.125 L 1.140625 -32.125 L 1.1875 -39.65625 L 2.890625 -39.65625 L 2.890625 -42.5 C 2.890625 -46.945312 5.117188 -49.171875 9.578125 -49.171875 C 11.691406 -49.171875 13.390625 -48.910156 14.671875 -48.390625 L 14.671875 -42.265625 C 14.296875 -42.378906 13.992188 -42.4375 13.765625 -42.4375 C 13.234375 -42.4375 12.890625 -42.242188 12.734375 -41.859375 C 12.585938 -41.484375 12.515625 -40.921875 12.515625 -40.171875 L 12.515625 -39.65625 L 14.671875 -39.65625 L 14.671875 -32.015625 L 12.75 -32.015625 L 12.75 0 L 2.890625 0 Z M 2.890625 -32.125 "/></g></g></g></svg>