<svg xmlns="http://www.w3.org/2000/svg" xmlns:xlink="http://www.w3.org/1999/xlink" width="60" zoomAndPan="magnify" viewBox="0 0 45 48" height="64" preserveAspectRatio="xMidYMid meet" version="1.0"><defs><clipPath id="cab3f5cee9"><path d="M 29 16 L 39.898438 16 L 39.898438 31 L 29 31 Z M 29 16 " clip-rule="nonzero"/></clipPath><clipPath id="0296edf39c"><path d="M 13 25 L 39.898438 25 L 39.898438 43 L 13 43 Z M 13 25 " clip-rule="nonzero"/></clipPath><clipPath id="082d0b2de8"><path d="M 5.367188 0 L 39.898438 0 L 39.898438 47.019531 L 5.367188 47.019531 Z M 5.367188 0 " clip-rule="nonzero"/></clipPath></defs><path fill="#ff0000" d="M 32.613281 25.332031 C 32.730469 25.355469 32.875 25.386719 33.265625 25.625 C 32.847656 25.730469 31.996094 25.824219 31.222656 25.914062 C 29.28125 26.136719 26.703125 26.429688 24.984375 27.210938 C 25.023438 26.957031 25.023438 26.71875 24.972656 26.550781 C 24.914062 26.34375 24.839844 26.15625 24.753906 25.992188 C 25.519531 25.625 27.792969 24.621094 29.929688 24.402344 C 29.960938 24.398438 29.992188 24.390625 30.019531 24.378906 C 30.03125 24.371094 31.011719 23.933594 31.734375 24.695312 C 32.21875 25.210938 32.363281 25.277344 32.613281 25.332031 Z M 32.613281 25.332031 " fill-opacity="1" fill-rule="nonzero"/><path fill="#ff0000" d="M 24.617188 28.253906 C 24.972656 28.714844 25.519531 29.703125 24.925781 31.078125 C 24.375 32.339844 24.179688 33.242188 24.101562 33.773438 C 23.855469 33.546875 23.523438 33.199219 23.210938 32.746094 C 22.445312 31.621094 22.125 30.363281 22.25 28.988281 C 22.550781 29.113281 22.875 29.183594 23.175781 29.183594 C 23.328125 29.183594 23.472656 29.164062 23.609375 29.128906 C 24.007812 29.019531 24.355469 28.71875 24.617188 28.253906 Z M 24.617188 28.253906 " fill-opacity="1" fill-rule="nonzero"/><path fill="#ff0000" d="M 24.433594 26.714844 C 24.484375 26.875 24.425781 27.445312 24.136719 27.964844 C 24.007812 28.203125 23.78125 28.503906 23.464844 28.59375 C 23 28.722656 22.269531 28.488281 21.867188 28.085938 C 21.589844 27.800781 21.5 27.484375 21.605469 27.148438 C 21.925781 26.105469 22.648438 25.886719 22.675781 25.875 C 22.703125 25.871094 22.734375 25.855469 22.757812 25.839844 C 22.761719 25.839844 23.058594 25.652344 23.40625 25.652344 C 23.503906 25.652344 23.597656 25.667969 23.695312 25.699219 C 23.855469 25.761719 23.996094 25.875 24.125 26.039062 C 24.128906 26.046875 24.132812 26.054688 24.136719 26.0625 C 24.25 26.222656 24.351562 26.445312 24.433594 26.714844 Z M 24.433594 26.714844 " fill-opacity="1" fill-rule="nonzero"/><path fill="#ff0000" d="M 22.484375 25.339844 C 22.480469 25.339844 22.480469 25.347656 22.476562 25.347656 C 22.273438 25.417969 21.464844 25.761719 21.082031 26.921875 C 20.429688 26.589844 20.003906 26.140625 19.8125 25.570312 C 19.453125 24.53125 19.957031 23.351562 20.160156 22.949219 C 20.59375 23.226562 21.089844 23.457031 21.640625 23.628906 C 21.644531 24.378906 21.816406 24.9375 22.484375 25.339844 Z M 22.484375 25.339844 " fill-opacity="1" fill-rule="nonzero"/><path fill="#ff0000" d="M 21.457031 28.46875 C 21.5 28.507812 21.542969 28.550781 21.589844 28.589844 C 20.316406 29.929688 18.054688 29.914062 16.820312 29.78125 C 17.292969 29.503906 17.929688 29.0625 18.625 28.382812 C 19.828125 27.203125 20.804688 27.683594 20.84375 27.703125 C 20.90625 27.738281 20.976562 27.746094 21.035156 27.730469 C 21.097656 28 21.242188 28.25 21.457031 28.46875 Z M 21.457031 28.46875 " fill-opacity="1" fill-rule="nonzero"/><path fill="#ff0000" d="M 24.984375 27.414062 C 24.9375 27.414062 24.898438 27.398438 24.859375 27.375 C 24.796875 27.328125 24.769531 27.253906 24.777344 27.179688 C 24.816406 26.945312 24.8125 26.746094 24.777344 26.617188 C 24.722656 26.425781 24.652344 26.25 24.570312 26.089844 C 24.546875 26.039062 24.542969 25.984375 24.5625 25.929688 C 24.582031 25.882812 24.617188 25.835938 24.667969 25.8125 C 25.535156 25.402344 27.773438 24.421875 29.914062 24.203125 C 29.925781 24.203125 29.929688 24.195312 29.941406 24.195312 C 29.941406 24.195312 30.261719 24.046875 30.691406 24.046875 C 31.152344 24.046875 31.570312 24.222656 31.890625 24.5625 C 32.351562 25.050781 32.464844 25.089844 32.664062 25.136719 C 32.789062 25.160156 32.960938 25.203125 33.378906 25.457031 C 33.449219 25.5 33.484375 25.582031 33.476562 25.660156 C 33.460938 25.742188 33.402344 25.804688 33.324219 25.824219 C 32.898438 25.929688 32.074219 26.027344 31.28125 26.117188 L 31.261719 26.121094 C 29.367188 26.335938 26.773438 26.628906 25.078125 27.398438 C 25.039062 27.410156 25.007812 27.414062 24.984375 27.414062 Z M 24.984375 27.414062 " fill-opacity="1" fill-rule="nonzero"/><path fill="#ff0000" d="M 24.101562 33.980469 C 24.050781 33.980469 24.003906 33.960938 23.960938 33.925781 C 23.613281 33.605469 23.308594 33.25 23.039062 32.859375 C 22.246094 31.703125 21.910156 30.394531 22.046875 28.972656 C 22.054688 28.910156 22.089844 28.855469 22.148438 28.820312 C 22.179688 28.800781 22.21875 28.789062 22.253906 28.789062 C 22.28125 28.789062 22.308594 28.792969 22.335938 28.804688 C 22.613281 28.917969 22.914062 28.984375 23.179688 28.984375 C 23.316406 28.984375 23.441406 28.96875 23.558594 28.9375 C 23.902344 28.84375 24.203125 28.574219 24.441406 28.160156 C 24.476562 28.097656 24.535156 28.058594 24.601562 28.054688 C 24.605469 28.054688 24.613281 28.054688 24.617188 28.054688 C 24.683594 28.054688 24.738281 28.085938 24.777344 28.132812 C 25.175781 28.640625 25.746094 29.703125 25.109375 31.164062 C 24.570312 32.410156 24.375 33.289062 24.304688 33.808594 C 24.292969 33.886719 24.242188 33.949219 24.167969 33.976562 C 24.152344 33.976562 24.128906 33.980469 24.101562 33.980469 Z M 24.101562 33.980469 " fill-opacity="1" fill-rule="nonzero"/><path fill="#ff0000" d="M 23.175781 28.828125 C 22.671875 28.828125 22.074219 28.578125 21.71875 28.21875 C 21.386719 27.882812 21.28125 27.488281 21.410156 27.082031 C 21.765625 25.929688 22.582031 25.679688 22.617188 25.671875 C 22.617188 25.671875 22.621094 25.671875 22.621094 25.671875 C 22.628906 25.671875 22.632812 25.667969 22.640625 25.660156 C 22.640625 25.660156 22.648438 25.660156 22.648438 25.65625 C 22.707031 25.617188 23.03125 25.4375 23.402344 25.4375 C 23.527344 25.4375 23.648438 25.457031 23.761719 25.496094 C 23.957031 25.570312 24.132812 25.707031 24.277344 25.90625 C 24.285156 25.910156 24.285156 25.914062 24.289062 25.921875 C 24.292969 25.925781 24.292969 25.925781 24.292969 25.929688 C 24.425781 26.117188 24.542969 26.359375 24.625 26.65625 C 24.691406 26.875 24.621094 27.503906 24.308594 28.058594 C 24.160156 28.328125 23.894531 28.679688 23.507812 28.785156 C 23.414062 28.820312 23.296875 28.828125 23.175781 28.828125 Z M 23.175781 28.828125 " fill-opacity="1" fill-rule="nonzero"/><path fill="#ff0000" d="M 21.082031 27.121094 C 21.050781 27.121094 21.015625 27.113281 20.992188 27.101562 C 20.289062 26.746094 19.828125 26.253906 19.617188 25.636719 C 19.238281 24.535156 19.742188 23.328125 19.972656 22.859375 C 20 22.808594 20.046875 22.769531 20.105469 22.753906 C 20.125 22.75 20.140625 22.75 20.160156 22.75 C 20.199219 22.75 20.238281 22.757812 20.269531 22.785156 C 20.679688 23.046875 21.160156 23.273438 21.695312 23.4375 C 21.78125 23.460938 21.835938 23.542969 21.839844 23.628906 C 21.851562 24.289062 21.984375 24.808594 22.59375 25.171875 C 22.65625 25.210938 22.691406 25.28125 22.691406 25.355469 C 22.6875 25.425781 22.648438 25.492188 22.585938 25.527344 C 22.578125 25.53125 22.5625 25.542969 22.546875 25.546875 C 22.394531 25.597656 21.636719 25.910156 21.277344 26.988281 C 21.257812 27.046875 21.21875 27.089844 21.160156 27.113281 C 21.136719 27.113281 21.105469 27.121094 21.082031 27.121094 Z M 21.082031 27.121094 " fill-opacity="1" fill-rule="nonzero"/><path fill="#ff0000" d="M 17.882812 30.042969 C 17.53125 30.042969 17.164062 30.023438 16.800781 29.984375 C 16.714844 29.972656 16.640625 29.90625 16.617188 29.824219 C 16.597656 29.738281 16.640625 29.648438 16.714844 29.601562 C 17.320312 29.25 17.90625 28.789062 18.476562 28.234375 C 19.191406 27.53125 19.847656 27.386719 20.269531 27.386719 C 20.648438 27.386719 20.890625 27.5 20.933594 27.519531 C 20.949219 27.53125 20.960938 27.53125 20.976562 27.53125 C 20.980469 27.53125 20.984375 27.53125 20.992188 27.53125 C 21.003906 27.523438 21.019531 27.523438 21.035156 27.523438 C 21.125 27.523438 21.210938 27.589844 21.238281 27.679688 C 21.292969 27.910156 21.417969 28.128906 21.609375 28.324219 C 21.644531 28.359375 21.683594 28.394531 21.726562 28.429688 C 21.765625 28.464844 21.796875 28.519531 21.796875 28.574219 C 21.800781 28.628906 21.78125 28.683594 21.742188 28.722656 C 20.703125 29.8125 19.070312 30.042969 17.882812 30.042969 Z M 17.882812 30.042969 " fill-opacity="1" fill-rule="nonzero"/><g clip-path="url(#cab3f5cee9)"><path fill="#ffb600" d="M 39.316406 30.886719 C 39.234375 30.886719 39.152344 30.832031 39.128906 30.753906 C 39.046875 30.53125 38.945312 30.308594 38.828125 30.089844 C 37.707031 28.007812 34.527344 26.140625 33.902344 25.785156 C 33.847656 25.757812 33.8125 25.707031 33.804688 25.644531 C 33.789062 25.566406 33.703125 25.496094 33.636719 25.453125 C 33.101562 25.101562 32.886719 25.03125 32.691406 24.992188 C 32.507812 24.953125 32.414062 24.902344 31.996094 24.460938 C 31.558594 23.996094 31.035156 23.902344 30.675781 23.902344 C 30.65625 23.902344 30.636719 23.902344 30.613281 23.902344 C 30.613281 23.902344 30.609375 23.902344 30.609375 23.902344 C 30.585938 23.902344 30.554688 23.898438 30.53125 23.886719 C 29.421875 23.433594 29.230469 22.21875 29.195312 21.859375 C 29.191406 21.808594 29.203125 21.757812 29.234375 21.71875 C 29.84375 20.914062 30.101562 19.929688 30 18.800781 C 29.996094 18.734375 30.019531 18.671875 30.070312 18.632812 C 30.105469 18.597656 30.15625 18.582031 30.207031 18.582031 C 30.222656 18.582031 30.238281 18.582031 30.253906 18.585938 C 30.328125 18.601562 30.402344 18.609375 30.484375 18.609375 C 30.730469 18.609375 30.988281 18.519531 31.226562 18.355469 C 31.738281 17.996094 32.105469 17.320312 32.160156 16.632812 C 32.167969 16.558594 32.210938 16.496094 32.277344 16.460938 C 32.300781 16.449219 32.332031 16.441406 32.363281 16.441406 C 32.402344 16.441406 32.449219 16.457031 32.484375 16.484375 C 34.65625 18.015625 36.449219 20.066406 37.667969 22.410156 C 38.890625 24.757812 39.535156 27.390625 39.535156 30.039062 C 39.535156 30.238281 39.53125 30.457031 39.519531 30.699219 C 39.515625 30.796875 39.445312 30.878906 39.34375 30.890625 C 39.339844 30.886719 39.328125 30.886719 39.316406 30.886719 Z M 39.316406 30.886719 " fill-opacity="1" fill-rule="nonzero"/></g><path fill="#ffb600" d="M 36.351562 39.621094 C 36.335938 39.621094 36.316406 39.621094 36.300781 39.617188 C 36.222656 39.597656 36.15625 39.527344 36.144531 39.445312 C 36.121094 39.257812 36.054688 39.132812 36.019531 39.070312 C 35.988281 39.027344 35.953125 38.980469 35.914062 38.941406 C 35.875 38.902344 35.851562 38.847656 35.851562 38.792969 C 35.867188 38.445312 35.707031 38.257812 35.566406 38.15625 C 35.480469 38.097656 35.457031 37.976562 35.511719 37.886719 C 35.636719 37.6875 35.671875 37.40625 35.621094 37.011719 C 35.617188 36.964844 35.625 36.914062 35.65625 36.867188 C 35.859375 36.589844 36.441406 35.863281 37.503906 35.125 C 37.949219 34.816406 38.324219 34.453125 38.628906 34.046875 C 38.667969 33.988281 38.730469 33.960938 38.792969 33.960938 C 38.824219 33.960938 38.855469 33.964844 38.878906 33.980469 C 38.972656 34.019531 39.015625 34.121094 38.992188 34.214844 C 38.492188 36.125 37.65625 37.914062 36.511719 39.535156 C 36.484375 39.589844 36.417969 39.621094 36.351562 39.621094 Z M 36.351562 39.621094 " fill-opacity="1" fill-rule="nonzero"/><path fill="#ffb600" d="M 32.863281 43.25 C 32.804688 43.25 32.75 43.226562 32.710938 43.183594 C 32.464844 42.917969 32.292969 42.632812 32.207031 42.335938 C 32.1875 42.265625 32.207031 42.183594 32.257812 42.132812 C 32.296875 42.09375 32.347656 42.074219 32.402344 42.074219 C 32.421875 42.074219 32.445312 42.078125 32.464844 42.085938 C 32.695312 42.148438 32.921875 42.183594 33.148438 42.183594 C 33.203125 42.183594 33.257812 42.183594 33.308594 42.179688 C 33.441406 42.167969 33.578125 42.148438 33.707031 42.113281 C 33.722656 42.109375 33.738281 42.109375 33.757812 42.109375 C 33.832031 42.109375 33.902344 42.148438 33.9375 42.21875 C 33.984375 42.304688 33.964844 42.402344 33.894531 42.464844 C 33.601562 42.722656 33.292969 42.96875 32.992188 43.203125 C 32.945312 43.234375 32.902344 43.25 32.863281 43.25 Z M 32.863281 43.25 " fill-opacity="1" fill-rule="nonzero"/><path fill="#ffb600" d="M 19.695312 22.8125 C 19.664062 22.8125 19.628906 22.808594 19.601562 22.789062 C 19.269531 22.617188 18.578125 22.332031 17.660156 22.332031 C 17.46875 22.332031 17.273438 22.347656 17.082031 22.367188 C 16.890625 22.394531 16.714844 22.402344 16.542969 22.402344 C 16.035156 22.402344 15.683594 22.296875 15.339844 22.199219 C 15.0625 22.117188 14.800781 22.039062 14.5 22.039062 C 14.328125 22.039062 14.152344 22.0625 13.964844 22.113281 C 13.796875 22.160156 13.621094 22.183594 13.445312 22.183594 C 12.855469 22.183594 12.378906 21.933594 12.140625 21.785156 C 12.074219 21.742188 12.039062 21.667969 12.046875 21.59375 C 12.074219 21.285156 12.101562 20.480469 11.71875 19.765625 C 11.683594 19.699219 11.6875 19.625 11.722656 19.566406 C 12.15625 18.839844 12.082031 18 12.023438 17.675781 C 12.011719 17.597656 12.046875 17.523438 12.109375 17.476562 C 12.3125 17.34375 12.824219 16.96875 13.222656 16.386719 C 13.238281 16.367188 13.253906 16.347656 13.273438 16.339844 C 15.183594 15.035156 17.296875 14.148438 19.558594 13.714844 C 19.574219 13.710938 19.585938 13.710938 19.601562 13.710938 C 19.652344 13.710938 19.699219 13.730469 19.742188 13.765625 L 19.75 13.773438 C 19.800781 13.820312 19.832031 13.890625 19.820312 13.960938 L 19.453125 16.289062 C 19.449219 16.328125 19.429688 16.363281 19.402344 16.394531 C 19.21875 16.597656 18.992188 17.042969 18.929688 17.171875 C 18.6875 17.675781 18.574219 18.089844 18.601562 18.335938 C 18.601562 18.347656 18.601562 18.351562 18.601562 18.363281 L 18.597656 19.683594 C 18.597656 21.066406 19.324219 21.945312 19.636719 22.257812 C 19.695312 22.320312 19.765625 22.382812 19.835938 22.445312 C 19.90625 22.503906 19.925781 22.609375 19.882812 22.6875 C 19.878906 22.691406 19.871094 22.707031 19.867188 22.714844 C 19.828125 22.777344 19.765625 22.8125 19.695312 22.8125 Z M 19.695312 22.8125 " fill-opacity="1" fill-rule="nonzero"/><path fill="#ffb600" d="M 10.890625 41.644531 C 10.835938 41.644531 10.785156 41.625 10.746094 41.585938 C 7.703125 38.46875 6.027344 34.359375 6.027344 30.03125 C 6.027344 28.585938 6.21875 27.140625 6.589844 25.746094 C 6.609375 25.667969 6.679688 25.605469 6.765625 25.597656 C 6.773438 25.597656 6.78125 25.597656 6.789062 25.597656 C 6.863281 25.597656 6.933594 25.636719 6.96875 25.707031 C 6.992188 25.75 7.019531 25.800781 7.042969 25.847656 C 7.957031 27.542969 9.476562 28.632812 10.59375 29.253906 C 11.414062 29.707031 12.140625 29.976562 12.5 30.097656 C 12.554688 30.117188 12.597656 30.15625 12.625 30.210938 C 12.644531 30.269531 12.644531 30.328125 12.613281 30.382812 C 12.417969 30.757812 12.050781 31.546875 11.769531 32.597656 C 11.390625 33.996094 11.097656 36.152344 11.855469 38.472656 C 11.960938 38.800781 12.121094 39.132812 12.324219 39.441406 C 12.382812 39.535156 12.359375 39.660156 12.261719 39.722656 C 11.960938 39.910156 11.246094 40.464844 11.097656 41.46875 C 11.089844 41.542969 11.03125 41.609375 10.957031 41.632812 C 10.9375 41.640625 10.914062 41.644531 10.890625 41.644531 Z M 10.890625 41.644531 " fill-opacity="1" fill-rule="nonzero"/><g clip-path="url(#0296edf39c)"><path fill="#ffffff" d="M 21.375 42.859375 C 19.460938 42.859375 17.640625 42.558594 16.113281 41.988281 C 15.097656 41.609375 14.230469 41.128906 13.546875 40.558594 C 13.507812 40.523438 13.480469 40.480469 13.476562 40.429688 C 13.410156 39.945312 13.117188 37.371094 13.738281 34.355469 C 14.058594 32.789062 14.632812 30.941406 15.3125 29.277344 C 15.933594 27.765625 16.53125 26.683594 16.84375 26.53125 C 17.261719 26.320312 18.332031 26.277344 19.152344 26.277344 C 19.382812 26.277344 19.570312 26.28125 19.6875 26.28125 C 19.746094 26.28125 19.808594 26.3125 19.84375 26.359375 C 19.984375 26.546875 20.148438 26.714844 20.34375 26.867188 C 20.417969 26.921875 20.441406 27.011719 20.417969 27.089844 C 20.390625 27.171875 20.308594 27.230469 20.226562 27.230469 C 19.589844 27.246094 18.964844 27.542969 18.375 28.125 C 17.023438 29.453125 15.882812 29.84375 15.875 29.84375 C 15.84375 29.851562 15.816406 29.882812 15.824219 29.917969 C 15.824219 29.953125 15.847656 29.984375 15.882812 29.988281 C 15.972656 30.007812 16.824219 30.191406 17.90625 30.191406 C 18.976562 30.191406 20.476562 30.007812 21.550781 29.117188 C 21.585938 29.089844 21.636719 29.074219 21.679688 29.074219 C 21.710938 29.074219 21.742188 29.078125 21.769531 29.09375 C 21.839844 29.128906 21.886719 29.203125 21.886719 29.285156 C 21.816406 30.953125 22.425781 32.203125 22.945312 32.957031 C 23.605469 33.910156 24.316406 34.390625 24.320312 34.394531 C 24.335938 34.40625 24.355469 34.410156 24.363281 34.410156 C 24.378906 34.410156 24.390625 34.40625 24.40625 34.398438 C 24.429688 34.386719 24.445312 34.359375 24.445312 34.328125 C 24.445312 34.28125 24.398438 33.226562 25.269531 31.210938 C 25.753906 30.097656 25.546875 29.199219 25.292969 28.644531 C 25.179688 28.398438 25.023438 28.160156 24.851562 27.953125 C 24.8125 27.90625 24.796875 27.84375 24.808594 27.785156 C 24.816406 27.726562 24.859375 27.675781 24.914062 27.644531 C 26.5625 26.804688 29.289062 26.496094 31.28125 26.265625 C 32.554688 26.121094 33.289062 26.03125 33.628906 25.886719 C 33.652344 25.875 33.683594 25.867188 33.710938 25.867188 C 33.746094 25.867188 33.78125 25.875 33.8125 25.890625 C 34.195312 26.105469 37.582031 28.058594 38.714844 30.152344 C 39.332031 31.296875 39.378906 32.390625 38.859375 33.414062 C 38.453125 34.21875 37.796875 34.75 37.445312 34.996094 C 36.355469 35.742188 35.761719 36.488281 35.554688 36.773438 C 35.519531 36.816406 35.46875 36.851562 35.410156 36.859375 C 35.355469 36.863281 35.289062 36.867188 35.222656 36.867188 C 34.867188 36.867188 34.265625 36.78125 33.4375 36.378906 C 32.277344 35.820312 31.789062 35.078125 31.664062 34.863281 C 31.648438 34.835938 31.636719 34.804688 31.636719 34.769531 C 31.628906 34.488281 31.617188 33.039062 32.378906 31.910156 C 32.402344 31.875 32.394531 31.828125 32.359375 31.808594 C 32.347656 31.796875 32.332031 31.792969 32.316406 31.792969 C 32.292969 31.792969 32.265625 31.808594 32.253906 31.828125 C 31.542969 32.886719 31.476562 34.164062 31.488281 34.664062 C 31.488281 34.75 31.4375 34.824219 31.355469 34.855469 C 31.289062 34.878906 30.699219 35.128906 30.710938 35.875 C 30.714844 36.238281 30.585938 36.417969 30.460938 36.597656 C 30.347656 36.757812 30.242188 36.90625 30.273438 37.136719 C 30.277344 37.191406 30.269531 37.242188 30.230469 37.289062 C 30.226562 37.296875 30.222656 37.308594 30.21875 37.3125 C 30.195312 37.378906 29.765625 38.902344 30.378906 40.25 C 30.421875 40.34375 30.382812 40.460938 30.292969 40.511719 C 26.917969 42.453125 23.578125 42.859375 21.375 42.859375 Z M 21.375 42.859375 " fill-opacity="1" fill-rule="nonzero"/></g><path fill="#ffffff" d="M 29.957031 14.957031 C 29.898438 14.957031 29.84375 14.9375 29.804688 14.894531 C 29.578125 14.652344 29.085938 14.183594 28.355469 13.699219 C 27.390625 13.066406 25.808594 12.28125 23.75 12.175781 C 23.628906 12.171875 23.507812 12.164062 23.386719 12.164062 C 21.484375 12.164062 20.496094 12.984375 20.074219 13.476562 C 20.035156 13.519531 19.976562 13.546875 19.917969 13.546875 C 19.886719 13.546875 19.851562 13.539062 19.820312 13.519531 C 19.8125 13.515625 19.808594 13.515625 19.796875 13.515625 C 19.742188 13.511719 19.691406 13.480469 19.65625 13.433594 C 19.425781 13.136719 19.042969 12.496094 19.066406 11.582031 C 19.070312 11.347656 19.085938 11.125 19.113281 10.925781 C 19.117188 10.886719 19.085938 10.847656 19.046875 10.84375 C 19.042969 10.84375 19.042969 10.84375 19.035156 10.84375 C 19 10.84375 18.964844 10.867188 18.960938 10.902344 C 18.945312 10.96875 18.90625 11.023438 18.84375 11.046875 C 18.820312 11.058594 18.789062 11.0625 18.765625 11.0625 C 18.730469 11.0625 18.695312 11.050781 18.660156 11.03125 C 18.359375 10.851562 17.917969 10.546875 17.53125 10.09375 C 16.714844 9.136719 16.507812 8.015625 16.910156 6.75 C 17.695312 4.300781 19.515625 4.035156 20.261719 4.035156 C 20.417969 4.035156 20.515625 4.046875 20.542969 4.050781 C 20.546875 4.050781 20.550781 4.050781 20.550781 4.050781 C 20.566406 4.050781 20.585938 4.046875 20.601562 4.035156 C 20.617188 4.027344 20.628906 4.007812 20.632812 3.988281 C 20.644531 3.882812 20.925781 1.503906 24.074219 0.910156 C 24.535156 0.820312 24.980469 0.777344 25.390625 0.777344 C 27.523438 0.777344 28.269531 1.957031 28.296875 2.007812 C 28.3125 2.035156 28.339844 2.046875 28.363281 2.046875 C 28.367188 2.046875 28.375 2.046875 28.378906 2.046875 C 28.378906 2.046875 28.761719 1.976562 29.347656 1.976562 C 30.421875 1.976562 32.4375 2.21875 33.820312 3.828125 C 35.828125 6.171875 34.992188 8.050781 34.953125 8.128906 C 34.941406 8.152344 34.941406 8.183594 34.957031 8.203125 C 34.972656 8.222656 36.246094 10.152344 35.527344 11.667969 C 35.074219 12.617188 33.949219 13.21875 32.175781 13.464844 C 32.167969 13.464844 32.15625 13.464844 32.144531 13.464844 C 32.085938 13.464844 32.03125 13.441406 31.988281 13.394531 C 31.945312 13.34375 31.929688 13.273438 31.945312 13.207031 L 32.144531 12.457031 C 32.15625 12.414062 32.132812 12.371094 32.089844 12.359375 C 32.085938 12.359375 32.074219 12.355469 32.070312 12.355469 C 32.039062 12.355469 32.003906 12.375 31.996094 12.410156 L 31.707031 13.46875 C 31.703125 13.496094 31.691406 13.515625 31.679688 13.535156 C 31.667969 13.546875 31.664062 13.566406 31.664062 13.585938 C 31.664062 13.609375 31.664062 13.636719 31.65625 13.660156 L 31.421875 14.539062 C 31.40625 14.589844 31.371094 14.632812 31.324219 14.664062 C 31.296875 14.683594 31.261719 14.6875 31.222656 14.6875 C 31.203125 14.6875 31.1875 14.6875 31.167969 14.683594 C 31.082031 14.660156 30.992188 14.648438 30.902344 14.648438 C 30.566406 14.648438 30.246094 14.792969 30.042969 14.917969 C 30.03125 14.949219 29.992188 14.957031 29.957031 14.957031 Z M 29.957031 14.957031 " fill-opacity="1" fill-rule="nonzero"/><path fill="#ffffff" d="M 33.828125 38.890625 C 33.757812 38.890625 33.675781 38.886719 33.589844 38.875 C 32.414062 38.726562 30.613281 37.628906 30.429688 37.246094 C 30.421875 37.238281 30.417969 37.222656 30.414062 37.210938 C 30.351562 36.988281 30.4375 36.867188 30.558594 36.699219 C 30.6875 36.519531 30.847656 36.292969 30.84375 35.882812 C 30.832031 35.308594 31.222656 35.078125 31.34375 35.023438 C 31.375 35.007812 31.402344 35.003906 31.429688 35.003906 C 31.496094 35.003906 31.5625 35.035156 31.601562 35.09375 C 31.824219 35.417969 32.335938 36.035156 33.34375 36.519531 C 34.207031 36.9375 34.824219 37.023438 35.195312 37.023438 C 35.222656 37.023438 35.25 37.023438 35.273438 37.023438 C 35.273438 37.023438 35.277344 37.023438 35.277344 37.023438 C 35.386719 37.023438 35.476562 37.109375 35.484375 37.210938 C 35.511719 37.601562 35.425781 37.824219 35.167969 38.027344 C 35.167969 38.027344 35.152344 38.042969 35.148438 38.042969 C 35.09375 38.085938 35.027344 38.128906 34.960938 38.171875 C 34.765625 38.300781 34.539062 38.453125 34.316406 38.722656 C 34.230469 38.835938 34.066406 38.890625 33.828125 38.890625 Z M 33.828125 38.890625 " fill-opacity="1" fill-rule="nonzero"/><path fill="#ffffff" d="M 22.785156 46.652344 C 18.496094 46.652344 14.417969 45.042969 11.289062 42.113281 C 11.25 42.078125 11.230469 42.027344 11.222656 41.972656 C 11.160156 40.628906 12.167969 39.949219 12.371094 39.824219 C 12.40625 39.804688 12.441406 39.796875 12.480469 39.796875 C 12.539062 39.796875 12.597656 39.820312 12.640625 39.871094 C 12.847656 40.125 13.089844 40.371094 13.359375 40.605469 C 13.359375 40.605469 13.363281 40.609375 13.363281 40.609375 C 14.082031 41.21875 14.988281 41.734375 16.058594 42.128906 C 17.621094 42.707031 19.460938 43.019531 21.382812 43.019531 C 21.90625 43.019531 22.441406 42.992188 22.96875 42.949219 C 25.589844 42.71875 28.136719 41.929688 30.34375 40.660156 C 30.375 40.640625 30.410156 40.636719 30.445312 40.636719 C 30.507812 40.636719 30.574219 40.664062 30.613281 40.726562 C 30.765625 40.949219 30.949219 41.15625 31.152344 41.328125 C 31.390625 41.535156 31.636719 41.703125 31.882812 41.839844 C 31.945312 41.875 31.984375 41.933594 31.988281 42.003906 C 32.003906 42.242188 32.101562 42.730469 32.558594 43.242188 C 32.597656 43.289062 32.613281 43.34375 32.609375 43.402344 C 32.605469 43.464844 32.574219 43.511719 32.523438 43.546875 C 29.667969 45.578125 26.300781 46.652344 22.785156 46.652344 Z M 22.785156 46.652344 " fill-opacity="1" fill-rule="nonzero"/><path fill="#ffffff" d="M 13.042969 40 C 12.988281 40 12.925781 39.976562 12.886719 39.929688 C 12.472656 39.460938 12.171875 38.953125 12 38.421875 C 11.257812 36.148438 11.542969 34.03125 11.914062 32.652344 C 12.316406 31.140625 12.90625 30.171875 12.910156 30.164062 C 12.921875 30.144531 12.925781 30.117188 12.917969 30.09375 C 12.90625 30.074219 12.886719 30.054688 12.867188 30.046875 C 12.855469 30.046875 11.863281 29.777344 10.648438 29.105469 C 9.558594 28.492188 8.066406 27.425781 7.179688 25.777344 C 7.054688 25.542969 6.9375 25.296875 6.832031 25.046875 C 6.824219 25.023438 6.816406 24.992188 6.816406 24.960938 C 6.816406 24.941406 6.808594 24.921875 6.796875 24.90625 C 6.777344 24.886719 6.761719 24.863281 6.753906 24.835938 C 5.960938 22.792969 6.179688 21.003906 6.378906 20.113281 C 6.394531 20.046875 6.449219 19.992188 6.515625 19.964844 C 6.535156 19.960938 6.554688 19.957031 6.574219 19.957031 C 6.625 19.957031 6.675781 19.976562 6.710938 20.003906 C 7.25 20.480469 8.175781 20.773438 9.125 20.773438 C 9.847656 20.773438 10.503906 20.605469 11.019531 20.28125 C 11.144531 20.199219 11.265625 20.109375 11.367188 20.011719 C 11.40625 19.976562 11.457031 19.957031 11.507812 19.957031 C 11.523438 19.957031 11.535156 19.957031 11.550781 19.960938 C 11.617188 19.976562 11.671875 20.019531 11.699219 20.085938 C 12.019531 20.890625 11.875 21.722656 11.875 21.730469 C 11.867188 21.753906 11.878906 21.785156 11.898438 21.800781 C 11.925781 21.820312 12.570312 22.332031 13.433594 22.332031 C 13.625 22.332031 13.816406 22.308594 14 22.257812 C 14.171875 22.214844 14.332031 22.1875 14.492188 22.1875 C 14.773438 22.1875 15.015625 22.257812 15.292969 22.34375 C 15.632812 22.445312 16.007812 22.554688 16.546875 22.554688 C 16.722656 22.554688 16.910156 22.542969 17.101562 22.519531 C 17.285156 22.492188 17.46875 22.484375 17.652344 22.484375 C 18.550781 22.484375 19.234375 22.769531 19.554688 22.933594 C 19.644531 22.984375 19.691406 23.09375 19.652344 23.1875 C 19.398438 23.828125 19.160156 24.78125 19.464844 25.675781 C 19.484375 25.734375 19.507812 25.792969 19.53125 25.839844 C 19.554688 25.90625 19.550781 25.976562 19.507812 26.03125 C 19.46875 26.085938 19.410156 26.121094 19.339844 26.121094 C 19.269531 26.121094 19.199219 26.121094 19.117188 26.121094 C 17.953125 26.121094 17.117188 26.214844 16.769531 26.390625 C 16.417969 26.566406 15.816406 27.621094 15.164062 29.21875 C 14.476562 30.890625 13.902344 32.75 13.582031 34.320312 C 13.09375 36.691406 13.164062 38.757812 13.242188 39.777344 C 13.25 39.867188 13.199219 39.945312 13.117188 39.980469 C 13.09375 39.996094 13.066406 40 13.042969 40 Z M 13.042969 40 " fill-opacity="1" fill-rule="nonzero"/><path fill="#ffffff" d="M 9.109375 20.636719 C 8.113281 20.636719 7.160156 20.296875 6.6875 19.769531 C 6.25 19.285156 6.273438 18.941406 6.308594 18.542969 C 6.332031 18.242188 6.355469 17.933594 6.179688 17.546875 C 6.058594 17.289062 6.042969 17.078125 6.121094 16.914062 C 6.164062 16.828125 6.238281 16.757812 6.332031 16.703125 C 6.363281 16.683594 6.398438 16.675781 6.433594 16.675781 C 6.480469 16.675781 6.523438 16.691406 6.566406 16.722656 C 7.839844 17.761719 9.164062 17.980469 10.050781 17.980469 C 10.089844 17.980469 10.136719 17.980469 10.175781 17.980469 C 10.804688 17.964844 11.320312 17.851562 11.636719 17.761719 C 11.65625 17.757812 11.679688 17.75 11.699219 17.75 C 11.738281 17.75 11.777344 17.761719 11.8125 17.785156 C 11.863281 17.820312 11.898438 17.875 11.90625 17.9375 C 11.941406 18.355469 11.914062 18.972656 11.578125 19.515625 C 11.566406 19.53125 11.558594 19.539062 11.546875 19.554688 C 11.535156 19.566406 11.523438 19.574219 11.507812 19.585938 C 11.492188 19.59375 11.480469 19.609375 11.476562 19.628906 C 11.472656 19.660156 11.457031 19.691406 11.4375 19.714844 C 11.300781 19.890625 11.128906 20.039062 10.933594 20.164062 C 10.445312 20.46875 9.808594 20.636719 9.109375 20.636719 Z M 9.109375 20.636719 " fill-opacity="1" fill-rule="nonzero"/><path fill="#ffcd92" d="M 33.144531 42.035156 C 32.519531 42.035156 31.878906 41.757812 31.253906 41.21875 C 30.015625 40.15625 30.148438 38.453125 30.257812 37.765625 C 30.269531 37.691406 30.316406 37.632812 30.386719 37.609375 C 30.414062 37.597656 30.433594 37.597656 30.460938 37.597656 C 30.507812 37.597656 30.554688 37.613281 30.59375 37.648438 C 31.234375 38.191406 32.519531 38.820312 33.355469 38.992188 C 33.53125 39.027344 33.691406 39.046875 33.828125 39.046875 C 34.074219 39.046875 34.265625 38.988281 34.394531 38.875 C 34.433594 38.839844 34.484375 38.820312 34.527344 38.820312 C 34.578125 38.820312 34.628906 38.839844 34.667969 38.875 C 34.75 38.945312 34.761719 39.066406 34.695312 39.152344 C 34.535156 39.359375 34.46875 39.570312 34.46875 39.570312 C 34.457031 39.609375 34.476562 39.65625 34.519531 39.664062 C 34.523438 39.664062 34.535156 39.671875 34.539062 39.671875 C 34.574219 39.671875 34.605469 39.652344 34.613281 39.617188 C 34.632812 39.554688 34.820312 39.03125 35.308594 38.898438 C 35.34375 38.886719 35.386719 38.882812 35.425781 38.882812 C 35.605469 38.882812 35.789062 38.988281 35.898438 39.15625 C 35.996094 39.304688 36.242188 39.859375 35.457031 40.765625 C 34.765625 41.554688 34.039062 41.980469 33.304688 42.027344 C 33.246094 42.027344 33.195312 42.035156 33.144531 42.035156 Z M 33.144531 42.035156 " fill-opacity="1" fill-rule="nonzero"/><path fill="#ffcd92" d="M 34.734375 39.007812 C 34.679688 39.007812 34.625 38.988281 34.585938 38.941406 C 34.507812 38.863281 34.511719 38.738281 34.589844 38.65625 C 34.753906 38.496094 34.921875 38.386719 35.058594 38.296875 C 35.09375 38.273438 35.128906 38.253906 35.15625 38.226562 C 35.195312 38.203125 35.234375 38.1875 35.277344 38.1875 C 35.304688 38.1875 35.324219 38.191406 35.347656 38.195312 C 35.460938 38.238281 35.554688 38.308594 35.617188 38.402344 C 35.65625 38.46875 35.660156 38.546875 35.625 38.613281 C 35.589844 38.675781 35.519531 38.714844 35.445312 38.714844 C 35.445312 38.714844 35.425781 38.714844 35.425781 38.714844 C 35.375 38.714844 35.320312 38.722656 35.273438 38.738281 C 35.128906 38.777344 34.996094 38.847656 34.875 38.953125 C 34.832031 38.992188 34.78125 39.007812 34.734375 39.007812 Z M 34.734375 39.007812 " fill-opacity="1" fill-rule="nonzero"/><path fill="#ffcd92" d="M 24.160156 23.636719 C 23.882812 23.636719 23.597656 23.621094 23.328125 23.597656 C 21.816406 23.453125 20.511719 22.929688 19.746094 22.152344 C 19.449219 21.855469 18.753906 21.007812 18.753906 19.691406 L 18.757812 18.347656 C 18.757812 18.339844 18.757812 18.335938 18.757812 18.332031 C 18.683594 17.863281 19.339844 16.671875 19.535156 16.484375 C 19.542969 16.472656 19.554688 16.46875 19.566406 16.457031 C 19.585938 16.449219 19.59375 16.429688 19.601562 16.40625 L 20 13.878906 C 20.003906 13.851562 20.011719 13.824219 20.027344 13.800781 C 20.191406 13.550781 21.109375 12.316406 23.402344 12.316406 C 23.519531 12.316406 23.632812 12.320312 23.75 12.324219 C 27.628906 12.53125 29.835938 15.144531 29.855469 15.167969 C 29.871094 15.183594 29.890625 15.195312 29.914062 15.195312 C 29.925781 15.195312 29.945312 15.1875 29.964844 15.179688 C 30.140625 15.042969 30.539062 14.808594 30.925781 14.808594 C 31.011719 14.808594 31.09375 14.820312 31.167969 14.84375 C 31.488281 14.933594 31.734375 15.21875 31.898438 15.6875 C 32.253906 16.699219 31.792969 17.765625 31.144531 18.222656 C 30.996094 18.328125 30.761719 18.445312 30.488281 18.445312 C 30.28125 18.445312 30.085938 18.375 29.910156 18.238281 C 29.894531 18.226562 29.878906 18.222656 29.859375 18.222656 C 29.84375 18.222656 29.835938 18.226562 29.820312 18.230469 C 29.792969 18.246094 29.777344 18.28125 29.785156 18.3125 C 30.019531 19.640625 29.785156 20.773438 29.078125 21.667969 C 29.074219 21.675781 29.070312 21.683594 29.058594 21.6875 C 29.054688 21.695312 29.046875 21.699219 29.042969 21.710938 C 29.039062 21.71875 29.035156 21.722656 29.027344 21.734375 C 28.652344 22.195312 28.15625 22.578125 27.558594 22.886719 C 26.609375 23.371094 25.402344 23.636719 24.160156 23.636719 Z M 24.160156 23.636719 " fill-opacity="1" fill-rule="nonzero"/><path fill="#ffcd92" d="M 24.425781 25.734375 C 24.371094 25.734375 24.316406 25.714844 24.273438 25.671875 C 24.136719 25.527344 23.976562 25.421875 23.804688 25.355469 C 23.679688 25.3125 23.542969 25.285156 23.402344 25.285156 C 23.3125 25.285156 23.214844 25.296875 23.125 25.316406 C 23.109375 25.320312 23.101562 25.320312 23.085938 25.320312 C 22.996094 25.320312 22.914062 25.261719 22.890625 25.175781 C 22.882812 25.160156 22.875 25.140625 22.847656 25.132812 C 22.269531 24.851562 22.039062 24.492188 22.003906 23.792969 C 21.996094 23.726562 22.027344 23.667969 22.074219 23.628906 C 22.109375 23.597656 22.160156 23.578125 22.203125 23.578125 C 22.21875 23.578125 22.234375 23.578125 22.25 23.582031 C 22.859375 23.722656 23.503906 23.792969 24.160156 23.792969 C 25.425781 23.792969 26.65625 23.519531 27.628906 23.023438 C 28.066406 22.796875 28.453125 22.527344 28.78125 22.222656 C 28.820312 22.1875 28.871094 22.167969 28.921875 22.167969 C 28.941406 22.167969 28.964844 22.171875 28.984375 22.179688 C 29.054688 22.199219 29.109375 22.253906 29.125 22.328125 C 29.226562 22.734375 29.441406 23.304688 29.933594 23.710938 C 30 23.761719 30.027344 23.847656 30 23.925781 C 29.976562 24.007812 29.910156 24.0625 29.824219 24.074219 C 27.542969 24.328125 25.1875 25.402344 24.515625 25.726562 C 24.484375 25.726562 24.457031 25.734375 24.425781 25.734375 Z M 24.425781 25.734375 " fill-opacity="1" fill-rule="nonzero"/><path fill="#ffcd92" d="M 10.046875 17.828125 C 8.75 17.828125 7.578125 17.386719 6.5625 16.519531 C 6.550781 16.507812 6.539062 16.496094 6.53125 16.484375 C 6.449219 16.378906 6.1875 15.992188 6.105469 15.480469 C 6.097656 15.421875 6.113281 15.367188 6.148438 15.324219 C 6.183594 15.277344 6.226562 15.25 6.285156 15.242188 L 6.410156 15.230469 C 6.417969 15.230469 6.429688 15.230469 6.433594 15.230469 C 6.535156 15.230469 6.621094 15.296875 6.636719 15.398438 C 6.636719 15.414062 6.644531 15.421875 6.652344 15.433594 C 7.039062 15.929688 7.582031 16.214844 8.136719 16.214844 C 8.308594 16.214844 8.472656 16.1875 8.621094 16.132812 C 9.0625 15.972656 9.324219 15.601562 9.3125 15.164062 C 9.3125 15.144531 9.304688 15.117188 9.304688 15.09375 C 9.296875 15.023438 9.324219 14.957031 9.375 14.914062 C 9.65625 14.679688 9.804688 14.320312 9.785156 13.910156 C 9.777344 13.824219 9.828125 13.75 9.90625 13.714844 C 10.148438 13.609375 10.332031 13.449219 10.449219 13.238281 C 10.484375 13.175781 10.550781 13.136719 10.621094 13.136719 C 11.234375 13.117188 11.652344 12.84375 11.792969 12.371094 C 11.914062 11.980469 11.832031 11.464844 11.578125 10.957031 C 11.546875 10.902344 11.546875 10.835938 11.578125 10.78125 C 11.707031 10.503906 12.414062 9.09375 13.324219 9.09375 L 13.335938 9.09375 C 13.984375 9.101562 14.554688 9.371094 14.753906 9.769531 C 14.859375 9.972656 14.910156 10.316406 14.570312 10.78125 C 13.777344 11.859375 13.386719 12.785156 13.570312 14.574219 C 13.632812 15.140625 13.484375 15.695312 13.136719 16.226562 C 13.125 16.253906 13.097656 16.273438 13.074219 16.289062 C 13.074219 16.289062 13.066406 16.289062 13.066406 16.292969 C 13.046875 16.308594 13.042969 16.324219 13.039062 16.339844 C 13.03125 16.367188 13.015625 16.394531 13.003906 16.417969 C 12.554688 17.011719 12 17.367188 11.941406 17.40625 C 11.925781 17.417969 11.914062 17.425781 11.90625 17.441406 C 11.878906 17.492188 11.839844 17.53125 11.789062 17.546875 C 11.5625 17.628906 10.941406 17.816406 10.136719 17.832031 C 10.117188 17.828125 10.082031 17.828125 10.046875 17.828125 Z M 10.046875 17.828125 " fill-opacity="1" fill-rule="nonzero"/><path fill="#ffcd92" d="M 10.800781 12.964844 C 10.75 12.964844 10.699219 12.945312 10.660156 12.910156 C 10.613281 12.871094 10.589844 12.808594 10.59375 12.746094 C 10.605469 12.617188 10.59375 12.484375 10.574219 12.351562 C 10.429688 11.511719 9.652344 10.457031 8.644531 10.226562 C 8.570312 10.210938 8.515625 10.15625 8.496094 10.082031 C 8.472656 10.011719 8.496094 9.933594 8.550781 9.882812 C 8.714844 9.722656 8.917969 9.613281 9.128906 9.5625 C 9.21875 9.542969 9.316406 9.527344 9.410156 9.527344 C 9.722656 9.527344 10.066406 9.644531 10.421875 9.871094 C 11.414062 10.507812 11.859375 11.652344 11.652344 12.320312 C 11.578125 12.570312 11.371094 12.886719 10.828125 12.960938 C 10.816406 12.964844 10.8125 12.964844 10.800781 12.964844 Z M 10.800781 12.964844 " fill-opacity="1" fill-rule="nonzero"/><path fill="#ffcd92" d="M 9.878906 13.53125 C 9.855469 13.53125 9.835938 13.523438 9.808594 13.519531 C 9.753906 13.5 9.703125 13.453125 9.683594 13.398438 C 9.453125 12.777344 8.757812 12.042969 7.554688 12.042969 L 7.515625 12.042969 C 7.40625 12.042969 7.296875 12.050781 7.195312 12.0625 C 7.183594 12.0625 7.175781 12.0625 7.171875 12.0625 C 7.125 12.0625 7.074219 12.046875 7.039062 12.015625 C 6.992188 11.980469 6.96875 11.925781 6.964844 11.871094 C 6.949219 11.597656 6.96875 11.085938 7.277344 10.726562 C 7.496094 10.46875 7.835938 10.335938 8.28125 10.335938 C 9.296875 10.335938 10.261719 11.429688 10.421875 12.375 C 10.535156 13.023438 10.246094 13.34375 9.984375 13.503906 C 9.949219 13.519531 9.914062 13.53125 9.878906 13.53125 Z M 9.878906 13.53125 " fill-opacity="1" fill-rule="nonzero"/><path fill="#ffcd92" d="M 9.269531 14.714844 C 9.203125 14.714844 9.148438 14.683594 9.109375 14.632812 C 8.828125 14.273438 8.28125 13.980469 7.683594 13.863281 C 7.523438 13.835938 7.367188 13.820312 7.21875 13.820312 C 6.9375 13.820312 6.679688 13.878906 6.484375 13.988281 C 6.453125 14.007812 6.417969 14.015625 6.382812 14.015625 C 6.355469 14.015625 6.324219 14.007812 6.296875 13.996094 C 6.238281 13.96875 6.199219 13.914062 6.183594 13.851562 C 6.113281 13.511719 6.082031 13.03125 6.332031 12.675781 C 6.550781 12.359375 6.953125 12.199219 7.527344 12.191406 L 7.558594 12.191406 C 8.761719 12.191406 9.402344 12.929688 9.582031 13.558594 C 9.699219 13.960938 9.648438 14.34375 9.441406 14.628906 C 9.402344 14.679688 9.339844 14.714844 9.269531 14.714844 C 9.273438 14.714844 9.269531 14.714844 9.269531 14.714844 Z M 9.269531 14.714844 " fill-opacity="1" fill-rule="nonzero"/><path fill="#ffcd92" d="M 8.136719 16.0625 C 7.632812 16.0625 7.136719 15.796875 6.773438 15.339844 C 6.757812 15.320312 6.738281 15.308594 6.710938 15.308594 C 6.703125 15.308594 6.679688 15.3125 6.667969 15.324219 C 6.640625 15.34375 6.636719 15.375 6.636719 15.398438 C 6.644531 15.453125 6.632812 15.507812 6.597656 15.554688 C 6.5625 15.597656 6.515625 15.628906 6.460938 15.632812 L 6.332031 15.648438 C 6.324219 15.648438 6.3125 15.648438 6.308594 15.648438 C 6.207031 15.648438 6.121094 15.578125 6.105469 15.472656 C 6.050781 15.117188 6.097656 14.777344 6.238281 14.460938 C 6.378906 14.140625 6.726562 13.964844 7.214844 13.964844 C 7.355469 13.964844 7.503906 13.980469 7.652344 14.007812 C 8.382812 14.148438 9.144531 14.621094 9.164062 15.164062 C 9.175781 15.542969 8.957031 15.847656 8.574219 15.984375 C 8.4375 16.039062 8.292969 16.0625 8.136719 16.0625 Z M 8.136719 16.0625 " fill-opacity="1" fill-rule="nonzero"/><path fill="#e8894c" d="M 8.347656 17.496094 C 8.347656 17.496094 9.261719 17.71875 10.449219 17.238281 C 11.636719 16.757812 11.699219 15.648438 11.699219 15.648438 C 11.699219 15.648438 12.328125 15.898438 12.316406 16.671875 C 12.300781 17.441406 11.757812 17.742188 11.117188 17.828125 C 10.480469 17.910156 8.75 17.5625 8.347656 17.496094 Z M 8.347656 17.496094 " fill-opacity="1" fill-rule="nonzero"/><path fill="#e8894c" d="M 12.46875 17.0625 L 12.3125 16.96875 C 12.3125 16.96875 12.332031 16.671875 12.136719 16.207031 C 11.941406 15.742188 11.460938 15.199219 11.460938 15.199219 C 11.460938 15.199219 12.15625 15.445312 12.804688 14.507812 C 13.457031 13.574219 13.445312 12.601562 13.445312 12.601562 C 13.445312 12.601562 13.726562 12.964844 13.652344 14.4375 C 13.578125 15.910156 13.136719 16.585938 12.46875 17.0625 Z M 12.46875 17.0625 " fill-opacity="1" fill-rule="nonzero"/><path fill="#e8894c" d="M 7.054688 15.539062 C 7.050781 15.519531 6.9375 15.214844 6.9375 15.214844 C 6.9375 15.214844 7.390625 15.5625 8.171875 15.433594 C 8.953125 15.304688 8.9375 14.835938 8.9375 14.835938 C 8.9375 14.835938 9.609375 15.632812 8.730469 15.964844 C 7.855469 16.292969 7.121094 15.796875 7.054688 15.539062 Z M 7.054688 15.539062 " fill-opacity="1" fill-rule="nonzero"/><path fill="#e8894c" d="M 6.253906 13.96875 C 6.273438 13.964844 6.6875 13.164062 8.15625 13.410156 C 9.628906 13.65625 9.738281 14.390625 9.738281 14.390625 L 9.429688 14.785156 L 9.183594 14.867188 C 9.183594 14.867188 8.128906 13.890625 7.339844 13.835938 C 6.554688 13.78125 6.253906 13.96875 6.253906 13.96875 Z M 6.253906 13.96875 " fill-opacity="1" fill-rule="nonzero"/><path fill="#e8894c" d="M 7.9375 12.191406 L 7.164062 11.929688 L 7.171875 11.855469 C 7.171875 11.855469 7.945312 11.527344 9 11.855469 C 10.050781 12.1875 10.222656 13.199219 10.203125 13.324219 C 10.183594 13.449219 9.863281 13.625 9.863281 13.625 C 9.863281 13.625 8.820312 12.210938 7.9375 12.191406 Z M 7.9375 12.191406 " fill-opacity="1" fill-rule="nonzero"/><path fill="#e8894c" d="M 9.945312 11.355469 L 8.691406 10.027344 C 8.691406 10.027344 10.015625 10.191406 10.710938 11.191406 C 11.40625 12.191406 11.097656 12.960938 11.097656 12.960938 L 10.613281 13.03125 Z M 9.945312 11.355469 " fill-opacity="1" fill-rule="nonzero"/><path fill="#e8894c" d="M 29.898438 17.15625 C 29.898438 17.15625 30.1875 15.902344 30.742188 15.828125 C 31.296875 15.753906 31.40625 16.308594 31.378906 16.617188 C 31.378906 16.617188 31.21875 16.289062 30.769531 16.382812 C 30.316406 16.476562 29.898438 17.15625 29.898438 17.15625 Z M 29.898438 17.15625 " fill-opacity="1" fill-rule="nonzero"/><path fill="#e8894c" d="M 22.054688 23.3125 C 22.054688 23.3125 22.6875 23.3125 23.265625 23.066406 C 23.847656 22.824219 24.027344 22.582031 24.027344 22.582031 C 24.027344 22.582031 25.335938 22.789062 27.023438 22.367188 C 28.710938 21.949219 29.492188 21.109375 29.492188 21.109375 C 29.492188 21.109375 29.128906 22.894531 26.382812 23.4375 C 23.640625 23.980469 22.054688 23.3125 22.054688 23.3125 Z M 22.054688 23.3125 " fill-opacity="1" fill-rule="nonzero"/><path fill="#e8894c" d="M 22.570312 12.347656 C 22.570312 12.347656 23.664062 12.0625 25.796875 13.453125 C 27.925781 14.847656 28.746094 16.863281 28.746094 16.863281 C 28.746094 16.863281 28.574219 14.132812 27.925781 13.625 C 27.277344 13.117188 24.277344 11.53125 22.570312 12.347656 Z M 22.570312 12.347656 " fill-opacity="1" fill-rule="nonzero"/><path fill="#e8894c" d="M 32.367188 38.652344 C 32.367188 38.652344 33.515625 40.035156 34.257812 39.582031 C 34.996094 39.125 34.609375 38.78125 34.5 38.828125 C 34.386719 38.875 32.78125 38.816406 32.367188 38.652344 Z M 32.367188 38.652344 " fill-opacity="1" fill-rule="nonzero"/><path fill="#e8894c" d="M 23.761719 25.5 C 23.761719 25.5 24.566406 25.261719 25.917969 24.550781 C 27.269531 23.84375 27.578125 23.15625 27.578125 23.15625 L 29.089844 21.867188 C 29.089844 21.867188 29.632812 23.03125 29.933594 23.496094 C 30.238281 23.960938 30.148438 24.117188 30.148438 24.117188 C 30.148438 24.117188 27.886719 24.398438 26.480469 24.9375 C 25.074219 25.476562 24.285156 25.914062 24.285156 25.914062 Z M 23.761719 25.5 " fill-opacity="1" fill-rule="nonzero"/><path fill="#cccccc" d="M 30.722656 11.566406 C 30.722656 11.566406 31.875 12.164062 33.28125 11.757812 C 34.683594 11.339844 34.660156 9.832031 34.660156 9.832031 C 34.660156 9.832031 35.648438 12.210938 33.511719 13.109375 C 31.378906 14.007812 31.875 13.378906 31.875 13.378906 C 31.875 13.378906 31.570312 11.742188 30.722656 11.566406 " fill-opacity="1" fill-rule="nonzero"/><path fill="#cccccc" d="M 35.136719 7.695312 C 35.136719 7.695312 34.632812 8.578125 34.226562 8.867188 C 33.824219 9.15625 33.171875 9.398438 33.171875 9.398438 C 33.171875 9.398438 33.746094 8.648438 33.953125 6.804688 C 34.160156 4.960938 33.535156 3.542969 33.535156 3.542969 C 33.535156 3.542969 34.800781 4.714844 35.136719 6.019531 C 35.46875 7.320312 35.136719 7.695312 35.136719 7.695312 Z M 35.136719 7.695312 " fill-opacity="1" fill-rule="nonzero"/><path fill="#cccccc" d="M 22.675781 1.253906 C 22.675781 1.253906 23.902344 0.820312 25.308594 1.644531 C 26.710938 2.46875 27.179688 4.382812 27.179688 4.382812 C 27.179688 4.382812 27.074219 3.289062 27.375 2.757812 C 27.679688 2.226562 28.308594 2 28.308594 2 C 28.308594 2 27.945312 1.199219 26.308594 0.902344 C 24.667969 0.609375 23.109375 0.664062 22.675781 1.253906 Z M 22.675781 1.253906 " fill-opacity="1" fill-rule="nonzero"/><path fill="#cccccc" d="M 17.558594 5.230469 C 17.558594 5.230469 18.296875 4.597656 19.363281 4.929688 C 20.429688 5.265625 21.125 6.546875 21.125 6.546875 C 21.125 6.546875 20.707031 5.5 20.707031 4.882812 C 20.707031 4.261719 20.699219 3.890625 20.699219 3.890625 C 20.699219 3.890625 18.074219 4.113281 17.558594 5.230469 Z M 17.558594 5.230469 " fill-opacity="1" fill-rule="nonzero"/><path fill="#cccccc" d="M 18.410156 9.6875 L 17.894531 8.378906 L 18.042969 6.804688 C 18.042969 6.804688 16.960938 7.96875 17.476562 9.691406 C 17.988281 11.417969 18.851562 11.222656 18.851562 11.222656 C 18.851562 11.222656 19.296875 10.097656 18.410156 9.6875 Z M 18.410156 9.6875 " fill-opacity="1" fill-rule="nonzero"/><path fill="#cccccc" d="M 19.375 10.761719 C 19.375 10.761719 18.851562 10.832031 18.960938 11.835938 C 19.070312 12.839844 19.902344 13.859375 19.902344 13.859375 L 20.953125 13.023438 L 21.902344 12.527344 C 21.902344 12.527344 22.425781 12.179688 23.542969 12.222656 C 24.660156 12.261719 25.738281 12.527344 25.738281 12.527344 C 25.738281 12.527344 24.742188 12.144531 22.570312 11.65625 C 20.402344 11.167969 20.507812 10.277344 20.507812 10.277344 L 19.433594 10.765625 " fill-opacity="1" fill-rule="nonzero"/><path fill="#cccccc" d="M 26.238281 12.660156 C 26.238281 12.660156 28.136719 13.378906 29.402344 13.363281 C 30.660156 13.351562 31.25 12.246094 31.25 12.246094 L 31.882812 12.582031 L 31.457031 14.847656 C 31.457031 14.847656 30.832031 14.679688 30.195312 14.957031 C 29.558594 15.238281 29.375 15.238281 29.375 15.238281 C 29.375 15.238281 28.355469 12.96875 26.238281 12.660156 Z M 26.238281 12.660156 " fill-opacity="1" fill-rule="nonzero"/><path fill="#cccccc" d="M 31.792969 31.480469 C 31.195312 30.847656 29.558594 30.757812 29.558594 30.757812 C 29.558594 30.757812 31.089844 31.105469 30.394531 33.457031 C 29.699219 35.804688 28.296875 38.296875 30.167969 40.351562 C 30.167969 40.351562 29.703125 38.578125 30.1875 37.59375 C 30.671875 36.613281 30.996094 35.707031 30.996094 35.707031 C 30.996094 35.707031 31.179688 34.828125 31.453125 34.820312 C 31.722656 34.804688 31.753906 32.839844 32.039062 32.496094 C 32.039062 32.496094 32.394531 32.113281 31.792969 31.480469 Z M 31.792969 31.480469 " fill-opacity="1" fill-rule="nonzero"/><path fill="#cccccc" d="M 30.691406 37.640625 C 30.691406 37.640625 31.023438 37.855469 32.40625 37.710938 C 33.792969 37.566406 34.164062 36.949219 34.164062 36.949219 C 34.164062 36.949219 35.554688 36.738281 35.625 37.007812 C 35.695312 37.277344 35.441406 37.925781 35.023438 38.1875 C 34.605469 38.445312 34.109375 38.863281 34.109375 38.863281 C 34.109375 38.863281 32.203125 38.542969 31.648438 38.242188 C 31.09375 37.941406 30.691406 37.640625 30.691406 37.640625 Z M 30.691406 37.640625 " fill-opacity="1" fill-rule="nonzero"/><path fill="#cccccc" d="M 6.546875 24.613281 C 6.546875 24.613281 7.085938 26.980469 9.492188 28.464844 C 11.898438 29.949219 12.933594 30.042969 12.933594 30.042969 L 13.613281 29.269531 L 14.246094 28.578125 C 14.246094 28.578125 11.480469 28.652344 8.871094 26.589844 C 6.261719 24.527344 6.203125 21.914062 6.203125 21.914062 C 6.203125 21.914062 6.042969 23.382812 6.546875 24.613281 Z M 6.546875 24.613281 " fill-opacity="1" fill-rule="nonzero"/><path fill="#cccccc" d="M 6.394531 19.730469 C 6.394531 19.730469 6.523438 20.066406 8.203125 19.664062 C 9.878906 19.265625 10.070312 18.089844 10.070312 18.089844 L 11.898438 17.742188 C 11.898438 17.742188 12.050781 19.269531 11.71875 19.769531 C 11.390625 20.269531 9.59375 20.757812 8.867188 20.773438 C 8.136719 20.785156 6.394531 19.730469 6.394531 19.730469 Z M 6.394531 19.730469 " fill-opacity="1" fill-rule="nonzero"/><path fill="#cccccc" d="M 15.722656 22.476562 C 15.722656 22.476562 17.132812 22.492188 18.128906 23.644531 C 19.125 24.785156 19.148438 26.285156 19.148438 26.285156 L 19.832031 26.285156 C 19.832031 26.285156 19.375 25.214844 19.464844 24.457031 C 19.558594 23.699219 19.90625 22.90625 19.90625 22.90625 C 19.90625 22.90625 16.527344 22.21875 15.722656 22.476562 Z M 15.722656 22.476562 " fill-opacity="1" fill-rule="nonzero"/><path fill="#cccccc" d="M 17.15625 26.160156 C 17.15625 26.160156 16.085938 26.046875 15.433594 27.136719 C 14.785156 28.222656 13.777344 30.773438 13.082031 33.457031 C 12.386719 36.136719 12.316406 39.386719 12.933594 40.199219 C 13.546875 41.015625 13.378906 39.082031 13.273438 37.636719 C 13.167969 36.195312 13.8125 33.199219 14.75 30.519531 C 15.683594 27.828125 17.15625 26.160156 17.15625 26.160156 Z M 17.15625 26.160156 " fill-opacity="1" fill-rule="nonzero"/><path fill="#cccccc" d="M 16.472656 42.277344 C 16.472656 42.277344 20.359375 43.699219 24.457031 43.984375 C 28.550781 44.269531 29.046875 45.507812 29.046875 45.507812 C 29.046875 45.507812 31.789062 44.324219 32.273438 43.894531 C 32.753906 43.464844 32.980469 43.207031 32.980469 43.207031 C 32.980469 43.207031 32.300781 43.199219 32.191406 42.722656 C 32.082031 42.25 32.140625 41.714844 32.140625 41.714844 L 30.394531 40.550781 C 30.394531 40.550781 28.019531 41.871094 25.578125 42.503906 C 23.140625 43.136719 18.742188 43.089844 16.472656 42.277344 Z M 16.472656 42.277344 " fill-opacity="1" fill-rule="nonzero"/><g clip-path="url(#082d0b2de8)"><path fill="#4e1d0f" d="M 39.898438 30.027344 C 39.898438 34.566406 38.121094 38.828125 34.886719 42.035156 C 31.652344 45.242188 27.355469 47.003906 22.785156 47.003906 C 18.347656 47.003906 14.164062 45.34375 10.972656 42.3125 C 10.875 42.222656 10.78125 42.128906 10.683594 42.035156 C 7.453125 38.828125 5.675781 34.566406 5.675781 30.027344 C 5.675781 28.3125 5.929688 26.625 6.433594 25.007812 C 5.367188 22.324219 6 20.058594 6.140625 19.621094 C 5.902344 19.195312 5.929688 18.835938 5.957031 18.511719 C 5.976562 18.230469 5.996094 17.992188 5.859375 17.691406 C 5.695312 17.328125 5.679688 17.007812 5.816406 16.742188 C 5.886719 16.601562 5.988281 16.507812 6.085938 16.4375 C 5.851562 16.019531 5.527344 15.207031 5.914062 14.324219 C 5.921875 14.308594 5.929688 14.300781 5.9375 14.285156 C 5.9375 14.285156 5.9375 14.28125 5.929688 14.28125 C 5.914062 14.234375 5.539062 13.199219 6.035156 12.476562 C 6.179688 12.269531 6.375 12.117188 6.617188 12.007812 C 6.589844 11.769531 6.550781 11.023438 7.003906 10.496094 C 7.25 10.210938 7.589844 10.042969 8.019531 9.992188 C 8.027344 9.976562 8.035156 9.957031 8.042969 9.941406 C 8.054688 9.917969 8.382812 9.371094 9.046875 9.214844 C 9.539062 9.097656 10.066406 9.21875 10.625 9.566406 C 10.933594 9.761719 11.203125 10.023438 11.425781 10.308594 C 11.753906 9.71875 12.429688 8.726562 13.335938 8.726562 C 13.339844 8.726562 13.34375 8.726562 13.355469 8.726562 C 14.144531 8.738281 14.824219 9.082031 15.085938 9.597656 C 15.207031 9.835938 15.34375 10.335938 14.875 10.980469 C 14.121094 12.015625 13.773438 12.84375 13.945312 14.527344 C 13.984375 14.894531 13.945312 15.230469 13.863281 15.535156 C 15.519531 14.523438 17.320312 13.816406 19.222656 13.414062 C 18.96875 13.015625 18.699219 12.390625 18.71875 11.566406 C 18.71875 11.53125 18.722656 11.496094 18.722656 11.464844 C 18.527344 11.367188 17.859375 11.007812 17.285156 10.335938 C 16.652344 9.609375 16.023438 8.378906 16.582031 6.640625 C 17.136719 4.917969 18.195312 4.207031 18.992188 3.910156 C 19.542969 3.707031 20.042969 3.675781 20.335938 3.675781 C 20.402344 3.402344 20.542969 2.957031 20.859375 2.476562 C 21.3125 1.785156 22.234375 0.890625 24.023438 0.550781 C 26.882812 0.015625 28.140625 1.214844 28.503906 1.664062 C 28.820312 1.625 29.53125 1.570312 30.386719 1.683594 C 31.925781 1.886719 33.210938 2.546875 34.105469 3.59375 C 35.972656 5.769531 35.535156 7.605469 35.347656 8.128906 C 35.640625 8.609375 36.570312 10.332031 35.863281 11.816406 C 35.339844 12.925781 34.039062 13.609375 32.003906 13.851562 L 31.753906 14.785156 C 31.953125 14.96875 32.117188 15.234375 32.230469 15.574219 C 32.277344 15.699219 32.308594 15.816406 32.332031 15.941406 C 32.347656 15.949219 32.363281 15.957031 32.371094 15.96875 C 37.085938 19.136719 39.898438 24.390625 39.898438 30.027344 Z M 39.316406 30.683594 C 39.328125 30.46875 39.332031 30.246094 39.332031 30.027344 C 39.332031 24.703125 36.734375 19.726562 32.367188 16.644531 C 32.300781 17.445312 31.871094 18.148438 31.34375 18.515625 C 30.976562 18.777344 30.574219 18.859375 30.207031 18.777344 C 30.3125 19.960938 30.035156 21 29.402344 21.832031 C 29.429688 22.167969 29.609375 23.28125 30.609375 23.691406 C 31.097656 23.675781 31.671875 23.816406 32.144531 24.316406 C 32.554688 24.746094 32.621094 24.761719 32.734375 24.785156 C 32.953125 24.832031 33.195312 24.90625 33.753906 25.277344 C 33.925781 25.386719 33.988281 25.507812 34.011719 25.605469 C 34.570312 25.921875 37.851562 27.84375 39.011719 29.988281 C 39.136719 30.222656 39.238281 30.453125 39.316406 30.683594 Z M 37.308594 34.828125 C 37.9375 34.394531 39.882812 32.78125 38.511719 30.253906 C 37.414062 28.21875 34.074219 26.289062 33.691406 26.070312 C 33.335938 26.230469 32.625 26.316406 31.285156 26.46875 C 29.289062 26.695312 26.601562 27.003906 24.988281 27.824219 C 25.136719 27.996094 25.3125 28.246094 25.457031 28.558594 C 25.730469 29.152344 25.953125 30.109375 25.441406 31.292969 C 24.578125 33.296875 24.632812 34.304688 24.632812 34.316406 C 24.636719 34.417969 24.585938 34.523438 24.492188 34.574219 C 24.445312 34.601562 24.398438 34.609375 24.351562 34.609375 C 24.292969 34.609375 24.238281 34.59375 24.195312 34.558594 C 24.164062 34.539062 23.433594 34.039062 22.761719 33.066406 C 22.210938 32.261719 21.601562 30.976562 21.671875 29.269531 C 20.582031 30.167969 19.101562 30.386719 17.898438 30.386719 C 16.78125 30.386719 15.910156 30.199219 15.828125 30.179688 C 15.707031 30.148438 15.617188 30.042969 15.609375 29.917969 C 15.605469 29.792969 15.683594 29.679688 15.800781 29.636719 C 15.8125 29.632812 16.914062 29.25 18.226562 27.964844 C 18.980469 27.226562 19.6875 27.023438 20.214844 27.011719 C 20.003906 26.84375 19.828125 26.664062 19.675781 26.46875 C 18.960938 26.449219 17.410156 26.460938 16.9375 26.695312 C 16.757812 26.785156 16.230469 27.558594 15.503906 29.339844 C 14.832031 30.988281 14.261719 32.824219 13.9375 34.378906 C 13.328125 37.347656 13.613281 39.871094 13.675781 40.390625 C 14.335938 40.941406 15.183594 41.410156 16.183594 41.785156 C 19.671875 43.082031 25.316406 43.125 30.171875 40.335938 C 29.527344 38.917969 29.976562 37.335938 30 37.253906 C 30.011719 37.21875 30.027344 37.1875 30.050781 37.15625 C 30.011719 36.847656 30.15625 36.644531 30.273438 36.472656 C 30.386719 36.308594 30.496094 36.164062 30.488281 35.867188 C 30.480469 35.144531 30.960938 34.773438 31.261719 34.65625 C 31.253906 34.160156 31.308594 32.816406 32.0625 31.703125 C 32.144531 31.570312 32.324219 31.535156 32.453125 31.621094 C 32.585938 31.707031 32.621094 31.882812 32.535156 32.011719 C 31.8125 33.085938 31.820312 34.453125 31.828125 34.75 C 31.929688 34.929688 32.394531 35.640625 33.511719 36.183594 C 34.511719 36.667969 35.148438 36.667969 35.371094 36.644531 C 35.570312 36.382812 36.1875 35.609375 37.308594 34.828125 Z M 38.804688 34.164062 C 38.492188 34.585938 38.09375 34.96875 37.632812 35.292969 C 36.578125 36.023438 36.003906 36.753906 35.832031 36.988281 C 35.894531 37.46875 35.832031 37.765625 35.691406 37.992188 C 35.910156 38.148438 36.078125 38.40625 36.066406 38.800781 C 36.113281 38.851562 36.160156 38.90625 36.195312 38.964844 C 36.246094 39.042969 36.328125 39.203125 36.351562 39.421875 C 37.464844 37.847656 38.300781 36.074219 38.804688 34.164062 Z M 35.289062 40.628906 C 35.84375 39.996094 35.875 39.511719 35.71875 39.261719 C 35.621094 39.113281 35.464844 39.054688 35.359375 39.085938 C 34.960938 39.195312 34.804688 39.664062 34.804688 39.671875 C 34.761719 39.816406 34.605469 39.902344 34.453125 39.855469 C 34.300781 39.8125 34.222656 39.65625 34.265625 39.507812 C 34.273438 39.492188 34.34375 39.257812 34.523438 39.019531 C 34.355469 39.171875 34.125 39.246094 33.824219 39.246094 C 33.667969 39.246094 33.496094 39.226562 33.304688 39.1875 C 32.4375 39.007812 31.113281 38.355469 30.453125 37.796875 C 30.339844 38.507812 30.238281 40.074219 31.378906 41.066406 C 32.015625 41.613281 32.648438 41.871094 33.269531 41.824219 C 33.964844 41.773438 34.640625 41.375 35.289062 40.628906 Z M 35.214844 38.546875 C 35.289062 38.527344 35.363281 38.515625 35.445312 38.523438 C 35.398438 38.457031 35.339844 38.417969 35.277344 38.398438 C 35.242188 38.421875 35.207031 38.445312 35.171875 38.46875 C 35.03125 38.5625 34.882812 38.660156 34.734375 38.804688 C 34.859375 38.695312 35.015625 38.601562 35.214844 38.546875 Z M 35.355469 11.578125 C 36.03125 10.15625 34.816406 8.328125 34.800781 8.3125 C 34.746094 8.234375 34.734375 8.128906 34.78125 8.039062 C 34.816406 7.964844 35.601562 6.199219 33.675781 3.953125 C 31.722656 1.671875 28.460938 2.234375 28.425781 2.238281 C 28.308594 2.257812 28.191406 2.203125 28.132812 2.101562 C 28.09375 2.039062 27.136719 0.53125 24.117188 1.097656 C 21.105469 1.667969 20.855469 3.902344 20.84375 3.996094 C 20.839844 4.070312 20.800781 4.140625 20.738281 4.191406 C 20.679688 4.238281 20.601562 4.261719 20.527344 4.25 C 20.425781 4.238281 18.039062 3.957031 17.117188 6.808594 C 16.734375 8.003906 16.929688 9.0625 17.695312 9.957031 C 18.074219 10.402344 18.507812 10.695312 18.769531 10.851562 C 18.800781 10.710938 18.933594 10.613281 19.082031 10.632812 C 19.238281 10.652344 19.34375 10.792969 19.324219 10.945312 C 19.296875 11.148438 19.28125 11.355469 19.277344 11.582031 C 19.257812 12.425781 19.601562 13.015625 19.828125 13.308594 C 19.863281 13.316406 19.890625 13.324219 19.921875 13.339844 C 20.382812 12.808594 21.523438 11.851562 23.765625 11.972656 C 25.871094 12.082031 27.488281 12.878906 28.46875 13.53125 C 29.210938 14.019531 29.714844 14.5 29.957031 14.753906 C 30.238281 14.589844 30.742188 14.363281 31.246094 14.5 L 31.480469 13.621094 C 31.476562 13.550781 31.496094 13.480469 31.53125 13.429688 L 31.820312 12.371094 C 31.859375 12.222656 32.015625 12.132812 32.167969 12.171875 C 32.316406 12.210938 32.40625 12.367188 32.367188 12.515625 L 32.167969 13.265625 C 33.859375 13.03125 34.929688 12.460938 35.355469 11.578125 Z M 35.046875 37.867188 C 35.230469 37.726562 35.308594 37.582031 35.289062 37.226562 C 35.257812 37.226562 35.230469 37.226562 35.199219 37.226562 C 34.8125 37.226562 34.160156 37.136719 33.257812 36.703125 C 32.210938 36.195312 31.667969 35.554688 31.4375 35.210938 C 31.320312 35.265625 31.042969 35.4375 31.046875 35.878906 C 31.054688 36.359375 30.867188 36.625 30.730469 36.8125 C 30.613281 36.976562 30.578125 37.027344 30.613281 37.15625 C 30.761719 37.453125 32.472656 38.527344 33.617188 38.671875 C 33.890625 38.707031 34.089844 38.675781 34.160156 38.589844 C 34.402344 38.300781 34.648438 38.132812 34.851562 38.003906 C 34.917969 37.957031 34.976562 37.917969 35.027344 37.882812 C 35.039062 37.878906 35.042969 37.871094 35.046875 37.867188 Z M 33.753906 42.3125 C 33.613281 42.347656 33.464844 42.375 33.320312 42.382812 C 33.257812 42.390625 33.199219 42.390625 33.144531 42.390625 C 32.898438 42.390625 32.648438 42.347656 32.402344 42.277344 C 32.464844 42.488281 32.59375 42.757812 32.863281 43.042969 C 33.167969 42.8125 33.464844 42.570312 33.753906 42.3125 Z M 33.265625 25.625 C 32.875 25.386719 32.726562 25.355469 32.613281 25.332031 C 32.359375 25.277344 32.21875 25.207031 31.734375 24.703125 C 31.007812 23.9375 30.03125 24.382812 30.019531 24.382812 C 29.992188 24.398438 29.960938 24.402344 29.929688 24.40625 C 27.792969 24.625 25.519531 25.632812 24.753906 25.996094 C 24.839844 26.160156 24.914062 26.34375 24.972656 26.554688 C 25.023438 26.71875 25.023438 26.957031 24.984375 27.214844 C 26.703125 26.4375 29.285156 26.140625 31.226562 25.921875 C 31.996094 25.824219 32.847656 25.730469 33.265625 25.625 Z M 32.40625 43.382812 C 31.914062 42.828125 31.804688 42.304688 31.789062 42.023438 C 31.53125 41.882812 31.273438 41.703125 31.023438 41.488281 C 30.792969 41.289062 30.601562 41.070312 30.449219 40.84375 C 28.21875 42.125 25.644531 42.921875 22.988281 43.160156 C 22.457031 43.203125 21.917969 43.226562 21.386719 43.226562 C 19.453125 43.226562 17.582031 42.917969 15.992188 42.328125 C 14.890625 41.917969 13.960938 41.390625 13.234375 40.769531 C 12.953125 40.53125 12.707031 40.277344 12.488281 40.011719 C 12.265625 40.144531 11.378906 40.761719 11.441406 41.972656 C 14.40625 44.753906 18.402344 46.457031 22.792969 46.457031 C 26.371094 46.449219 29.695312 45.3125 32.40625 43.382812 Z M 31.019531 18.058594 C 31.605469 17.648438 32.019531 16.671875 31.699219 15.757812 C 31.558594 15.355469 31.355469 15.113281 31.109375 15.042969 C 30.726562 14.933594 30.242188 15.222656 30.085938 15.34375 C 29.964844 15.4375 29.789062 15.417969 29.695312 15.304688 C 29.671875 15.277344 27.507812 12.730469 23.734375 12.535156 C 21.296875 12.410156 20.34375 13.679688 20.195312 13.914062 L 19.796875 16.441406 C 19.785156 16.523438 19.742188 16.585938 19.675781 16.632812 C 19.496094 16.808594 18.90625 17.9375 18.960938 18.304688 C 18.960938 18.320312 18.964844 18.335938 18.964844 18.351562 L 18.960938 19.695312 C 18.960938 20.941406 19.617188 21.734375 19.898438 22.015625 C 20.632812 22.753906 21.890625 23.257812 23.351562 23.398438 C 24.832031 23.539062 26.335938 23.289062 27.46875 22.707031 C 27.957031 22.457031 28.464844 22.105469 28.871094 21.609375 C 28.886719 21.589844 28.902344 21.5625 28.921875 21.550781 C 29.496094 20.820312 29.84375 19.789062 29.585938 18.351562 C 29.566406 18.238281 29.621094 18.121094 29.722656 18.0625 C 29.824219 18 29.957031 18.011719 30.046875 18.085938 C 30.417969 18.390625 30.816406 18.195312 31.019531 18.058594 Z M 29.800781 23.859375 C 29.269531 23.421875 29.027344 22.816406 28.917969 22.367188 C 28.582031 22.6875 28.175781 22.96875 27.71875 23.203125 C 26.671875 23.738281 25.40625 23.992188 24.160156 23.992188 C 23.488281 23.992188 22.828125 23.917969 22.203125 23.777344 C 22.238281 24.410156 22.4375 24.703125 22.933594 24.941406 C 23.011719 24.976562 23.058594 25.042969 23.082031 25.113281 C 23.316406 25.066406 23.59375 25.0625 23.875 25.160156 C 24.082031 25.238281 24.265625 25.355469 24.425781 25.527344 C 25.125 25.191406 27.492188 24.113281 29.800781 23.859375 Z M 24.925781 31.078125 C 25.519531 29.703125 24.980469 28.714844 24.617188 28.253906 C 24.355469 28.71875 24.007812 29.019531 23.609375 29.128906 C 23.472656 29.164062 23.328125 29.183594 23.175781 29.183594 C 22.878906 29.183594 22.550781 29.113281 22.25 28.988281 C 22.117188 30.359375 22.441406 31.621094 23.210938 32.746094 C 23.523438 33.199219 23.855469 33.546875 24.101562 33.773438 C 24.179688 33.242188 24.375 32.339844 24.925781 31.078125 Z M 24.132812 27.964844 C 24.421875 27.449219 24.480469 26.875 24.429688 26.714844 C 24.351562 26.441406 24.242188 26.222656 24.125 26.050781 C 24.117188 26.046875 24.113281 26.035156 24.109375 26.03125 C 23.980469 25.867188 23.839844 25.75 23.679688 25.691406 C 23.585938 25.65625 23.488281 25.640625 23.394531 25.640625 C 23.046875 25.640625 22.742188 25.832031 22.742188 25.832031 C 22.71875 25.847656 22.691406 25.859375 22.664062 25.867188 C 22.632812 25.875 21.917969 26.097656 21.589844 27.140625 C 21.484375 27.480469 21.574219 27.792969 21.851562 28.074219 C 22.25 28.480469 22.980469 28.714844 23.449219 28.585938 C 23.78125 28.503906 24.003906 28.199219 24.132812 27.964844 Z M 22.480469 25.347656 C 22.484375 25.347656 22.484375 25.339844 22.492188 25.339844 C 21.816406 24.941406 21.648438 24.378906 21.640625 23.628906 C 21.097656 23.457031 20.59375 23.226562 20.160156 22.949219 C 19.957031 23.359375 19.453125 24.53125 19.8125 25.570312 C 20.003906 26.136719 20.429688 26.589844 21.082031 26.921875 C 21.464844 25.761719 22.28125 25.417969 22.480469 25.347656 Z M 21.589844 28.589844 C 21.542969 28.550781 21.5 28.507812 21.457031 28.46875 C 21.242188 28.246094 21.097656 27.996094 21.03125 27.730469 C 20.964844 27.746094 20.898438 27.734375 20.839844 27.703125 C 20.800781 27.683594 19.820312 27.203125 18.617188 28.382812 C 17.929688 29.0625 17.292969 29.503906 16.816406 29.78125 C 18.054688 29.914062 20.316406 29.929688 21.589844 28.589844 Z M 19.695312 22.609375 C 19.699219 22.609375 19.699219 22.601562 19.695312 22.609375 C 19.625 22.542969 19.554688 22.472656 19.484375 22.410156 C 19.15625 22.074219 18.386719 21.144531 18.386719 19.695312 L 18.390625 18.371094 C 18.347656 18.007812 18.550781 17.476562 18.738281 17.097656 C 18.816406 16.941406 19.042969 16.492188 19.246094 16.269531 L 19.617188 13.941406 C 19.609375 13.933594 19.605469 13.929688 19.601562 13.925781 C 17.363281 14.355469 15.273438 15.230469 13.390625 16.519531 C 12.972656 17.121094 12.4375 17.515625 12.222656 17.65625 C 12.277344 17.996094 12.363281 18.894531 11.894531 19.679688 C 12.300781 20.429688 12.28125 21.265625 12.246094 21.625 C 12.507812 21.789062 13.164062 22.128906 13.902344 21.929688 C 14.527344 21.757812 14.945312 21.882812 15.390625 22.015625 C 15.824219 22.144531 16.269531 22.273438 17.050781 22.171875 C 18.304688 22.007812 19.246094 22.378906 19.695312 22.609375 Z M 19.34375 25.925781 C 19.316406 25.867188 19.296875 25.8125 19.273438 25.746094 C 18.941406 24.773438 19.210938 23.742188 19.460938 23.117188 C 19.097656 22.929688 18.246094 22.578125 17.128906 22.722656 C 16.230469 22.839844 15.675781 22.671875 15.234375 22.542969 C 14.824219 22.421875 14.527344 22.332031 14.054688 22.464844 C 12.804688 22.796875 11.808594 22 11.769531 21.964844 C 11.691406 21.898438 11.652344 21.800781 11.671875 21.699219 C 11.671875 21.6875 11.804688 20.90625 11.507812 20.164062 C 11.394531 20.269531 11.269531 20.371094 11.128906 20.460938 C 10.550781 20.824219 9.835938 20.984375 9.125 20.984375 C 8.132812 20.984375 7.148438 20.667969 6.574219 20.160156 C 6.398438 20.945312 6.152344 22.734375 6.9375 24.761719 C 6.988281 24.816406 7.019531 24.886719 7.019531 24.960938 C 7.121094 25.195312 7.230469 25.4375 7.363281 25.675781 C 9.027344 28.777344 12.882812 29.839844 12.921875 29.847656 C 13.007812 29.875 13.078125 29.933594 13.109375 30.011719 C 13.144531 30.09375 13.132812 30.1875 13.089844 30.261719 C 13.082031 30.273438 12.503906 31.226562 12.109375 32.699219 C 11.75 34.050781 11.472656 36.128906 12.195312 38.355469 C 12.363281 38.867188 12.648438 39.347656 13.042969 39.796875 C 12.953125 38.714844 12.898438 36.65625 13.378906 34.285156 C 13.707031 32.699219 14.285156 30.828125 14.976562 29.148438 C 15.375 28.167969 16.128906 26.492188 16.679688 26.214844 C 17.226562 25.945312 18.59375 25.914062 19.34375 25.925781 Z M 14.414062 10.65625 C 14.640625 10.347656 14.695312 10.078125 14.578125 9.851562 C 14.417969 9.53125 13.910156 9.296875 13.34375 9.292969 C 13.339844 9.292969 13.339844 9.292969 13.335938 9.292969 C 12.65625 9.292969 12.015625 10.355469 11.773438 10.863281 C 12.039062 11.398438 12.140625 11.964844 12 12.425781 C 11.828125 12.984375 11.335938 13.308594 10.636719 13.332031 C 10.5 13.574219 10.28125 13.769531 9.996094 13.894531 C 10.015625 14.363281 9.84375 14.789062 9.515625 15.0625 C 9.523438 15.09375 9.523438 15.125 9.523438 15.152344 C 9.542969 15.683594 9.226562 16.132812 8.695312 16.324219 C 8.078125 16.546875 7.15625 16.398438 6.496094 15.558594 C 6.464844 15.519531 6.445312 15.480469 6.441406 15.433594 C 6.425781 15.332031 6.460938 15.234375 6.546875 15.167969 C 6.667969 15.074219 6.847656 15.09375 6.945312 15.21875 C 7.425781 15.839844 8.078125 15.957031 8.507812 15.804688 C 8.652344 15.753906 8.976562 15.589844 8.964844 15.179688 C 8.949219 14.792969 8.332031 14.355469 7.617188 14.21875 C 7.15625 14.128906 6.597656 14.175781 6.429688 14.554688 C 6.289062 14.875 6.273438 15.183594 6.3125 15.453125 C 6.382812 15.921875 6.632812 16.277344 6.695312 16.367188 C 7.699219 17.226562 8.863281 17.652344 10.148438 17.628906 C 10.925781 17.613281 11.523438 17.433594 11.734375 17.355469 C 11.753906 17.308594 11.792969 17.265625 11.84375 17.238281 C 11.859375 17.226562 12.40625 16.886719 12.851562 16.296875 C 12.867188 16.234375 12.902344 16.167969 12.960938 16.128906 C 12.96875 16.125 12.972656 16.125 12.972656 16.117188 C 13.242188 15.703125 13.433594 15.1875 13.375 14.59375 C 13.183594 12.742188 13.589844 11.78125 14.414062 10.65625 Z M 11.570312 32.542969 C 11.855469 31.488281 12.222656 30.699219 12.433594 30.289062 C 12.03125 30.152344 11.316406 29.882812 10.496094 29.429688 C 9.351562 28.800781 7.792969 27.679688 6.863281 25.941406 C 6.835938 25.890625 6.8125 25.847656 6.789062 25.796875 C 6.417969 27.171875 6.226562 28.59375 6.226562 30.027344 C 6.226562 34.460938 8.007812 38.480469 10.890625 41.441406 C 11.054688 40.339844 11.84375 39.742188 12.144531 39.546875 C 11.933594 39.222656 11.773438 38.882812 11.65625 38.527344 C 10.886719 36.164062 11.183594 33.964844 11.570312 32.542969 Z M 11.402344 19.40625 C 11.714844 18.894531 11.726562 18.304688 11.699219 17.953125 C 11.375 18.046875 10.839844 18.167969 10.183594 18.179688 C 9.214844 18.203125 7.792969 17.992188 6.433594 16.878906 C 6.382812 16.902344 6.332031 16.941406 6.304688 17.003906 C 6.238281 17.132812 6.296875 17.320312 6.363281 17.460938 C 6.5625 17.890625 6.535156 18.246094 6.511719 18.554688 C 6.480469 18.9375 6.460938 19.214844 6.835938 19.636719 C 7.5625 20.441406 9.585938 20.769531 10.820312 19.992188 C 11.007812 19.871094 11.152344 19.734375 11.273438 19.585938 C 11.296875 19.511719 11.335938 19.449219 11.402344 19.40625 Z M 11.460938 12.265625 C 11.640625 11.675781 11.214844 10.621094 10.316406 10.046875 C 9.894531 9.777344 9.511719 9.683594 9.179688 9.761719 C 8.96875 9.8125 8.808594 9.925781 8.695312 10.03125 C 9.730469 10.265625 10.613281 11.347656 10.78125 12.320312 C 10.804688 12.476562 10.816406 12.625 10.804688 12.765625 C 11.152344 12.710938 11.375 12.546875 11.460938 12.265625 Z M 9.878906 13.332031 C 10.183594 13.148438 10.296875 12.84375 10.222656 12.410156 C 10.074219 11.566406 9.179688 10.542969 8.28125 10.542969 C 7.898438 10.542969 7.613281 10.648438 7.433594 10.863281 C 7.164062 11.171875 7.15625 11.636719 7.171875 11.859375 C 7.28125 11.847656 7.398438 11.839844 7.515625 11.835938 C 7.527344 11.835938 7.542969 11.835938 7.554688 11.835938 C 8.792969 11.835938 9.597656 12.5625 9.878906 13.332031 Z M 9.269531 14.507812 C 9.429688 14.285156 9.476562 13.960938 9.382812 13.613281 C 9.21875 13.050781 8.644531 12.394531 7.558594 12.394531 C 7.546875 12.394531 7.539062 12.394531 7.527344 12.394531 C 7.023438 12.402344 6.679688 12.535156 6.5 12.789062 C 6.289062 13.09375 6.324219 13.53125 6.382812 13.808594 C 6.726562 13.621094 7.191406 13.566406 7.722656 13.664062 C 8.324219 13.78125 8.9375 14.085938 9.269531 14.507812 Z M 9.269531 14.507812 " fill-opacity="1" fill-rule="nonzero"/></g><path fill="#4e1d0f" d="M 23.316406 13.484375 L 23.203125 12.90625 C 23.203125 12.90625 23.730469 12.808594 24.257812 12.933594 C 24.792969 13.066406 25.039062 13.519531 25.039062 13.519531 C 25.039062 13.519531 23.972656 13.246094 23.316406 13.484375 Z M 23.316406 13.484375 " fill-opacity="1" fill-rule="nonzero"/><path fill="#4e1d0f" d="M 21.507812 13.515625 L 21.46875 12.925781 C 21.46875 12.925781 20.933594 12.964844 20.453125 13.230469 C 19.96875 13.496094 19.851562 14 19.851562 14 C 19.851562 14 20.8125 13.449219 21.507812 13.515625 Z M 21.507812 13.515625 " fill-opacity="1" fill-rule="nonzero"/><path fill="#4e1d0f" d="M 21.21875 14.972656 C 21.21875 15.078125 21.203125 15.183594 21.1875 15.289062 C 21.167969 15.394531 21.140625 15.5 21.105469 15.601562 C 21.070312 15.707031 21.019531 15.808594 20.960938 15.902344 C 20.898438 16 20.820312 16.09375 20.71875 16.167969 L 20.636719 16.21875 C 20.628906 16.222656 20.628906 16.222656 20.621094 16.226562 L 20.613281 16.234375 C 20.609375 16.238281 20.597656 16.242188 20.59375 16.246094 C 20.566406 16.269531 20.542969 16.292969 20.527344 16.328125 C 20.492188 16.386719 20.464844 16.460938 20.464844 16.542969 C 20.457031 16.703125 20.523438 16.863281 20.632812 16.972656 C 20.742188 17.082031 20.910156 17.152344 21.089844 17.175781 C 21.183594 17.191406 21.277344 17.191406 21.375 17.1875 L 21.519531 17.175781 C 21.570312 17.171875 21.613281 17.164062 21.664062 17.15625 C 21.851562 17.121094 22.039062 17.0625 22.183594 16.941406 C 22.328125 16.828125 22.445312 16.648438 22.480469 16.441406 C 22.519531 16.652344 22.457031 16.886719 22.308594 17.066406 C 22.292969 17.09375 22.269531 17.113281 22.25 17.132812 C 22.230469 17.152344 22.210938 17.175781 22.183594 17.191406 L 22.078125 17.273438 L 22.042969 17.292969 C 21.992188 17.320312 21.941406 17.351562 21.886719 17.371094 C 21.832031 17.390625 21.78125 17.417969 21.726562 17.433594 C 21.671875 17.445312 21.613281 17.460938 21.558594 17.476562 L 21.394531 17.503906 C 21.28125 17.515625 21.167969 17.523438 21.046875 17.511719 C 20.929688 17.503906 20.808594 17.476562 20.691406 17.433594 C 20.578125 17.386719 20.464844 17.316406 20.375 17.226562 C 20.285156 17.136719 20.214844 17.023438 20.167969 16.902344 C 20.128906 16.777344 20.109375 16.648438 20.125 16.519531 C 20.140625 16.386719 20.183594 16.257812 20.265625 16.148438 C 20.304688 16.09375 20.359375 16.042969 20.421875 16.007812 C 20.4375 16 20.453125 15.988281 20.464844 15.984375 L 20.511719 15.964844 L 20.566406 15.9375 C 20.636719 15.898438 20.714844 15.84375 20.773438 15.773438 C 20.835938 15.703125 20.894531 15.625 20.949219 15.539062 C 21.046875 15.359375 21.136719 15.167969 21.21875 14.972656 Z M 21.21875 14.972656 " fill-opacity="1" fill-rule="nonzero"/><path fill="#4e1d0f" d="M 21.71875 17.273438 C 21.71875 17.273438 22.933594 16.488281 24.289062 17.550781 C 25.644531 18.617188 27.652344 17.808594 27.652344 17.808594 C 27.652344 17.808594 26.632812 19.957031 24.128906 20.011719 C 21.625 20.066406 20.894531 18.945312 21.050781 17.515625 Z M 21.71875 17.273438 " fill-opacity="1" fill-rule="nonzero"/><path fill="#4e1d0f" d="M 20.996094 17.273438 C 20.996094 17.273438 20.089844 16.488281 19.082031 17.550781 C 18.074219 18.617188 16.574219 17.808594 16.574219 17.808594 C 16.574219 17.808594 17.332031 19.957031 19.207031 20.011719 C 21.082031 20.066406 21.621094 18.945312 21.503906 17.515625 Z M 20.996094 17.273438 " fill-opacity="1" fill-rule="nonzero"/><path fill="#4e1d0f" d="M 27.023438 12.816406 C 27.023438 12.816406 27.890625 13.644531 28.203125 15.253906 C 28.515625 16.863281 28.375 17.707031 28.375 17.707031 L 29.054688 18.460938 C 29.054688 18.460938 30.003906 17.171875 29.894531 15.382812 L 29.332031 14.335938 Z M 27.023438 12.816406 " fill-opacity="1" fill-rule="nonzero"/><path fill="#4e1d0f" d="M 27.351562 10.148438 C 27.351562 10.148438 28.460938 10.527344 30.042969 11.746094 C 31.617188 12.964844 32.003906 13.738281 32.003906 13.738281 L 32.449219 12.089844 C 32.449219 12.089844 30.898438 10.515625 27.351562 10.148438 Z M 27.351562 10.148438 " fill-opacity="1" fill-rule="nonzero"/><path fill="#4e1d0f" d="M 18.042969 6.800781 C 18.042969 6.800781 17.835938 7.503906 18.234375 8.574219 C 18.632812 9.636719 19.882812 10.292969 19.882812 10.292969 L 18.933594 10.917969 C 18.933594 10.917969 17.222656 10.003906 18.042969 6.800781 Z M 18.042969 6.800781 " fill-opacity="1" fill-rule="nonzero"/><path fill="#4e1d0f" d="M 21.089844 2.628906 L 21.558594 2.414062 C 21.558594 2.414062 20.777344 3.652344 20.847656 4.890625 C 20.917969 6.128906 21.125 6.539062 21.125 6.539062 C 21.125 6.539062 19.558594 3.957031 21.089844 2.628906 Z M 21.089844 2.628906 " fill-opacity="1" fill-rule="nonzero"/><path fill="#4e1d0f" d="M 34.8125 5.390625 C 34.8125 5.390625 35.207031 7.109375 34.691406 8.023438 C 34.171875 8.9375 33.507812 9.257812 33.507812 9.257812 C 33.507812 9.257812 35.097656 8.867188 35.410156 7.679688 C 35.722656 6.496094 34.8125 5.390625 34.8125 5.390625 Z M 34.8125 5.390625 " fill-opacity="1" fill-rule="nonzero"/><path fill="#4e1d0f" d="M 30.605469 11.496094 L 30.785156 11.035156 C 30.785156 11.035156 31.386719 11.496094 32.609375 11.566406 C 33.832031 11.636719 34.421875 10.792969 34.421875 10.792969 C 34.421875 10.792969 34.191406 11.582031 33.511719 11.984375 C 32.835938 12.390625 31.933594 12.347656 31.933594 12.347656 Z M 30.605469 11.496094 " fill-opacity="1" fill-rule="nonzero"/><path fill="#4e1d0f" d="M 29.785156 1.910156 C 29.785156 1.910156 28.246094 1.953125 27.664062 2.808594 C 27.078125 3.65625 27.210938 4.429688 27.210938 4.429688 C 27.210938 4.429688 26.71875 3.707031 27.027344 2.71875 C 27.339844 1.722656 28.773438 1.648438 28.773438 1.648438 Z M 29.785156 1.910156 " fill-opacity="1" fill-rule="nonzero"/><path fill="#4e1d0f" d="M 20.910156 14.972656 C 20.910156 15.152344 20.871094 15.304688 20.792969 15.429688 C 20.714844 15.554688 20.621094 15.617188 20.511719 15.617188 C 20.402344 15.617188 20.308594 15.554688 20.230469 15.429688 C 20.152344 15.304688 20.113281 15.152344 20.113281 14.972656 C 20.113281 14.796875 20.152344 14.644531 20.230469 14.519531 C 20.308594 14.390625 20.402344 14.328125 20.511719 14.328125 C 20.621094 14.328125 20.714844 14.390625 20.792969 14.519531 C 20.871094 14.644531 20.910156 14.796875 20.910156 14.972656 Z M 20.910156 14.972656 " fill-opacity="1" fill-rule="nonzero"/><path fill="#4e1d0f" d="M 23.945312 14.972656 C 23.945312 15.152344 23.90625 15.304688 23.832031 15.429688 C 23.753906 15.554688 23.660156 15.617188 23.550781 15.617188 C 23.4375 15.617188 23.34375 15.554688 23.265625 15.429688 C 23.191406 15.304688 23.152344 15.152344 23.152344 14.972656 C 23.152344 14.796875 23.191406 14.644531 23.265625 14.519531 C 23.34375 14.390625 23.4375 14.328125 23.550781 14.328125 C 23.660156 14.328125 23.753906 14.390625 23.832031 14.519531 C 23.90625 14.644531 23.945312 14.796875 23.945312 14.972656 Z M 23.945312 14.972656 " fill-opacity="1" fill-rule="nonzero"/><path fill="#4e1d0f" d="M 24.027344 22.582031 C 24.027344 22.582031 23.03125 23.246094 21.4375 22.902344 C 19.847656 22.558594 19.53125 21.8125 19.53125 21.8125 L 20.871094 23.15625 C 20.863281 23.164062 22.953125 24.210938 24.027344 22.582031 Z M 24.027344 22.582031 " fill-opacity="1" fill-rule="nonzero"/><path fill="#4e1d0f" d="M 23.265625 20.953125 C 23.125 21.222656 22.925781 21.5 22.632812 21.753906 C 21.578125 22.671875 20.871094 21.734375 20.980469 21.007812 C 20.984375 20.996094 20.984375 20.972656 20.984375 20.960938 C 21.082031 20.25 20.980469 19.511719 20.980469 19.511719 C 21.917969 19.871094 23.589844 19.605469 23.589844 19.605469 C 23.589844 19.605469 23.640625 20.253906 23.265625 20.953125 Z M 23.265625 20.953125 " fill-opacity="1" fill-rule="nonzero"/><path fill="#e22b2b" d="M 23.265625 20.953125 C 23.125 21.222656 22.925781 21.5 22.632812 21.753906 C 21.578125 22.671875 20.871094 21.734375 20.980469 21.007812 C 20.984375 20.996094 20.984375 20.972656 20.984375 20.960938 C 21.253906 20.644531 21.664062 20.441406 22.128906 20.441406 C 22.59375 20.445312 23 20.644531 23.265625 20.953125 Z M 23.265625 20.953125 " fill-opacity="1" fill-rule="nonzero"/><path fill="#4e1d0f" d="M 21.800781 22.296875 C 21.613281 22.296875 21.46875 22.242188 21.375 22.1875 C 20.980469 21.972656 20.75 21.46875 20.824219 20.988281 C 20.929688 20.300781 20.824219 19.546875 20.824219 19.539062 C 20.8125 19.484375 20.839844 19.429688 20.882812 19.394531 C 20.929688 19.359375 20.992188 19.351562 21.039062 19.371094 C 21.925781 19.710938 23.550781 19.457031 23.5625 19.457031 C 23.609375 19.449219 23.65625 19.460938 23.691406 19.484375 C 23.726562 19.511719 23.746094 19.554688 23.75 19.59375 C 23.753906 19.652344 23.847656 20.914062 22.742188 21.875 C 22.367188 22.199219 22.046875 22.296875 21.800781 22.296875 Z M 21.167969 19.742188 C 21.191406 20.035156 21.21875 20.542969 21.140625 21.035156 C 21.089844 21.378906 21.257812 21.765625 21.527344 21.910156 C 21.800781 22.058594 22.160156 21.957031 22.53125 21.632812 C 23.285156 20.972656 23.414062 20.140625 23.433594 19.789062 C 23.003906 19.84375 21.949219 19.945312 21.167969 19.742188 Z M 21.167969 19.742188 " fill-opacity="1" fill-rule="nonzero"/><path fill="#4e1d0f" d="M 17.515625 28.464844 C 17.515625 28.605469 17.464844 28.726562 17.363281 28.824219 C 17.265625 28.925781 17.144531 28.972656 17 28.972656 C 16.859375 28.972656 16.738281 28.925781 16.636719 28.824219 C 16.539062 28.726562 16.488281 28.605469 16.488281 28.464844 C 16.488281 28.324219 16.539062 28.203125 16.636719 28.105469 C 16.738281 28.003906 16.859375 27.953125 17 27.953125 C 17.144531 27.953125 17.265625 28.003906 17.363281 28.105469 C 17.464844 28.203125 17.515625 28.324219 17.515625 28.464844 Z M 17.515625 28.464844 " fill-opacity="1" fill-rule="nonzero"/><path fill="#4e1d0f" d="M 15.945312 33.886719 C 15.945312 34.027344 15.894531 34.144531 15.792969 34.246094 C 15.691406 34.34375 15.570312 34.394531 15.429688 34.394531 C 15.289062 34.394531 15.167969 34.34375 15.066406 34.246094 C 14.964844 34.144531 14.917969 34.027344 14.917969 33.886719 C 14.917969 33.746094 14.964844 33.625 15.066406 33.523438 C 15.167969 33.425781 15.289062 33.375 15.429688 33.375 C 15.570312 33.375 15.691406 33.425781 15.792969 33.523438 C 15.894531 33.625 15.945312 33.746094 15.945312 33.886719 Z M 15.945312 33.886719 " fill-opacity="1" fill-rule="nonzero"/><path fill="#4e1d0f" d="M 15.6875 39.3125 C 15.6875 39.453125 15.636719 39.570312 15.535156 39.671875 C 15.4375 39.769531 15.316406 39.820312 15.171875 39.820312 C 15.03125 39.820312 14.910156 39.769531 14.808594 39.671875 C 14.710938 39.570312 14.660156 39.453125 14.660156 39.3125 C 14.660156 39.171875 14.710938 39.050781 14.808594 38.949219 C 14.910156 38.851562 15.03125 38.800781 15.171875 38.800781 C 15.316406 38.800781 15.4375 38.851562 15.535156 38.949219 C 15.636719 39.050781 15.6875 39.171875 15.6875 39.3125 Z M 15.6875 39.3125 " fill-opacity="1" fill-rule="nonzero"/><path fill="#4e1d0f" d="M 24.101562 41.058594 C 24.101562 41.199219 24.054688 41.320312 23.953125 41.421875 C 23.851562 41.519531 23.730469 41.570312 23.589844 41.570312 C 23.449219 41.570312 23.328125 41.519531 23.226562 41.421875 C 23.125 41.320312 23.074219 41.199219 23.074219 41.058594 C 23.074219 40.917969 23.125 40.800781 23.226562 40.699219 C 23.328125 40.601562 23.449219 40.550781 23.589844 40.550781 C 23.730469 40.550781 23.851562 40.601562 23.953125 40.699219 C 24.054688 40.800781 24.101562 40.917969 24.101562 41.058594 Z M 24.101562 41.058594 " fill-opacity="1" fill-rule="nonzero"/><path fill="#4e1d0f" d="M 24.457031 35.308594 C 24.457031 35.449219 24.40625 35.570312 24.304688 35.667969 C 24.203125 35.769531 24.082031 35.820312 23.941406 35.820312 C 23.800781 35.820312 23.679688 35.769531 23.578125 35.667969 C 23.476562 35.570312 23.429688 35.449219 23.429688 35.308594 C 23.429688 35.167969 23.476562 35.046875 23.578125 34.949219 C 23.679688 34.847656 23.800781 34.800781 23.941406 34.800781 C 24.082031 34.800781 24.203125 34.847656 24.304688 34.949219 C 24.40625 35.046875 24.457031 35.167969 24.457031 35.308594 Z M 24.457031 35.308594 " fill-opacity="1" fill-rule="nonzero"/><path fill="#4e1d0f" d="M 19.042969 11.835938 C 19.042969 11.835938 18.96875 11.046875 20.6875 10.46875 C 22.402344 9.886719 24.339844 9.886719 24.339844 9.886719 C 24.339844 9.886719 23.082031 9.546875 21.300781 9.746094 C 19.523438 9.949219 18.992188 10.289062 18.886719 10.910156 C 18.769531 11.542969 19.042969 11.835938 19.042969 11.835938 Z M 19.042969 11.835938 " fill-opacity="1" fill-rule="nonzero"/><path fill="#4e1d0f" d="M 11.863281 20.859375 C 11.863281 20.859375 11.738281 21.472656 11.304688 21.820312 C 10.867188 22.164062 10.074219 22.503906 10.074219 22.503906 C 10.074219 22.503906 11.304688 22.429688 11.867188 21.980469 C 12.429688 21.527344 11.863281 20.859375 11.863281 20.859375 Z M 11.863281 20.859375 " fill-opacity="1" fill-rule="nonzero"/><path fill="#4e1d0f" d="M 12.394531 30.710938 C 12.394531 30.710938 13.023438 29.324219 14.242188 28.578125 C 14.242188 28.578125 12.863281 30.359375 12.628906 31.207031 C 12.394531 32.054688 12.394531 30.710938 12.394531 30.710938 Z M 12.394531 30.710938 " fill-opacity="1" fill-rule="nonzero"/><path fill="#4e1d0f" d="M 32.996094 25.320312 C 32.996094 25.320312 32.574219 25.101562 31.335938 25.242188 C 30.097656 25.382812 29.210938 25.601562 29.210938 25.601562 C 29.210938 25.601562 30.121094 25.171875 31.175781 24.925781 C 32.226562 24.683594 32.996094 25.320312 32.996094 25.320312 Z M 32.996094 25.320312 " fill-opacity="1" fill-rule="nonzero"/><path fill="#4e1d0f" d="M 21.316406 27.710938 C 21.316406 27.710938 21.765625 28.113281 22.605469 27.941406 C 23.449219 27.765625 23.8125 26.769531 23.8125 26.769531 C 23.8125 26.769531 23.882812 27.535156 23.132812 28.042969 C 22.378906 28.554688 21.847656 28.597656 21.847656 28.597656 Z M 21.316406 27.710938 " fill-opacity="1" fill-rule="nonzero"/><path fill="#4e1d0f" d="M 22.195312 25.804688 C 22.195312 25.804688 21.800781 25.640625 21.4375 25.0625 C 21.074219 24.480469 21.03125 23.96875 21.03125 23.96875 C 21.03125 23.96875 20.898438 24.367188 21.074219 25.140625 C 21.253906 25.914062 21.777344 26.378906 21.777344 26.378906 Z M 22.195312 25.804688 " fill-opacity="1" fill-rule="nonzero"/><path fill="#4e1d0f" d="M 21.277344 28.054688 C 21.277344 28.054688 20.515625 28.007812 19.886719 28.464844 C 19.257812 28.914062 18.496094 29.273438 18.496094 29.273438 C 18.496094 29.273438 19.140625 29.359375 19.886719 28.972656 C 20.636719 28.589844 21.707031 28.355469 21.71875 28.378906 C 21.730469 28.402344 21.277344 28.054688 21.277344 28.054688 Z M 21.277344 28.054688 " fill-opacity="1" fill-rule="nonzero"/><path fill="#4e1d0f" d="M 23.144531 28.71875 C 23.144531 28.71875 23.40625 29.554688 23.429688 30.527344 C 23.449219 31.5 23.429688 32.152344 23.429688 32.152344 C 23.429688 32.152344 23.703125 31.300781 23.742188 30.296875 C 23.769531 29.292969 23.742188 28.910156 23.742188 28.910156 Z M 23.144531 28.71875 " fill-opacity="1" fill-rule="nonzero"/><path fill="#4e1d0f" d="M 31.828125 32.496094 C 31.828125 32.496094 31.828125 32.125 31.644531 31.722656 C 31.457031 31.316406 31.175781 31.117188 31.175781 31.117188 C 31.175781 31.117188 32.179688 31.082031 32.519531 31.722656 Z M 31.828125 32.496094 " fill-opacity="1" fill-rule="nonzero"/><path fill="#4e1d0f" d="M 29.96875 16.9375 C 29.96875 16.9375 30.167969 15.546875 30.785156 15.546875 C 31.40625 15.546875 31.359375 16.40625 31.359375 16.40625 C 31.359375 16.40625 31.199219 15.96875 30.835938 15.96875 C 30.472656 15.96875 29.96875 16.9375 29.96875 16.9375 Z M 29.96875 16.9375 " fill-opacity="1" fill-rule="nonzero"/><path fill="#4e1d0f" d="M 11.726562 17.660156 C 11.726562 17.660156 12.105469 17.265625 12 16.519531 C 11.894531 15.769531 11.351562 15.125 11.351562 15.125 C 11.351562 15.125 12.417969 15.75 12.519531 16.394531 C 12.621094 17.042969 11.726562 17.660156 11.726562 17.660156 Z M 11.726562 17.660156 " fill-opacity="1" fill-rule="nonzero"/></svg>