<svg xmlns="http://www.w3.org/2000/svg" xmlns:xlink="http://www.w3.org/1999/xlink" width="60" zoomAndPan="magnify" viewBox="0 0 45 48" height="64" preserveAspectRatio="xMidYMid meet" version="1.0"><defs><clipPath id="eae82df74c"><path d="M 2.664062 8 L 41 8 L 41 47 L 2.664062 47 Z M 2.664062 8 " clip-rule="nonzero"/></clipPath><clipPath id="6cf1e1468c"><path d="M 3 0 L 42 0 L 42 47.019531 L 3 47.019531 Z M 3 0 " clip-rule="nonzero"/></clipPath></defs><g clip-path="url(#eae82df74c)"><path fill="#000000" d="M 40.984375 27.339844 C 40.984375 37.949219 32.410156 46.550781 21.832031 46.550781 C 11.257812 46.550781 2.683594 37.949219 2.683594 27.339844 C 2.683594 16.726562 11.257812 8.125 21.832031 8.125 C 32.410156 8.125 40.984375 16.726562 40.984375 27.339844 " fill-opacity="1" fill-rule="nonzero"/></g><path fill="#ce2727" d="M 40.007812 27.339844 C 40.007812 37.40625 31.871094 45.570312 21.832031 45.570312 C 11.796875 45.570312 3.660156 37.40625 3.660156 27.339844 C 3.660156 17.269531 11.796875 9.105469 21.832031 9.105469 C 31.871094 9.105469 40.007812 17.269531 40.007812 27.339844 " fill-opacity="1" fill-rule="nonzero"/><path fill="#eca457" d="M 21.996094 43.132812 C 19.636719 43.347656 17.199219 43.277344 14.84375 43.1875 C 15.1875 43.339844 15.636719 43.386719 15.980469 43.542969 C 15.675781 43.570312 15.367188 43.597656 15.03125 43.597656 C 15.515625 43.980469 16.191406 44.175781 16.738281 44.492188 C 16.394531 44.519531 16.0625 44.394531 15.765625 44.464844 C 16.484375 44.972656 17.726562 45.40625 18.988281 45.171875 C 19.792969 45.023438 20.625 44.535156 21.398438 44.167969 C 22.230469 43.769531 23.007812 43.363281 23.675781 43.023438 C 22.5 43.015625 21.886719 43.710938 20.9375 43.839844 C 21.246094 43.558594 21.660156 43.386719 21.996094 43.132812 " fill-opacity="1" fill-rule="nonzero"/><path fill="#ffffff" d="M 26.738281 40.742188 C 25.636719 41.304688 24.214844 41.359375 22.753906 41.53125 C 21.292969 41.703125 19.746094 41.691406 18.203125 41.691406 C 16.65625 41.691406 15.117188 41.695312 13.652344 41.53125 C 12.203125 41.367188 10.769531 41.300781 9.695312 40.714844 C 9.597656 40.65625 9.785156 40.480469 9.640625 40.46875 C 8.886719 40.648438 8.054688 40.742188 7.554688 41.175781 C 7.847656 41.566406 8.398438 41.6875 8.882812 41.800781 C 10.515625 42.183594 12.3125 42.300781 14.164062 42.398438 C 16.671875 42.535156 19.386719 42.621094 21.859375 42.453125 C 23.789062 42.324219 25.785156 42.203125 27.441406 41.828125 C 27.96875 41.710938 28.570312 41.597656 28.875 41.175781 C 28.382812 40.730469 27.535156 40.640625 26.765625 40.46875 C 26.691406 40.546875 26.871094 40.675781 26.738281 40.742188 " fill-opacity="1" fill-rule="nonzero"/><path fill="#b3b2b3" d="M 18.960938 31.9375 C 19.097656 31.679688 19.15625 31.503906 19.097656 31.3125 C 18.917969 30.75 17.65625 30.71875 17.390625 31.203125 C 17.285156 31.386719 17.316406 31.75 17.46875 31.910156 C 17.742188 32.1875 18.621094 32.152344 18.960938 31.9375 " fill-opacity="1" fill-rule="nonzero"/><path fill="#ffffff" d="M 18.066406 30.195312 C 16.363281 29.945312 14.683594 29.542969 13.921875 28.566406 C 13.917969 28.550781 13.917969 28.535156 13.894531 28.539062 C 12.742188 29.339844 11.707031 30.5625 10.914062 32.015625 C 10.128906 33.457031 9.625 35.148438 9.503906 36.964844 C 9.480469 37.34375 9.476562 37.683594 9.503906 38.023438 C 9.523438 38.269531 9.546875 38.585938 9.667969 38.839844 C 10.285156 34.71875 12.628906 32.332031 16.957031 31.9375 C 16.3125 30.621094 17.96875 30.039062 19.015625 30.441406 C 19.53125 30.640625 19.714844 31.269531 19.503906 31.9375 C 20.421875 32.003906 21.222656 32.1875 21.96875 32.425781 C 22.722656 31.820312 23.4375 31.082031 24 30.304688 C 24.191406 30.039062 24.386719 29.769531 24.488281 29.460938 C 24.011719 29.734375 23.484375 30.175781 22.890625 30.304688 C 21.476562 30.609375 19.601562 30.425781 18.066406 30.195312 " fill-opacity="1" fill-rule="nonzero"/><path fill="#ffffff" d="M 14.515625 28.210938 C 14.921875 28.574219 15.460938 28.769531 16.007812 28.972656 C 17.636719 29.585938 19.632812 29.871094 21.941406 29.789062 C 21.957031 29.554688 21.644531 29.417969 21.480469 29.273438 C 18.371094 29.210938 16.121094 28.289062 14.515625 26.71875 C 14.546875 27.1875 14.5 27.679688 14.515625 28.210938 " fill-opacity="1" fill-rule="nonzero"/><path fill="#c7c7c7" d="M 18.203125 32.5625 C 17.832031 32.558594 17.453125 32.507812 17.0625 32.535156 C 15.203125 32.652344 13.582031 33.386719 12.429688 34.519531 C 11.046875 35.875 10.019531 37.863281 10.265625 40.414062 C 12.507812 41.015625 15.367188 41.257812 18.203125 41.257812 C 21.046875 41.257812 23.917969 41.023438 26.167969 40.414062 C 26.417969 38.773438 25.960938 37.46875 25.382812 36.339844 C 24.558594 34.734375 23.15625 33.570312 21.453125 32.941406 C 20.496094 32.589844 19.441406 32.566406 18.203125 32.5625 " fill-opacity="1" fill-rule="nonzero"/><path fill="#ffffff" d="M 14.871094 14.132812 C 16.914062 12.941406 19.308594 12.039062 22.183594 11.878906 C 23.316406 11.816406 24.164062 11.949219 25.082031 12.09375 C 24.886719 11.230469 24.679688 10.382812 24.488281 9.511719 C 22.125 10.015625 19.21875 9.671875 17.496094 8.804688 C 15.644531 9.1875 14.0625 9.875 12.484375 10.761719 C 11.40625 11.371094 10.414062 12.109375 9.585938 12.992188 C 9.359375 13.234375 8.816406 13.714844 8.800781 13.941406 C 8.792969 14.035156 8.917969 14.246094 8.992188 14.433594 C 9.183594 14.929688 9.390625 15.496094 9.53125 15.925781 C 9.75 16.585938 10.054688 17.390625 10.101562 18.074219 C 10.125 18.398438 9.96875 18.792969 10.238281 19.078125 C 11.242188 17.078125 12.835938 15.320312 14.871094 14.132812 " fill-opacity="1" fill-rule="nonzero"/><path fill="#ffffff" d="M 6.117188 13.726562 C 6.84375 14.0625 7.898438 13.925781 8.476562 13.535156 C 8.734375 13.125 9.066406 12.671875 9.398438 12.339844 C 9.503906 12.234375 9.707031 12.136719 9.667969 11.984375 C 8.9375 11.929688 8.222656 11.679688 8.125 11.144531 C 8.699219 11.417969 9.582031 11.761719 10.34375 11.46875 C 10.476562 11.417969 10.601562 11.257812 10.75 11.144531 C 11.191406 10.816406 11.730469 10.503906 12.105469 10.21875 C 11.570312 10.011719 11.164062 9.679688 10.996094 9.105469 C 11.457031 9.511719 11.925781 9.910156 12.917969 9.785156 C 13.949219 9.171875 15.15625 8.730469 16.414062 8.34375 C 15.300781 7.78125 13.710938 7.476562 12.050781 7.609375 C 11.527344 7.652344 11.050781 7.816406 10.5625 7.828125 C 11.375 7.34375 12.375 7 13.703125 7.066406 C 15.148438 7.140625 16.402344 7.644531 17.632812 8.070312 C 18.871094 8.503906 20.074219 8.992188 21.535156 9.105469 C 25.101562 9.375 27.214844 7.808594 27.710938 4.730469 C 27.878906 6.421875 27.015625 7.742188 26.167969 8.589844 C 25.886719 8.867188 25.605469 9.066406 25.273438 9.269531 C 25.355469 9.675781 25.464844 10.054688 25.515625 10.492188 C 26.550781 10.046875 27.273438 9.28125 27.847656 8.316406 C 28.425781 7.34375 28.832031 6.050781 28.742188 4.703125 C 28.597656 2.609375 27.328125 1.5 25.464844 1.085938 C 24.554688 0.886719 23.351562 0.742188 22.292969 0.871094 C 20.101562 1.132812 18.382812 1.523438 16.605469 2.039062 C 16.050781 2.199219 15.457031 2.441406 14.816406 2.257812 C 15.226562 2.085938 15.71875 2 16.117188 1.820312 C 12.820312 0.839844 9.644531 1.960938 7.71875 3.667969 C 6.0625 5.136719 5.042969 7.347656 5.332031 10.328125 C 4.585938 11.109375 3.605469 12.199219 4.058594 13.699219 C 4.378906 14.757812 5.253906 15.390625 6.390625 15.683594 C 6.929688 16.402344 7.789062 16.796875 9.125 16.714844 C 8.863281 15.835938 8.519531 15.042969 8.257812 14.160156 C 7.535156 14.398438 6.363281 14.414062 6.117188 13.726562 " fill-opacity="1" fill-rule="nonzero"/><path fill="#ffffff" d="M 24.730469 28.375 C 24.152344 28.71875 23.460938 28.949219 22.726562 29.136719 C 22.652344 29.335938 22.570312 29.523438 22.535156 29.761719 C 23.398438 29.4375 24.105469 28.960938 24.757812 28.429688 C 24.765625 28.394531 24.800781 28.375 24.730469 28.375 " fill-opacity="1" fill-rule="nonzero"/><path fill="#ffffff" d="M 18.472656 45.847656 C 18.453125 45.847656 18.4375 45.847656 18.417969 45.847656 C 16.382812 46.164062 14.742188 45.40625 14.355469 43.785156 C 13.980469 43.363281 13.027344 43.523438 12.730469 43.023438 C 12.109375 42.96875 11.484375 42.917969 10.914062 42.808594 C 12.203125 44.78125 14.957031 46.835938 18.390625 45.90625 C 18.382812 45.855469 18.628906 45.886719 18.472656 45.847656 " fill-opacity="1" fill-rule="nonzero"/><path fill="#4d4e4e" d="M 21.261719 13.589844 C 21.167969 13.976562 21.394531 14.277344 21.453125 14.648438 C 22.054688 14.019531 23.382812 13.472656 24.542969 13.914062 C 24.582031 13.65625 24.648438 13.421875 24.675781 13.15625 C 24.433594 12.839844 24.027344 12.582031 23.511719 12.53125 C 22.605469 12.441406 21.382812 13.09375 21.261719 13.589844 " fill-opacity="1" fill-rule="nonzero"/><path fill="#4d4e4e" d="M 13.242188 16.007812 C 13.242188 15.992188 13.238281 15.976562 13.21875 15.980469 C 12.957031 16.238281 12.679688 16.472656 12.402344 16.769531 C 11.945312 17.261719 11.5 17.855469 11.105469 18.453125 C 10.9375 18.707031 10.535156 19.144531 10.535156 19.378906 C 10.535156 19.628906 10.804688 19.835938 10.832031 20.058594 C 11.125 19.816406 11.625 19.675781 12.050781 19.785156 C 13.019531 20.035156 13.234375 21.210938 13.378906 22.261719 C 13.558594 22.542969 13.714844 22.847656 14.03125 22.992188 C 13.726562 22.214844 13.6875 21.191406 13.730469 20.195312 C 13.800781 18.664062 13.625 17.164062 13.242188 16.007812 " fill-opacity="1" fill-rule="nonzero"/><path fill="#4d4e4e" d="M 18.527344 16.390625 C 17.976562 15.460938 15.988281 15.382812 14.976562 15.953125 C 15.039062 16.480469 15.191406 16.917969 15.410156 17.285156 C 16.21875 16.863281 17.128906 16.308594 18.527344 16.390625 " fill-opacity="1" fill-rule="nonzero"/><path fill="#4d4e4e" d="M 23.917969 20.738281 C 23.617188 20.976562 23.347656 21.171875 22.96875 21.28125 C 22.550781 21.402344 22.097656 21.355469 21.589844 21.417969 C 21.480469 21.429688 21.34375 21.5 21.210938 21.527344 C 21.050781 21.558594 20.863281 21.535156 20.75 21.582031 C 20.574219 21.652344 20.417969 21.898438 20.261719 22.015625 C 19.730469 22.40625 19.0625 22.726562 18.257812 22.804688 C 17.042969 22.917969 16.347656 22.425781 15.738281 21.960938 C 16.046875 23.003906 16.894531 23.683594 18.011719 23.890625 C 19.773438 24.214844 21.511719 23.484375 22.292969 22.585938 C 22.40625 22.457031 22.589844 22.203125 22.699219 22.179688 C 22.835938 22.148438 23.027344 22.242188 23.160156 22.261719 C 24.097656 22.394531 25.058594 22.195312 25.625 21.824219 C 26.558594 21.214844 27.003906 19.425781 26.464844 18.046875 C 26.550781 19.773438 25.457031 20.550781 23.917969 20.738281 " fill-opacity="1" fill-rule="nonzero"/><path fill="#eca457" d="M 32.074219 17.800781 C 32.132812 17.371094 32.171875 16.835938 31.855469 16.632812 C 31.632812 16.492188 31.203125 16.570312 31.152344 16.824219 C 31.105469 17.074219 31.335938 17.316406 31.316406 17.613281 C 31.625 17.519531 31.886719 17.683594 32.074219 17.800781 " fill-opacity="1" fill-rule="nonzero"/><path fill="#eca457" d="M 25.464844 22.277344 C 25.65625 24.652344 24.0625 26.632812 21.886719 26.820312 C 19.800781 27.003906 18.546875 25.808594 18.09375 24.269531 C 16.652344 23.949219 15.207031 23.050781 15.601562 21.171875 C 16.070312 22.859375 19.320312 22.539062 20.207031 21.445312 C 19.667969 21.222656 19.683594 20.085938 20.316406 19.976562 C 19.855469 20.570312 20.183594 21.261719 21.101562 21.089844 C 21.253906 21.0625 21.40625 20.972656 21.589844 20.957031 C 21.929688 20.921875 22.308594 20.992188 22.617188 20.957031 C 23.617188 20.839844 24.320312 19.664062 23.757812 18.808594 C 23.25 18.039062 21.628906 18.554688 21.695312 17.175781 C 21.804688 17.339844 21.855469 17.601562 22.050781 17.75 C 22.59375 18.160156 23.371094 17.917969 23.890625 18.402344 C 24.34375 18.820312 24.5 19.695312 24.136719 20.355469 C 25.359375 20.234375 26.480469 19.117188 26.140625 17.628906 C 26.101562 17.457031 25.980469 17.300781 25.898438 17.105469 C 25.914062 17.105469 25.933594 17.105469 25.949219 17.105469 C 27.570312 18.003906 27.230469 21.773438 25.464844 22.277344 Z M 22.320312 28.15625 C 21.246094 28.265625 20.273438 27.933594 19.828125 27.179688 C 20.59375 27.359375 21.179688 27.65625 22.15625 27.585938 C 22.859375 27.535156 23.4375 27.28125 23.945312 27.015625 C 24.136719 26.914062 24.285156 26.773438 24.488281 26.691406 C 24.222656 27.367188 23.3125 28.058594 22.320312 28.15625 Z M 14.925781 16.960938 C 14.828125 16.664062 14.675781 16.292969 14.761719 15.980469 C 14.882812 15.550781 15.863281 15.367188 16.359375 15.328125 C 17.25 15.257812 17.960938 15.511719 18.445312 15.898438 C 18.6875 16.09375 18.964844 16.335938 19.015625 16.632812 C 18.074219 16.644531 17.308594 16.722656 16.550781 17.042969 C 16.394531 17.105469 16.171875 17.242188 15.953125 17.367188 C 15.78125 17.464844 15.464844 17.703125 15.355469 17.695312 C 15.101562 17.671875 14.996094 17.183594 14.925781 16.960938 Z M 12.566406 23.890625 C 11.957031 23.875 11.773438 22.886719 12.214844 22.449219 C 12.042969 22.144531 11.855469 21.570312 11.457031 21.582031 C 11.113281 21.589844 10.953125 22.015625 10.996094 22.53125 C 10.632812 22.035156 11.039062 21.25 11.589844 21.308594 C 11.902344 21.34375 12.132812 21.667969 12.324219 21.933594 C 12.4375 22.097656 12.625 22.320312 12.621094 22.476562 C 12.617188 22.679688 12.332031 22.878906 12.296875 23.128906 C 12.25 23.453125 12.324219 23.679688 12.566406 23.890625 Z M 27.46875 17.148438 C 26.964844 16.546875 26.375 15.988281 26.058594 15.273438 C 25.722656 14.515625 25.53125 13.714844 25.273438 12.746094 C 24.988281 12.636719 24.710938 12.511719 24.351562 12.476562 C 24.472656 12.683594 24.863281 12.710938 24.949219 13.101562 C 25 13.332031 24.863281 14.148438 24.675781 14.214844 C 24.464844 14.289062 24.195312 14.054688 24 14.023438 C 23.265625 13.917969 22.398438 14.171875 21.941406 14.542969 C 21.726562 14.714844 21.703125 14.925781 21.425781 15.058594 C 21.207031 14.6875 20.910156 14.132812 20.964844 13.644531 C 21.050781 12.917969 21.949219 12.675781 22.484375 12.367188 C 18.554688 12.539062 15.859375 13.949219 13.515625 15.710938 C 13.777344 16.496094 14.152344 17.378906 14.21875 18.507812 C 14.292969 19.695312 14.019531 20.9375 14.136719 22.042969 C 14.175781 22.402344 14.636719 23.28125 14.464844 23.457031 C 14.3125 23.605469 14.015625 23.414062 13.867188 23.320312 C 13.058594 22.820312 12.910156 21.777344 12.59375 20.847656 C 12.175781 20.359375 11.230469 20.53125 10.886719 20.902344 C 9.777344 22.097656 10.777344 25.121094 12.511719 24.894531 C 12.996094 24.835938 13.15625 24.367188 13.460938 24.027344 C 14.488281 26.429688 16.371094 27.992188 19.257812 28.566406 C 20.226562 28.757812 21.355469 28.9375 22.429688 28.78125 C 23.28125 28.660156 24.121094 28.265625 24.8125 27.886719 C 25.539062 27.488281 26.164062 27.027344 26.683594 26.472656 C 27.746094 25.335938 28.652344 23.859375 28.929688 22.125 C 29.308594 19.78125 28.492188 18.378906 27.46875 17.148438 " fill-opacity="1" fill-rule="nonzero"/><path fill="#eca457" d="M 35.40625 21.171875 C 35.164062 19.792969 35.890625 18.925781 36.871094 18.589844 C 36.257812 19.21875 35.65625 20.09375 35.40625 21.171875 Z M 38.167969 17.285156 C 38.085938 16.929688 37.886719 16.554688 37.761719 16.171875 C 37.640625 15.78125 37.511719 15.40625 37.382812 15.03125 C 37.117188 14.253906 36.976562 13.367188 36.410156 12.964844 C 36.074219 13.175781 36.046875 13.769531 36.082031 14.214844 C 36.125 14.707031 36.367188 15.414062 36.542969 15.820312 C 36.769531 16.328125 37.113281 16.71875 37.328125 17.042969 C 36.75 16.910156 36.429688 16.398438 36.164062 15.925781 C 35.898438 15.453125 35.695312 14.855469 35.597656 14.1875 C 35.5625 13.949219 35.609375 13.683594 35.570312 13.425781 C 35.515625 13.085938 35.328125 12.675781 35.164062 12.3125 C 35.070312 12.109375 34.730469 11.480469 34.429688 11.523438 C 34.230469 11.550781 34.152344 11.917969 34.132812 12.175781 C 33.96875 14.484375 35.300781 15.851562 36.625 16.769531 C 36.324219 16.816406 36.027344 16.792969 35.8125 16.714844 C 34.730469 16.320312 33.917969 14.484375 33.644531 13.289062 C 33.476562 12.542969 33.300781 11.714844 32.722656 11.386719 C 32.21875 11.105469 31.96875 11.8125 32.019531 12.257812 C 32.097656 12.933594 32.492188 13.464844 32.832031 14.105469 C 33.121094 14.648438 33.425781 15.375 33.863281 15.765625 C 34.261719 16.121094 34.964844 16.203125 35.324219 16.496094 C 34.992188 16.59375 34.496094 16.722656 34.214844 16.605469 C 33.425781 16.285156 32.828125 15.296875 32.425781 14.621094 C 31.347656 14.402344 30.816406 15.347656 31.097656 16.496094 C 31.726562 16.113281 32.496094 16.632812 32.371094 17.503906 C 32.644531 16.976562 32.644531 16.039062 32.671875 15.355469 C 32.949219 15.628906 33.046875 16.082031 33.078125 16.605469 C 33.28125 16.585938 33.523438 16.457031 33.726562 16.523438 C 33.644531 16.921875 33.257812 17.015625 33.023438 17.257812 C 32.921875 17.675781 33.199219 17.953125 33.347656 18.210938 C 33.472656 18.117188 33.832031 18.074219 33.917969 18.238281 C 33.511719 18.414062 33.179688 18.660156 32.996094 19.054688 C 33.523438 19.28125 33.769531 19.800781 33.863281 20.464844 C 33.425781 20.132812 33.21875 19.570312 32.589844 19.433594 C 32.488281 19.585938 32.445312 19.796875 32.316406 19.921875 C 32.339844 19.417969 32.382812 18.761719 32.128906 18.453125 C 32.175781 19.210938 31.238281 19.59375 30.855469 19 C 30.855469 19.558594 30.65625 20.207031 30.910156 20.601562 C 31.039062 20.804688 31.5 21 31.777344 21.117188 C 32.746094 21.535156 33.84375 22.054688 34.835938 22.261719 C 34.511719 22.449219 34.148438 22.601562 33.644531 22.613281 C 33.808594 22.945312 33.914062 23.339844 34.050781 23.699219 C 35.300781 24.332031 37.386719 23.703125 38.0625 22.832031 C 38.417969 22.371094 38.167969 21.984375 38.0625 21.390625 C 37.710938 21.539062 37.394531 21.863281 37.003906 21.878906 C 37.574219 20.980469 38.308594 20.082031 38.304688 18.753906 C 38.304688 18.316406 38.277344 17.734375 38.167969 17.285156 " fill-opacity="1" fill-rule="nonzero"/><path fill="#eca457" d="M 31.34375 19.078125 C 31.789062 19.117188 31.914062 18.679688 31.910156 18.128906 C 31.339844 17.175781 30.441406 19.003906 31.34375 19.078125 " fill-opacity="1" fill-rule="nonzero"/><path fill="#ed2a2f" d="M 21.101562 23.917969 C 21.003906 23.894531 20.914062 23.894531 20.855469 23.917969 C 20.214844 24.167969 19.390625 24.324219 18.5 24.296875 C 18.800781 25.136719 19.34375 25.777344 20.207031 26.066406 C 21.035156 26.339844 22.445312 26.339844 23.132812 25.875 C 22.816406 24.898438 22.082031 24.144531 21.101562 23.917969 " fill-opacity="1" fill-rule="nonzero"/><path fill="#ffffff" d="M 21.832031 45.570312 C 26.972656 45.570312 31.613281 43.429688 34.921875 39.988281 C 34.675781 38.59375 34.207031 37.421875 33.671875 36.230469 C 32.511719 33.640625 31.429688 31.171875 29.769531 28.945312 C 30.328125 29.148438 30.644531 29.683594 31.015625 30.113281 C 32.128906 31.40625 33.082031 32.96875 33.890625 34.570312 C 34.761719 34.914062 35.523438 35.25 36.734375 35.171875 C 38.832031 35.03125 40.640625 34.171875 40.988281 32.207031 C 41.105469 31.546875 41.132812 30.746094 41.070312 29.898438 C 40.867188 27.222656 39.945312 24.683594 39.253906 22.289062 C 39.0625 21.628906 39.058594 21.113281 38.523438 20.875 C 38.410156 21.0625 38.617188 21.167969 38.683594 21.28125 C 38.867188 21.585938 39.058594 22.230469 38.929688 22.75 C 38.515625 24.410156 35.296875 25.238281 33.753906 24.21875 C 33.3125 23.925781 32.898438 23.296875 33.15625 22.558594 C 32.726562 22.625 32.859375 23.1875 32.914062 23.511719 C 33.101562 24.652344 33.445312 25.722656 33.726562 26.71875 C 34.132812 28.152344 34.382812 29.675781 34.808594 31.011719 C 34.804688 31.042969 34.78125 31.027344 34.785156 31.011719 C 34.570312 30.746094 34.378906 30.457031 34.1875 30.167969 C 34.359375 31.066406 34.421875 32.070312 34.621094 32.941406 C 33.886719 31.941406 33.539062 30.667969 33.484375 29 C 33.476562 28.78125 33.550781 28.492188 33.507812 28.320312 C 33.476562 28.191406 33.183594 27.96875 33.023438 27.832031 C 31.78125 26.757812 30.339844 25.960938 28.46875 25.574219 C 27.507812 26.710938 26.550781 27.851562 25.410156 28.808594 C 24.6875 30.324219 23.734375 31.605469 22.535156 32.640625 C 23.710938 33.179688 24.671875 34.011719 25.410156 35.089844 C 26.234375 36.292969 26.867188 37.792969 26.816406 39.84375 C 27.253906 39.992188 27.839844 40.101562 28.390625 40.308594 C 28.789062 40.457031 29.558594 40.683594 29.582031 41.148438 C 29.617188 41.816406 28.433594 42.132812 27.820312 42.292969 C 27.476562 42.382812 27.074219 42.488281 26.65625 42.5625 C 26.246094 42.632812 25.792969 42.683594 25.464844 42.808594 C 25.183594 42.910156 24.917969 43.125 24.625 43.269531 C 24.335938 43.410156 24.023438 43.546875 23.730469 43.675781 C 23.121094 43.945312 22.421875 44.144531 21.914062 44.4375 C 21.609375 44.613281 21.347656 44.890625 21.074219 45.117188 C 20.90625 45.253906 20.742188 45.394531 20.574219 45.527344 C 20.988281 45.554688 21.410156 45.570312 21.832031 45.570312 " fill-opacity="1" fill-rule="nonzero"/><path fill="#d08b40" d="M 35.542969 16.851562 C 36 17.136719 37.015625 17.527344 37.519531 17.042969 C 37.441406 17.027344 37.367188 17.011719 37.296875 16.992188 C 37.308594 17.007812 37.320312 17.023438 37.328125 17.042969 C 36.75 16.910156 36.429688 16.398438 36.164062 15.925781 C 35.898438 15.453125 35.695312 14.855469 35.597656 14.1875 C 35.5625 13.960938 35.601562 13.710938 35.574219 13.46875 C 35.476562 13.652344 35.449219 13.902344 35.433594 14.132812 C 35.375 15.03125 35.753906 15.796875 36.09375 16.375 C 36.269531 16.515625 36.449219 16.644531 36.625 16.769531 C 36.324219 16.816406 36.027344 16.792969 35.8125 16.714844 C 34.730469 16.320312 33.917969 14.484375 33.644531 13.289062 C 33.582031 13.019531 33.519531 12.738281 33.4375 12.472656 C 33.390625 12.648438 33.386719 12.867188 33.402344 13.074219 C 33.480469 14.078125 34.167969 15.550781 34.757812 16.144531 C 34.808594 16.195312 34.867188 16.234375 34.917969 16.273438 C 35.074219 16.339844 35.214844 16.410156 35.324219 16.496094 C 34.992188 16.59375 34.496094 16.722656 34.214844 16.605469 C 33.425781 16.285156 32.828125 15.296875 32.425781 14.621094 C 32.339844 14.605469 32.257812 14.59375 32.179688 14.59375 C 32.121094 14.605469 32.066406 14.632812 32.019531 14.675781 C 32.1875 15.03125 32.285156 15.753906 32.238281 16.496094 C 32.230469 16.578125 32.21875 16.652344 32.207031 16.726562 C 32.34375 16.921875 32.417969 17.191406 32.371094 17.503906 C 32.644531 16.976562 32.644531 16.039062 32.671875 15.355469 C 32.949219 15.628906 33.046875 16.082031 33.078125 16.605469 C 33.28125 16.585938 33.523438 16.457031 33.726562 16.523438 C 33.652344 16.875 33.34375 16.988281 33.113281 17.175781 C 33.402344 17.15625 33.636719 17.074219 33.835938 16.960938 C 34.351562 17.164062 35.117188 17.050781 35.542969 16.851562 " fill-opacity="1" fill-rule="nonzero"/><path fill="#d08b40" d="M 32.808594 19.503906 C 32.742188 19.472656 32.667969 19.449219 32.589844 19.433594 C 32.488281 19.585938 32.445312 19.796875 32.316406 19.921875 C 32.324219 19.789062 32.332031 19.644531 32.332031 19.5 C 32.300781 19.878906 32.195312 20.300781 32.074219 20.574219 C 32.464844 20.375 32.867188 20.027344 32.808594 19.503906 " fill-opacity="1" fill-rule="nonzero"/><path fill="#d08b40" d="M 35.730469 18.347656 C 35.257812 18.308594 34.699219 18.152344 34.429688 18.292969 C 34.339844 18.695312 34.667969 18.816406 34.808594 19.1875 C 35.015625 19.722656 34.851562 20.484375 35.027344 21.035156 C 35.078125 21.195312 35.1875 21.375 35.269531 21.5 C 35.351562 21.617188 35.515625 21.832031 35.597656 21.796875 C 35.546875 21.515625 35.5 21.199219 35.480469 20.890625 C 35.453125 20.984375 35.429688 21.078125 35.40625 21.171875 C 35.164062 19.792969 35.890625 18.925781 36.871094 18.589844 C 36.785156 18.679688 36.699219 18.769531 36.613281 18.867188 C 36.769531 18.75 36.90625 18.621094 37.003906 18.453125 C 36.683594 18.261719 36.210938 18.382812 35.730469 18.347656 " fill-opacity="1" fill-rule="nonzero"/><path fill="#d08b40" d="M 20.207031 21.449219 C 19.71875 21.246094 19.683594 20.273438 20.15625 20.039062 C 20.128906 20.039062 20.101562 20.039062 20.070312 20.039062 C 19.53125 20.625 19.082031 21.332031 18.609375 21.9375 C 18.511719 22.058594 18.378906 22.171875 18.308594 22.316406 C 19.101562 22.207031 19.847656 21.890625 20.207031 21.449219 " fill-opacity="1" fill-rule="nonzero"/><path fill="#d08b40" d="M 12.214844 22.449219 C 12.042969 22.144531 11.855469 21.570312 11.457031 21.582031 C 11.199219 21.585938 11.042969 21.832031 11 22.171875 C 10.976562 23.027344 11.582031 23.773438 12.402344 23.890625 C 12.402344 23.878906 12.402344 23.871094 12.402344 23.859375 C 11.929688 23.6875 11.816406 22.84375 12.214844 22.449219 " fill-opacity="1" fill-rule="nonzero"/><path fill="#c7c7c7" d="M 18.203125 41.691406 C 16.65625 41.691406 15.117188 41.695312 13.652344 41.53125 C 12.203125 41.367188 10.769531 41.300781 9.695312 40.714844 C 9.65625 40.691406 9.660156 40.652344 9.671875 40.613281 C 9.394531 40.738281 9.097656 41.007812 9.097656 41.148438 C 9.105469 41.574219 10.007812 41.625 10.5625 41.691406 C 13.605469 42.066406 17.078125 42.101562 20.179688 41.855469 C 21.75 41.730469 23.292969 41.644531 24.578125 41.328125 C 23.992188 41.40625 23.375 41.457031 22.753906 41.53125 C 21.292969 41.703125 19.746094 41.691406 18.203125 41.691406 " fill-opacity="1" fill-rule="nonzero"/><path fill="#b3b3b4" d="M 25.816406 40.007812 C 25.789062 38.390625 25.367188 37.324219 24.675781 36.394531 C 24.484375 36.132812 24.304688 35.824219 24.027344 35.742188 C 24.34375 36.664062 24.605469 37.644531 24.675781 38.8125 C 24.132812 39.195312 23.457031 39.351562 22.671875 39.519531 C 20.335938 40.019531 16.851562 39.800781 15.003906 38.976562 C 15.027344 36.921875 15.53125 35.285156 16.25 33.945312 C 16.496094 33.492188 16.871094 33.15625 17.0625 32.695312 C 16.496094 32.710938 16.109375 32.9375 15.628906 33.160156 C 13.316406 34.226562 11.925781 36.152344 11.644531 39.273438 C 11.621094 39.566406 11.476562 40.304688 11.511719 40.699219 C 13.519531 41.09375 15.871094 41.257812 18.203125 41.257812 C 20.90625 41.257812 23.628906 41.046875 25.820312 40.503906 C 25.828125 40.34375 25.816406 40.160156 25.816406 40.007812 " fill-opacity="1" fill-rule="nonzero"/><path fill="#d08b40" d="M 20.910156 13.671875 C 20.769531 14.261719 20.746094 15 20.855469 15.601562 C 21 16.363281 21.351562 16.851562 21.699219 17.371094 C 21.695312 17.3125 21.695312 17.246094 21.695312 17.175781 C 21.804688 17.339844 21.855469 17.601562 22.050781 17.75 C 22.371094 17.992188 22.777344 18.007812 23.160156 18.078125 C 22.710938 17.683594 22.246094 17.277344 22.15625 16.578125 C 22.039062 15.648438 22.375 14.597656 23.050781 14.351562 C 23.273438 14.269531 23.605469 14.246094 23.890625 14.269531 C 24.144531 14.289062 24.449219 14.464844 24.648438 14.269531 C 24.652344 14.253906 24.648438 14.238281 24.648438 14.222656 C 24.441406 14.269531 24.1875 14.050781 24 14.023438 C 23.871094 14.007812 23.734375 14 23.601562 14 C 23.558594 14.011719 23.519531 14.019531 23.484375 14.023438 C 23.394531 14.039062 23.300781 14.039062 23.210938 14.035156 C 22.714844 14.109375 22.242188 14.300781 21.941406 14.542969 C 21.726562 14.714844 21.703125 14.925781 21.425781 15.058594 C 21.207031 14.6875 20.910156 14.132812 20.964844 13.644531 C 21.050781 12.917969 21.949219 12.675781 22.484375 12.367188 C 20.183594 12.46875 18.304688 12.992188 16.671875 13.765625 C 17.980469 13.636719 19.578125 13.402344 20.910156 13.671875 " fill-opacity="1" fill-rule="nonzero"/><path fill="#d08b40" d="M 17.824219 44.222656 C 18.863281 44.429688 20.183594 44.273438 20.964844 43.976562 C 21.183594 43.894531 21.375 43.78125 21.574219 43.667969 C 21.371094 43.746094 21.164062 43.808594 20.9375 43.839844 C 21.246094 43.558594 21.660156 43.386719 21.996094 43.132812 C 19.636719 43.347656 17.199219 43.277344 14.84375 43.1875 C 15.1875 43.339844 15.636719 43.386719 15.980469 43.542969 C 15.945312 43.542969 15.910156 43.546875 15.871094 43.550781 C 15.972656 43.582031 16.070312 43.613281 16.171875 43.648438 C 16.710938 43.859375 17.25 44.105469 17.824219 44.222656 " fill-opacity="1" fill-rule="nonzero"/><path fill="#c7c7c7" d="M 27.726562 5.40625 C 27.640625 6.777344 26.898438 7.859375 26.167969 8.589844 C 25.886719 8.867188 25.605469 9.066406 25.273438 9.269531 C 25.34375 9.628906 25.4375 9.964844 25.496094 10.339844 C 26.824219 9.355469 27.984375 7.730469 27.726562 5.40625 " fill-opacity="1" fill-rule="nonzero"/><path fill="#c7c7c7" d="M 10.996094 9.105469 C 11.042969 9.148438 11.09375 9.195312 11.144531 9.238281 C 11.117188 9.191406 11.09375 9.125 11.078125 9.085938 C 11.050781 9.085938 11.023438 9.085938 10.996094 9.085938 C 10.914062 9.671875 11.027344 10.335938 11.359375 10.730469 C 11.628906 10.554688 11.894531 10.382812 12.105469 10.222656 C 11.570312 10.015625 11.164062 9.679688 10.996094 9.105469 " fill-opacity="1" fill-rule="nonzero"/><path fill="#c7c7c7" d="M 11.980469 11.0625 C 11.964844 11.070312 11.953125 11.078125 11.9375 11.085938 C 11.941406 11.089844 11.941406 11.089844 11.945312 11.089844 C 11.96875 11.082031 11.980469 11.074219 11.980469 11.0625 " fill-opacity="1" fill-rule="nonzero"/><path fill="#c7c7c7" d="M 9.230469 12.515625 C 9.285156 12.453125 9.34375 12.394531 9.398438 12.339844 C 9.503906 12.234375 9.707031 12.136719 9.667969 11.984375 C 8.976562 11.933594 8.300781 11.707031 8.144531 11.226562 C 8.121094 11.203125 8.09375 11.175781 8.070312 11.144531 C 8.046875 11.90625 8.683594 12.234375 9.230469 12.515625 " fill-opacity="1" fill-rule="nonzero"/><path fill="#c7c7c7" d="M 35.785156 30.058594 C 36.191406 31.789062 36.820312 33.589844 38.304688 34.21875 C 37.941406 33.6875 37.652344 33.160156 37.4375 32.480469 C 37.226562 31.796875 37.171875 31.039062 37.058594 30.222656 C 36.894531 29.046875 36.871094 27.753906 36.871094 26.5 C 36.871094 26.085938 36.941406 25.648438 36.734375 25.304688 C 35.457031 25.421875 34.441406 25.074219 33.644531 24.625 C 33.648438 24.65625 33.640625 24.703125 33.671875 24.707031 C 33.78125 25.4375 34.253906 25.777344 34.621094 26.226562 C 34.871094 26.535156 35.078125 26.875 35.214844 27.289062 C 35.492188 28.113281 35.570312 29.144531 35.785156 30.058594 " fill-opacity="1" fill-rule="nonzero"/><path fill="#c7c7c7" d="M 13.542969 44.574219 C 14.277344 45.089844 14.992188 45.503906 15.925781 45.609375 C 15.128906 45.269531 14.5625 44.65625 14.355469 43.785156 C 13.980469 43.363281 13.027344 43.523438 12.730469 43.023438 C 12.414062 42.996094 12.09375 42.96875 11.785156 42.933594 C 12.171875 43.585938 12.835938 44.078125 13.542969 44.574219 " fill-opacity="1" fill-rule="nonzero"/><path fill="#c7c7c7" d="M 24.300781 11.976562 C 24.273438 11.160156 24.027344 10.339844 23.800781 9.632812 C 21.585938 9.945312 19.054688 9.589844 17.496094 8.804688 C 16.070312 9.101562 14.804688 9.574219 13.578125 10.183594 C 13.792969 10.105469 14.011719 10.039062 14.246094 10.027344 C 16.011719 9.953125 17.421875 11.152344 16.820312 12.992188 C 16.789062 13.058594 16.710938 13.082031 16.710938 13.183594 C 16.710938 13.1875 16.710938 13.1875 16.710938 13.191406 C 18.320312 12.484375 20.128906 11.992188 22.183594 11.878906 C 22.992188 11.832031 23.652344 11.890625 24.300781 11.976562 " fill-opacity="1" fill-rule="nonzero"/><path fill="#c7c7c7" d="M 14.382812 6.957031 C 16.753906 7.082031 18.558594 8.28125 20.75 8.5625 C 21.277344 8.628906 21.96875 8.625 22.457031 8.5625 C 24.570312 8.28125 26.140625 7.160156 26.816406 5.4375 C 27.019531 4.921875 27.246094 4.121094 26.980469 3.667969 C 25.972656 5.660156 24.046875 6.746094 21.480469 6.929688 C 19.613281 7.066406 17.992188 6.667969 16.765625 6.0625 C 15.792969 5.578125 14.902344 4.78125 13.867188 4.566406 C 13.074219 4.402344 12.359375 4.535156 11.644531 4.675781 C 11.199219 4.761719 10.691406 4.929688 10.316406 4.675781 C 10.347656 4.078125 10.832031 3.796875 10.777344 3.207031 C 10.285156 3.238281 9.832031 3.515625 9.398438 3.75 C 7.839844 4.597656 6.277344 5.800781 6.28125 8.097656 C 6.28125 8.363281 6.269531 8.839844 6.335938 9.132812 C 6.640625 10.507812 8.457031 11.019531 10.238281 10.734375 C 10.484375 10.695312 10.726562 10.601562 10.75 10.410156 C 10.78125 10.1875 10.554688 9.992188 10.453125 9.785156 C 10.242188 9.355469 10.15625 8.933594 10.34375 8.453125 C 11 7.949219 13.046875 8.070312 13.570312 8.671875 C 13.832031 8.972656 13.605469 9.285156 13.332031 9.550781 C 14.265625 9.058594 15.320312 8.679688 16.414062 8.34375 C 15.300781 7.78125 13.710938 7.476562 12.050781 7.609375 C 11.527344 7.652344 11.050781 7.816406 10.5625 7.828125 C 10.761719 7.707031 10.972656 7.597656 11.199219 7.5 C 11.195312 7.5 11.191406 7.5 11.183594 7.5 C 11.984375 6.980469 13.160156 6.894531 14.382812 6.957031 " fill-opacity="1" fill-rule="nonzero"/><path fill="#c7c7c7" d="M 31.015625 30.113281 C 31.988281 31.242188 32.839844 32.578125 33.578125 33.96875 C 33.789062 33.996094 34.027344 34.015625 34.269531 34.054688 C 34.644531 34.117188 35.117188 34.179688 35.136719 33.867188 C 35.140625 33.792969 34.992188 33.582031 34.917969 33.429688 C 34.792969 33.179688 34.671875 32.921875 34.5625 32.65625 C 34.578125 32.753906 34.597656 32.847656 34.621094 32.941406 C 33.929688 32 33.582031 30.820312 33.496094 29.300781 C 33.394531 29.992188 33.589844 30.867188 33.699219 31.5 C 32.285156 30.699219 31.085938 29.683594 29.742188 28.808594 C 29.777344 28.867188 29.8125 28.921875 29.847656 28.976562 C 30.355469 29.199219 30.664062 29.703125 31.015625 30.113281 " fill-opacity="1" fill-rule="nonzero"/><path fill="#c7c7c7" d="M 34.785156 31.011719 C 34.570312 30.746094 34.378906 30.457031 34.1875 30.167969 C 34.226562 30.371094 34.257812 30.578125 34.289062 30.789062 C 34.707031 31.722656 35.34375 32.464844 36.03125 33.023438 C 35.675781 32.496094 35.410156 31.894531 35.054688 31.3125 C 34.929688 31.109375 34.8125 30.875 34.695312 30.636719 C 34.734375 30.765625 34.769531 30.890625 34.808594 31.011719 C 34.804688 31.042969 34.78125 31.027344 34.785156 31.011719 " fill-opacity="1" fill-rule="nonzero"/><path fill="#c7c7c7" d="M 23.320312 43.042969 C 23.027344 43.078125 22.773438 43.15625 22.53125 43.25 C 22.796875 43.179688 23.070312 43.132812 23.320312 43.042969 " fill-opacity="1" fill-rule="nonzero"/><path fill="#c7c7c7" d="M 7.390625 15.140625 C 7.8125 15.40625 8.289062 15.792969 8.863281 15.914062 C 8.65625 15.335938 8.4375 14.765625 8.257812 14.160156 C 7.605469 14.375 6.589844 14.410156 6.21875 13.910156 C 6.335938 14.523438 6.914062 14.835938 7.390625 15.140625 " fill-opacity="1" fill-rule="nonzero"/><path fill="#d08b40" d="M 26.277344 24.054688 C 25.761719 25.082031 25.203125 26.066406 24.351562 26.757812 C 24.394531 26.734375 24.441406 26.710938 24.488281 26.691406 C 24.222656 27.367188 23.3125 28.058594 22.320312 28.15625 C 21.246094 28.265625 20.273438 27.933594 19.828125 27.179688 C 19.96875 27.210938 20.101562 27.25 20.234375 27.289062 C 19.367188 26.925781 18.554688 26.492188 17.984375 25.875 C 17.863281 25.742188 17.785156 25.515625 17.660156 25.546875 C 17.757812 27.289062 18.734375 28.148438 20.015625 28.703125 C 20.789062 28.828125 21.625 28.898438 22.429688 28.78125 C 23.28125 28.660156 24.121094 28.265625 24.8125 27.886719 C 24.816406 27.886719 24.816406 27.882812 24.820312 27.882812 C 24.910156 27.789062 25 27.6875 25.082031 27.585938 C 25.796875 26.738281 26.550781 25.535156 26.277344 24.054688 " fill-opacity="1" fill-rule="nonzero"/><path fill="#f8b76e" d="M 27.46875 17.148438 C 27.046875 16.644531 26.566406 16.171875 26.234375 15.609375 C 26.21875 15.589844 26.207031 15.570312 26.195312 15.546875 C 26.191406 15.542969 26.191406 15.539062 26.191406 15.535156 C 26.144531 15.453125 26.097656 15.363281 26.058594 15.273438 C 25.722656 14.515625 25.53125 13.714844 25.273438 12.746094 C 25.222656 12.726562 25.167969 12.707031 25.117188 12.683594 C 25.144531 12.878906 25.230469 13.105469 25.273438 13.289062 C 25.425781 13.96875 25.519531 14.476562 25.652344 15.085938 C 25.71875 15.390625 25.738281 15.734375 25.84375 15.980469 C 25.902344 16.125 26.09375 16.289062 26.222656 16.445312 C 27.128906 17.53125 27.917969 18.742188 28.226562 20.382812 C 28.496094 21.804688 28.378906 23.242188 28.070312 24.574219 C 28.480469 23.832031 28.789062 23.011719 28.929688 22.125 C 29.308594 19.78125 28.492188 18.378906 27.46875 17.148438 " fill-opacity="1" fill-rule="nonzero"/><path fill="#f8b76e" d="M 23.757812 18.808594 C 23.386719 18.246094 22.425781 18.371094 21.960938 17.945312 C 21.953125 17.941406 21.945312 17.941406 21.941406 17.9375 C 22.066406 18.769531 23.402344 18.902344 23.539062 19.730469 C 23.589844 20.03125 23.484375 20.347656 23.375 20.628906 C 23.914062 20.195312 24.160156 19.417969 23.757812 18.808594 " fill-opacity="1" fill-rule="nonzero"/><path fill="#e6e6e5" d="M 11.996094 9.324219 C 11.539062 9.148438 11.214844 8.941406 10.941406 8.804688 C 10.941406 8.789062 10.9375 8.773438 10.914062 8.777344 C 10.886719 8.777344 10.882812 8.800781 10.859375 8.804688 C 10.878906 8.929688 10.929688 9.035156 11.003906 9.132812 C 11 9.121094 10.996094 9.113281 10.996094 9.105469 C 11.179688 9.269531 11.367188 9.429688 11.589844 9.558594 C 11.652344 9.589844 11.71875 9.621094 11.78125 9.648438 C 11.8125 9.664062 11.847656 9.679688 11.882812 9.695312 C 12.15625 9.796875 12.488281 9.839844 12.917969 9.785156 C 12.960938 9.761719 13 9.738281 13.042969 9.710938 C 12.898438 9.457031 12.261719 9.421875 11.996094 9.324219 " fill-opacity="1" fill-rule="nonzero"/><path fill="#e6e6e5" d="M 6.390625 15.683594 C 6.929688 16.402344 7.789062 16.796875 9.125 16.714844 C 9.101562 16.636719 9.078125 16.554688 9.050781 16.476562 C 7.882812 16.4375 7.089844 15.855469 6.578125 15.113281 C 5.867188 14.964844 5.371094 14.554688 5.144531 13.96875 C 4.921875 13.402344 4.910156 12.484375 5.035156 11.851562 C 5.144531 11.292969 5.492188 10.824219 5.441406 10.328125 C 5.398438 10.320312 5.363281 10.320312 5.332031 10.324219 C 5.332031 10.324219 5.332031 10.328125 5.332031 10.328125 C 4.585938 11.109375 3.605469 12.199219 4.058594 13.699219 C 4.109375 13.867188 4.175781 14.027344 4.257812 14.175781 C 4.328125 14.304688 4.410156 14.429688 4.5 14.550781 C 4.9375 15.113281 5.601562 15.480469 6.390625 15.683594 " fill-opacity="1" fill-rule="nonzero"/><path fill="#e6e6e5" d="M 13.136719 14.675781 C 12.023438 14.363281 11.835938 12.855469 11.917969 11.523438 C 11.097656 12.078125 10.273438 12.628906 9.667969 13.398438 C 10.347656 14.246094 10.652344 15.476562 10.777344 16.878906 C 11.226562 16.574219 11.628906 16.207031 12.023438 15.847656 C 12.417969 15.488281 12.84375 15.132812 13.136719 14.675781 " fill-opacity="1" fill-rule="nonzero"/><path fill="#e6e6e5" d="M 17.886719 30.898438 C 17.722656 31.429688 18.773438 31.746094 19.121094 31.433594 C 19.117188 31.394531 19.109375 31.351562 19.097656 31.3125 C 18.972656 30.929688 18.355469 30.792969 17.886719 30.898438 " fill-opacity="1" fill-rule="nonzero"/><path fill="#e6e6e5" d="M 25.382812 36.339844 C 24.558594 34.734375 23.15625 33.570312 21.453125 32.941406 C 21.277344 32.875 21.101562 32.824219 20.917969 32.777344 C 21.09375 32.875 21.285156 32.953125 21.453125 33.050781 C 21.746094 33.222656 22.042969 33.421875 22.320312 33.621094 C 23.402344 34.402344 24.46875 35.351562 25.082031 36.609375 C 25.398438 37.253906 25.71875 38.03125 25.789062 38.8125 C 25.816406 39.121094 25.804688 39.511719 25.816406 39.871094 C 25.820312 40.074219 25.796875 40.3125 25.839844 40.5 C 25.949219 40.472656 26.058594 40.445312 26.167969 40.414062 C 26.417969 38.773438 25.960938 37.46875 25.382812 36.339844 " fill-opacity="1" fill-rule="nonzero"/><path fill="#e6e6e5" d="M 19.71875 32.96875 C 20.898438 33.597656 21.640625 34.664062 21.832031 36.285156 C 21.316406 35.453125 21.011719 34.601562 20.261719 34.027344 C 19.53125 33.46875 18.664062 33.085938 17.550781 32.886719 C 16.675781 34.214844 16.300781 36.179688 16.386719 38.378906 C 17.75 38.867188 19.890625 39.058594 21.644531 38.785156 C 22.429688 38.664062 23.199219 38.488281 23.648438 38.050781 C 23.648438 37.273438 23.644531 36.566406 23.539062 35.957031 C 23.195312 33.976562 21.667969 33.335938 19.71875 32.96875 " fill-opacity="1" fill-rule="nonzero"/><path fill="#e6e6e5" d="M 11.078125 39.925781 C 11.085938 39.753906 11.09375 39.546875 11.105469 39.355469 C 11.253906 36.445312 12.574219 34.433594 14.382812 33.214844 C 14.414062 33.191406 14.453125 33.167969 14.492188 33.144531 C 13.703125 33.484375 13.007812 33.949219 12.429688 34.519531 C 11.046875 35.875 10.019531 37.863281 10.265625 40.414062 C 10.523438 40.484375 10.789062 40.550781 11.066406 40.609375 C 11.105469 40.378906 11.070312 40.0625 11.078125 39.925781 " fill-opacity="1" fill-rule="nonzero"/><path fill="#e6e6e5" d="M 22.511719 17.9375 C 22.480469 17.933594 22.449219 17.933594 22.417969 17.933594 C 22.558594 17.980469 22.703125 18.003906 22.847656 18.027344 C 22.742188 17.984375 22.628906 17.953125 22.511719 17.9375 " fill-opacity="1" fill-rule="nonzero"/><path fill="#e6e6e5" d="M 14.980469 2.195312 C 15.339844 2.066406 15.742188 1.984375 16.082031 1.835938 C 16.023438 1.8125 15.964844 1.785156 15.90625 1.761719 C 12.996094 0.972656 10.195312 1.800781 8.292969 3.207031 C 8.316406 3.195312 8.34375 3.1875 8.367188 3.179688 C 8.253906 3.257812 8.136719 3.335938 8.019531 3.414062 C 7.917969 3.496094 7.816406 3.582031 7.71875 3.667969 C 7.445312 3.910156 7.191406 4.171875 6.957031 4.453125 C 8.449219 3.230469 10.246094 2.296875 12.785156 2.09375 C 13.59375 2.027344 14.300781 2.113281 14.980469 2.195312 " fill-opacity="1" fill-rule="nonzero"/><path fill="#e6e6e5" d="M 27.847656 8.316406 C 28.425781 7.34375 28.832031 6.050781 28.742188 4.703125 C 28.597656 2.609375 27.328125 1.5 25.464844 1.085938 C 24.554688 0.886719 23.351562 0.742188 22.292969 0.871094 C 20.101562 1.132812 18.382812 1.523438 16.605469 2.039062 C 16.339844 2.113281 16.070312 2.207031 15.789062 2.265625 C 15.898438 2.265625 16.011719 2.265625 16.117188 2.257812 C 18.460938 2.085938 20.765625 1.496094 23.269531 1.496094 C 23.980469 1.496094 24.675781 1.550781 25.136719 1.847656 C 25.542969 2.105469 25.671875 2.632812 25.382812 3.042969 C 24.75 3.933594 23.1875 4.390625 21.832031 4.539062 C 20.519531 4.679688 19.058594 4.535156 17.742188 4.539062 C 17.046875 4.539062 15.960938 4.671875 16.605469 5.300781 C 16.945312 5.632812 17.597656 5.847656 18.148438 5.980469 C 18.761719 6.128906 19.425781 6.277344 20.042969 6.304688 C 23.558594 6.460938 26.308594 5.273438 27.222656 2.855469 C 27.304688 3.101562 27.324219 3.386719 27.304688 3.695312 C 27.183594 5.671875 26.25 6.90625 25.136719 7.800781 C 24.804688 8.066406 24.445312 8.339844 24.082031 8.480469 C 23.1875 8.824219 22.164062 8.867188 21.238281 8.832031 C 20.039062 8.789062 19.160156 8.308594 18.058594 8.222656 C 19.152344 8.609375 20.242188 9.007812 21.535156 9.105469 C 22.976562 9.214844 24.183594 9.023438 25.140625 8.554688 C 25.304688 8.445312 25.46875 8.347656 25.628906 8.273438 C 26.75 7.535156 27.453125 6.339844 27.710938 4.730469 C 27.714844 4.761719 27.714844 4.789062 27.71875 4.820312 C 27.765625 4.597656 27.816406 4.367188 27.875 4.132812 C 28.574219 6.421875 27.746094 8.394531 26.636719 9.792969 C 27.113281 9.386719 27.507812 8.886719 27.847656 8.316406 " fill-opacity="1" fill-rule="nonzero"/><path fill="#000000" d="M 17.828125 18.375 C 17.9375 18.925781 17.675781 19.445312 17.246094 19.53125 C 16.8125 19.617188 16.375 19.242188 16.261719 18.691406 C 16.152344 18.140625 16.414062 17.621094 16.84375 17.535156 C 17.277344 17.445312 17.714844 17.824219 17.828125 18.375 " fill-opacity="1" fill-rule="nonzero"/><path fill="#000000" d="M 23.777344 15.960938 C 23.972656 16.488281 23.796875 17.039062 23.386719 17.195312 C 22.972656 17.351562 22.480469 17.046875 22.28125 16.523438 C 22.085938 15.996094 22.261719 15.441406 22.671875 15.285156 C 23.085938 15.132812 23.578125 15.433594 23.777344 15.960938 " fill-opacity="1" fill-rule="nonzero"/><path fill="#ffffff" d="M 16.699219 18.097656 C 16.699219 18.1875 16.625 18.257812 16.539062 18.257812 C 16.449219 18.257812 16.375 18.1875 16.375 18.097656 C 16.375 18.007812 16.449219 17.933594 16.539062 17.933594 C 16.625 17.933594 16.699219 18.007812 16.699219 18.097656 " fill-opacity="1" fill-rule="nonzero"/><path fill="#ffffff" d="M 22.574219 16.058594 C 22.574219 16.148438 22.503906 16.222656 22.414062 16.222656 C 22.324219 16.222656 22.25 16.148438 22.25 16.058594 C 22.25 15.96875 22.324219 15.894531 22.414062 15.894531 C 22.503906 15.894531 22.574219 15.96875 22.574219 16.058594 " fill-opacity="1" fill-rule="nonzero"/><path fill="#000000" d="M 14.976562 15.953125 C 15.988281 15.382812 17.976562 15.460938 18.527344 16.390625 C 17.128906 16.308594 16.21875 16.863281 15.410156 17.285156 C 15.191406 16.917969 15.039062 16.480469 14.976562 15.953125 Z M 16.550781 17.042969 C 17.308594 16.722656 18.074219 16.644531 19.015625 16.632812 C 18.964844 16.335938 18.6875 16.09375 18.445312 15.898438 C 17.960938 15.511719 17.25 15.257812 16.359375 15.328125 C 15.863281 15.367188 14.882812 15.550781 14.761719 15.980469 C 14.675781 16.292969 14.828125 16.664062 14.925781 16.960938 C 14.996094 17.183594 15.101562 17.671875 15.355469 17.695312 C 15.464844 17.703125 15.78125 17.464844 15.953125 17.367188 C 16.171875 17.242188 16.394531 17.105469 16.550781 17.042969 " fill-opacity="1" fill-rule="nonzero"/><path fill="#000000" d="M 25.625 21.824219 C 25.058594 22.195312 24.097656 22.394531 23.160156 22.261719 C 23.027344 22.242188 22.835938 22.148438 22.699219 22.179688 C 22.589844 22.203125 22.40625 22.457031 22.292969 22.585938 C 21.511719 23.484375 19.773438 24.214844 18.011719 23.890625 C 16.894531 23.683594 16.046875 23.003906 15.738281 21.960938 C 16.347656 22.425781 17.042969 22.917969 18.257812 22.804688 C 19.0625 22.726562 19.730469 22.40625 20.261719 22.015625 C 20.417969 21.898438 20.574219 21.652344 20.75 21.582031 C 20.863281 21.535156 21.050781 21.558594 21.210938 21.527344 C 21.34375 21.5 21.480469 21.429688 21.589844 21.417969 C 22.097656 21.355469 22.550781 21.402344 22.96875 21.28125 C 23.347656 21.171875 23.617188 20.976562 23.917969 20.738281 C 25.457031 20.550781 26.550781 19.773438 26.464844 18.046875 C 27.003906 19.425781 26.558594 21.214844 25.625 21.824219 Z M 20.207031 26.066406 C 19.34375 25.777344 18.800781 25.136719 18.5 24.296875 C 19.390625 24.324219 20.214844 24.167969 20.855469 23.917969 C 20.914062 23.894531 21.003906 23.894531 21.101562 23.917969 C 22.082031 24.144531 22.816406 24.898438 23.132812 25.875 C 22.445312 26.339844 21.035156 26.339844 20.207031 26.066406 Z M 25.949219 17.105469 C 25.933594 17.105469 25.914062 17.105469 25.898438 17.105469 C 25.980469 17.300781 26.101562 17.457031 26.140625 17.628906 C 26.480469 19.117188 25.359375 20.230469 24.136719 20.351562 C 24.5 19.691406 24.34375 18.816406 23.890625 18.398438 C 23.371094 17.914062 22.59375 18.160156 22.050781 17.746094 C 21.855469 17.601562 21.804688 17.339844 21.695312 17.175781 C 21.628906 18.554688 23.25 18.039062 23.757812 18.808594 C 24.320312 19.660156 23.617188 20.839844 22.617188 20.957031 C 22.308594 20.992188 21.929688 20.921875 21.589844 20.957031 C 21.40625 20.972656 21.253906 21.0625 21.101562 21.089844 C 20.183594 21.261719 19.855469 20.570312 20.316406 19.976562 C 19.683594 20.085938 19.667969 21.222656 20.207031 21.445312 C 19.320312 22.539062 16.070312 22.859375 15.601562 21.171875 C 15.207031 23.050781 16.652344 23.949219 18.09375 24.269531 C 18.546875 25.808594 19.800781 27.007812 21.886719 26.824219 C 24.0625 26.636719 25.65625 24.652344 25.464844 22.277344 C 27.230469 21.773438 27.570312 18.003906 25.949219 17.105469 " fill-opacity="1" fill-rule="nonzero"/><path fill="#000000" d="M 35.40625 21.171875 C 35.65625 20.09375 36.257812 19.21875 36.871094 18.589844 C 35.890625 18.925781 35.164062 19.792969 35.40625 21.171875 " fill-opacity="1" fill-rule="nonzero"/><path fill="#000000" d="M 12.621094 22.476562 C 12.625 22.320312 12.4375 22.097656 12.324219 21.933594 C 12.132812 21.667969 11.902344 21.34375 11.589844 21.308594 C 11.039062 21.25 10.632812 22.035156 10.996094 22.53125 C 10.953125 22.015625 11.113281 21.589844 11.457031 21.582031 C 11.855469 21.570312 12.042969 22.144531 12.214844 22.449219 C 11.773438 22.886719 11.957031 23.875 12.566406 23.890625 C 12.324219 23.679688 12.25 23.453125 12.296875 23.128906 C 12.332031 22.878906 12.617188 22.679688 12.621094 22.476562 " fill-opacity="1" fill-rule="nonzero"/><path fill="#000000" d="M 22.15625 27.585938 C 21.179688 27.65625 20.59375 27.359375 19.828125 27.179688 C 20.273438 27.933594 21.246094 28.265625 22.320312 28.15625 C 23.3125 28.058594 24.222656 27.367188 24.488281 26.691406 C 24.285156 26.773438 24.136719 26.914062 23.945312 27.015625 C 23.4375 27.28125 22.859375 27.535156 22.15625 27.585938 " fill-opacity="1" fill-rule="nonzero"/><g clip-path="url(#6cf1e1468c)"><path fill="#000000" d="M 38.0625 21.390625 C 38.167969 21.984375 38.417969 22.371094 38.0625 22.832031 C 37.386719 23.703125 35.300781 24.332031 34.050781 23.699219 C 33.914062 23.339844 33.808594 22.945312 33.644531 22.613281 C 34.148438 22.601562 34.511719 22.449219 34.835938 22.261719 C 33.84375 22.054688 32.746094 21.535156 31.777344 21.117188 C 31.5 21 31.039062 20.804688 30.910156 20.601562 C 30.65625 20.207031 30.855469 19.558594 30.855469 19 C 31.238281 19.59375 32.175781 19.210938 32.128906 18.453125 C 32.382812 18.761719 32.339844 19.417969 32.316406 19.921875 C 32.445312 19.796875 32.488281 19.585938 32.589844 19.433594 C 33.21875 19.570312 33.425781 20.132812 33.863281 20.464844 C 33.769531 19.800781 33.523438 19.28125 32.996094 19.054688 C 33.179688 18.660156 33.511719 18.414062 33.917969 18.238281 C 33.832031 18.074219 33.472656 18.117188 33.347656 18.210938 C 33.199219 17.953125 32.921875 17.675781 33.023438 17.257812 C 33.257812 17.015625 33.644531 16.921875 33.726562 16.523438 C 33.523438 16.457031 33.28125 16.585938 33.078125 16.605469 C 33.046875 16.082031 32.949219 15.628906 32.671875 15.355469 C 32.644531 16.039062 32.644531 16.976562 32.371094 17.503906 C 32.496094 16.632812 31.726562 16.113281 31.097656 16.496094 C 30.816406 15.347656 31.347656 14.402344 32.425781 14.621094 C 32.828125 15.296875 33.425781 16.285156 34.214844 16.605469 C 34.496094 16.722656 34.992188 16.59375 35.324219 16.496094 C 34.964844 16.203125 34.261719 16.121094 33.863281 15.765625 C 33.425781 15.375 33.121094 14.648438 32.832031 14.105469 C 32.492188 13.464844 32.097656 12.933594 32.019531 12.257812 C 31.96875 11.8125 32.21875 11.105469 32.722656 11.386719 C 33.300781 11.714844 33.476562 12.542969 33.644531 13.289062 C 33.917969 14.484375 34.730469 16.320312 35.8125 16.714844 C 36.027344 16.792969 36.324219 16.816406 36.625 16.769531 C 35.300781 15.851562 33.96875 14.484375 34.132812 12.175781 C 34.152344 11.917969 34.230469 11.550781 34.429688 11.523438 C 34.730469 11.480469 35.070312 12.109375 35.164062 12.3125 C 35.328125 12.675781 35.515625 13.085938 35.570312 13.425781 C 35.609375 13.683594 35.5625 13.949219 35.597656 14.1875 C 35.695312 14.855469 35.898438 15.453125 36.164062 15.925781 C 36.429688 16.398438 36.75 16.910156 37.328125 17.042969 C 37.113281 16.71875 36.769531 16.328125 36.542969 15.820312 C 36.367188 15.414062 36.125 14.707031 36.082031 14.214844 C 36.046875 13.769531 36.074219 13.175781 36.410156 12.964844 C 36.976562 13.367188 37.117188 14.253906 37.382812 15.03125 C 37.511719 15.40625 37.640625 15.78125 37.761719 16.171875 C 37.886719 16.554688 38.085938 16.929688 38.167969 17.285156 C 38.277344 17.734375 38.304688 18.316406 38.304688 18.753906 C 38.308594 20.082031 37.574219 20.980469 37.003906 21.878906 C 37.394531 21.863281 37.710938 21.539062 38.0625 21.390625 Z M 31.910156 18.128906 C 31.914062 18.679688 31.789062 19.117188 31.34375 19.078125 C 30.441406 19.003906 31.339844 17.175781 31.910156 18.128906 Z M 31.152344 16.824219 C 31.203125 16.570312 31.632812 16.492188 31.855469 16.632812 C 32.171875 16.835938 32.132812 17.371094 32.074219 17.800781 C 31.886719 17.683594 31.625 17.519531 31.316406 17.613281 C 31.335938 17.316406 31.105469 17.074219 31.152344 16.824219 Z M 26.683594 26.472656 C 26.164062 27.027344 25.539062 27.488281 24.8125 27.886719 C 24.121094 28.265625 23.28125 28.660156 22.429688 28.78125 C 21.355469 28.9375 20.226562 28.757812 19.257812 28.566406 C 16.371094 27.992188 14.488281 26.429688 13.460938 24.027344 C 13.15625 24.367188 12.996094 24.835938 12.511719 24.894531 C 10.777344 25.121094 9.777344 22.097656 10.886719 20.902344 C 11.230469 20.53125 12.175781 20.359375 12.59375 20.847656 C 12.910156 21.777344 13.058594 22.820312 13.867188 23.320312 C 14.015625 23.414062 14.3125 23.605469 14.464844 23.457031 C 14.636719 23.28125 14.175781 22.402344 14.136719 22.042969 C 14.019531 20.9375 14.292969 19.695312 14.21875 18.507812 C 14.152344 17.378906 13.777344 16.496094 13.515625 15.710938 C 15.859375 13.949219 18.554688 12.539062 22.484375 12.367188 C 21.949219 12.675781 21.050781 12.917969 20.964844 13.644531 C 20.910156 14.132812 21.207031 14.6875 21.425781 15.058594 C 21.703125 14.925781 21.726562 14.714844 21.941406 14.542969 C 22.398438 14.171875 23.265625 13.917969 24 14.023438 C 24.195312 14.054688 24.464844 14.289062 24.675781 14.214844 C 24.863281 14.148438 25 13.332031 24.949219 13.101562 C 24.863281 12.710938 24.472656 12.683594 24.351562 12.476562 C 24.710938 12.511719 24.988281 12.636719 25.273438 12.746094 C 25.53125 13.714844 25.722656 14.515625 26.058594 15.273438 C 26.375 15.988281 26.964844 16.546875 27.46875 17.148438 C 28.492188 18.378906 29.308594 19.78125 28.929688 22.125 C 28.652344 23.859375 27.746094 25.335938 26.683594 26.472656 Z M 24.757812 28.429688 C 24.105469 28.960938 23.398438 29.4375 22.535156 29.761719 C 22.570312 29.523438 22.652344 29.335938 22.726562 29.136719 C 23.460938 28.949219 24.152344 28.71875 24.730469 28.375 C 24.800781 28.375 24.765625 28.394531 24.757812 28.429688 Z M 14.515625 26.71875 C 16.121094 28.289062 18.371094 29.210938 21.480469 29.273438 C 21.644531 29.417969 21.957031 29.554688 21.941406 29.789062 C 19.632812 29.871094 17.636719 29.585938 16.007812 28.972656 C 15.460938 28.769531 14.921875 28.574219 14.515625 28.210938 C 14.5 27.679688 14.546875 27.1875 14.515625 26.71875 Z M 24 30.304688 C 23.4375 31.082031 22.722656 31.820312 21.96875 32.425781 C 21.222656 32.1875 20.421875 32.003906 19.503906 31.9375 C 19.714844 31.269531 19.53125 30.640625 19.015625 30.441406 C 17.96875 30.039062 16.3125 30.621094 16.957031 31.9375 C 12.628906 32.332031 10.285156 34.71875 9.667969 38.839844 C 9.546875 38.585938 9.523438 38.269531 9.503906 38.023438 C 9.476562 37.683594 9.480469 37.34375 9.503906 36.964844 C 9.625 35.148438 10.128906 33.457031 10.914062 32.015625 C 11.707031 30.5625 12.742188 29.339844 13.894531 28.539062 C 13.917969 28.535156 13.917969 28.550781 13.921875 28.566406 C 14.683594 29.542969 16.363281 29.945312 18.066406 30.195312 C 19.601562 30.425781 21.476562 30.609375 22.890625 30.304688 C 23.484375 30.175781 24.011719 29.734375 24.488281 29.460938 C 24.386719 29.769531 24.191406 30.039062 24 30.304688 Z M 17.390625 31.203125 C 17.65625 30.71875 18.917969 30.75 19.097656 31.3125 C 19.15625 31.503906 19.097656 31.679688 18.960938 31.9375 C 18.621094 32.152344 17.742188 32.1875 17.46875 31.910156 C 17.316406 31.75 17.285156 31.386719 17.390625 31.203125 Z M 25.382812 36.339844 C 25.960938 37.46875 26.417969 38.773438 26.167969 40.414062 C 23.917969 41.023438 21.046875 41.257812 18.203125 41.257812 C 15.367188 41.257812 12.507812 41.015625 10.265625 40.414062 C 10.019531 37.863281 11.046875 35.875 12.429688 34.519531 C 13.582031 33.386719 15.203125 32.652344 17.0625 32.535156 C 17.453125 32.507812 17.832031 32.558594 18.203125 32.5625 C 19.441406 32.566406 20.496094 32.589844 21.453125 32.941406 C 23.15625 33.570312 24.558594 34.734375 25.382812 36.339844 Z M 26.765625 40.46875 C 27.535156 40.640625 28.382812 40.730469 28.875 41.175781 C 28.570312 41.597656 27.96875 41.710938 27.441406 41.828125 C 25.785156 42.203125 23.789062 42.324219 21.859375 42.453125 C 19.386719 42.621094 16.671875 42.535156 14.164062 42.398438 C 12.3125 42.300781 10.515625 42.183594 8.882812 41.800781 C 8.398438 41.6875 7.847656 41.566406 7.554688 41.175781 C 8.054688 40.742188 8.886719 40.648438 9.640625 40.46875 C 9.785156 40.480469 9.597656 40.65625 9.695312 40.714844 C 10.769531 41.300781 12.203125 41.367188 13.652344 41.53125 C 15.117188 41.695312 16.65625 41.691406 18.203125 41.691406 C 19.746094 41.691406 21.292969 41.703125 22.753906 41.53125 C 24.214844 41.359375 25.636719 41.304688 26.738281 40.742188 C 26.871094 40.675781 26.691406 40.546875 26.765625 40.46875 Z M 21.398438 44.167969 C 20.625 44.535156 19.792969 45.023438 18.988281 45.171875 C 17.726562 45.40625 16.484375 44.972656 15.765625 44.464844 C 16.0625 44.394531 16.394531 44.519531 16.738281 44.492188 C 16.191406 44.175781 15.515625 43.980469 15.03125 43.597656 C 15.367188 43.597656 15.675781 43.570312 15.980469 43.542969 C 15.636719 43.386719 15.1875 43.339844 14.84375 43.1875 C 17.199219 43.277344 19.636719 43.347656 21.996094 43.132812 C 21.660156 43.386719 21.246094 43.558594 20.9375 43.839844 C 21.886719 43.710938 22.5 43.015625 23.675781 43.023438 C 23.007812 43.363281 22.230469 43.769531 21.398438 44.167969 Z M 18.390625 45.90625 C 14.957031 46.835938 12.203125 44.78125 10.914062 42.808594 C 11.484375 42.914062 12.109375 42.96875 12.730469 43.023438 C 13.027344 43.523438 13.980469 43.363281 14.355469 43.785156 C 14.742188 45.40625 16.382812 46.164062 18.417969 45.847656 C 18.4375 45.847656 18.453125 45.847656 18.472656 45.847656 C 18.628906 45.886719 18.382812 45.855469 18.390625 45.90625 Z M 14.03125 22.992188 C 13.714844 22.847656 13.558594 22.542969 13.378906 22.261719 C 13.234375 21.210938 13.019531 20.035156 12.050781 19.785156 C 11.625 19.675781 11.125 19.816406 10.832031 20.058594 C 10.804688 19.835938 10.535156 19.628906 10.535156 19.378906 C 10.535156 19.144531 10.9375 18.707031 11.105469 18.453125 C 11.5 17.855469 11.945312 17.261719 12.402344 16.769531 C 12.679688 16.472656 12.957031 16.238281 13.21875 15.980469 C 13.238281 15.976562 13.242188 15.992188 13.242188 16.007812 C 13.625 17.164062 13.800781 18.664062 13.730469 20.195312 C 13.6875 21.191406 13.726562 22.214844 14.03125 22.992188 Z M 23.511719 12.53125 C 24.027344 12.582031 24.433594 12.839844 24.675781 13.15625 C 24.648438 13.421875 24.582031 13.65625 24.542969 13.914062 C 23.382812 13.472656 22.054688 14.019531 21.453125 14.648438 C 21.394531 14.277344 21.167969 13.976562 21.261719 13.589844 C 21.382812 13.09375 22.605469 12.441406 23.511719 12.53125 Z M 10.101562 18.074219 C 10.054688 17.390625 9.75 16.585938 9.53125 15.925781 C 9.390625 15.496094 9.183594 14.929688 8.992188 14.433594 C 8.917969 14.246094 8.792969 14.035156 8.800781 13.941406 C 8.816406 13.714844 9.359375 13.234375 9.585938 12.992188 C 10.414062 12.109375 11.40625 11.371094 12.484375 10.761719 C 14.0625 9.875 15.644531 9.1875 17.496094 8.804688 C 19.21875 9.671875 22.125 10.015625 24.488281 9.511719 C 24.679688 10.382812 24.886719 11.230469 25.082031 12.09375 C 24.164062 11.949219 23.316406 11.816406 22.183594 11.878906 C 19.308594 12.039062 16.914062 12.941406 14.871094 14.132812 C 12.835938 15.320312 11.242188 17.078125 10.238281 19.078125 C 9.96875 18.792969 10.125 18.398438 10.101562 18.074219 Z M 6.390625 15.683594 C 5.253906 15.390625 4.378906 14.757812 4.058594 13.699219 C 3.605469 12.199219 4.585938 11.109375 5.332031 10.328125 C 5.042969 7.347656 6.0625 5.136719 7.71875 3.667969 C 9.644531 1.960938 12.820312 0.839844 16.117188 1.820312 C 15.71875 2 15.226562 2.085938 14.816406 2.257812 C 15.457031 2.441406 16.050781 2.199219 16.605469 2.039062 C 18.382812 1.523438 20.101562 1.132812 22.292969 0.871094 C 23.351562 0.742188 24.554688 0.886719 25.464844 1.085938 C 27.328125 1.5 28.597656 2.609375 28.742188 4.703125 C 28.832031 6.050781 28.425781 7.34375 27.847656 8.316406 C 27.273438 9.28125 26.550781 10.046875 25.515625 10.492188 C 25.464844 10.054688 25.355469 9.675781 25.273438 9.269531 C 25.605469 9.066406 25.886719 8.867188 26.167969 8.589844 C 27.015625 7.742188 27.878906 6.421875 27.710938 4.730469 C 27.214844 7.808594 25.101562 9.375 21.535156 9.105469 C 20.074219 8.992188 18.871094 8.503906 17.632812 8.070312 C 16.402344 7.644531 15.148438 7.140625 13.703125 7.066406 C 12.375 7 11.375 7.34375 10.5625 7.828125 C 11.050781 7.816406 11.527344 7.652344 12.050781 7.609375 C 13.710938 7.476562 15.300781 7.78125 16.414062 8.34375 C 15.15625 8.730469 13.949219 9.171875 12.917969 9.785156 C 11.925781 9.910156 11.457031 9.511719 10.996094 9.105469 C 11.164062 9.679688 11.570312 10.011719 12.105469 10.21875 C 11.730469 10.503906 11.191406 10.816406 10.75 11.144531 C 10.601562 11.257812 10.476562 11.417969 10.34375 11.46875 C 9.582031 11.761719 8.699219 11.417969 8.125 11.144531 C 8.222656 11.679688 8.9375 11.929688 9.667969 11.984375 C 9.707031 12.136719 9.503906 12.234375 9.398438 12.339844 C 9.066406 12.671875 8.734375 13.125 8.476562 13.535156 C 7.898438 13.925781 6.84375 14.0625 6.117188 13.726562 C 6.363281 14.414062 7.535156 14.398438 8.257812 14.160156 C 8.519531 15.042969 8.863281 15.835938 9.125 16.714844 C 7.789062 16.796875 6.929688 16.402344 6.390625 15.683594 Z M 35.351562 37.96875 C 35.082031 37.152344 34.703125 36.457031 34.457031 35.742188 C 37 36.605469 40.152344 35.5625 41.203125 34.027344 C 42.316406 32.410156 42.007812 29.226562 41.53125 27.097656 C 41.144531 25.386719 40.617188 23.949219 40.175781 22.339844 C 40.023438 21.785156 39.914062 21.125 39.6875 20.792969 C 39.503906 20.523438 39.167969 20.339844 38.957031 20.140625 C 39.339844 18.757812 39.019531 17.175781 38.550781 15.792969 C 38.371094 15.261719 38.175781 14.761719 38.007812 14.269531 C 37.832031 13.753906 37.65625 13.183594 37.410156 12.800781 C 37.152344 12.398438 36.621094 11.980469 36.003906 12.257812 C 35.6875 11.667969 35.152344 10.425781 34.105469 10.761719 C 33.902344 10.828125 33.796875 11.023438 33.617188 11.171875 C 33.109375 10.324219 31.960938 10.375 31.476562 11.0625 C 30.894531 11.894531 31.355469 13.089844 31.722656 13.808594 C 31 13.984375 30.480469 14.421875 30.285156 15.085938 C 30.0625 15.847656 30.3125 16.792969 30.449219 17.640625 C 30.082031 18.125 29.914062 19.476562 30.042969 20.304688 C 30.121094 20.8125 30.523438 21.179688 30.855469 21.390625 C 31.039062 21.507812 31.242188 21.535156 31.421875 21.636719 C 31.71875 21.792969 31.933594 22.085938 32.261719 22.207031 C 32.054688 22.445312 31.984375 22.761719 32.019531 23.183594 C 32.113281 24.339844 32.550781 25.550781 32.777344 26.527344 C 31.667969 25.773438 30.464844 25.117188 28.957031 24.761719 C 29.660156 23.429688 30.140625 21.535156 29.824219 19.707031 C 29.570312 18.214844 28.5625 17.101562 27.765625 16.144531 C 27.476562 15.796875 27.132812 15.464844 26.925781 15.085938 C 26.34375 14.015625 26.144531 12.601562 25.761719 11.386719 C 26.816406 10.847656 27.707031 10.152344 28.363281 9.1875 C 29.003906 8.238281 29.519531 7.011719 29.609375 5.597656 C 29.824219 2.109375 27.765625 0.4375 24.785156 0.109375 C 24.121094 0.0351562 23.363281 0 22.589844 0 C 21.855469 0 21.132812 0.121094 20.476562 0.21875 C 19.503906 0.359375 18.511719 0.566406 17.605469 0.816406 C 17.300781 0.898438 16.949219 1.089844 16.710938 1.085938 C 16.5625 1.085938 16.34375 0.996094 16.171875 0.953125 C 15.644531 0.808594 15.019531 0.65625 14.410156 0.625 C 11.570312 0.472656 9.554688 1.214844 7.933594 2.390625 C 5.929688 3.847656 4.429688 5.890625 4.464844 9.324219 C 4.46875 9.535156 4.539062 9.816406 4.492188 10.003906 C 4.464844 10.113281 4.292969 10.242188 4.195312 10.355469 C 3.5 11.152344 2.796875 12.386719 3.191406 13.863281 C 3.515625 15.0625 4.417969 15.828125 5.414062 16.28125 C 5.554688 16.34375 5.746094 16.386719 5.902344 16.472656 C 6.078125 16.566406 6.191406 16.765625 6.335938 16.878906 C 7 17.40625 7.859375 17.648438 9.125 17.585938 C 9.222656 18.453125 9.15625 19.207031 9.585938 19.730469 C 9.796875 19.988281 10.097656 20.148438 10.128906 20.519531 C 8.898438 22.269531 9.945312 25.339844 11.808594 25.738281 C 12.351562 25.855469 12.890625 25.703125 13.21875 25.519531 C 13.316406 25.808594 13.699219 25.992188 13.757812 26.335938 C 13.824219 26.71875 13.621094 27.15625 13.703125 27.667969 C 11.039062 29.488281 8.894531 32.660156 8.636719 36.882812 C 8.570312 38.023438 8.710938 38.917969 8.910156 39.789062 C 8.191406 39.929688 7.203125 40.203125 6.851562 40.742188 C 6.269531 41.632812 7.484375 42.246094 8.070312 42.425781 C 8.710938 42.625 9.324219 42.738281 9.992188 42.835938 C 10.710938 44.070312 11.441406 44.894531 12.566406 45.632812 C 13.648438 46.347656 14.878906 47.019531 16.578125 47.019531 C 18.773438 47.019531 19.914062 46.082031 21.074219 45.117188 C 21.347656 44.890625 21.609375 44.613281 21.914062 44.4375 C 22.421875 44.144531 23.121094 43.945312 23.730469 43.675781 C 24.023438 43.546875 24.335938 43.410156 24.625 43.269531 C 24.917969 43.125 25.183594 42.910156 25.464844 42.808594 C 25.792969 42.683594 26.246094 42.632812 26.65625 42.5625 C 27.074219 42.488281 27.476562 42.382812 27.820312 42.292969 C 28.433594 42.132812 29.617188 41.816406 29.582031 41.148438 C 29.558594 40.683594 28.789062 40.457031 28.390625 40.308594 C 27.839844 40.101562 27.253906 39.992188 26.816406 39.84375 C 26.867188 37.792969 26.234375 36.292969 25.410156 35.089844 C 24.671875 34.011719 23.710938 33.179688 22.535156 32.640625 C 23.734375 31.605469 24.6875 30.324219 25.410156 28.808594 C 26.550781 27.851562 27.507812 26.710938 28.46875 25.574219 C 30.339844 25.960938 31.78125 26.757812 33.023438 27.832031 C 33.183594 27.96875 33.476562 28.191406 33.507812 28.320312 C 33.550781 28.492188 33.476562 28.78125 33.484375 29 C 33.539062 30.667969 33.886719 31.941406 34.621094 32.941406 C 34.421875 32.070312 34.359375 31.066406 34.1875 30.167969 C 34.378906 30.457031 34.570312 30.746094 34.785156 31.011719 C 34.78125 31.027344 34.804688 31.042969 34.808594 31.011719 C 34.382812 29.675781 34.132812 28.152344 33.726562 26.71875 C 33.445312 25.722656 33.101562 24.652344 32.914062 23.511719 C 32.859375 23.1875 32.726562 22.625 33.15625 22.558594 C 32.898438 23.296875 33.3125 23.925781 33.753906 24.21875 C 35.296875 25.238281 38.515625 24.410156 38.929688 22.75 C 39.058594 22.230469 38.867188 21.585938 38.683594 21.28125 C 38.617188 21.167969 38.410156 21.0625 38.523438 20.875 C 39.058594 21.113281 39.0625 21.628906 39.253906 22.289062 C 39.945312 24.683594 40.867188 27.222656 41.070312 29.898438 C 41.132812 30.746094 41.105469 31.546875 40.988281 32.207031 C 40.640625 34.171875 38.832031 35.03125 36.734375 35.171875 C 35.523438 35.25 34.761719 34.914062 33.890625 34.570312 C 33.082031 32.96875 32.128906 31.40625 31.015625 30.113281 C 30.644531 29.683594 30.328125 29.148438 29.769531 28.945312 C 31.429688 31.171875 32.511719 33.640625 33.671875 36.230469 C 34.207031 37.421875 34.675781 38.59375 34.921875 39.984375 C 35.171875 39.722656 35.417969 39.453125 35.652344 39.175781 C 35.574219 38.757812 35.480469 38.355469 35.351562 37.96875 " fill-opacity="1" fill-rule="nonzero"/></g></svg>